<svg xmlns="http://www.w3.org/2000/svg" fill="none" viewBox="0 0 16 16">
    <path fill="#175DDC" d="M2.685 12.43a.815.815 0 1 1 0-1.63.815.815 0 0 1 0 1.63Z" />
    <path fill="#175DDC" fill-rule="evenodd"
        d="M5.254 7.381a4 4 0 1 1 4.276 0c.963.357 1.81.95 2.47 1.705.176.196.332.375.44.527l1.784-.002L16 11.319l-2.5 2.231-1-1-1 1-1-1-1 .96-2.987-.004a3.602 3.602 0 0 1-3.01 1.493C1.527 14.96-.04 13.36.001 11.425.043 9.493 1.679 7.96 3.656 8.002c.112.002.223.01.333.022a7.03 7.03 0 0 1 .338-.206c.294-.17.604-.316.927-.436Zm1.344 2.237 4.516-.004a4.69 4.69 0 0 0-.57-.528A5.088 5.088 0 0 0 7.393 8a5.11 5.11 0 0 0-2.077.438c.522.283.963.69 1.283 1.18ZM4.392 4a3 3 0 1 0 6 0 3 3 0 0 0-6 0ZM6 12.505l-.3.418A2.602 2.602 0 0 1 3.524 14c-1.445-.03-2.553-1.193-2.523-2.552.03-1.36 1.188-2.476 2.634-2.446.903.018 1.68.483 2.126 1.164l.296.453 7.765-.007.707.68-.99.884-1.039-1.04-1 1-.986-.985-1.416 1.36L6 12.504Z"
        clip-rule="evenodd" />
</svg>