<svg xmlns="http://www.w3.org/2000/svg" fill="none" viewBox="0 0 20 20">
  <rect width="20" height="20" fill="#fff" rx="4" />
  <path fill="#479DFF"
    d="m14.924 10.2 1.09-1.892.87-1.508a7.43 7.43 0 0 0-2.509-2.648L12.16 7.99a4.43 4.43 0 0 0 0 4.428l2.393 4.141A7.401 7.401 0 0 0 17 13.801l-2.076-3.6Z" />
  <path fill="#00438F"
    d="M10.408 3c-.167 0-.335 0-.499.018L8.017 6.296H4.242A7.346 7.346 0 0 0 3.02 9.798h4.46a4.435 4.435 0 0 0 3.837-2.215l2.24-3.881A7.365 7.365 0 0 0 10.407 3Z" />
  <path fill="#077BFF"
    d="M11.318 12.901a4.426 4.426 0 0 0-3.832-2.216L3 10.68a7.322 7.322 0 0 0 1.02 3.5h3.997l1.091 1.893 1.003 1.746h.297a7.353 7.353 0 0 0 3.302-.776L11.318 12.9Z" />
</svg>