<svg xmlns="http://www.w3.org/2000/svg" fill="none" viewBox="0 0 20 20">
  <rect width="20" height="20" fill="#fff" rx="4" />
  <path fill="#5B87DA"
    d="M6.301 13.901h1.054L10.271 6H9.217l-2.916 7.901ZM4 13.901h1.057L7.973 6H6.919L4 13.901ZM15.79 12.668c-.19 0-.282-.046-.35-.245L13.068 6h-1.551L8.6 13.904h.892c.564 0 .758-.145.938-.647l.497-1.382h2.712l.5 1.382c.18.5.384.647.95.647h1.098v-1.236h-.398Zm-4.522-1.993.69-1.982c.147-.433.317-1.182.317-1.182h.024s.17.75.316 1.182l.69 1.982h-2.037Z" />
</svg>