<svg xmlns="http://www.w3.org/2000/svg" xml:space="preserve" style="enable-background:new 0 0 482 364" version="1.0" viewBox="0 0 482 364"><path d="M163.5 65h155C342 65 361 84 361 107.5v149c0 23.5-19 42.5-42.5 42.5h-155c-23.5 0-42.5-19-42.5-42.5v-149C121 84 140 65 163.5 65z" style="fill:#fa0f00"/><path d="M307.6 241h-28.5c-2.5 0-4.8-1.4-5.8-3.8l-30.9-72.4c-.2-.7-1-1.1-1.7-.9-.4.1-.8.5-.9.9l-19.3 45.9c-.4.8 0 1.8.9 2.1.2.1.4.1.6.1h21.2c1.3 0 2.5.8 3 2l9.3 20.7c.8 1.9-.1 4.2-2 5-.5.2-1 .3-1.5.3h-77.2c-1.9 0-3.5-1.6-3.5-3.5 0-.5.1-.9.3-1.4l49.1-116.9c1-2.5 3.5-4.2 6.2-4.1h28.3c2.7 0 5.2 1.6 6.2 4.1L310.8 236c.8 1.8-.1 3.9-1.8 4.6-.5.2-.9.3-1.4.4z" style="fill:#fff"/></svg>