<svg xmlns="http://www.w3.org/2000/svg" fill="none" viewBox="0 0 20 20">
  <rect width="20" height="20" fill="#FA0F00" rx="4" />
  <path fill="#fff"
    d="M15.7 15h-2.4465c-.2146 0-.412-.1222-.4978-.3317l-2.6525-6.32046c-.0172-.06111-.0858-.09603-.14592-.07857-.03434.00873-.06867.04365-.07725.07857L8.22332 12.3548c-.03434.0699 0 .1572.07725.1834.01717.0087.03434.0087.05151.0087h1.81982c.1116 0 .2146.0698.2575.1746l.7983 1.8071c.0687.1659-.0086.3666-.1717.4365-.0429.0174-.0858.0262-.1287.0262H4.30044c-.1631 0-.30044-.1397-.30044-.3056 0-.0436.00858-.0785.02575-.1222L8.24048 4.35829c.08584-.21825.30044-.36665.53221-.35792H11.202c.2317 0 .4463.13967.5322.35792l4.2404 10.20521c.0687.1571-.0085.3405-.1545.4016-.0429.0174-.0772.0262-.1201.0349Z" />
</svg>