<svg xmlns="http://www.w3.org/2000/svg" fill="none" viewBox="0 0 20 20">
  <rect width="20" height="20" fill="#fff" rx="4" />
  <mask id="mask0_99_357" width="14" height="11" x="3" y="5" maskUnits="userSpaceOnUse"
    style="mask-type:luminance">
    <path fill="#fff" d="M17 5H3v10.263h14V5Z" />
  </mask>
  <g mask="url(#mask0_99_357)">
    <path fill="#4A4AF4"
      d="M5.285 15.082a5.591 5.591 0 0 1-.92-3.079 5.635 5.635 0 0 1 5.628-5.629 5.635 5.635 0 0 1 5.63 5.63 5.6 5.6 0 0 1-.92 3.079h1.575c.457-.93.715-1.975.715-3.08 0-3.86-3.14-6.999-6.999-6.999-3.859 0-6.999 3.14-6.999 7 0 1.104.258 2.149.715 3.079h1.575Z" />
    <path fill="#000"
      d="M10.088 8.677c-1.025 0-2.205.483-2.845.994l.584 1.231c.514-.47 1.344-.871 2.093-.871.712 0 1.104.238 1.104.717 0 .323-.26.505-.752.55-1.847.17-3.282.746-3.282 2.163 0 1.125.81 1.804 2.143 1.804.893 0 1.593-.496 1.971-1.15v.967h1.663V11.03c0-1.673-1.163-2.353-2.679-2.353Zm-.485 5.289c-.54 0-.835-.23-.835-.61 0-.789.965-.98 2.222-.98 0 .827-.554 1.59-1.387 1.59Z" />
  </g>
</svg>