<svg xmlns="http://www.w3.org/2000/svg" fill="none" viewBox="0 0 20 20">
  <g clip-path="url(#clip0_101_391)">
    <rect width="20" height="20" fill="#01A7E1" rx="4" />
    <path fill="#fff"
      d="m8.113 19.7-.031.304h5.79l.14-.492c.166-.834.406-2.711.457-3.504.05-.77.152-2.996.152-3.996l-.055-1.024L14.5 10l-.148-.957-.16-1.047-.239-.984-.547-1.489-.492-.937-.973-1.078-.941-.43-1.006-.006-.026 1.238-.027 1.884.009 2.203-.326 4.062-.035 2.277-.717 3.03-.759 1.933Z" />
    <path fill="#fff"
      d="M5.081 12.07c-.311.252-.88.652-.88 1.175 0 .55.573 1.12 1.928 1.12 1.153 0 2.667-1.204 3.397-1.802.223-1.537-1.482-6.453-2.565-6.642-.184.646-.416 1.967-1.064 2.693-.663.742-1.63 1.322-2.31 1.8-.347.217-.587.559-.587.924 0 .313.162.531.395.531.121 0 .218-.031.31-.06.104-.033.21-.067.37-.067.312 0 .754.179 1.006.327ZM8.106 19.524c-.206.54.055.767.506.767.928-2.144 1.515-5.174 1.688-7.125-.29-.033-.57-.066-.774-.088 0 2.73-.646 4.565-1.42 6.446Z" />
    <path fill="#fff"
      d="M8.612 20.29h2.022c.724-2.158.796-6.573.796-7.006a29.47 29.47 0 0 1-1.13-.118c-.173 1.951-.76 4.981-1.688 7.125Z" />
    <path fill="#fff"
      d="M10.634 20.29h.266c.658-2.014.775-6.544.777-6.94-.146-.023-.236-.066-.247-.067 0 .434-.072 4.848-.796 7.008Z" />
    <path fill="#fff"
      d="M10.9 20.29h.115c.63-1.956.769-6.541.772-6.925l-.11-.015c0 .396-.119 4.926-.777 6.94Z" />
    <path fill="#fff"
      d="M11.015 20.29h.011c.627-1.95.768-6.54.772-6.924h-.011c-.005.384-.142 4.97-.772 6.926v-.001Z" />
    <path fill="#fff"
      d="M11.027 20.29h.022c.623-1.94.768-6.54.774-6.921-.008 0-.017 0-.025-.005-.005.384-.145 4.973-.771 6.924v.003Z" />
    <path fill="#fff"
      d="M11.048 20.29H12.4c.305-1.285.698-6.552.728-6.823-.054-.007-.798-.039-1.305-.098-.006.381-.15 4.981-.775 6.922Z" />
    <path fill="#fff"
      d="M12.4 20.291c.305-1.286.698-6.552.728-6.824.05.007.116.014.195.021 0 .737-.298 5.308-.57 6.803H12.4Z" />
    <path fill="#fff"
      d="M12.753 20.29h.412c.12-.851.232-2.246.312-3.578a.913.913 0 0 1-.338-.107c-.108 1.421-.25 2.938-.386 3.686Z" />
    <path fill="#fff"
      d="M13.14 16.605a.896.896 0 0 0 .337.108c.08-1.331.127-2.6.114-3.201l-.268-.024c0 .368-.076 1.695-.183 3.117Z" />
    <path fill="#fff"
      d="M13.165 20.29c.307 0 .508-.07.64-.188.149-.977.22-2.137.26-3.29-.155-.035-.35-.091-.588-.1-.08 1.332-.193 2.727-.312 3.579Z" />
    <path fill="#FBFCFD"
      d="M13.477 16.713c.238.008.433.064.589.099.02-.577.032-1.152.042-1.701-.166-.127-.348-.26-.539-.272-.02.559-.052 1.208-.092 1.874Z" />
    <path fill="#F9FBFD"
      d="M13.569 14.839c.19.012.373.145.538.272.01-.55.018-1.073.03-1.547-.186-.02-.377-.037-.547-.052.007.3 0 .768-.021 1.327Z" />
    <path fill="#fff"
      d="M13.805 20.102c.132-.118.194-.28.224-.464.179-1.1.304-1.954.399-2.858-.088.08-.206.066-.363.031-.04 1.154-.111 2.314-.26 3.29Z" />
    <path fill="#EEF2F8"
      d="M14.066 16.812a.85.85 0 0 0 .207.027c.029-.507.05-1.021.07-1.557-.074-.045-.152-.108-.235-.171-.01.549-.022 1.123-.043 1.7Z" />
    <path fill="#E4EAF4"
      d="M14.107 15.11c.083.064.162.127.237.172.02-.536.038-1.094.062-1.687a8.709 8.709 0 0 0-.27-.031c-.01.474-.019.997-.028 1.547Z" />
    <path fill="#E3E9F3"
      d="M14.273 16.839a.22.22 0 0 0 .154-.059c.048-.452.088-.915.123-1.428-.064.005-.133-.025-.207-.07-.02.536-.041 1.05-.07 1.557Z" />
    <path fill="#D3DCEC"
      d="M14.344 15.282a.373.373 0 0 0 .206.07c.034-.512.064-1.074.094-1.722a4.818 4.818 0 0 0-.239-.035c-.023.593-.041 1.151-.061 1.687Z" />
    <path fill="#fff"
      d="M9.525 13.078c.507.054 1.473.176 1.905.205 0-.196 0-.358-.005-.5-.448.022-1.363.066-1.904-.102.005.12.006.24.006.397h-.002Z" />
    <path fill="#fff"
      d="M9.522 12.681c.54.168 1.456.124 1.903.101a5.895 5.895 0 0 0-.023-.379c-.463.075-1.333.143-1.907-.137.016.17.024.294.027.415Z" />
    <path fill="#fff"
      d="M9.495 12.266c-.033-.337-.072-.418-.127-.72.317.269.673.356 1.01.363.06.266.086.287.112.559-.347-.009-.708-.062-.995-.202Z" />
    <path fill="#F4F7FB"
      d="M10.49 12.468c.347.009.681-.027.912-.064-.01-.104-.025-.201-.045-.301-.239.047-.567.097-.911.083.017.072.03.146.044.282Z" />
    <path fill="#EEF3F8"
      d="M10.446 12.186c.344.014.672-.036.911-.083-.02-.1-.045-.203-.077-.319-.246.057-.565.131-.902.124.029.133.05.205.068.278Z" />
    <path fill="#fff"
      d="M11.43 13.284c.011 0 .101.044.247.066l.023-.476c-.144-.01-.25-.074-.274-.07.005.137.004.293.004.48Z" />
    <path fill="#FBFCFD"
      d="M11.425 12.803c.025-.005.131.06.275.07.006-.152.013-.3.014-.44-.14.014-.255-.009-.309.005.01.11.016.23.02.367v-.002Z" />
    <path fill="#EFF3F9"
      d="M11.405 12.436c.055-.011.17.011.309-.006 0-.14 0-.275-.013-.403-.134.04-.257.07-.341.089.02.105.035.207.045.318v.002Z" />
    <path fill="#E4EAF4"
      d="M11.36 12.118a4.94 4.94 0 0 0 .341-.09 2.486 2.486 0 0 0-.055-.364 2.942 2.942 0 0 1-.366.12c.034.122.06.23.08.334Z" />
    <path fill="#fff"
      d="M11.677 13.35c.025.005.052.007.08.011.009-.158.021-.317.031-.476-.029 0-.06-.01-.088-.01l-.023.475Z" />
    <path fill="#FAFCFD"
      d="M11.7 12.874c.027 0 .06.01.089.01.01-.157.02-.313.025-.464-.033.007-.067.007-.1.013 0 .14-.007.288-.014.44Z" />
    <path fill="#EEF1F7"
      d="M11.714 12.433c.033-.006.067-.006.1-.012.006-.15.006-.296 0-.432l-.112.04c.01.128.013.263.012.404Z" />
    <path fill="#E1E7F2"
      d="m11.701 12.029.113-.04a2.301 2.301 0 0 0-.045-.375c-.04.017-.08.034-.123.05.028.115.044.237.055.365Z" />
    <path fill="#fff"
      d="M11.756 13.36c.014 0 .028.006.042.006.01-.155.024-.315.036-.476-.015 0-.03-.005-.046-.005l-.032.476Z" />
    <path fill="#FAFCFD"
      d="M11.789 12.886c.014 0 .03.006.045.005.013-.16.024-.322.03-.477-.017.005-.033.005-.05.007-.005.15-.015.307-.025.465Z" />
    <path fill="#EEF1F7"
      d="M11.814 12.42c.017-.005.034-.005.05-.007.007-.155.01-.305.006-.445a1.1 1.1 0 0 0-.055.022c.006.135.005.28 0 .43Z" />
    <path fill="#E1E7F2"
      d="M11.814 11.99a.974.974 0 0 1 .055-.022 2.34 2.34 0 0 0-.041-.381l-.06.027c.025.113.04.24.046.375Z" />
    <path fill="#fff"
      d="m11.798 13.366.19.021.042-.473c-.066 0-.133-.022-.195-.023-.013.16-.026.32-.037.475Z" />
    <path fill="#FAFCFD"
      d="M11.834 12.89c.063 0 .13.023.196.024.015-.171.03-.35.039-.525-.068.012-.136.011-.204.025-.007.155-.018.316-.03.477Z" />
    <path fill="#EEF1F7"
      d="M11.865 12.414c.068-.014.136-.013.204-.025.01-.175.016-.347.013-.5l-.213.079c.005.14 0 .29-.005.446Z" />
    <path fill="#E1E7F2"
      d="m11.869 11.968.213-.08c0-.155-.014-.293-.037-.402-.07.033-.14.067-.217.101.023.113.036.241.04.38Z" />
    <path fill="#fff"
      d="M11.988 13.387c.245.025.518.043.736.056.01-.104.027-.288.046-.511-.209-.011-.472-.027-.74-.018l-.042.473Z" />
    <path fill="#FAFCFD"
      d="M12.03 12.914c.268-.009.531.007.74.018.019-.224.04-.486.056-.75-.193.063-.439.128-.757.207-.01.174-.024.354-.04.525Z" />
    <path fill="#EDF0F7"
      d="M12.069 12.389c.318-.079.564-.144.757-.207a13.6 13.6 0 0 0 .03-.753 2.666 2.666 0 0 1-.774.46c0 .154-.005.325-.013.5Z" />
    <path fill="#E1E7F2"
      d="M12.082 11.888c.37-.15.596-.307.772-.459 0-.225-.01-.41-.036-.519a2.148 2.148 0 0 1-.773.577c.023.108.035.246.037.401Z" />
    <path fill="#fff"
      d="M12.724 13.443c.217.013.38.021.404.024l.054-.536c-.05.021-.204.012-.412 0-.019.223-.037.407-.046.51v.002Z" />
    <path fill="#FAFCFD"
      d="M12.77 12.932c.208.011.362.02.412 0 .026-.268.057-.605.082-.946a1.74 1.74 0 0 1-.438.197c-.016.264-.037.527-.056.75v-.001Z" />
    <path fill="#EDF0F7"
      d="M12.826 12.182a1.74 1.74 0 0 0 .438-.197c.026-.341.047-.688.054-.976-.163.125-.287.27-.463.42 0 .225-.013.49-.03.753Z" />
    <path fill="#DFE5F1"
      d="M12.855 11.43c.176-.152.3-.296.463-.42.007-.288 0-.517-.031-.624-.189.147-.304.331-.47.524.028.108.038.294.038.52Z" />
    <path fill="#fff"
      d="M13.128 13.468c.067.008.167.018.286.028.01-.12.034-.362.064-.666a.925.925 0 0 1-.296.1 48.58 48.58 0 0 1-.054.538Z" />
    <path fill="#F8FAFC"
      d="M13.182 12.93a.967.967 0 0 0 .296-.1c.03-.304.066-.67.095-1.039a1.58 1.58 0 0 1-.309.194c-.025.34-.056.677-.082.946Z" />
    <path fill="#FAFBFD"
      d="m13.414 13.496.402.035c.012-.232.035-.548.06-.903-.14.072-.278.146-.398.202-.03.304-.055.546-.064.666Z" />
    <path fill="#EFF3F9"
      d="M13.478 12.83c.12-.056.258-.13.398-.202.025-.355.052-.75.071-1.14a9.564 9.564 0 0 1-.374.303c-.03.369-.065.735-.095 1.04Z" />
    <path fill="#E9EEF6"
      d="M13.264 11.985c.084-.035.19-.105.309-.194.03-.368.053-.739.061-1.051-.113.11-.222.205-.316.27-.007.287-.028.633-.054.975Z" />
    <path fill="#D8E0EE"
      d="M13.318 11.01c.094-.065.204-.16.316-.27.008-.312 0-.566-.034-.702-.107.147-.214.27-.314.348.032.107.039.336.032.624Z" />
    <path fill="#DCE3EF"
      d="M13.573 11.791c.118-.088.247-.195.374-.303.02-.39.032-.776.029-1.114a6.366 6.366 0 0 1-.341.366c-.008.312-.032.683-.062 1.051Z" />
    <path fill="#CBD6E8"
      d="M13.634 10.74c.113-.11.23-.238.342-.366-.005-.338-.023-.628-.067-.826a5.389 5.389 0 0 1-.31.49c.035.136.043.39.035.702Z" />
    <path fill="#E6EBF4"
      d="M13.816 13.531c.144.014.294.028.436.045.017-.347.033-.738.045-1.146-.135.053-.279.125-.42.198-.025.355-.049.67-.061.903Z" />
    <path fill="#D7DFEE"
      d="M13.876 12.628c.142-.073.286-.145.421-.197.012-.408.02-.834.018-1.249-.113.09-.24.198-.368.306-.02.39-.046.785-.07 1.14Z" />
    <path fill="#C9D4E7"
      d="M14.253 13.576c.142.016.277.034.39.054.018-.398.023-.834.016-1.284a.936.936 0 0 0-.362.085c-.011.408-.027.798-.044 1.145Z" />
    <path fill="#B6C6DF"
      d="M14.297 12.43a.992.992 0 0 1 .362-.085 29.07 29.07 0 0 0-.053-1.362c-.076.037-.177.11-.29.2 0 .414-.007.84-.019 1.247Z" />
    <path fill="#C4D0E5"
      d="M13.947 11.488c.128-.108.255-.216.368-.306 0-.414-.01-.818-.032-1.183-.09.117-.196.247-.307.375.006.338-.01.724-.029 1.114Z" />
    <path fill="#B1C1DC"
      d="M13.976 10.374c.111-.128.217-.258.307-.375a7.348 7.348 0 0 0-.11-.952c-.075.155-.165.33-.263.501.043.198.063.488.066.826Z" />
    <path fill="#A0B5D5"
      d="M14.315 11.182c.114-.09.215-.162.29-.199-.027-.45-.065-.885-.11-1.28-.048.076-.123.18-.212.296.022.365.032.77.032 1.183Z" />
    <path fill="#90A8CC"
      d="M14.283 10c.09-.117.164-.221.213-.297a13.45 13.45 0 0 0-.152-1.04c-.037.094-.097.23-.172.384.053.26.088.587.11.952Z" />
    <path fill="#fff"
      d="M9.368 11.546c.317.269.672.356 1.01.363-.08-.407-.16-.726-.247-1.027a5.878 5.878 0 0 1-1.14-.822c.13.359.253.812.377 1.486Z" />
    <path fill="#fff"
      d="M8.991 10.06c.344.316.755.614 1.14.822-.087-.301-.18-.584-.288-.918a4.027 4.027 0 0 1-1.264-.822c.148.296.283.56.412.918Z" />
    <path fill="#ECF0F7"
      d="M10.378 11.909c.337.006.657-.068.902-.124-.038-.14-.1-.355-.17-.629-.237.048-.595-.067-.98-.274.087.3.167.62.248 1.027Z" />
    <path fill="#F3F6FA"
      d="M10.13 10.882c.385.207.743.323.98.274a14.24 14.24 0 0 1-.214-.979c-.228.04-.623-.036-1.053-.213.108.334.201.617.288.918Z" />
    <path fill="#DEE5F1"
      d="M11.28 11.784c.129-.03.325-.098.489-.17a9.62 9.62 0 0 1-.192-.61c-.174.07-.355.13-.467.152.07.274.132.49.17.628Z" />
    <path fill="#E8EDF5"
      d="M11.11 11.156c.112-.023.293-.082.467-.152a14.367 14.367 0 0 1-.233-.957c-.184.07-.353.115-.448.13.068.373.144.706.214.98Z" />
    <path fill="#DBE3EF"
      d="m11.769 11.614.112-.05a9.994 9.994 0 0 1-.184-.611l-.12.05a9.8 9.8 0 0 0 .192.61Z" />
    <path fill="#E4EAF4"
      d="m11.577 11.004.12-.052a15.192 15.192 0 0 1-.226-.955 2.892 2.892 0 0 1-.127.05c.076.365.158.69.233.957Z" />
    <path fill="#DBE3EF"
      d="m11.88 11.564.165-.077a8.48 8.48 0 0 1-.186-.607l-.163.072c.073.268.138.477.185.612Z" />
    <path fill="#E3E9F3"
      d="m11.697 10.952.162-.072a15.56 15.56 0 0 1-.227-.95 14.23 14.23 0 0 0-.161.067c.074.364.153.688.226.955Z" />
    <path fill="#DBE3EF"
      d="M12.045 11.487c.528-.246.736-.527.932-.773a3.494 3.494 0 0 1-.147-.485 3.19 3.19 0 0 1-.971.651c.072.265.138.473.186.607Z" />
    <path fill="#E2E8F2"
      d="M11.859 10.88a3.19 3.19 0 0 0 .97-.651c-.055-.222-.117-.5-.183-.815-.293.224-.66.372-1.014.516.075.362.154.685.227.95Z" />
    <path fill="#D6DFEE"
      d="M12.977 10.714c.095-.12.187-.232.31-.328-.061-.21-.132-.697-.237-1.34-.132.081-.247.247-.404.368.133.633.247 1.108.331 1.3Z" />
    <path fill="#CED8E9"
      d="M13.287 10.386a5.35 5.35 0 0 1-.101-.508c.095-.067.197-.194.299-.352.042.213.081.386.115.512a1.76 1.76 0 0 1-.313.348Z" />
    <path fill="#C1CEE3"
      d="M13.6 10.038a8.586 8.586 0 0 1-.115-.512c.101-.158.205-.347.302-.536.042.199.084.386.123.559a5.384 5.384 0 0 1-.31.489Z" />
    <path fill="#CAD5E8"
      d="M13.186 9.878c-.039-.228-.083-.51-.136-.832.09-.055.192-.155.296-.277.05.29.096.544.139.757-.102.158-.204.286-.3.352Z" />
    <path fill="#BBC9E1"
      d="M13.485 9.526c-.043-.213-.09-.467-.139-.757.105-.122.214-.266.317-.41.039.22.081.431.124.63-.097.19-.2.38-.302.537Z" />
    <path fill="#A9BBD8"
      d="M13.91 9.549c-.04-.173-.081-.36-.123-.56.096-.19.186-.38.263-.543.038.183.079.382.122.601-.075.155-.165.33-.262.502Z" />
    <path fill="#89A3C9"
      d="M14.172 9.047c-.043-.22-.084-.418-.122-.6.077-.163.141-.297.185-.372.03.158.063.347.11.588-.038.094-.098.23-.173.384Z" />
    <path fill="#A4B8D6"
      d="M13.787 8.99c-.043-.2-.085-.41-.124-.631.103-.144.2-.289.286-.411l.101.499c-.077.162-.167.353-.263.543Z" />
    <path fill="#87A2C8"
      d="M14.05 8.446a58.38 58.38 0 0 1-.101-.498c.085-.123.157-.223.207-.28.027.12.05.248.08.407a6 6 0 0 0-.186.371Z" />
    <path fill="#fff"
      d="M8.579 9.143c-.305-.611-1.06-1.892-1.552-2.64.425.467 1.263 1.054 2.049 1.52.245.48.544 1.25.767 1.94a4.027 4.027 0 0 1-1.264-.82Z" />
    <path fill="#FEFFFF"
      d="M9.843 9.964c.43.177.825.253 1.053.213a5.707 5.707 0 0 1-.1-.89c-.219.03-.751-.116-1.328-.373.134.34.264.704.375 1.05Z" />
    <path fill="#fff"
      d="M9.468 8.914c.577.257 1.11.403 1.329.373-.006-.217.006-.365.006-.472-.21.018-.942-.327-1.727-.792.122.24.259.552.392.891Z" />
    <path fill="#F7F9FC"
      d="M10.896 10.177c.1-.016.285-.066.481-.143a4.413 4.413 0 0 1-.041-.877 2.77 2.77 0 0 1-.54.13c.006.218.03.505.1.89Z" />
    <path fill="#fff"
      d="M10.797 9.287c.113-.013.331-.057.539-.13.013-.217.043-.366.057-.473-.22.071-.465.12-.59.13 0 .108-.012.256-.006.473Z" />
    <path fill="#F2F5FA"
      d="M11.378 10.034c.03-.011.062-.024.093-.038a4.262 4.262 0 0 1-.033-.876l-.102.037c-.013.216-.01.501.042.877Z" />
    <path fill="#FBFCFD"
      d="m11.336 9.157.102-.037c.017-.216.05-.366.066-.472l-.111.036c-.014.107-.044.256-.057.473Z" />
    <path fill="#F1F4F9"
      d="M11.471 9.997c.087-.037.175-.072.265-.109a3.936 3.936 0 0 1-.015-.862 4.865 4.865 0 0 0-.282.094 4.25 4.25 0 0 0 .032.877Z" />
    <path fill="#FBFCFD"
      d="M11.438 9.12c.107-.039.207-.072.283-.094.022-.214.06-.362.08-.465-.063.008-.17.045-.297.087-.016.106-.05.256-.066.472Z" />
    <path fill="#EEF1F7"
      d="M11.736 9.888c.16-.065.321-.134.475-.21a3.328 3.328 0 0 1-.02-.858c-.136.087-.288.16-.47.206-.022.214-.028.494.014.862Z" />
    <path fill="#F7F9FC"
      d="M11.721 9.026c.182-.046.334-.119.47-.206.023-.213.062-.362.068-.471a.809.809 0 0 1-.458.212c-.02.103-.058.251-.08.465Z" />
    <path fill="#E5EAF4"
      d="M12.211 9.677c.155-.076.303-.162.435-.263a4.967 4.967 0 0 1-.076-.884c-.12.102-.242.203-.379.29-.023.213-.032.49.02.857Z" />
    <path fill="#EFF3F9"
      d="M12.19 8.82c.137-.087.26-.188.38-.29 0-.227.015-.393.006-.51-.11.103-.202.225-.318.329-.005.11-.044.258-.067.471Z" />
    <path fill="#D8E0EE"
      d="M12.646 9.414c.157-.12.272-.287.404-.368a3.695 3.695 0 0 1-.047-.8c-.168.049-.296.169-.433.284 0 .228.012.518.075.884Z" />
    <path fill="#E2E8F2"
      d="M12.57 8.53c.137-.115.265-.235.433-.284.01-.203.033-.347.03-.438a.714.714 0 0 0-.457.213c.01.116-.006.281-.006.509Z" />
    <path fill="#C7D2E6"
      d="M13.05 9.046a3.695 3.695 0 0 1-.047-.8.994.994 0 0 0 .287-.178c0 .176.006.4.056.7a1.419 1.419 0 0 1-.296.278Z" />
    <path fill="#B7C6DF"
      d="M13.346 8.769c-.05-.3-.057-.525-.056-.7.1-.082.201-.18.298-.28.016.16.034.342.075.57a5.765 5.765 0 0 1-.317.41Z" />
    <path fill="#CED8E9"
      d="M13.003 8.246c.01-.203.034-.347.03-.438.09-.008.175-.065.259-.15.012.107 0 .234 0 .41a1 1 0 0 1-.287.178h-.002Z" />
    <path fill="#BDCBE2"
      d="M13.29 8.069c0-.176.014-.304 0-.41.083-.084.163-.194.239-.305.03.138.042.275.057.435-.097.1-.198.198-.297.28h.001Z" />
    <path fill="#A1B5D5"
      d="M13.663 8.359c-.041-.229-.06-.41-.075-.57.097-.1.19-.2.273-.284.03.145.056.287.088.443-.085.122-.183.266-.286.41Z" />
    <path fill="#86A1C7"
      d="M13.949 7.948c-.032-.156-.058-.297-.088-.442.083-.085.156-.153.213-.19.031.122.055.23.082.353-.05.056-.122.156-.207.279Z" />
    <path fill="#A7BAD8"
      d="M13.588 7.79c-.015-.16-.028-.298-.058-.436.076-.111.15-.224.22-.313.047.17.08.32.11.464-.083.085-.175.185-.272.284Z" />
    <path fill="#8AA4CA"
      d="M13.86 7.505a7.015 7.015 0 0 0-.11-.464c.07-.089.138-.154.203-.17.054.184.091.322.122.445-.058.036-.13.105-.214.19Z" />
    <path fill="#fff"
      d="M7.028 6.504c.848.932 3.354 2.347 3.775 2.31 0-.085-.02-.31-.052-.629-.596-.168-2.9-1.434-3.789-2.258-.049.272.031.525.066.577Z" />
    <path fill="#fff"
      d="M6.962 5.927c.889.824 3.192 2.09 3.788 2.258-.128-1.249-.45-3.927-.525-5.18-.735 0-1.703.289-2.205.863-.482.55-.917 1.274-1.058 2.059Z" />
    <path fill="#fff"
      d="M10.803 8.815c.112-.01.32-.05.521-.11-.044-.758-.522-4.097-.8-5.7-.125-.006-.206 0-.299 0 .094 1.572.578 5.388.578 5.81Z" />
    <path fill="#fff"
      d="m11.324 8.705.069-.021c-.055-.793-.539-4.074-.843-5.679h-.026c.278 1.604.756 4.943.8 5.701Z" />
    <path fill="#fff"
      d="M11.393 8.684c-.053-.792-.534-4.074-.837-5.678h-.006c.304 1.604.788 4.886.843 5.678Z" />
    <path fill="#fff"
      d="M11.393 8.684c.171-.054.328-.113.408-.123-.044-.519-.187-1.5-.374-2.552-.079 0-.236.115-.359.14.165 1.12.299 2.139.325 2.535Z" />
    <path fill="#fff"
      d="M11.068 6.15c.123-.026.28-.141.36-.141-.188-1.052-.42-2.176-.644-2.98a2.63 2.63 0 0 0-.228-.024c.151.803.347 2.024.512 3.144Z" />
    <path fill="#FEFFFF"
      d="M11.801 8.56c.311-.039.473-.215.63-.388a15.009 15.009 0 0 0-.121-1.195c-.174.236-.354.479-.642.508.064.442.11.817.133 1.076Z" />
    <path fill="#fff"
      d="M11.668 7.485c.289-.03.468-.272.642-.508-.059-.42-.136-.857-.231-1.295-.204.155-.413.32-.652.327.094.526.176 1.035.24 1.476Z" />
    <path fill="#fff"
      d="M11.427 6.009c.239-.008.448-.172.652-.327-.191-.877-.457-1.76-.799-2.533a2.753 2.753 0 0 0-.496-.12c.224.804.456 1.928.643 2.98Z" />
    <path fill="#F2F5FA"
      d="M12.431 8.172c.079-.086.155-.171.25-.238-.022-.45-.053-.873-.1-1.28a2.182 2.182 0 0 0-.27.323c.058.42.098.823.12 1.195Z" />
    <path fill="#FAFBFD"
      d="M12.31 6.977c.087-.118.173-.235.27-.323-.047-.407-.11-.797-.198-1.177a2.161 2.161 0 0 0-.303.205c.095.438.172.875.231 1.295Z" />
    <path fill="#E8EDF5"
      d="M12.68 7.934a.68.68 0 0 1 .352-.126 13.897 13.897 0 0 0-.11-1.305.532.532 0 0 0-.342.15c.048.407.08.831.1 1.28Z" />
    <path fill="#F0F3F9"
      d="M12.58 6.654a.52.52 0 0 1 .341-.151 7.533 7.533 0 0 0-.229-1.092.52.52 0 0 0-.31.066c.087.38.15.77.198 1.177Z" />
    <path fill="#FAFCFD"
      d="M12.079 5.682c.202-.155.4-.301.613-.271-.2-.686-.505-1.314-.964-2.053a2.29 2.29 0 0 0-.448-.209c.341.773.607 1.656.799 2.533Z" />
    <path fill="#D7DFEE"
      d="M13.032 7.808c-.042-.97-.139-1.712-.34-2.398.09.024.165.034.233.037.201.634.31 1.321.367 2.212-.084.084-.17.141-.26.149Z" />
    <path fill="#C7D2E6"
      d="M13.292 7.659c-.057-.891-.166-1.578-.367-2.212.067.006.126 0 .183 0 .2.575.333 1.19.422 1.908a2.248 2.248 0 0 1-.238.305v-.001Z" />
    <path fill="#E9EEF6"
      d="M12.692 5.41c-.2-.685-.505-1.313-.964-2.052.09.055.181.119.273.19.43.682.723 1.265.924 1.9a1.231 1.231 0 0 1-.233-.037Z" />
    <path fill="#DBE3EF"
      d="M12.925 5.447c.067.005.126 0 .183 0a7.077 7.077 0 0 0-.356-.84c-.063-.033-.13-.06-.203-.09.152.31.275.614.376.931Z" />
    <path fill="#E2E8F2"
      d="M12.55 4.515c.072.03.139.059.202.09a8.337 8.337 0 0 0-.477-.826A3.72 3.72 0 0 0 12 3.547c.215.342.395.658.548.968Z" />
    <path fill="#AEBFDB"
      d="M13.53 7.354a9.144 9.144 0 0 0-.422-1.908c.056 0 .11 0 .167.013.199.505.353 1.038.475 1.582-.07.09-.144.202-.22.313Z" />
    <path fill="#91A9CD"
      d="M13.75 7.041c.07-.089.138-.154.203-.17-.069-.233-.143-.46-.224-.684a.411.411 0 0 0-.187.048c.078.265.147.534.208.806Z" />
    <path fill="#9DB2D2"
      d="M13.542 6.235a.399.399 0 0 1 .186-.048 9.196 9.196 0 0 0-.266-.651.593.593 0 0 0-.186-.078c.1.253.187.513.266.777Z" />
    <path fill="#C4D0E5"
      d="M13.108 5.446a.6.6 0 0 1 .354.09 7.597 7.597 0 0 0-.316-.618 1.215 1.215 0 0 0-.393-.312c.137.275.254.553.355.84Z" />
    <path fill="#D1DAEB"
      d="M12.753 4.606c.129.064.25.147.394.311a6.75 6.75 0 0 0-.371-.58 3.925 3.925 0 0 0-.501-.558c.182.278.34.551.478.827Z" />
    <mask id="mask0_101_391" width="9" height="18" x="6" y="3" maskUnits="userSpaceOnUse"
      style="mask-type:luminance">
      <path fill="#fff"
        d="M8.105 19.525c-.206.54.055.767.506.767H13.165c.614 0 .805-.287.864-.653.358-2.2.5-3.419.616-6.009.071-1.592-.076-3.814-.3-4.97-.094-.48-.136-.755-.189-.993-.055-.247-.094-.428-.203-.799-.273-.93-.642-1.785-1.178-2.534a3.901 3.901 0 0 0-1.047-.979 2.606 2.606 0 0 0-1.178-.352h-.027c-.124-.006-.206 0-.298 0-.736 0-1.704.288-2.206.862-.482.55-.918 1.274-1.059 2.06-.049.272.032.526.066.577.491.747 1.247 2.028 1.552 2.64.296.59.542 1.054.789 2.403.055.301.095.383.127.72.032.34.03.497.03.812 0 2.731-.645 4.566-1.419 6.448Z" />
    </mask>
    <g mask="url(#mask0_101_391)">
      <mask id="mask1_101_391" width="7" height="8" x="7" y="4" maskUnits="userSpaceOnUse"
        style="mask-type:luminance">
        <path fill="#fff"
          d="M13.734 7.923c0 2.097-1.446 3.796-3.232 3.796-1.786 0-3.233-1.7-3.233-3.796 0-2.095 1.447-3.795 3.232-3.795 1.787 0 3.233 1.7 3.233 3.795Z" />
      </mask>
      <g mask="url(#mask1_101_391)">
        <path fill="#fff"
          d="M9.44 11.893c.302.204.662.28 1.007.293-.018-.073-.04-.145-.069-.277a1.564 1.564 0 0 1-1.01-.363c.027.15.051.247.072.347Z" />
        <path fill="#B3C4DD"
          d="M11.325 11.958a3.44 3.44 0 0 0 .355-.117c-.01-.06-.02-.12-.034-.177a2.937 2.937 0 0 1-.366.12c.017.061.032.119.045.174Z" />
        <path fill="#AEBFDB"
          d="M11.68 11.841c.04-.014.08-.032.118-.048a1.768 1.768 0 0 0-.03-.18 4.45 4.45 0 0 1-.122.051c.014.058.025.117.034.177Z" />
        <path fill="#ADBEDA"
          d="m11.798 11.794.057-.026a1.722 1.722 0 0 0-.028-.18l-.059.026c.013.057.023.116.03.18Z" />
        <path fill="#B5C5DE"
          d="m11.869 11.968.213-.08c0-.077-.005-.15-.01-.218-.07.03-.141.065-.217.097.006.064.011.13.014.2Z" />
        <path fill="#ADBEDA"
          d="M11.855 11.767c.076-.032.147-.066.217-.096a1.499 1.499 0 0 0-.027-.184c-.07.032-.14.066-.217.1.012.056.02.117.027.18Z" />
        <path fill="#D2DBEB"
          d="M12.069 12.389c.318-.079.564-.144.757-.207a13.6 13.6 0 0 0 .03-.753 2.666 2.666 0 0 1-.774.46c0 .154-.005.325-.013.5Z" />
        <path fill="#B4C4DD"
          d="M12.082 11.889c.37-.15.596-.308.773-.46 0-.112 0-.215-.008-.303-.17.182-.39.37-.775.545.005.067.01.14.01.218Z" />
        <path fill="#ABBDD9"
          d="M12.072 11.67c.385-.173.605-.362.775-.544a1.306 1.306 0 0 0-.03-.216 2.148 2.148 0 0 1-.772.577c.012.054.021.116.027.184Z" />
        <path fill="#D0DAEB"
          d="M12.826 12.182a1.74 1.74 0 0 0 .438-.197c.026-.341.047-.688.054-.976-.163.125-.287.27-.463.42 0 .225-.013.49-.03.753Z" />
        <path fill="#B1C1DC"
          d="M12.855 11.43c.176-.151.3-.296.463-.42a4.422 4.422 0 0 0 0-.38c-.181.141-.3.315-.47.496.006.088.009.191.008.304h-.001Z" />
        <path fill="#A8BAD8"
          d="M12.847 11.126c.17-.181.288-.355.47-.496a1.159 1.159 0 0 0-.03-.244c-.189.147-.304.331-.47.524.014.054.023.128.03.216Z" />
        <path fill="#E6EBF4"
          d="M13.478 12.83c.12-.056.258-.13.398-.202.025-.355.052-.75.071-1.14a9.564 9.564 0 0 1-.374.303c-.03.369-.065.735-.095 1.04Z" />
        <path fill="#CBD6E8"
          d="M13.264 11.985c.084-.035.19-.105.309-.194.03-.368.053-.739.061-1.051-.113.11-.222.205-.316.27-.007.287-.028.633-.054.975Z" />
        <path fill="#AABCD9"
          d="M13.318 11.01c.094-.065.204-.16.316-.27a5.45 5.45 0 0 0 0-.417c-.11.125-.218.232-.316.307.005.106.005.236 0 .38Z" />
        <path fill="#9FB4D4"
          d="M13.317 10.63c.098-.074.206-.182.316-.307a1.584 1.584 0 0 0-.033-.285c-.107.147-.214.27-.314.348.016.054.025.138.03.244Z" />
        <path fill="#C1CEE3"
          d="M13.573 11.791c.118-.088.247-.195.374-.303.02-.39.032-.776.029-1.114a6.366 6.366 0 0 1-.341.366c-.008.312-.032.683-.062 1.051Z" />
        <path fill="#A0B4D4"
          d="M13.635 10.74c.112-.11.23-.238.341-.366a5.83 5.83 0 0 0-.018-.465 5.314 5.314 0 0 1-.324.414c.005.12.005.26 0 .417Z" />
        <path fill="#95ADCF"
          d="M13.633 10.323c.11-.126.221-.27.324-.414a2.574 2.574 0 0 0-.048-.36 5.389 5.389 0 0 1-.31.489c.018.068.028.165.034.285Z" />
        <path fill="#fff"
          d="M9.367 11.546c.318.268.673.356 1.01.363-.04-.204-.08-.385-.121-.554a4.107 4.107 0 0 1-1.075-.67c.063.242.125.524.186.861Z" />
        <path fill="#fff"
          d="M9.182 10.685c.326.283.71.518 1.074.67-.04-.168-.082-.322-.125-.473a5.878 5.878 0 0 1-1.14-.822c.065.18.128.382.19.625Z" />
        <path fill="#fff"
          d="M8.992 10.06c.343.317.755.615 1.139.822-.043-.15-.088-.296-.135-.447a5.117 5.117 0 0 1-1.203-.857c.068.147.134.303.199.482Z" />
        <path fill="#fff"
          d="M8.792 9.578c.362.35.8.652 1.203.857-.047-.15-.097-.305-.152-.471a4.027 4.027 0 0 1-1.264-.822c.074.148.145.288.213.436Z" />
        <path fill="#CDD8E9"
          d="M10.378 11.909c.337.006.657-.068.902-.125-.018-.069-.044-.158-.073-.263-.243.053-.586-.014-.951-.166.041.168.081.35.122.553Z" />
        <path fill="#D3DDEC"
          d="M10.256 11.355c.365.152.708.22.951.166a17.41 17.41 0 0 1-.097-.365c-.237.048-.595-.067-.98-.274.044.15.085.305.126.473Z" />
        <path fill="#E3E9F3"
          d="M10.13 10.882c.385.207.743.323.98.274a15.381 15.381 0 0 1-.108-.452c-.23.043-.602-.064-1.007-.269.048.15.093.297.136.447Z" />
        <path fill="#F4F7FB"
          d="M9.995 10.435c.405.205.776.311 1.007.269-.036-.164-.072-.34-.106-.527-.228.04-.623-.036-1.053-.213.055.167.105.321.152.471Z" />
        <path fill="#B1C1DC"
          d="M11.28 11.785c.128-.03.325-.1.489-.171a7.697 7.697 0 0 1-.086-.255 3.115 3.115 0 0 1-.476.162l.073.264Z" />
        <path fill="#BAC8E0"
          d="M11.207 11.52c.123-.027.309-.09.476-.161a10.386 10.386 0 0 1-.106-.356c-.174.07-.355.13-.467.153.035.137.068.259.097.365Z" />
        <path fill="#D0DAEB"
          d="M11.11 11.156c.112-.023.293-.082.467-.152a15.677 15.677 0 0 1-.117-.442 2.86 2.86 0 0 1-.458.142c.036.164.073.315.108.452Z" />
        <path fill="#E9EDF5"
          d="M11.002 10.704c.1-.018.279-.072.458-.142a15.91 15.91 0 0 1-.116-.515c-.184.07-.353.115-.448.13.034.187.07.363.106.527Z" />
        <path fill="#AABCD9"
          d="m11.769 11.614.112-.05a6.793 6.793 0 0 1-.083-.256 4.128 4.128 0 0 1-.114.05c.032.103.06.188.085.255Z" />
        <path fill="#B3C4DD"
          d="m11.684 11.359.114-.052a10.807 10.807 0 0 1-.101-.355l-.12.052c.038.133.074.252.107.355Z" />
        <path fill="#CAD4E7"
          d="m11.577 11.004.12-.052a16.042 16.042 0 0 1-.112-.44 3.952 3.952 0 0 1-.125.05c.04.16.08.308.117.442Z" />
        <path fill="#E2E9F3"
          d="m11.46 10.562.124-.05c-.038-.161-.076-.333-.113-.515a2.892 2.892 0 0 1-.127.05c.038.182.078.355.117.515Z" />
        <path fill="#A9BBD8"
          d="m11.88 11.564.165-.077a6.563 6.563 0 0 1-.084-.254c-.053.024-.107.05-.163.074.031.103.06.19.083.257Z" />
        <path fill="#B2C2DC"
          d="m11.798 11.308.163-.075a9.059 9.059 0 0 1-.102-.353l-.163.072c.036.134.07.253.102.356Z" />
        <path fill="#C8D3E7"
          d="M11.696 10.953c.055-.025.109-.05.163-.073a15.55 15.55 0 0 1-.112-.438c-.054.023-.11.046-.163.07.038.16.076.307.112.44Z" />
        <path fill="#E1E7F2"
          d="m11.585 10.511.162-.07c-.038-.158-.077-.33-.115-.51a14.23 14.23 0 0 0-.161.066c.037.182.075.354.114.514Z" />
        <path fill="#A8BAD8"
          d="M12.045 11.487c.528-.246.736-.527.932-.774a2.022 2.022 0 0 1-.069-.195 2.518 2.518 0 0 1-.947.715c.032.101.06.186.084.254Z" />
        <path fill="#B1C1DC"
          d="M11.961 11.233c.5-.23.736-.471.947-.715a5.982 5.982 0 0 1-.078-.289 3.19 3.19 0 0 1-.971.651c.036.133.07.25.102.353Z" />
        <path fill="#C6D2E6"
          d="M11.859 10.88c.44-.195.726-.416.97-.651a16.63 16.63 0 0 1-.087-.373 4.041 4.041 0 0 1-.995.585c.038.16.076.306.112.439Z" />
        <path fill="#DEE5F1"
          d="M11.747 10.441c.38-.16.717-.357.995-.585-.03-.136-.063-.284-.096-.442-.293.224-.66.372-1.014.516.038.181.076.353.115.511Z" />
        <path fill="#A2B6D5"
          d="M12.977 10.713a1.86 1.86 0 0 1 .31-.327 2.8 2.8 0 0 1-.048-.208c-.124.094-.226.22-.33.34.024.082.047.147.068.195Z" />
        <path fill="#A8BAD8"
          d="M12.908 10.518c.105-.12.207-.246.33-.34a8.8 8.8 0 0 1-.053-.3c-.127.089-.23.23-.355.351.027.11.054.208.078.29Z" />
        <path fill="#B8C6DF"
          d="M12.83 10.229c.126-.12.228-.262.355-.351l-.062-.381c-.13.083-.233.239-.38.36.03.136.059.26.087.372Z" />
        <path fill="#CAD4E7"
          d="M12.742 9.857c.148-.121.251-.276.381-.36-.022-.14-.046-.29-.073-.45-.132.08-.247.246-.404.367.033.158.066.306.096.443Z" />
        <path fill="#9CB1D2"
          d="M13.287 10.386c.199-.156.427-.493.623-.838l-.06-.27c-.193.38-.415.751-.611.9.016.085.032.155.047.208Z" />
        <path fill="#A0B4D4"
          d="M13.239 10.178c.196-.149.418-.52.61-.9l-.062-.288c-.194.38-.412.755-.601.888.018.114.036.215.053.3Z" />
        <path fill="#ABBDD9"
          d="M13.186 9.878c-.039-.228-.083-.51-.136-.832.09-.055.192-.155.296-.277.05.29.096.544.139.757-.102.158-.204.286-.3.352Z" />
        <path fill="#9FB4D4"
          d="M13.485 9.526c-.043-.213-.09-.467-.139-.757.105-.122.214-.266.317-.41.039.22.081.431.124.63-.097.19-.2.38-.302.537Z" />
        <path fill="#90A8CC"
          d="M13.787 8.99c-.043-.2-.085-.41-.124-.631.103-.144.2-.289.286-.411l.101.499c-.077.162-.167.353-.263.543Z" />
        <path fill="#fff"
          d="M8.579 9.143c-.305-.611-1.06-1.892-1.552-2.64.425.467 1.263 1.054 2.049 1.52.245.48.544 1.25.767 1.94a4.027 4.027 0 0 1-1.264-.82Z" />
        <path fill="#FEFFFF"
          d="M9.843 9.964c.43.177.825.253 1.053.213a5.707 5.707 0 0 1-.1-.89c-.219.03-.751-.116-1.328-.373.134.34.264.704.375 1.05Z" />
        <path fill="#fff"
          d="M9.468 8.914c.577.257 1.11.403 1.329.373-.006-.217.006-.365.006-.472-.21.018-.942-.327-1.727-.792.122.24.259.552.392.891Z" />
        <path fill="#F7F9FC"
          d="M10.896 10.177c.1-.016.285-.066.481-.143a4.413 4.413 0 0 1-.041-.877 2.77 2.77 0 0 1-.54.13c.006.218.03.505.1.89Z" />
        <path fill="#fff"
          d="M10.797 9.287c.113-.013.331-.057.539-.13.013-.217.043-.366.057-.473-.22.071-.465.12-.59.13 0 .108-.012.256-.006.473Z" />
        <path fill="#F2F5FA"
          d="M11.378 10.034c.03-.011.062-.024.093-.038a4.262 4.262 0 0 1-.033-.876l-.102.037c-.013.216-.01.501.042.877Z" />
        <path fill="#FDFDFE"
          d="m11.336 9.157.102-.037c.017-.216.05-.366.066-.472l-.111.036c-.014.107-.044.256-.057.473Z" />
        <path fill="#F1F4F9"
          d="M11.471 9.997c.087-.037.175-.072.265-.109a3.936 3.936 0 0 1-.015-.862 4.865 4.865 0 0 0-.282.094 4.25 4.25 0 0 0 .032.877Z" />
        <path fill="#FCFCFE"
          d="M11.438 9.12c.107-.039.207-.072.283-.094.022-.214.06-.362.08-.465-.063.008-.17.045-.297.087-.016.106-.05.256-.066.472Z" />
        <path fill="#EEF1F7"
          d="M11.736 9.888c.16-.065.321-.134.475-.21a3.328 3.328 0 0 1-.02-.858c-.136.087-.288.16-.47.206-.022.214-.028.494.014.862Z" />
        <path fill="#FAFBFD"
          d="M11.721 9.026c.182-.046.334-.119.47-.206.023-.213.062-.362.068-.471a.809.809 0 0 1-.458.212c-.02.103-.058.251-.08.465Z" />
        <path fill="#E5EAF4"
          d="M12.211 9.677c.155-.076.303-.162.435-.263a4.967 4.967 0 0 1-.076-.884c-.12.102-.242.203-.379.29-.023.213-.032.49.02.857Z" />
        <path fill="#F3F6FA"
          d="M12.19 8.82c.137-.087.26-.188.38-.29 0-.227.015-.393.006-.51-.11.103-.202.225-.318.329-.005.11-.044.258-.067.471Z" />
        <path fill="#D8E0EE"
          d="M12.646 9.414c.157-.12.272-.287.404-.368a3.695 3.695 0 0 1-.047-.8c-.168.049-.296.169-.433.284 0 .228.012.518.075.884Z" />
        <path fill="#E8EDF5"
          d="M12.57 8.53c.137-.115.265-.235.433-.284.01-.203.033-.347.03-.438a.714.714 0 0 0-.457.213c.01.116-.006.281-.006.509Z" />
        <path fill="#C7D2E6"
          d="M13.05 9.046a3.695 3.695 0 0 1-.047-.8.994.994 0 0 0 .287-.178c0 .176.006.4.056.7a1.419 1.419 0 0 1-.296.278Z" />
        <path fill="#B7C6DF"
          d="M13.346 8.769c-.05-.3-.057-.525-.056-.7.1-.082.201-.18.298-.28.016.16.034.342.075.57a5.765 5.765 0 0 1-.317.41Z" />
        <path fill="#D4DDEC"
          d="M13.003 8.246c.01-.203.034-.347.03-.438.09-.008.175-.065.259-.15.012.107 0 .234 0 .41a1 1 0 0 1-.287.178h-.002Z" />
        <path fill="#C3D0E5"
          d="M13.29 8.069c0-.176.014-.304 0-.41.083-.084.163-.194.239-.305.03.138.042.275.057.435-.097.1-.198.198-.297.28h.001Z" />
        <path fill="#A1B5D5"
          d="M13.663 8.359c-.041-.229-.06-.41-.075-.57.097-.1.19-.2.273-.284.03.145.056.287.088.443-.085.122-.183.266-.286.41Z" />
        <path fill="#A9BBD8"
          d="M13.588 7.79c-.015-.16-.028-.298-.058-.436.076-.111.15-.224.22-.313.047.17.08.32.11.464-.083.085-.175.185-.272.284Z" />
        <path fill="#fff"
          d="M7.028 6.504c.848.932 3.354 2.347 3.775 2.31 0-.085-.02-.31-.052-.629-.596-.168-2.9-1.434-3.789-2.258-.049.272.031.525.066.577Z" />
        <path fill="#fff"
          d="M6.962 5.927c.889.824 3.192 2.09 3.788 2.258-.128-1.249-.45-3.927-.525-5.18-.735 0-1.703.289-2.205.863-.482.55-.917 1.274-1.058 2.059Z" />
        <path fill="#fff"
          d="M10.803 8.815c.112-.01.32-.05.521-.11-.044-.758-.522-4.097-.8-5.7-.125-.006-.206 0-.299 0 .094 1.572.578 5.388.578 5.81Z" />
        <path fill="#fff"
          d="m11.324 8.705.069-.021c-.055-.793-.539-4.074-.843-5.679h-.026c.278 1.604.756 4.943.8 5.701Z" />
        <path fill="#fff"
          d="M11.393 8.684c-.053-.792-.534-4.074-.837-5.678h-.006c.304 1.604.788 4.886.843 5.678Z" />
        <path fill="#fff"
          d="M11.393 8.684c.171-.054.328-.113.408-.123-.044-.519-.187-1.5-.374-2.552-.079 0-.236.115-.359.14.165 1.12.299 2.139.325 2.535Z" />
        <path fill="#fff"
          d="M11.068 6.15c.123-.026.28-.141.36-.141-.188-1.052-.42-2.176-.644-2.98a2.63 2.63 0 0 0-.228-.024c.151.803.347 2.024.512 3.144Z" />
        <path fill="#FEFFFF"
          d="M11.801 8.56c.311-.039.473-.215.63-.388a15.009 15.009 0 0 0-.121-1.195c-.174.236-.354.479-.642.508.064.442.11.817.133 1.076Z" />
        <path fill="#fff"
          d="M11.668 7.485c.289-.03.468-.272.642-.508-.059-.42-.136-.857-.231-1.295-.204.155-.413.32-.652.327.094.526.176 1.035.24 1.476Z" />
        <path fill="#fff"
          d="M11.427 6.009c.239-.008.448-.172.652-.327-.191-.877-.457-1.76-.799-2.533a2.753 2.753 0 0 0-.496-.12c.224.804.456 1.928.643 2.98Z" />
        <path fill="#F2F5FA"
          d="M12.431 8.172c.079-.086.155-.171.25-.238-.022-.45-.053-.873-.1-1.28a2.182 2.182 0 0 0-.27.323c.058.42.098.823.12 1.195Z" />
        <path fill="#FAFBFD"
          d="M12.31 6.977c.087-.118.173-.235.27-.323-.047-.407-.11-.797-.198-1.177a2.161 2.161 0 0 0-.303.205c.095.438.172.875.231 1.295Z" />
        <path fill="#E8EDF5"
          d="M12.68 7.934a.68.68 0 0 1 .352-.126 13.897 13.897 0 0 0-.11-1.305.532.532 0 0 0-.342.15c.048.407.08.831.1 1.28Z" />
        <path fill="#F0F3F9"
          d="M12.58 6.654a.52.52 0 0 1 .341-.151 7.533 7.533 0 0 0-.229-1.092.52.52 0 0 0-.31.066c.087.38.15.77.198 1.177Z" />
        <path fill="#FAFCFD"
          d="M12.079 5.682c.202-.155.4-.301.613-.271-.2-.686-.505-1.314-.964-2.053a2.29 2.29 0 0 0-.448-.209c.341.773.607 1.656.799 2.533Z" />
        <path fill="#D7DFEE"
          d="M13.032 7.808c-.042-.97-.139-1.712-.34-2.398.09.024.165.034.233.037.201.634.31 1.321.367 2.212-.084.084-.17.141-.26.149Z" />
        <path fill="#C7D2E6"
          d="M13.292 7.659c-.057-.891-.166-1.578-.367-2.212.067.006.126 0 .183 0 .2.575.333 1.19.422 1.908a2.248 2.248 0 0 1-.238.305v-.001Z" />
        <path fill="#E9EEF6"
          d="M12.692 5.41c-.2-.685-.505-1.313-.964-2.052.09.055.181.119.273.19.43.682.723 1.265.924 1.9a1.231 1.231 0 0 1-.233-.037Z" />
        <path fill="#DBE3EF"
          d="M12.925 5.447c.067.005.126 0 .183 0a7.077 7.077 0 0 0-.356-.84c-.063-.033-.13-.06-.203-.09.152.31.275.614.376.931Z" />
        <path fill="#E2E8F2"
          d="M12.55 4.515c.072.03.139.059.202.09a8.337 8.337 0 0 0-.477-.826A3.72 3.72 0 0 0 12 3.547c.215.342.395.658.548.968Z" />
        <path fill="#AEBFDB"
          d="M13.53 7.354a9.144 9.144 0 0 0-.422-1.908c.056 0 .11 0 .167.013.199.505.353 1.038.475 1.582-.07.09-.144.202-.22.313Z" />
        <path fill="#91A9CD"
          d="M13.75 7.041c.07-.089.138-.154.203-.17-.069-.233-.143-.46-.224-.684a.411.411 0 0 0-.187.048c.078.265.147.534.208.806Z" />
        <path fill="#9DB2D2"
          d="M13.542 6.235a.399.399 0 0 1 .186-.048 9.196 9.196 0 0 0-.266-.651.593.593 0 0 0-.186-.078c.1.253.187.513.266.777Z" />
        <path fill="#C4D0E5"
          d="M13.108 5.446a.6.6 0 0 1 .354.09 7.597 7.597 0 0 0-.316-.618 1.215 1.215 0 0 0-.393-.312c.137.275.254.553.355.84Z" />
        <path fill="#D1DAEB"
          d="M12.753 4.606c.129.064.25.147.394.311a6.75 6.75 0 0 0-.371-.58 3.925 3.925 0 0 0-.501-.558c.182.278.34.551.478.827Z" />
      </g>
    </g>
    <path fill="url(#paint0_linear_101_391)"
      d="M10.265 11.275c.494-.464.678-.708.678-1.16 0-.638-1.23-.966-1.325-2.516-.062-1.025-.143-1.337-.289-1.337-.258 0-.539.635-1.23.635-.482 0-.335-.758-.558-.758-.234 0-.292 1.807-1.19 2.749-1.023 1.071-2.073 1.57-2.541 1.844-.334.194-.387.324-.387.54 0 .07-.003.188.109.188.12 0 .219-.143.55-.143.797 0 1.615.914 2.57.914 1.14 0 3.06-1.623 3.293-1.839l.235.267c-.652.718-3.17 2.705-4.21 2.705-.423 0-.881-.123-.881-.312 0-.219.362-.52.584-.712a4.595 4.595 0 0 0-.285-.132c-.336.242-.783.493-.783.998 0 .529.768.71 1.334.719.518.008 1.001-.303 1.27-.438.947-.478 2.535-1.722 3.056-2.212Z" />
    <path fill="#0D4D84"
      d="M11.743 6.715c-.312 0-.42-.222-.42-.49 0-.385.144-.736.409-.736.225 0 .381.308.389.748.004.296-.155.478-.378.478Z" />
  </g>
  <defs>
    <linearGradient id="paint0_linear_101_391" x1="5.567" x2="7.241" y1="8.759" y2="10.058"
      gradientUnits="userSpaceOnUse">
      <stop stop-color="#FBCD94" />
      <stop offset="1" stop-color="#F68B1B" />
    </linearGradient>
    <clipPath id="clip0_101_391">
      <rect width="20" height="20" fill="#fff" rx="4" />
    </clipPath>
  </defs>
</svg>