<svg xmlns="http://www.w3.org/2000/svg" fill="none" viewBox="0 0 20 20">
  <rect width="20" height="20" fill="#000" rx="4" />
  <path fill="#fff" fill-rule="evenodd"
    d="m4.192 10.151.064-.064.193-.256.32-.385.384-.512.577-.641.64-.769.834-.833.833-.961.32-.256.769-.641.384-.256.449-.257.448-.192L11.432 4l.513.064.448.128.45.192.32.257.256.32.192.385.128.32.064.384-.128.77-.128.32-.192.32-.32.256-.385.192-.385.129-.448.064-.32-.064-.193-.064-.256-.065-.192-.128-.192-.192-.129-.192-.064-.256v-.513l.193-.32.256-.257.448-.064.385.128.256.257.064.32v.256l.128-.064.128-.128.129-.192.128-.385-.193-.576-.192-.128-.128-.128-.192-.129h-.256l-.193-.064-.768.128-.641.385-.32.256-.257.192-.897.897-.448.513-.385.384-.32.385-.192.256-.193.192-.128.193h9.163l-.513 1.217H4.193ZM4 10.792v.064l.128.192.064.384.192.449.193.512.256.641.256.577.257.705.32.512.256.449.77.769.383.256.513.192.449.128h.96l.385-.128.385-.256.32-.192.384-.641.129-.384.064-.32-.064-.385-.129-.385-.128-.32-.192-.256-.256-.257-.641-.256-.32-.064-.385.064-.256.128-.256.064-.257.385-.064.192-.064.128v.064l.128.385.128.256.257.192.384.064.385-.128.256-.192.128-.192v-.065l.128.065.064.192.064.32-.064.256-.192.257-.32.256-.449.064h-.256l-.256-.064-.513-.256-.513-.513-.256-.32-.256-.449-.385-.96-.192-.578-.064-.384-.064-.064h8.97l.513-1.153H4Z"
    clip-rule="evenodd" />
</svg>