<svg viewBox="0 0 20 20" fill="none" xmlns="http://www.w3.org/2000/svg">
  <rect width="20" height="20" rx="4" fill="#030303" />
  <path fill-rule="evenodd" clip-rule="evenodd"
    d="M10.1239 16.2242C8.7497 16.2242 7.58924 16.0257 6.45932 15.6032C5.20216 15.1604 4.08242 14.4784 3.08483 13.5877C2.98303 13.5012 2.97285 13.3943 3.05429 13.3434C3.12555 13.3027 3.1968 13.3281 3.25279 13.3587C3.3953 13.4452 3.53782 13.5164 3.6956 13.603C4.22493 13.888 4.76953 14.117 5.32431 14.3308C6.05214 14.5955 6.80034 14.794 7.54344 14.9365C8.07277 15.0281 8.6021 15.0993 9.11617 15.135C9.57424 15.1706 10.0323 15.1859 10.4904 15.1706C11.2895 15.1553 12.0784 15.0586 12.8673 14.9008C13.7275 14.7278 14.5571 14.4733 15.3562 14.1272C15.4122 14.1068 15.458 14.0967 15.514 14.0865C15.6158 14.0814 15.7125 14.1272 15.7583 14.2239C15.7888 14.3003 15.7583 14.397 15.6717 14.458C15.4732 14.6158 15.2697 14.7431 15.0406 14.8754C13.9412 15.532 12.7248 15.9188 11.4625 16.1122C10.9688 16.1885 10.4649 16.2293 10.1239 16.2242Z"
    fill="#F58227" />
  <path fill-rule="evenodd" clip-rule="evenodd"
    d="M15.6157 13.5979C15.2442 13.5979 14.9134 13.6488 14.5876 13.6742C14.5571 13.6793 14.5011 13.6946 14.4604 13.6793C14.3739 13.6742 14.3484 13.6131 14.3891 13.5368C14.4197 13.5012 14.4451 13.4706 14.4909 13.4452C14.8217 13.2212 15.1933 13.1042 15.5903 13.0685C15.9619 13.0278 16.3487 13.0278 16.7355 13.1245C16.9493 13.1907 17.0205 13.267 16.9951 13.4961C16.9645 14.2392 16.7253 14.8957 16.2367 15.4556C16.1807 15.5116 16.1247 15.5625 16.0484 15.5981C16.0077 15.6388 15.9466 15.6541 15.8906 15.6134C15.8499 15.5727 15.8499 15.5116 15.8753 15.4709C16.0178 15.1044 16.1604 14.7532 16.2621 14.3817C16.3029 14.2188 16.3334 14.0661 16.3334 13.8931C16.3029 13.7658 16.2469 13.6946 16.1196 13.6488C15.9466 13.6131 15.7583 13.5877 15.6157 13.5979Z"
    fill="#F58227" />
  <path fill-rule="evenodd" clip-rule="evenodd"
    d="M13.9413 12.0353C13.8853 11.9641 13.8395 11.8979 13.7835 11.8368C13.5392 11.5213 13.3967 11.165 13.3814 10.7782C13.3814 9.6177 13.4119 8.46742 13.3814 7.31714C13.3661 7.06774 13.3254 6.82853 13.2542 6.58931C13.0964 6.03962 12.7248 5.65789 12.2108 5.4034C11.6407 5.10311 11.035 4.98604 10.3785 5.00131C10.2512 5.0064 10.1189 5.00131 9.97638 5.0064C9.57429 5.04203 9.18747 5.11838 8.81592 5.27107C7.88449 5.63753 7.28391 6.29919 7.10068 7.30187C7.08541 7.37822 7.08541 7.44438 7.14139 7.50037C7.19738 7.57672 7.2839 7.60726 7.37043 7.61235C7.82851 7.66833 8.25604 7.72432 8.71412 7.77522C8.8261 7.79558 8.91262 7.75486 8.9737 7.63779C9.01441 7.59708 9.02968 7.536 9.04495 7.48001C9.08567 7.31714 9.14675 7.17463 9.24345 7.05248C9.54375 6.69619 9.94584 6.5435 10.4039 6.59949C10.8773 6.65548 11.147 6.92014 11.2335 7.36295C11.2895 7.64797 11.2641 7.92282 11.2641 8.19767C11.2641 8.26383 11.2335 8.27401 11.1776 8.27401C10.7907 8.30455 10.4039 8.34018 10.0171 8.38599C9.45722 8.45724 8.91771 8.57431 8.39856 8.80334C7.69617 9.13418 7.19738 9.62788 6.96834 10.3608C6.82583 10.8189 6.82583 11.282 6.88182 11.7503C6.99379 12.6512 7.64019 13.323 8.51562 13.5113C8.88717 13.5826 9.22818 13.5775 9.58956 13.5419C9.93057 13.5113 10.2614 13.435 10.5464 13.2823C10.9027 13.094 11.1928 12.8548 11.4626 12.5647C11.5644 12.4781 11.5644 12.4781 11.6356 12.5799C11.8189 12.8599 12.0377 13.1093 12.2668 13.3383C12.4805 13.547 12.6943 13.5368 12.8979 13.3536C13.2134 13.0584 13.5545 12.7733 13.9006 12.4883C14.0583 12.3611 14.0736 12.2084 13.9413 12.0353ZM11.1826 10.9207C11.0961 11.2362 10.9536 11.5264 10.7093 11.7554C10.465 11.9895 10.1647 12.1219 9.80841 12.071C9.45213 12.0201 9.22309 11.8114 9.1213 11.4755C8.96352 10.9614 9.0195 10.4575 9.38088 10.0351C9.60991 9.77548 9.91021 9.64315 10.241 9.57189C10.5413 9.50064 10.8569 9.49555 11.1572 9.48537C11.2437 9.4701 11.2692 9.50064 11.2692 9.58716C11.2692 9.71441 11.2692 9.84674 11.2692 10.03C11.2692 10.2895 11.2692 10.6153 11.1826 10.9207Z"
    fill="white" />
</svg>
  