<svg viewBox="0 0 32 32" fill="none" xmlns="http://www.w3.org/2000/svg">
  <rect width="32" height="32" rx="4" fill="black" />
  <path
    d="M23.8635 11.355C23.7438 11.4468 21.6306 12.624 21.6306 15.2415C21.6306 18.2692 24.3195 19.3403 24.4 19.3668C24.3876 19.4321 23.9728 20.8337 22.9823 22.2619C22.0991 23.5187 21.1766 24.7734 19.7734 24.7734C18.3701 24.7734 18.0089 23.9675 16.389 23.9675C14.8103 23.9675 14.249 24.7999 12.9654 24.7999C11.6819 24.7999 10.7862 23.637 9.7565 22.2088C8.56372 20.5318 7.60001 17.9265 7.60001 15.4537C7.60001 11.4876 10.2084 9.38412 12.7756 9.38412C14.1396 9.38412 15.2767 10.2696 16.1331 10.2696C16.9482 10.2696 18.2194 9.33108 19.7713 9.33108C20.3594 9.33108 22.4726 9.38412 23.8635 11.355ZM19.0346 7.65199C19.6764 6.89915 20.1304 5.85457 20.1304 4.80998C20.1304 4.66513 20.118 4.51823 20.0911 4.3999C19.047 4.43867 17.8046 5.08745 17.0556 5.94638C16.4674 6.6074 15.9185 7.65199 15.9185 8.71085C15.9185 8.86999 15.9453 9.02912 15.9577 9.08013C16.0237 9.09237 16.131 9.10665 16.2384 9.10665C17.1752 9.10665 18.3536 8.48643 19.0346 7.65199Z"
    fill="white" />
</svg>