<svg xmlns="http://www.w3.org/2000/svg" fill="none" viewBox="0 0 20 20">
  <rect width="20" height="20" fill="#FD4B2D" rx="4" />
  <path fill="#fff"
    d="M10.143 7.273h-.49V8.71h.49V7.273Zm1.274-.061h-.49v1.123h.49V7.212Zm-7.63 1.645c-.321 0-.637.088-.913.257-.276.168-.503.41-.657.7h.83c.369-.326.903-.42 1.292 0h.876c-.343-.477-.858-.957-1.428-.957Z" />
  <path fill="#fff"
    d="M4.973 10.68c-1.145 2.458-3.153.363-1.922-.868h-.834c-.651 1.165.25 2.736 1.57 2.7 1.022 0 1.865-1.555 1.865-1.83 0-.122-.165-.494-.437-.868h-.876c.258.25.472.542.634.866Z" />
  <path fill="#fff"
    d="M16 7.256v6.492a2.288 2.288 0 0 1-.648 1.593 2.171 2.171 0 0 1-1.554.659h-.931v-2.21H8.41V16h-.933a2.17 2.17 0 0 1-1.552-.66 2.288 2.288 0 0 1-.646-1.592v-2.045h7.065V7.801h-3.41v2.192H5.278V7.256a2.218 2.218 0 0 1 .069-.563 1.717 1.717 0 0 1 .033-.119l.015-.047.016-.046.02-.051.02-.05c.055-.134.121-.261.2-.381v-.004c.02-.03.04-.06.062-.088.021-.03.036-.049.054-.072.017-.024.044-.053.066-.08a1.507 1.507 0 0 1 .104-.111 2.22 2.22 0 0 1 .261-.224 2.103 2.103 0 0 1 .343-.206l.058-.027a2.107 2.107 0 0 1 .707-.18h6.656c.1.008.2.023.298.045.017 0 .033.007.05.012a2.143 2.143 0 0 1 .36.123l.057.027a1.936 1.936 0 0 1 .266.152c.03.02.053.035.077.054a2.266 2.266 0 0 1 .368.338c.022.025.043.052.065.08l.055.07.061.09V6c.078.12.145.247.2.38l.02.051.02.051.016.047.015.046c0 .007.004.015.008.024l.026.096c.024.1.042.2.053.302.012.086.02.172.021.258Z" />
  <path fill="#fff"
    d="M15.626 5.999H5.652a2.22 2.22 0 0 1 .79-.733A2.155 2.155 0 0 1 7.477 5h6.321c.361 0 .717.09 1.036.265.318.174.59.426.792.734Zm.359.998H5.292c.04-.358.163-.7.36-.998h9.974c.196.298.32.64.359.998Z" />
  <path fill="#fff"
    d="M16 7.256v.739h-3.656v-.194h-3.41v.194H5.277v-.74c0-.086.004-.173.014-.259h10.69c.011.086.017.173.018.26Zm-7.066.739H5.278v.999h3.656v-.999Zm7.066 0h-3.656v.999H16v-.999Zm-7.066.999H5.278v.998h3.656v-.998Zm7.066 0h-3.656v.998H16v-.998Z" />
</svg>