<svg viewBox="0 0 20 20" fill="none" xmlns="http://www.w3.org/2000/svg">
  <rect width="20" height="20" rx="4" fill="white" />
  <path fill-rule="evenodd" clip-rule="evenodd"
    d="M10.0344 4C9.91898 4 9.79988 4.00481 9.6904 4.00936L9.68958 4.0094L9.68878 4.00944C7.14934 4.13331 4.97226 5.85802 4.26705 8.30623C4.10985 8.84007 4.02907 9.39698 4.02432 9.95794L4.0243 9.95891V10.0011C4.0243 10.4631 4.12548 10.9877 4.20406 11.3344L4.2046 11.3369L4.20521 11.3393C4.21111 11.3629 4.21819 11.3859 4.22925 11.4115C4.27671 11.5914 4.33093 11.7688 4.39465 11.9463C4.30011 12.1309 4.12531 12.4142 3.91995 12.727C3.68722 13.0815 3.42554 13.4584 3.22372 13.7398C3.21063 13.7562 3.20254 13.7704 3.19941 13.7759C3.19607 13.7817 3.19299 13.7876 3.19064 13.7922C2.93635 14.2205 2.93904 14.758 3.18322 15.1866L3.18346 15.1871L3.18367 15.1874C3.4347 15.624 3.89895 15.8922 4.39739 15.8922H9.62635L9.63643 15.8926C9.74039 15.897 9.84586 15.9014 9.95189 15.9014C11.5423 15.9014 13.0389 15.2866 14.1721 14.158C15.305 13.0344 15.9341 11.5382 15.9436 9.95205V9.95139V9.90945C15.9436 9.59644 15.8998 9.21833 15.8105 8.79074L15.8078 8.77789L15.8037 8.76543C15.8037 8.76543 15.8036 8.76517 15.8034 8.7645C15.8032 8.76381 15.8029 8.76289 15.8025 8.76168C15.8018 8.75905 15.8009 8.75612 15.7997 8.75191L15.7994 8.75062C15.7983 8.74676 15.7967 8.74135 15.7949 8.73529C15.7488 8.50379 15.6853 8.27379 15.6109 8.05128C15.6176 8.03403 15.6231 8.01754 15.6274 8.00232C15.6413 7.95642 15.6879 7.85771 15.7716 7.70938C15.852 7.5668 15.9566 7.39537 16.0727 7.21288C16.3047 6.84818 16.5775 6.44688 16.7819 6.15842L16.7919 6.14428L16.7957 6.13667C16.7988 6.13192 16.8034 6.12455 16.8084 6.11547C17.0634 5.68271 17.0613 5.14945 16.8174 4.71581C16.5704 4.27673 16.1047 4.00916 15.6026 4.00916H10.3599L10.3499 4.00875C10.2459 4.0044 10.1404 4 10.0344 4ZM5.31584 8.57095C5.89416 6.58159 7.66845 5.18078 9.74707 5.08042C9.84881 5.07578 9.94428 5.07149 10.0344 5.07149C10.1245 5.07149 10.2201 5.07578 10.3169 5.0804L10.3223 5.08066H15.6118C15.7253 5.08066 15.8344 5.14503 15.8915 5.24557C15.9468 5.34298 15.9483 5.46029 15.8962 5.55885C15.6533 5.90256 15.4424 6.2681 15.2382 6.62197L15.2329 6.63116C15.0233 6.99437 14.8206 7.345 14.5897 7.66845C14.4797 7.81877 14.4578 8.00797 14.5191 8.17646L14.5197 8.17832L14.5204 8.18013C14.6208 8.44209 14.7001 8.72324 14.7574 9.00581L14.7585 9.01075L14.7597 9.01564C14.7629 9.02855 14.7661 9.0397 14.7683 9.04744L14.7685 9.04813C14.7693 9.05109 14.7701 9.05356 14.7707 9.05576C14.7712 9.05781 14.7717 9.0596 14.7722 9.0613C14.8385 9.39875 14.8721 9.69242 14.8721 9.91402V9.95003C14.8541 12.6391 12.6458 14.8299 9.95646 14.8299C9.86639 14.8299 9.77071 14.8256 9.67393 14.821L9.66856 14.8207H4.40196C4.28489 14.8207 4.17756 14.7578 4.12227 14.6604L4.12162 14.6593L4.12093 14.6581C4.06808 14.5675 4.06437 14.4504 4.11453 14.3495C4.12194 14.3389 4.13012 14.3274 4.13898 14.3148C4.26882 14.1313 4.54713 13.7377 4.81699 13.3266C4.96482 13.1014 5.11167 12.8685 5.2309 12.6604C5.34571 12.46 5.4457 12.2642 5.48907 12.1166C5.52817 11.9955 5.51958 11.868 5.47294 11.7573C5.38595 11.5395 5.31589 11.3163 5.25868 11.0874L5.25656 11.079L5.24382 11.0408C5.15107 10.6186 5.10503 10.2646 5.10503 10.0011V9.96555C5.10949 9.50489 5.17533 9.04964 5.30646 8.60812L5.31584 8.57658V8.57095Z"
    fill="#0043E0" />
  <path fill-rule="evenodd" clip-rule="evenodd"
    d="M7.96194 10.0103C7.96194 11.1424 8.88396 12.0645 10.0161 12.0645C11.1481 12.0645 12.0702 11.1424 12.0702 10.0103C12.0702 8.87816 11.1481 7.95609 10.0161 7.95609C8.88396 7.95609 7.96194 8.87816 7.96194 10.0103ZM9.07153 10.0103C9.07153 9.48688 9.49272 9.06567 10.0161 9.06567C10.5324 9.06567 10.9606 9.48718 10.9606 10.0103C10.9606 10.5337 10.5394 10.9549 10.0161 10.9549C9.49272 10.9549 9.07153 10.5337 9.07153 10.0103Z"
    fill="#0043E0" />
  <path
    d="M9.62599 7.0622C9.92729 7.02397 10.1405 6.74882 10.1023 6.44758C10.0641 6.14635 9.78889 5.93314 9.48759 5.97135C9.12893 6.01684 8.77714 6.10998 8.44173 6.2489C7.94769 6.45348 7.49878 6.75339 7.12067 7.13143C6.9059 7.34613 6.9059 7.69425 7.12067 7.90897C7.33541 8.12367 7.68359 8.12367 7.89833 7.90897C8.17433 7.63302 8.50198 7.41411 8.86258 7.26478C9.10743 7.16338 9.3642 7.0954 9.62599 7.0622Z"
    fill="#0043E0" />
  <path
    d="M10.667 6.50907C10.7691 6.22313 11.0838 6.07413 11.3698 6.17626C12.1607 6.45872 12.8449 6.97874 13.3286 7.66512C13.8124 8.3515 14.0721 9.17062 14.0721 10.0103C14.0721 10.3139 13.8259 10.5601 13.5222 10.5601C13.2185 10.5601 12.9723 10.3139 12.9723 10.0103C12.9723 9.3974 12.7827 8.7995 12.4296 8.2985C12.0765 7.79752 11.5771 7.41793 10.9998 7.21177C10.7138 7.10963 10.5648 6.79502 10.667 6.50907Z"
    fill="#0043E0" />
  <path
    d="M13.307 11.3411C13.5678 11.4966 13.6533 11.8341 13.4977 12.0949C13.2853 12.4512 13.021 12.7707 12.7155 13.0441C12.4892 13.2466 12.1415 13.2273 11.939 13.001C11.7365 12.7748 11.7558 12.4272 11.9821 12.2247C12.2051 12.0252 12.398 11.7919 12.5531 11.5319C12.7086 11.2711 13.0461 11.1857 13.307 11.3411Z"
    fill="#0043E0" />
  <path
    d="M8.02744 12.979C8.15445 12.7032 8.48105 12.5826 8.7569 12.7096C9.25582 12.9393 9.80862 13.0262 10.354 12.9608C10.6555 12.9247 10.9293 13.1398 10.9655 13.4412C11.0016 13.7427 10.7865 14.0164 10.4849 14.0526C9.7378 14.1422 8.98046 14.023 8.29693 13.7084C8.02107 13.5814 7.90042 13.2548 8.02744 12.979Z"
    fill="#0043E0" />
  <path
    d="M7.16619 9.11407C7.25778 8.82455 7.0973 8.51563 6.80773 8.42407C6.51818 8.33248 6.20918 8.49295 6.1176 8.78245C5.96134 9.27637 5.90042 9.79682 5.9395 10.3158C5.96229 10.6186 6.22628 10.8456 6.52911 10.8228C6.83197 10.8 7.05897 10.5361 7.03618 10.2333C7.00767 9.85445 7.05214 9.47458 7.16619 9.11407Z"
    fill="#0043E0" />
</svg>
  