<svg width="20" height="20" viewBox="0 0 20 20" fill="none" xmlns="http://www.w3.org/2000/svg">
<rect width="20" height="20" rx="4" fill="white"/>
<g clip-path="url(#clip0_18805_757)">
<path d="M9.96094 3.4375C8.64523 3.4375 7.38338 3.96078 6.45302 4.89223C5.52266 5.82369 5 7.087 5 8.4043H6.00955C6.00998 7.35512 6.42641 6.34905 7.16732 5.60713C7.9082 4.86519 8.91305 4.44807 9.96094 4.44741C11.0081 4.44851 12.0121 4.86548 12.7526 5.60683C13.4931 6.34818 13.9096 7.35335 13.9107 8.4018V13.8164L9.96094 15.3975L6.0112 13.8164V10.4224H11.8965V12.4448L9.96094 13.2187L8.02453 12.4448V11.4373H7.01578V13.1269L9.96094 14.3073L12.9052 13.1285V9.4125H5V14.4977L9.96094 16.4844L14.9219 14.4977V8.39844C14.9203 7.08221 14.397 5.82038 13.4668 4.89018C12.5366 3.95998 11.2756 3.4375 9.96094 3.4375Z" fill="black"/>
<path d="M9.96133 6.48723C10.4716 6.48789 10.9609 6.69358 11.3217 7.05918C11.6826 7.42478 11.8855 7.92047 11.8862 8.4375H12.8906C12.89 7.65048 12.5812 6.89588 12.032 6.3393C11.4828 5.78273 10.7381 5.46963 9.96133 5.46875C9.18453 5.46963 8.43977 5.7827 7.89039 6.33926C7.34111 6.89581 7.03212 7.65041 7.03125 8.4375H8.03648C8.03695 7.92039 8.23984 7.42459 8.6007 7.05894C8.96164 6.69328 9.45094 6.48767 9.96133 6.48723Z" fill="black"/>
</g>
<defs>
<clipPath id="clip0_18805_757">
<rect width="20" height="20" fill="white"/>
</clipPath>
</defs>
</svg>
