<svg xmlns="http://www.w3.org/2000/svg" fill="none" viewBox="0 0 20 20">
  <rect width="20" height="20" fill="#252F3E" rx="4" />
  <path fill="#fff"
    d="M6.945 9.04c0 .173.019.313.052.415.037.102.083.214.149.335a.203.203 0 0 1 .032.107c0 .047-.028.093-.088.14l-.294.195a.223.223 0 0 1-.12.042c-.047 0-.094-.023-.14-.065a1.444 1.444 0 0 1-.168-.219 3.607 3.607 0 0 1-.144-.274c-.364.428-.82.642-1.37.642-.39 0-.702-.112-.93-.335-.229-.223-.345-.521-.345-.894 0-.396.14-.717.424-.96.284-.241.66-.362 1.14-.362.159 0 .322.014.494.037s.35.06.535.102v-.34c0-.353-.074-.6-.218-.745-.15-.144-.4-.214-.76-.214-.162 0-.33.019-.502.06-.173.043-.34.094-.503.16-.075.032-.13.05-.163.06a.285.285 0 0 1-.075.014c-.065 0-.097-.047-.097-.145v-.228c0-.074.009-.13.032-.163a.349.349 0 0 1 .13-.098 2.68 2.68 0 0 1 .587-.21c.228-.06.47-.088.727-.088.554 0 .959.126 1.22.377.256.252.386.634.386 1.146V9.04h.01Zm-1.89.708c.154 0 .312-.028.48-.084.167-.055.316-.158.442-.298a.74.74 0 0 0 .158-.298c.028-.111.047-.246.047-.405v-.195a3.508 3.508 0 0 0-.866-.107c-.312 0-.54.06-.694.186-.154.126-.228.303-.228.535 0 .22.056.382.172.494.112.116.275.172.489.172Zm3.739.503c-.084 0-.14-.014-.177-.046-.037-.028-.07-.094-.098-.182l-1.094-3.6a.815.815 0 0 1-.042-.186c0-.074.037-.116.112-.116h.456c.089 0 .15.014.182.047.037.028.065.093.093.181l.782 3.083.726-3.083c.024-.093.052-.153.089-.181a.32.32 0 0 1 .186-.047h.373c.088 0 .149.014.186.047.037.028.07.093.088.181l.736 3.12.806-3.12a.399.399 0 0 1 .093-.181.304.304 0 0 1 .181-.047h.433c.075 0 .117.037.117.116 0 .024-.005.047-.01.075a.651.651 0 0 1-.032.116l-1.122 3.6c-.028.093-.06.153-.098.181a.298.298 0 0 1-.177.047h-.4c-.089 0-.15-.014-.187-.047-.037-.032-.07-.093-.088-.186l-.722-3.003-.717 2.998c-.023.093-.051.154-.088.187-.038.032-.103.046-.187.046h-.4Zm5.983.126c-.242 0-.484-.028-.717-.084a2.118 2.118 0 0 1-.535-.186c-.075-.042-.126-.089-.145-.13a.327.327 0 0 1-.028-.13v-.238c0-.098.038-.145.107-.145.028 0 .056.005.084.014.028.01.07.028.117.047.158.07.33.125.512.163.186.037.368.056.554.056.293 0 .521-.052.68-.154a.501.501 0 0 0 .242-.442.453.453 0 0 0-.126-.326c-.084-.089-.242-.168-.47-.242l-.675-.21c-.34-.107-.592-.265-.745-.475a1.11 1.11 0 0 1-.107-1.192c.083-.149.195-.28.335-.382.14-.107.298-.186.484-.242A2.03 2.03 0 0 1 14.931 6c.102 0 .21.005.312.019.107.014.205.032.302.05.094.024.182.047.266.075.084.028.149.056.195.084a.403.403 0 0 1 .14.117.251.251 0 0 1 .042.153v.22c0 .097-.037.148-.107.148a.484.484 0 0 1-.177-.056 2.13 2.13 0 0 0-.894-.181c-.265 0-.475.042-.62.13-.144.088-.218.223-.218.414 0 .13.046.242.14.331.093.088.265.177.512.256l.66.21c.336.107.578.256.723.447.144.19.214.41.214.651 0 .2-.042.382-.121.54a1.25 1.25 0 0 1-.34.41c-.145.117-.317.2-.517.261-.21.065-.428.098-.666.098Z" />
  <path fill="#F90" fill-rule="evenodd"
    d="M15.657 12.64c-1.532 1.131-3.757 1.732-5.671 1.732-2.682 0-5.099-.992-6.924-2.64-.144-.13-.014-.307.158-.205 1.975 1.145 4.41 1.84 6.929 1.84 1.7 0 3.567-.355 5.285-1.081.256-.116.475.168.223.354Z"
    clip-rule="evenodd" />
  <path fill="#F90" fill-rule="evenodd"
    d="M16.295 11.913c-.196-.251-1.294-.12-1.793-.06-.149.018-.172-.112-.037-.21.876-.614 2.314-.437 2.482-.232.168.21-.047 1.648-.866 2.337-.126.107-.247.051-.191-.088.186-.461.6-1.5.405-1.747Z"
    clip-rule="evenodd" />
</svg>