<svg xmlns="http://www.w3.org/2000/svg" fill="none" viewBox="0 0 20 20">
  <rect width="20" height="20" fill="#0146BE" rx="4" />
  <path fill="#fff"
    d="M2 5.1v4.4h2.1c.8 0 1.6-.3 1.6-1.2 0-.7-.4-1-.9-1.1.3-.1.6-.4.6-1s-.6-1-1.4-1H2Zm1.3 1h.5c.2 0 .3.2.3.4 0 .1-.1.3-.3.3h-.5v-.7Zm0 1.6h.6c.2 0 .4.2.4.4s-.1.4-.4.4h-.6v-.8ZM3 10v4.4h2.2c.8 0 1.6-.3 1.6-1.3 0-.6-.5-.9-1-1 .4-.1.7-.4.7-1S5.9 10 5 10H3Zm1.3 1h.5c.2 0 .4.2.4.4 0 .1-.2.3-.4.3h-.5V11Zm0 1.6H5c.2 0 .4.2.4.4s-.2.4-.5.4h-.6v-.8Zm1.5-3.1V5.1h3.3v1H7v.7h1.6v1H7.1v.7h2v1H5.8Zm5 .1c1 0 1.7-.5 1.7-1.4 0-1.5-1.8-1.3-1.8-1.8l.4-.2c.3 0 .5.2.5.2l.7-.8A2 2 0 0 0 11 5c-1 0-1.6.6-1.6 1.4 0 1.5 1.7 1.3 1.7 1.8 0 .1-.1.3-.4.3-.3 0-.5-.2-.7-.4l-.8.8c.3.4.8.7 1.7.7Zm2.7-.1V6.2h-1v-1h3.3v1h-1v3.3h-1.3Z" />
  <path fill="#fff"
    d="M6.8 10h1.3v2.6c0 .3.2.5.5.5.2 0 .5-.2.5-.5V10h1.3v2.6c0 1-.8 1.9-1.8 1.9s-1.8-1-1.8-2V10Zm5.2 4.4v-1.6L10.4 10h1.3l1 1.5.8-1.5h1.3l-1.5 2.8v1.6H12Z" />
  <path fill="#FFED31" d="m14.8 12.4-.8.8v1.2l.8.8H18v-2.8h-3.2Z" />
  <path fill="#0146BE" d="m14.7 13.8-.2.2-.2-.2c0-.1 0-.2.2-.2 0 0 .2 0 .2.2Z" />
</svg>