<svg xmlns="http://www.w3.org/2000/svg" fill="none" viewBox="0 0 20 20">
  <rect width="20" height="20" fill="#181A20" rx="4" />
  <path fill="#F3BA2F"
    d="m7.283 11.117 2.719 2.72 2.72-2.72 1.582 1.58L10.001 17 5.7 12.7l-.002-.002 1.585-1.58ZM11.606 10l-1.604 1.607-1.605-1.603-.002-.004.283-.283.137-.136 1.187-1.186 1.604 1.605Zm2.23.002 1.583-1.583L17 10.001l-1.581 1.58-1.583-1.58ZM3 10l1.582-1.583 1.582 1.583-1.582 1.58L3 10.002Zm4.283-1.118 2.719-2.718 2.72 2.72 1.581-1.582L10.002 3 5.7 7.301l1.583 1.582Z" />
</svg>