<svg xmlns="http://www.w3.org/2000/svg" fill="none" viewBox="0 0 407.7 407.7">
  <rect width="407.7" height="407.7" fill="#FFF" rx="51"/>
  <path fill="#2EAA8F" d="M202,161.9c-25.7,0-46.8,20.9-46.8,46.8c0,25.7,20.9,46.8,46.8,46.8c25.7,0,46.8-20.9,46.8-46.8
    C248.6,182.8,227.7,161.9,202,161.9z"/>
  <path fill="#003F6B" d="M202,92.7c-16.6,0-32.5,3.6-46.8,9.9v39.6c13.2-9.4,29.3-14.9,46.8-14.9c44.8,0,81.3,36.4,81.3,81.3
    s-36.4,81.3-81.3,81.3s-81.3-36.4-81.3-81.3v-82.5V55.3H86.1v153.2c0,63.9,51.8,115.9,115.9,115.9c63.9,0,115.9-51.8,115.9-115.9
    C317.9,144.6,265.9,92.7,202,92.7z"/>
</svg>