<svg xmlns="http://www.w3.org/2000/svg" fill="none" viewBox="0 0 32 32">
  <rect width="32" height="32" fill="#175DDC" rx="4" />
  <path fill="#fff"
    d="M23.15 18.417V9.25H16.5v16.285a21.032 21.032 0 0 0 3.162-1.962c2.325-1.757 3.488-3.476 3.488-5.156Zm2.85-11v11c0 .82-.166 1.635-.497 2.442a9.023 9.023 0 0 1-1.232 2.148 13.45 13.45 0 0 1-1.752 1.826 20.256 20.256 0 0 1-1.878 1.476c-.574.391-1.172.761-1.796 1.11a25.88 25.88 0 0 1-1.328.709c-.262.124-.473.22-.631.286a.876.876 0 0 1-.386.086.876.876 0 0 1-.386-.086 17.183 17.183 0 0 1-.63-.286 25.88 25.88 0 0 1-1.33-.71 23.749 23.749 0 0 1-1.795-1.11c-.574-.39-1.2-.883-1.878-1.475a13.453 13.453 0 0 1-1.752-1.826 9.021 9.021 0 0 1-1.232-2.148A6.377 6.377 0 0 1 7 18.417v-11c0-.249.094-.463.282-.645A.93.93 0 0 1 7.95 6.5h17.1c.257 0 .48.09.668.272a.866.866 0 0 1 .282.645Z" />
</svg>