<svg xmlns="http://www.w3.org/2000/svg" fill="none" viewBox="0 0 20 20">
  <rect width="20" height="20" fill="#fff" rx="4" />
  <path fill="#E15235"
    d="M3 6.45V9.9l.059.034c.106.064.623.263.98.38 1.015.327 1.678.437 2.764.462a9.928 9.928 0 0 0 3.492-.518c.47-.159.814-.301 1.352-.56.459-.22.722-.327 1.03-.421a5.896 5.896 0 0 1 2.686-.194c.284.042.839.172.857.2.005.006.09.035.188.063.098.027.266.086.377.128.108.043.202.079.208.079.005 0 .01-1.475.01-3.277V3H3v3.45Zm13.221-.36v2.288l-.048-.02a6.13 6.13 0 0 0-.789-.176 6.629 6.629 0 0 0-1.183-.052c-.986.05-1.884.288-2.849.76-1.366.668-2.577.969-4.055 1.012-1.146.034-2.259-.123-3.204-.45l-.302-.106-.006-2.772L3.782 3.8h12.44V6.09Z" />
  <path fill="#E15235"
    d="M16.221 13.239v3.027l-6.214-.004-6.216-.005-.01-2.546-.008-2.547-.098-.034a33.586 33.586 0 0 1-.652-.254c-.018-.007-.023.616-.023 3.082v3.091h14.003V10.5l-.145-.062a9.433 9.433 0 0 0-.63-.226c-.003 0-.007 1.362-.007 3.027Z" />
</svg>