<svg xmlns="http://www.w3.org/2000/svg" fill="none" viewBox="0 0 20 20">
  <rect width="20" height="20" fill="#fff" rx="4" />
  <path fill="#0166B1"
    d="M14.74 10c0 2.62-2.12 4.74-4.74 4.74V10h4.74ZM10 5.26V10H5.26c0-2.62 2.12-4.74 4.74-4.74Z" />
  <path fill="#fff"
    d="M10 5.26c2.62 0 4.74 2.12 4.74 4.74H10V5.26ZM5.26 10H10v4.74c-2.62 0-4.74-2.12-4.74-4.74Z" />
  <path fill="#6F6F6F"
    d="M10 5.26v.26c2.47 0 4.48 2.009 4.48 4.48h.26A4.74 4.74 0 0 0 10 5.26Zm0 9.22c-2.47 0-4.48-2.009-4.48-4.48h-.26A4.74 4.74 0 0 0 10 14.74M10 2a8 8 0 1 0 0 16 8 8 0 0 0 0-16Zm7.48 8a7.48 7.48 0 1 1-14.96 0 7.48 7.48 0 0 1 14.96 0Z" />
  <path fill="#6F6F6F"
    d="M6.581 6.14c.256-.267.4-.576.145-.87a.5.5 0 0 0-.566-.117l-.02.008.007-.017a.462.462 0 0 0-.162-.487.484.484 0 0 0-.357-.098c-.24.024-.425.187-.928.743-.152.168-.372.434-.505.605l1.381 1.301c.458-.503.644-.69 1.005-1.067ZM4.78 5.823c.278-.338.574-.644.708-.765a.365.365 0 0 1 .144-.092c.09-.025.184.04.205.132.022.093-.037.18-.102.254-.148.164-.687.725-.687.725l-.268-.254Zm.541.51s.525-.552.697-.728a.64.64 0 0 1 .159-.135c.06-.03.127-.036.186.003a.162.162 0 0 1 .07.172.508.508 0 0 1-.135.212l-.697.74-.28-.264Zm4.838-1.743.442-.984.028-.087-.008.09.047 1.316c.155.014.315.035.473.062l-.072-1.947a9.875 9.875 0 0 0-.66-.051l-.436 1.074-.016.08-.015-.08-.435-1.074c-.22.009-.44.026-.661.05l-.072 1.948c.158-.027.318-.048.473-.062l.047-1.315-.008-.091.028.087.442.984h.403Zm3.673 2.035c.108.116.264.303.352.416l1.619-1.02c-.081-.105-.21-.265-.306-.377l-1.025.673-.07.06.052-.076.453-.897-.32-.318-.904.45-.076.051.06-.07.679-1.017c-.12-.1-.234-.193-.38-.305L12.936 5.8c.13.1.302.245.411.345l.967-.499.063-.045-.046.062-.502.961Z" />
</svg>