<svg xmlns="http://www.w3.org/2000/svg" fill="none" viewBox="0 0 20 20">
  <rect width="20" height="20" fill="#fff" rx="4" />
  <path fill="#E31837"
    d="M11.335 14.313c0-.193.157-.35.361-.35.205 0 .361.157.361.35 0 .192-.156.36-.36.36a.354.354 0 0 1-.362-.36Zm.072 0c0 .156.133.288.301.288a.282.282 0 1 0 0-.565c-.18 0-.3.132-.3.277Z" />
  <path fill="#E31837"
    d="M11.877 14.517h-.073l-.12-.18h-.072v.18h-.048v-.397h.18c.036 0 .072 0 .097.024.036.012.048.049.048.085 0 .072-.06.108-.133.108l.12.18Zm-.193-.228c.06 0 .133.012.133-.06 0-.049-.049-.06-.097-.06h-.108v.12h.072ZM9.976 14.674c2.526-2.166 6.075-4.271 8.024-5.029-.3-.192-.77-.47-1.3-.77-2.513.83-5.449 2.67-8.071 4.752.445.337.914.686 1.347 1.047Z" />
  <path fill="#012169"
    d="M8.821 8.791c-.373-.18-.782-.349-1.095-.493-.95.469-2.19 1.179-3.753 2.297.337.18.698.397 1.083.614 1.203-.89 2.418-1.732 3.765-2.418Z" />
  <path fill="#E31837"
    d="M11.07 7.756c-.457-.252-2.044-.842-3.14-1.094-.324.12-.781.3-1.094.433.397.108 1.877.505 3.14 1.143.325-.157.782-.35 1.095-.482Z" />
  <path fill="#012169"
    d="M5.693 7.6C4.286 8.25 2.806 9.14 2 9.657c.289.132.577.24.974.433 1.78-1.203 3.176-1.937 3.73-2.177-.397-.145-.77-.24-1.01-.313Z" />
  <path fill="#E31837"
    d="M12.13 7.383c.324-.108.697-.204 1.022-.3A22.9 22.9 0 0 0 9.976 6c-.169.048-.674.18-1.023.289.361.108 1.552.385 3.176 1.094Zm-5.932 4.524c.385.228.794.541 1.191.806 2.635-2.045 5.234-3.621 8.085-4.511-.397-.205-.746-.385-1.191-.602-1.709.433-4.632 1.6-8.085 4.307Z" />
</svg>