<svg xmlns="http://www.w3.org/2000/svg" fill="none" viewBox="0 0 20 20">
  <rect width="20" height="20" fill="#030303" rx="4" />
  <path fill="#fff"
    d="M4.08 10.62c.17-.13.46-.32.46-.94 0-.82-.48-1.2-1.13-1.2H2v4.46h1.41c.8 0 1.2-.52 1.2-1.3 0-.72-.34-.9-.55-1.02h.02ZM2.83 9.18h.46c.2 0 .42.14.42.56 0 .43-.21.56-.42.56h-.46V9.17Zm.46 3.09h-.46V11h.46c.31 0 .48.19.48.56 0 .53-.19.7-.48.7Zm4.54-.8c0-.57-.21-.72-.48-.85.2-.13.48-.32.48-.94 0-.82-.48-1.2-1.13-1.2H5.3v4.46h.83V11h.46c.23 0 .41.2.41.57v1.38h.84v-1.5.02Zm-1.71-2.3h.46c.2 0 .41.15.41.57 0 .43-.2.56-.41.56h-.46V9.17ZM9.99 7c-.35 0-1.37.08-1.37.97v4.97h.83v-1.93h1.06v1.93h.83V7.98c.02-.9-1.02-.98-1.37-.98h.02Zm-.54 1.09c0-.34.33-.38.54-.38.19 0 .54.04.54.38v2.23H9.45V8.07v.02Zm4.39.41V12c0 .2-.17.3-.42.3-.25 0-.41-.13-.41-.3V8.49h-.84v3.64c0 .7.82.88 1.25.88.44 0 1.25-.19 1.25-.88V8.48h-.83v.02Zm3.33 4.46V9.44c0-.19-.19-.3-.42-.3-.25 0-.41.11-.41.3v3.5h-.84V9.32c0-.69.8-.88 1.25-.88.42 0 1.25.2 1.25.88v3.64h-.83Z" />
</svg>