<svg xmlns="http://www.w3.org/2000/svg" fill="none" viewBox="0 0 20 20">
  <rect width="20" height="20" fill="#fff" rx="4" />
  <path fill="#012B52"
    d="M3.772 3.232h7.776v.036h.324v.036h.288v.036h.18v.036h.216v.036h.144v.036h.144v.036h.108v.036h.108v.036h.108v.036h.108v.036h.072v.036h.072V3.7h.108v.036h.072v.036h.072v.036h.036v.036h.072v.036h.072v.036h.072v.036h.036v.036h.072v.036h.036v.036h.036v.036h.036v.036h.072v.036h.036v.036h.036v.036h.036v.036h.036v.036h.036v.036h.036v.036h.036v.036h.036v.072h.036v.036h.036v.036h.036V4.6h.036v.036h.036v.072h.036v.036h.036v.036h.036v.072h.036v.036h.036v.072h.036v.072h.036v.036h.036v.072h.036v.072h.036v.072h.036v.072h.036v.108h.036v.108h.036v.108h.036v.108h.036v.216h.036v.828h-.036v.18h-.036v.144h-.036v.108h-.036v.108h-.036v.108h-.036v.072h-.036v.072h-.036v.072h-.036v.072h-.036v.036h-.036v.108h-.036v.036h-.036v.072h-.036v.036h-.036v.036h-.036v.036h-.036V8.2h-.036v.072h-.036v.036h-.036v.036h-.036v.036H14.5v.036h-.036v.036h-.036v.036h-.036v.036h-.036v.036h-.036v.036h-.036v.036h-.036v.036h-.072v.036h-.036v.036h-.036v.036h-.036v.036h-.072v.036h-.036v.036h-.072v.036h-.036v.036h-.072v.036h-.072v.036h-.072v.036h-.072V9.1h-.072v.036h-.072v.036h-.072v.036h-.108v.036h-.072v.036h-.108v.036h-.108v.036h-.108v.036H12.7v.036h-.108v.036h-.144v.036h-.144v.036h-.216v.036h-.144v.036h.036v.036h.036v.036h.18v.036h.18v.036h.18v.036h.144v.036h.144v.036h.144v.036h.108v.036h.18v.036h.108V10h.072v.036h.108v.036h.108v.036h.072v.036h.072v.036h.072v.036h.072v.036h.108v.036h.036v.036h.072v.036h.072v.036h.072v.036h.036v.036h.072v.036h.036v.036h.072v.036h.036v.036h.036v.036h.072v.036h.036v.036h.036v.036h.036v.036h.036v.036h.036v.036h.072v.036h.036v.036h.036v.036h.036v.036h.036v.072h.036v.036h.036v.036h.036v.036h.036v.036h.036v.072h.036v.036h.036v.072h.036v.036h.036v.072h.036v.036h.036v.108h.036v.072h.036v.072h.036v.072h.036v.108h.036v.108h.036v.144h.036v.144h.036v.252h.036v.792h-.036v.288h-.036v.144h-.036v.144h-.036v.144h-.036v.072h-.036v.108h-.036v.108h-.036v.036h.036v.036h.072v.036h.036v.036h.072v.036h.036v.036h.072v.036h.036v.036h.072v.036h.036v.036h.072V14.5h.036v-.108h.036v-.036h.036v-.036h.072v-.036h.18v.036h.072v.036h.036v.036h.036v.108h.036v.756h-.036v.288h-.036v.036h-.036v.072h-.108v.036h-.144v-.036h-.072v-.036h-.036v-.036h-.072v-.036h-.036v-.036h-.036v-.036h-.072v-.036h-.036V15.4h-.072v-.036h-.072v-.036h-.072v-.036h-.108v-.036h-.108v-.036h-.144v-.036h-.252v.036h-.036v.036h-.036v.036h-.036v.036h-.036v.036h-.036v.036h-.036v.036h-.036v.036h-.036v.036h-.036v.036h-.036v.036h-.036v.036h-.072v.036h-.036v.036H14.5v.036h-.036v.036h-.036v.036h-.036v.036h-.072v.036h-.036v.036h-.072v.036h-.072v.036h-.036v.036h-.072v.036h-.072v.036h-.072v.036h-.072v.036h-.072v.036h-.072v.036H13.6v.036h-.108v.036h-.072v.036h-.108v.036h-.108v.036h-.072v.036h-.144v.036h-.108v.036h-.144v.036h-.144v.036h-.18v.036h-.18v.036h-.216v.036h-.288v.036h-.324v.036H3.772v-.036H3.7v-.036h-.072v-.108h-.036v-.072h-.036V16.3h.036v-.072h.036v-.036h.036v-.036H3.7v-.036h.036v-.036h.108v-.036h1.368v-.144h.036V4.096h-.036v-.072h.036v-.036h-.036v-.036H3.844v-.036h-.108V3.88H3.7v-.036h-.036v-.036h-.036v-.036h-.036V3.7h-.036v-.216h.036v-.072h.036V3.34h.036v-.036H3.7v-.036h.072v-.036Zm4.86.72v.036h-.036V9.28H9.82v-.036h.396v-.036h.252v-.036h.144v-.036h.144V9.1h.108v-.036h.108v-.036h.072v-.036h.072v-.036h.072V8.92h.036v-.036h.072v-.036h.036v-.036h.036V8.74h.036v-.072h.036v-.036h.036v-.108h.036v-.072h.036v-.108h.036v-.108h.036v-.18h.036v-.18h.036v-.324h.036v-.468h.036v-.936h-.036V5.68h-.036v-.324h-.036v-.144h-.036v-.18h-.036v-.108h-.036v-.108h-.036v-.072h-.036V4.6h-.072v-.108h-.036v-.036h-.036V4.42h-.036v-.036h-.036v-.036h-.036v-.036h-.036v-.036h-.072V4.24h-.036v-.036h-.072v-.036h-.072v-.036h-.108v-.036h-.072V4.06h-.18v-.036h-.144v-.036h-.252v-.036H8.632Zm3.096 5.652v.036h.216v-.036h-.216ZM8.74 10v.036h-.144v3.744h.144v-.036h.108v-.036h.144v-.036h.144v-.036h.036v-.576h.036v-.072h.036v-.036h.072v-.036h.216v.036h.036v.036h.036v.036h.036v.036h.036v.468h.108v-.036h.252v-.036h.288v-.036h.468v-.036h1.152v.036h.072v-.036h.036v.036h.036v-1.188h-.036v-.36h-.036v-.216h-.036v-.18h-.036v-.108h-.036v-.144h-.036v-.072h-.036v-.108H11.8v-.072h-.036V10.9h-.036v-.072h-.036v-.036h-.036v-.072h-.036v-.072h-.036v-.036h-.036v-.036h-.036v-.036h-.036v-.036h-.036v-.036h-.072v-.036h-.036v-.036h-.036v-.036h-.072v-.036h-.072v-.036h-.072v-.036h-.072v-.036H10.9v-.036h-.18v-.036h-.036v-.036h-.144v-.036h-.216v-.036h-.396V10H8.74Zm2.052 3.888v.036h-.396v.036h-.288v.036h-.252v.036h-.18v1.008h.072v-.036h.072v-.036h.072v-.036h.072v-.036h.108v-.036h.108v-.036h.108v-.036h.108v-.036h.18v-.036h.18v-.036h.324v-.036h.612v.036h.252v-.144h.036v-.216h.036v-.288h.036v-.108h-.18v-.036h-1.08Zm-1.728.288v.036h-.108v.036h-.144v.036H8.74v.036h-.108v.036h-.036v.396h.036v.036h.108v.036h.108v.036h.036v.036h.108v.036h.036v.036H9.1v.036h.072v-.828h-.108Zm2.16.972v.036h-.36v.036h-.216v.036h-.144v.036h-.144v.036h-.108v.036h-.072v.036h-.108v.036H10v.036h-.072v.036h-.036v.036H9.82v.036h-.072v.036h-.036v.036h-.036v.036H9.64v.036h-.072v.036h-.036v.036h-.216v-.036H9.28v-.036h-.072v-.036h-.036v-.036h-.036v-.036H9.1v-.036h-.036v-.036h-.036v-.036h-.072v-.036H8.92v-.036h-.072V15.4h-.036v-.036h-.108v-.036h-.072v-.036h-.036v.756h1.476v-.036h.324v-.036h.216v-.036h.144v-.036h.144v-.036h.108v-.036h.108v-.036h.072v-.036h.072v-.036h.072v-.036h.072v-.036h.036v-.036h.036v-.036h.036v-.036h.036v-.036h.036v-.036h.036v-.036h.036V15.4h.036v-.072h.036v-.072h.036v-.072h-.324v-.036h-.216Z" />
  <path fill="#088CD0"
    d="M9.316 12.916h.216v.036h.036v.036h.036v.036h.036v.036h.036v.468h.108v-.036h.252v-.036h.288v-.036h.468v-.036h1.152v.036h.072v-.036h.036v.036h.036v-.036h.036v.072h.324v.036h.072v.036h.288v.036h.252v-.468h.036v-.072h.036v-.036h.036v-.036h.216v.036h.036v.036h.036v.072h.036v.576h.072v.036h.108v.036h.144v.036h.144v.036h.072v.036h.108v.036h.108v.036h.108v.036h.072v.036h.108v.036h.108v.036h.108v.036h.036v.036h.108v.036h.072v.036h.108v.036h.036v.036h.072v.036h.036v.036h.072v.036h.072v.036h.036v.036h.144v.036h.072v.036h.036v.036h.072v.036h.036v.036h.072v.036h.036v.036h.072v.036h.036v.036h.072V14.5h.036v-.108h.036v-.036h.036v-.036h.072v-.036h.18v.036h.072v.036h.036v.036h.036v.108h.036v.756h-.036v.288h-.036v.036h-.036v.072h-.108v.036h-.144v-.036h-.072v-.036h-.036v-.036h-.072v-.036h-.036v-.036h-.036v-.036h-.072v-.036h-.036V15.4h-.072v-.036h-.072v-.036h-.072v-.036h-.108v-.036h-.108v-.036h-.144v-.036h-.252v-.072h-.54v.036h-.18v.036h-.108v.036h-.072v.036h-.108v.036h-.072v.036h-.072v.036h-.072v.036h-.072v.036h-.036v.036h-.036v.036h-.036v.036h-.072v.036h-.036v.036h-.036v.036h-.036v.036h-.036v.036h-.036v.036h-.18v-.036h-.036v-.036h-.072v-.036h-.036v-.036h-.036v-.036h-.072v-.036h-.036v-.036h-.072v-.036h-.072v-.036H12.7V15.4h-.036v-.036h-.144v-.036h-.108v-.036h-.108v-.036h-.108v-.036h-.288v-.036h-.468v-.036h-.216v.036h-.36v.036h-.216v.036h-.144v.036h-.144v.036h-.108v.036h-.072v.036h-.108v.036H10v.036h-.072v.036h-.036v.036H9.82v.036h-.072v.036h-.036v.036h-.036v.036H9.64v.036h-.072v.036h-.036v.036h-.216v-.036H9.28v-.036h-.072v-.036h-.036v-.036h-.036v-.036H9.1v-.036h-.036v-.036h-.036v-.036h-.072v-.036H8.92v-.036h-.072V15.4h-.036v-.036h-.108v-.036h-.072v-.036h-.036v-.036H8.56v-.072h-.216v-.036h-.288v-.036H7.48v.036h-.144v.036h-.108v.036H7.12v.036h-.072v.036H6.94v.036h-.072v.036h-.036v.036H6.76v.036h-.072v.036h-.036v.036h-.036v.036H6.58v.036h-.072v.036h-.036v.036h-.18v-.036h-.036v-.036H6.22v-.036h-.036v-1.116h.036v-.036h.036v-.036h.036v-.036h.18v.036h.036v.036h.072v.036h.036v.468h.036v-.036h.072v-.036h.036v-.036h.036v-.036h.036v-.036h.072v-.036h.036v-.036h.072v-.036h.036v-.036h.072v-.036h.036V14.5h.072v-.036H7.3v-.036h.036v-.036h.036v-.036h.072v-.036h.072v-.036h.072v-.036h.072v-.036h.036v-.036h.108v-.036h.108v-.036h.036v-.036h.108v-.036h.072v-.036H8.2v-.036h.108v-.036h.144v-.036h.072v-.036h.072v-.072h.144v-.036h.108v-.036h.144v-.036h.144v-.036h.036v-.576h.036v-.072h.036v-.036h.072v-.036Zm1.476.972v.036h-.396v.036h-.288v.036h-.252v.036h-.18v1.008h.072v-.036h.072v-.036h.072v-.036h.072v-.036h.108v-.036h.108v-.036h.108v-.036h.108v-.036h.18v-.036h.18v-.036h.324v-.036h.612v.036h.252v-.144h.036v-.216h.036v-.288h.036v-.108h-.18v-.036h-1.08Zm-1.728.288v.036h-.108v.036h-.144v.036H8.74v.036h-.108v.036h-.036v.396h.036v.036h.108v.036h.108v.036h.036v.036h.108v.036h.036v.036H9.1v.036h.072v-.828h-.108Z" />
  <path fill="#058FD4"
    d="M9.352 12.988h.144v.036h.036v.036h.036v.504h.036v.036h.144v-.036h.396v-.036h.036v.036h.036v-.036h.036v.036h.036v-.036h.144v.036h.036v-.036h.144v-.036h1.44v.072h.036v.036h-.036v.072h-.036v.108h-.036v.036h-.216v-.036h-.036v-.036h-.036v.036h-.612v.036h.612v.036h-1.26v.036h-.036v.072h-.288v.036h-.252v.036h-.18v1.008h.072v-.036h.072v-.036h.072v-.036h.072v-.036h.108v-.036h.108v-.036h.108v-.036h.108v-.036h.18v-.036h.432v.036h.684v.036h.252v.036h.288v.036h.036v.036h.144v.036h.108v.072h-.036v.072h-.036v.036h-.108v.072h-.072v-.036h-.576v-.036h-.144v.036h-.036v.036h-.072v-.036h-.216v.036h-.36v.036h-.216v.036h-.144v.036h-.144v.036h-.108v.036h-.072v.036h-.108v.036H10v.036h-.072v.036h-.036v.036H9.82v.036h-.072v.036h-.036v.036h-.036v.036H9.64v.036h-.072v.036h-.036v.036h-.216v-.036H9.28v-.036h-.072v-.036h-.036v-.036h-.036v-.036H9.1v-.036h-.036v-.036h-.036v-.036h-.072v-.036H8.92v-.036h-.072V15.4h-.036v-.036h-.108v-.036h-.072v-.036h-.036v-.036H8.56v-.072h-.216v-.036h-.288v-.036H7.48v.036h-.144v.036h-.108v.036H7.12v.036h-.072v.036H6.94v.036h-.072v.036h-.036v.036H6.76v.036h-.072v.036h-.036v.036h-.036v.036H6.58v.036h-.072v.036h-.036v.036h-.18v-.036h-.036v-.036H6.22v-.036h-.036v-1.116h.036v-.036h.036v-.036h.036v-.036h.18v.036h.036v.036h.072v.036h.036v.468h.036v-.036h.072v-.036h.036v-.036h.036v-.036h.036v-.036h.072v-.036h.036v-.036h.072v-.036h.036v-.036h.072v-.036h.036V14.5h.072v-.036H7.3v-.036h.036v-.036h.036v-.036h.072v-.036h.072v-.036h.072v-.036h.072v-.036h.036v-.036h.108v-.036h.108v-.036h.036v-.036h.108v-.036h.072v-.036H8.2v-.036h.108v-.036h.144v-.036h.072v-.036h.072v-.072h.144v-.036h.108v-.036h.324v-.036h.036v-.036h.036V13.6h.036v-.108h.036v-.036H9.28v-.396h.036v-.036h.036v-.036Zm-.288 1.188v.036h-.108v.036h-.144v.036H8.74v.036h-.108v.036h-.036v.396h.036v.036h.108v.036h.108v.036h.036v.036h.108v.036h.036v.036H9.1v.036h.072v-.828h-.108Z" />
  <path fill="#0986C6"
    d="M8.848 13.708h.144v.036H8.92v.072h-.108v.036h.108v.036h-.072v.036h-.036v.036h-.036v.036h.036v.036h.072v.036h.072v.036h.216v.036h-.036v.036h-.072v.036h-.108v.036h-.144v.036H8.74v.036h-.108v.036h-.036v.396h.036v.036h.108v.036h.108v.036h.036v.036h.108v.036h.036v.036H9.1v.036h.072v-.828h.072v.864h-.036v.036h.036v.036h-.072v-.072h-.18v.036h-.036v.108H8.92v.036h-.036v.036h-.036v.108h.144v.036h.036v.036h.036v.036h.072v.036h.072v.072h.036v.036h.036v.036h.036v.072h.216v-.036h-.036v-.036h.144v-.036h.036v-.072h.036v-.036h.108v-.072h.072V15.4h.072v-.036h.144v-.072h.072v-.036h.108v-.036h.036v-.072h.036v.036h.036v-.036h.216v-.036h.036v-.036h.036v-.036h.108v.036h.036v.036h.54v.036h-.144v.036h-.36v.036h-.216v.036h-.144v.036h-.144v.036h-.108v.036h-.072v.036h-.108v.036H10v.036h-.072v.036h-.036v.036H9.82v.036h-.072v.036h-.036v.036h-.036v.036H9.64v.036h-.072v.036h-.036v.036h-.216v-.036H9.28v-.036h-.072v-.036h-.036v-.036h-.036v-.036H9.1v-.036h-.036v-.036h-.036v-.036h-.072v-.036H8.92v-.036h-.072V15.4h-.036v-.036h-.108v-.036h-.072v-.036h-.036v-.036H8.56v-.072h-.216v-.036h-.288v-.036H7.48v.036h-.144v.036h-.108v.036H7.12v.036h-.072v.036H6.94v.036h-.072v.036h-.036v.036H6.76v.036h-.072v.036h-.036v.036h-.036v.036H6.58v.036h-.072v.036h-.036v.036h-.18v-.036h-.036v-.036H6.22v-.036h-.036v-1.116h.036v-.036h.036v-.036h.036v-.036h.18v.036h.036v.036h.072v.036h.036v.468h.036v-.036h.072v-.036h.036v-.036h.036v-.036h.036v-.036h.072v-.036h.036v-.036h.072v-.036h.036v-.036h.072v-.036h.036V14.5h.072v-.036H7.3v-.036h.036v-.036h.036v-.036h.072v-.036h.072v-.036h.072v-.036h.072v-.036h.036v-.036h.108v-.036h.108v-.036h.036v-.036h.108v-.036h.072v-.036H8.2v-.036h.108v-.036h.144v-.036h.072v-.036h.072v-.072h.144v-.036h.108v-.036Zm-.072.324v.036h.036v-.036h-.036Z" />
  <path fill="#022F58"
    d="M12.088 13.888h.288v.036h.324v.036h.18v.036h.18v1.116h-.072v-.036h-.072v-.036h-.108v-.036h-.072v-.036h-.072v-.036h-.108v-.036h-.108v-.036h-.108v-.036h-.072v-.036h-.216v-.036h-.072v-.072h-.036v-.144h.036v-.216h.036v-.288h.036v-.108h.036v-.036Z" />
  <path fill="#01315D"
    d="M13.492 14.14h.18v.036h.108v.036h.144v.036h.108v.036h.108v.036h.108v.036h.036v.036h.108v.036h.072v.036h.072v.036h.108v.036h.072v.036h.108v.036h.072v.036h.036v.036h-.252v.036h-.252v.036h-.18v.036h-.108v.036h-.108v.036h-.144v.036h-.072v.036h-.072v.036h-.108v.036H13.6v.036h-.036v.036h-.072v-.936Z" />
  <path fill="#1685B9"
    d="M9.316 12.916h.216v.036h.036v.036h.036v.036h.036v.036h.036v.468h.108v-.036h.252v-.036h.288v-.036h.468v-.036h1.152v.036h.072v-.036h.036v.036h.036v-.036h.036v.072h.324v.036h.072v.036h.288v.036h-.612v-.036h-.144v-.036h-1.44v.036h-.144v.036h-.036v-.036h-.144v.036h-.036v-.036h-.036v.036h-.036v-.036h-.036v.036h-.396v.036h-.144v-.036h-.036v-.504h-.036v-.036h-.036v-.036h-.144v.036h-.036v.036H9.28v.396h.036v.036H9.28v.108h-.036v.036h-.036v.036h-.036v.036h-.18v-.036h.144v-.036h.036v-.576h.036v-.072h.036v-.036h.072v-.036Z" />
  <path fill="#0B2B45" d="M8.488 10.036h.072v.036h.036V13.6H8.56v.144h-.036v.072h-.036v-3.78Z" />
  <path fill="#188CC1"
    d="M16.228 14.284h.18v.036h.072v.036h.036v.036h.036v.108h.036v.756h-.036v.288h-.036v-.072h-.036v-.756h-.036v.036h-.036v-.036h-.036v.036h-.036v-.144h-.072v-.072h-.108v.252h.036v.036h-.072v.108h-.072v-.072h-.072v-.036h-.18v-.036h-.036v-.108h-.18v-.108h-.072v-.036h-.036V14.5h-.036v-.036h.108v.036h.072v.036h.036v.036h.072v.036h.036v.036h.072v.036h.036v.036h.072v.036h.036v.036h.072V14.5h.036v-.108h.036v-.036h.036v-.036h.072v-.036Z" />
</svg>