<svg xmlns="http://www.w3.org/2000/svg" fill="none" viewBox="0 0 20 20">
  <rect width="20" height="20" fill="#083C5C" rx="4" />
  <path fill="#fff"
    d="m10.34 14.05.62-.01.87.01c1 0 1.56-.74 1.56-1.62 0-.93-.6-1.5-1.45-1.5l-.98.02-.62-.01v.17h.15c.2 0 .23.03.23.23v2.31c0 .2-.03.23-.23.23h-.15v.17Zm.82-2.88.63-.01c.6 0 1.1.39 1.1 1.22 0 .86-.3 1.47-1.24 1.47l-.49-.02v-2.65Zm-4.25 1.36c0 .76.4 1.57 1.48 1.57 1.05 0 1.57-.79 1.57-1.65 0-.94-.58-1.55-1.53-1.55-.93 0-1.52.67-1.52 1.63Zm.49-.04c0-.92.45-1.4 1.03-1.4.73 0 1.03.64 1.03 1.36 0 .8-.29 1.46-1.07 1.46-.55 0-.99-.44-.99-1.42Zm-.98.82c-.28.31-.62.5-1.07.5-.62 0-1.16-.42-1.16-1.36 0-.78.39-1.36 1.1-1.36.62 0 .86.37.94.76h.17v-.75c-.26-.05-.52-.2-1.07-.2-1.08 0-1.64.68-1.64 1.63 0 .78.48 1.58 1.51 1.58.5 0 .9-.16 1.35-.64l-.13-.16ZM11.08 10.28c.15-.01.33-.02.7-.02l1.62.02.16-.76h-.2c-.19.5-.24.53-.56.53h-.93v-1.3h.56c.38 0 .44.02.44.36v.05h.18V8.2h-.18v.08c0 .24-.04.25-.6.25h-.4V7.4h.78c.38 0 .45.04.52.5h.19l-.04-.74c-.2.02-.41.02-.64.02h-1.3l-.3-.02v.18h.13c.2 0 .23.02.23.23v2.3c0 .2-.03.23-.23.23h-.12v.18h-.01ZM9.14 7.36h.42c.46 0 .72.22.72.64 0 .37-.22.67-.8.67h-.34v-1.3Zm-.82 2.92.6-.02.6.02v-.17h-.15c-.2 0-.23-.03-.23-.24v-1h.4c.79 0 1.2-.3 1.2-.9 0-.44-.3-.81-1.02-.81l-.8.02-.6-.02v.17h.15c.2 0 .23.03.23.23v2.3c0 .21-.03.23-.23.23H8.3v.2h.01ZM6.8 8.91h-.97l.5-1.24.47 1.24Zm-2.02 1.37.5-.02.5.02v-.17h-.15c-.15 0-.2-.06-.2-.13 0-.1.06-.22.11-.34l.22-.54h1.13l.27.75.04.13c0 .1-.07.12-.19.12h-.15v.18c.2-.02.4-.02.6-.02l.6.02v-.18h-.11c-.15 0-.2-.05-.27-.21L6.57 7.12h-.23L5.2 9.82c-.1.24-.17.28-.32.28h-.1v.18Zm-.05-.75c-.28.32-.62.5-1.07.5-.62 0-1.16-.42-1.16-1.36 0-.78.4-1.36 1.1-1.36.62 0 .86.37.94.76h.18v-.75c-.26-.05-.53-.2-1.08-.2C2.56 7.12 2 7.8 2 8.75c0 .78.48 1.57 1.51 1.57.5 0 .91-.15 1.35-.64l-.13-.15ZM14.24 10.63l.11.08c.33-.25.76-.4 1.17-.4.95 0 1.64.73 1.64 1.74 0 1-.69 1.85-1.5 1.85-.7 0-.91-.77-1.5-.77-.2 0-.37.15-.37.34 0 .38.73.69 1.61.69 1.48 0 2.6-1.02 2.6-2.35a2.27 2.27 0 0 0-2.26-2.25c-.46 0-.85.1-1.2.28l.1-1.98h2.8l.11-.86h-.2c-.07.1-.13.14-.33.14h-2.61l-.17 3.5Z" />
</svg>