<svg xmlns="http://www.w3.org/2000/svg" fill="none" viewBox="0 0 20 20">
  <rect width="20" height="20" fill="url(#a)" rx="4" />
  <path fill="#fff"
    d="m15.86 12.97-2.98 2.9a.48.48 0 0 1-.33.13h-3.2a.64.64 0 0 1-.64-.63v-1.3c0-.34.29-.62.64-.62h2.1c.13 0 .25-.05.34-.14l1.72-1.67a.49.49 0 0 1 .52-.1l1.68.68c.3.13.39.52.15.75Zm-.15-5.2-1.68.69a.49.49 0 0 1-.52-.1l-1.72-1.67a.48.48 0 0 0-.33-.14H8.98a.66.66 0 0 0-.46.19l-1.7 1.65a.62.62 0 0 0-.19.44v5.1c0 .4-.51.6-.81.32l-1.63-1.58a.62.62 0 0 1-.19-.44V7.7c0-.13.05-.24.14-.33l3.34-3.24A.48.48 0 0 1 7.82 4h4.73c.12 0 .24.05.33.14l2.98 2.89c.24.23.16.62-.15.75Zm-6.92 2.5v-.5a.8.8 0 0 1 .25-.58l.37-.36a.68.68 0 0 1 .47-.19h.6c.17 0 .34.07.47.2l.42.4c.13.12.2.29.2.46v.5a.8.8 0 0 1-.25.58l-.32.32a.85.85 0 0 1-.6.24h-.52a.68.68 0 0 1-.47-.2l-.42-.4a.64.64 0 0 1-.2-.46Z" />
  <defs>
    <linearGradient id="a" x1="1" x2="19" y1="1" y2="18.5" gradientUnits="userSpaceOnUse">
      <stop stop-color="#BF45F5" />
      <stop offset="1" stop-color="#4172F6" />
    </linearGradient>
  </defs>
</svg>