<svg xmlns="http://www.w3.org/2000/svg" fill="none" viewBox="0 0 20 20">
  <g clip-path="url(#a)">
    <rect width="20" height="20" fill="#fff" rx="4" />
    <path fill="#DD0F23"
      d="M13.66 3.24c-4.11 1.5-4.4 1.54-5.7.62-1.06-.75-1.34-.84-1.85-.57-.74.38-.87 1.6-.2 1.99.2.1.03.14-.72.15-2.1 0-2.4.24-1.47 1.12.7.67 1.14.94 1.5.94.32 0 .43.19.19.34a92.8 92.8 0 0 0-3.05 3.4l-3.19 3.64c-.36.4-1.02 1.7.33 3.13 2.61 2.77 6.91 3.16 10.5 2.86l1-.08.08-.91c.23-2.45.08-3.95-.78-7.39-.8-3.2-1.05-5.37-.66-6.06.48-.87 2.91-1.3 6.9-1.24 1.35.02 2.46.03 2.46 0C19 4.85 17.34 2 17.15 2c-.08 0-1.65.56-3.49 1.24Zm-6.63.2c.46.33.24 1.33-.16 1.63-.9.67-1.72-.86-.84-1.55.41-.32.72-.23 1-.07Z" />
    <path fill="#0F5694"
      d="M14.44 5.96c-3.45.52-3.28.37-3.26 2.66.02 1 .06 2.22.11 2.71l.1.9.09-1.38c.05-.75.1-1.78.1-2.29 0-.79.17-1.27.46-1.35l3.25-.81c3.77-.95 3.52-1.08-.85-.44Z" />
  </g>
  <defs>
    <clipPath id="a">
      <rect width="20" height="20" fill="#fff" rx="4" />
    </clipPath>
  </defs>
</svg>