<svg xmlns="http://www.w3.org/2000/svg" fill="none" viewBox="0 0 20 20">
  <g clip-path="url(#clip0_89_174)">
    <rect width="20" height="20" fill="#fff" rx="4" />
    <mask id="mask0_89_174" width="14" height="9" x="3" y="6" maskUnits="userSpaceOnUse"
      style="mask-type:luminance">
      <path fill="#fff" d="M17 6H3v8.09h14V6Z" />
    </mask>
    <g mask="url(#mask0_89_174)">
      <path fill="#255BE3"
        d="M3.012 11.489c0-1.444 1.182-2.568 2.723-2.568.89 0 1.705.397 2.17.998l-.669.668a1.916 1.916 0 0 0-1.492-.736c-.92 0-1.656.688-1.656 1.638 0 .959.736 1.647 1.656 1.647a1.936 1.936 0 0 0 1.54-.766l.66.65c-.446.63-1.299 1.046-2.21 1.046-1.54 0-2.722-1.124-2.722-2.577ZM8.816 9.095h1.056v4.796H8.816V9.095ZM11.838 12.603V9.987h-1.152v-.892h1.2V8.069l.99-.484v1.511h1.569v.892h-1.57v2.441c0 .485.271.698.785.698a1.86 1.86 0 0 0 .775-.165v.911c-.305.134-.636.2-.969.194-.94 0-1.628-.514-1.628-1.463ZM15.278 9.095h1.056v4.796h-1.056V9.095Z" />
      <path fill="#FF3C28"
        d="M12.565 6.044a5.405 5.405 0 0 1 4.428 2.286h-1.23a4.3 4.3 0 0 0-6.395 0h-1.23a5.405 5.405 0 0 1 4.427-2.286Z" />
    </g>
  </g>
  <defs>
    <clipPath id="clip0_89_174">
      <rect width="20" height="20" fill="#fff" rx="4" />
    </clipPath>
  </defs>
</svg>