<svg xmlns="http://www.w3.org/2000/svg" fill="none" viewBox="0 0 20 20">
  <rect width="20" height="20" fill="#000" rx="4" />
  <path fill="#fff"
    d="M10 12.073 6.974 15.61a.541.541 0 0 1-.444.223.515.515 0 0 1-.53-.513c0-.146.055-.286.154-.393l3.162-3.573-3.042-3.487a.607.607 0 0 1-.188-.41.523.523 0 0 1 .547-.514.536.536 0 0 1 .427.223L10 10.62l2.94-3.453a.536.536 0 0 1 .427-.223.523.523 0 0 1 .547.513.607.607 0 0 1-.188.41l-3.042 3.488 3.162 3.573a.578.578 0 0 1 .154.393.518.518 0 0 1-.53.513.541.541 0 0 1-.444-.223L10 12.073ZM10 5.746A.873.873 0 1 0 10 4a.873.873 0 0 0 0 1.746Z" />
</svg>