<svg xmlns="http://www.w3.org/2000/svg" fill="none" viewBox="0 0 20 20">
  <g clip-path="url(#clip0_110_1777)">
    <rect width="20" height="20" fill="#F38020" rx="4" />
    <path fill="#fff"
      d="M13.02 11.97a.9.9 0 0 0-.74-.38l-5.98-.08a.11.11 0 0 1-.1-.05.14.14 0 0 1 0-.11.17.17 0 0 1 .14-.11l6.03-.09c.71-.03 1.49-.63 1.76-1.37l.35-.94a.2.2 0 0 0 0-.12 3.96 3.96 0 0 0-3.83-3.2A3.95 3.95 0 0 0 6.93 8.3c-.35-.28-.8-.4-1.24-.36a1.8 1.8 0 0 0-1.57 1.64c-.02.22-.01.44.04.65a2.57 2.57 0 0 0-2.42 3c.01.06.06.1.12.1H12.9c.06 0 .12-.04.14-.1l.08-.32c.1-.36.07-.7-.1-.94Zm2-3.06h-.16c-.04 0-.07.04-.09.08l-.23.85c-.1.36-.06.7.1.94a.9.9 0 0 0 .74.38l1.27.08c.04 0 .08.02.1.05.02.03.02.07.01.11a.17.17 0 0 1-.14.11l-1.33.08c-.72.04-1.49.64-1.76 1.38l-.1.26c-.02.05.02.1.07.1h4.56a.12.12 0 0 0 .11-.09 3.35 3.35 0 0 0-3.15-4.33Z" />
  </g>
  <defs>
    <clipPath id="clip0_110_1777">
      <rect width="20" height="20" fill="#fff" rx="4" />
    </clipPath>
  </defs>
</svg>