<svg viewBox="0 0 20 20" fill="none" xmlns="http://www.w3.org/2000/svg">
  <rect width="20" height="20" rx="4" fill="#030303" />
  <path
    d="M16.5685 12.4112C16.5684 12.419 16.5673 12.4267 16.5651 12.4342C16.5643 12.4368 16.5634 12.4393 16.5623 12.4418C16.3775 12.9381 16.1368 13.4117 15.8447 13.8535L15.8431 13.8556C15.836 13.8659 15.8264 13.8743 15.8153 13.8801C15.8042 13.8859 15.7919 13.8889 15.7793 13.8889H9.99998C7.85222 13.8889 6.11108 12.1478 6.11108 10C6.11108 7.85228 7.85222 6.11115 9.99998 6.11115H15.7793C15.7919 6.11115 15.8042 6.11418 15.8153 6.11997C15.8264 6.12577 15.836 6.13416 15.8431 6.14443L15.8447 6.14661C16.1367 6.58824 16.3774 7.0617 16.5623 7.55781C16.5634 7.56029 16.5643 7.56284 16.5651 7.56544C16.5673 7.57291 16.5684 7.58066 16.5685 7.58846C16.5685 7.60909 16.5603 7.62887 16.5457 7.64346C16.5311 7.65804 16.5113 7.66624 16.4907 7.66624H9.99998C9.38114 7.66595 8.78753 7.9115 8.34974 8.34889C7.91195 8.78627 7.66584 9.37965 7.66555 9.99849C7.66526 10.6173 7.91082 11.2109 8.3482 11.6487C8.78558 12.0865 9.37896 12.3326 9.9978 12.3329H16.4907C16.5113 12.3329 16.5311 12.3411 16.5457 12.3557C16.5603 12.3703 16.5685 12.3901 16.5685 12.4107V12.4112Z"
    fill="white" />
  <path
    d="M17 10C17 10.2353 16.9883 10.4702 16.9649 10.7047V10.7114C16.9621 10.7298 16.9529 10.7467 16.9388 10.7589C16.9247 10.7711 16.9067 10.7778 16.888 10.7778H10C9.79373 10.7778 9.5959 10.6959 9.45004 10.55C9.30417 10.4042 9.22223 10.2063 9.22223 10C9.22223 9.79376 9.30417 9.59593 9.45004 9.45007C9.5959 9.3042 9.79373 9.22226 10 9.22226H16.8874C16.906 9.22228 16.9241 9.229 16.9382 9.24119C16.9523 9.25339 16.9615 9.27024 16.9642 9.28868V9.29537C16.9881 9.52953 17 9.76442 17 10Z"
    fill="white" />
  <path
    d="M14.2524 15.5223C14.2524 15.5337 14.2499 15.5449 14.2451 15.5552C14.2402 15.5656 14.2332 15.5747 14.2244 15.582C14.2224 15.5837 14.2203 15.5853 14.218 15.5868C13.1109 16.4254 11.7782 16.9138 10.3914 16.9893C6.2598 17.2178 2.81642 13.8051 3.0076 9.67118C3.17933 5.95775 6.24425 3.00001 9.99999 3.00001C11.5225 2.99755 13.004 3.49387 14.2177 4.41308C14.2201 4.41465 14.2224 4.41637 14.2246 4.41821C14.2368 4.42847 14.2456 4.44224 14.2497 4.45765C14.2538 4.47306 14.2531 4.48937 14.2477 4.50436C14.2422 4.51936 14.2323 4.53231 14.2192 4.54147C14.2062 4.55063 14.1906 4.55555 14.1746 4.55557H9.99999C6.99309 4.55557 4.55553 6.99313 4.55553 10C4.55553 13.0069 6.99309 15.4445 9.99999 15.4445H14.1746C14.1953 15.4445 14.2151 15.4527 14.2296 15.4673C14.2442 15.4818 14.2524 15.5016 14.2524 15.5223Z"
    fill="white" />
</svg>
  