<?xml version="1.0" encoding="UTF-8"?>
<svg version="1.1" xmlns="http://www.w3.org/2000/svg" width="1571" height="1519">
<path d="M0 0 C1.13861795 -0.00282738 2.27723591 -0.00565475 3.45035744 -0.00856781 C9.50149374 -0.02343439 15.55260707 -0.03273713 21.60375977 -0.03710938 C26.47493164 -0.04144773 31.34592177 -0.05517606 36.21704102 -0.078125 C70.35951543 -0.23550573 104.24316051 0.78230471 138.30078125 3.203125 C139.79326772 3.30681557 141.28576924 3.4102899 142.77828979 3.51348877 C150.58503305 4.06126454 158.38152456 4.68795108 166.17578125 5.390625 C167.31317749 5.49161499 168.45057373 5.59260498 169.62243652 5.69665527 C251.27232606 13.02289158 332.0553521 27.2626898 411.30078125 48.203125 C412.13899414 48.42438049 412.97720703 48.64563599 413.84082031 48.87359619 C419.10627005 50.26756818 424.36252355 51.69237401 429.61328125 53.140625 C430.86343018 53.48174316 432.1135791 53.82286133 433.40161133 54.17431641 C458.84835412 61.37305437 479.215551 76.48704346 492.45703125 99.46508789 C506.98340178 125.70815928 503.78740045 152.40374604 498.92730689 180.84285235 C498.2678311 184.72445194 497.62772293 188.60925548 496.98506165 192.4936676 C495.85465366 199.31047564 494.7125542 206.12524125 493.56262207 212.93878174 C491.86050824 223.02500783 490.17714274 233.11429786 488.49828935 243.20441866 C486.33121268 256.22771804 484.15996412 269.25031398 481.97940063 282.2713623 C481.80386803 283.31954628 481.62833543 284.36773025 481.44748366 285.44767737 C481.18201171 287.03289014 481.18201171 287.03289014 480.91117668 288.65012741 C475.89701543 318.5913597 470.92423196 348.53937817 465.96216893 378.48928428 C464.8896564 384.96255475 463.81687996 391.43578148 462.74412537 397.90901184 C462.31409345 400.50393643 461.88406167 403.09886103 461.45403004 405.69378567 C461.24120463 406.97802044 461.02837922 408.26225521 460.80910456 409.58540618 C460.37919783 412.17959775 459.94930299 414.77379129 459.51942003 417.3679868 C456.60208699 434.97301548 453.68287088 452.5777303 450.76039112 470.18190539 C450.35921653 472.59847083 449.95807284 475.01504141 449.55696023 477.43161714 C447.40524518 490.3947622 445.25108539 503.3574933 443.09107971 516.31925964 C442.32809262 520.89932903 441.56533742 525.47943697 440.80273438 530.05957031 C440.52236275 531.74314823 440.52236275 531.74314823 440.23632705 533.46073782 C437.76086212 548.33239082 435.31636635 563.20878567 432.90021896 578.09018898 C431.62822694 585.92374925 430.34677591 593.75575355 429.06299901 601.5873903 C428.04250794 607.81831389 427.03460371 614.05108999 426.03682423 620.2856884 C425.42234677 624.10520036 424.7954184 627.92259419 424.16515064 631.73952913 C423.88076884 633.47725683 423.60138388 635.21581228 423.32784557 636.95527983 C418.90049907 665.05877976 408.35691951 688.82925271 385.62890625 706.88671875 C375.61704121 714.11376576 364.29596766 719.34261283 352.30078125 722.203125 C351.41519531 722.42613281 350.52960938 722.64914062 349.6171875 722.87890625 C327.92649405 727.61669516 303.97725305 722.88749875 285.23828125 711.2265625 C277.91659318 706.18316567 271.08584171 700.53393544 264.265625 694.83984375 C254.25122969 686.4865153 243.99217761 678.67091699 233.30078125 671.203125 C232.51380859 670.65237305 231.72683594 670.10162109 230.91601562 669.53417969 C199.51577735 647.63028878 166.3224816 629.35705476 130.30078125 616.203125 C129.1809082 615.79030273 128.06103516 615.37748047 126.90722656 614.95214844 C99.83098713 605.08924874 71.98909619 599.05524485 43.30078125 596.203125 C42.46321289 596.1103125 41.62564453 596.0175 40.76269531 595.921875 C30.46890144 594.8987077 20.13508651 594.95940479 9.80078125 594.953125 C8.80178802 594.95245026 7.8027948 594.95177551 6.77352905 594.95108032 C-58.45369447 595.02086578 -127.7301743 613.64286603 -181.69921875 651.203125 C-182.37388184 651.6657373 -183.04854492 652.12834961 -183.74365234 652.60498047 C-196.21718921 661.16678051 -207.8418072 670.34623569 -218.921875 680.6484375 C-221.18199543 682.72736684 -223.47506196 684.72737543 -225.82421875 686.703125 C-244.26786423 702.78415473 -258.66225419 725.02765389 -268.69921875 747.203125 C-268.9813623 747.82396973 -269.26350586 748.44481445 -269.55419922 749.08447266 C-280.84707537 774.39196116 -283.8708278 803.36482148 -274.51171875 829.703125 C-259.12588466 867.36874259 -225.90386769 889.80063135 -189.69921875 905.203125 C-107.3898739 937.93186081 -10.15296875 925.49129147 72.30078125 899.203125 C73.34588867 898.87119141 74.39099609 898.53925781 75.46777344 898.19726562 C102.575326 889.47357769 128.87005987 877.98029476 154.30078125 865.203125 C155.48389893 864.60951172 155.48389893 864.60951172 156.69091797 864.00390625 C180.79052704 851.81490002 203.82230836 837.71290463 226.36328125 822.87109375 C248.82411901 808.19270017 272.54701311 801.49320549 299.36328125 806.453125 C322.84054896 811.92355631 343.66063899 825.45527099 356.67578125 845.953125 C377.6585299 880.52847183 368.76537797 916.10741286 359.84527206 953.00042343 C358.80088862 957.32805873 357.76548178 961.6578395 356.72973633 965.98754883 C356.29223137 967.81608828 355.85471596 969.64462523 355.41719055 971.47315979 C355.19589289 972.39807283 354.97459522 973.32298588 354.74659157 974.27592659 C354.05750386 977.15437445 353.36745236 980.03258981 352.6771698 982.91075134 C347.44823858 1004.7197124 342.29689658 1026.54695772 337.14468384 1048.37414551 C334.64170714 1058.97767105 332.13588314 1069.58052388 329.63039589 1080.18345642 C328.79846758 1083.70419768 327.96662667 1087.22495957 327.1348114 1090.74572754 C322.00266406 1112.46784093 316.86544843 1134.18875407 311.72656631 1155.90927505 C311.05039392 1158.76726213 310.37423902 1161.62525334 309.6980896 1164.48324585 C307.90645813 1172.05621782 306.11480328 1179.62918426 304.32307434 1187.20213318 C302.07137554 1196.71919803 299.81975548 1206.2362815 297.56835938 1215.75341797 C297.34176762 1216.71126536 297.11517586 1217.66911276 296.88171768 1218.65598583 C295.73315127 1223.51124714 294.58464087 1228.36652169 293.43621826 1233.22181702 C291.37916863 1241.91843084 289.32185567 1250.61498173 287.26282883 1259.31112766 C286.12942876 1264.09799195 284.99628752 1268.88491749 283.86328125 1273.671875 C283.63837257 1274.62209471 283.4134639 1275.57231441 283.18173981 1276.55132866 C280.03215523 1289.86030402 276.89482857 1303.17212301 273.76586914 1316.48596191 C272.00778708 1323.96642389 270.24645655 1331.44611999 268.48442078 1338.92565155 C267.28554493 1344.01579643 266.0885083 1349.10635823 264.89599609 1354.19799805 C256.42057931 1390.37801164 256.42057931 1390.37801164 252.91015625 1402.796875 C252.5853125 1403.95243896 252.5853125 1403.95243896 252.25390625 1405.13134766 C245.71648211 1427.31881444 230.63987822 1445.97749458 210.36035156 1457.13598633 C200.93827635 1462.01790795 191.51156504 1465.65247509 181.30078125 1468.515625 C180.64726685 1468.70155212 179.99375244 1468.88747925 179.32043457 1469.07904053 C151.39233135 1477.01974367 123.09532763 1483.47484111 94.55517578 1488.78314209 C92.30172691 1489.20294883 90.04929604 1489.62793994 87.796875 1490.05322266 C56.02729169 1496.01312963 23.97163943 1499.95104106 -8.11114502 1503.77539062 C-11.36071069 1504.16277144 -14.60981754 1504.55379555 -17.85888672 1504.9453125 C-75.04734519 1511.78390526 -133.12961925 1516.2604127 -190.69921875 1518.203125 C-192.5407251 1518.27080078 -192.5407251 1518.27080078 -194.41943359 1518.33984375 C-250.07079993 1520.34892297 -306.17816016 1520.7754606 -361.69921875 1516.203125 C-362.72936096 1516.120625 -363.75950317 1516.038125 -364.82086182 1515.953125 C-454.40596274 1508.76849351 -543.01802423 1490.3305285 -696.02783203 1430.44482422 C-698.48512674 1429.30263807 -700.9481622 1428.17423551 -703.4140625 1427.05078125 C-712.53400753 1422.86940518 -721.27028538 1418.20657437 -729.9609375 1413.19775391 C-732.31321278 1411.85180313 -734.69077773 1410.55544446 -737.07421875 1409.265625 C-738.94949336 1408.24529621 -740.82445707 1407.22439595 -742.69921875 1406.203125 C-743.33520996 1405.85701172 -743.97120117 1405.51089844 -744.62646484 1405.15429688 C-762.56220388 1395.36890867 -779.82691893 1384.7232642 -796.69921875 1373.203125 C-797.62492676 1372.57180664 -798.55063477 1371.94048828 -799.50439453 1371.29003906 C-810.63179716 1363.68014125 -821.6170889 1355.99047025 -832.08984375 1347.49755859 C-834.3653909 1345.66731724 -836.67396097 1343.88062206 -838.98022461 1342.08935547 C-845.81271045 1336.77280694 -852.46115877 1331.26803611 -859.02978516 1325.62988281 C-860.77011051 1324.14253836 -862.52077806 1322.66809576 -864.2734375 1321.1953125 C-870.62199244 1315.84005722 -876.68002152 1310.36720566 -882.48828125 1304.41796875 C-884.41230774 1302.49054292 -886.37177825 1300.71062213 -888.44921875 1298.953125 C-896.82677022 1291.76992914 -904.74438473 1283.7349743 -911.87109375 1275.3125 C-913.86058608 1273.01693193 -915.92123385 1270.8004334 -917.99511719 1268.58129883 C-922.9416161 1263.28530239 -927.70279267 1257.91098677 -932.23828125 1252.25390625 C-934.10675766 1249.93758866 -935.99537054 1247.64860449 -937.91015625 1245.37109375 C-950.29445516 1230.6061339 -961.23830016 1215.01650179 -971.94921875 1199.015625 C-972.36737854 1198.3924942 -972.78553833 1197.7693634 -973.21636963 1197.12734985 C-981.14825945 1185.28724415 -988.63039071 1173.18782017 -995.51171875 1160.703125 C-995.9185791 1159.96505615 -996.32543945 1159.2269873 -996.74462891 1158.46655273 C-998.06991308 1156.04919641 -999.38599959 1153.62705534 -1000.69921875 1151.203125 C-1001.16730957 1150.34219238 -1001.63540039 1149.48125977 -1002.11767578 1148.59423828 C-1032.51348351 1092.40620052 -1051.8343565 1031.19359238 -1061.69921875 968.203125 C-1061.86115723 967.20764648 -1062.0230957 966.21216797 -1062.18994141 965.18652344 C-1075.13395031 884.55885852 -1067.95009986 799.11196676 -1048.4140625 720.10742188 C-1047.74992618 717.40914127 -1047.11299919 714.70582467 -1046.48046875 712 C-1039.44592154 682.77152519 -1029.3460492 653.95913307 -1017.90527344 626.18139648 C-1016.58755117 622.92736938 -1015.33366385 619.65255806 -1014.0859375 616.37109375 C-1012.39502113 611.95148123 -1010.62298527 607.65441919 -1008.57421875 603.390625 C-1007.97271843 602.12949688 -1007.37255832 600.86772903 -1006.7734375 599.60546875 C-1006.44649902 598.91694824 -1006.11956055 598.22842773 -1005.78271484 597.51904297 C-1004.54986113 594.88388065 -1003.35135814 592.23452339 -1002.15625 589.58203125 C-996.81630219 577.74489211 -991.24751925 566.12163793 -985.05322266 554.70800781 C-983.59109048 552.00308966 -982.15037957 549.2873686 -980.7109375 546.5703125 C-964.98596411 517.02546461 -947.44758329 488.24212699 -927.69921875 461.203125 C-927.14524414 460.44338379 -926.59126953 459.68364258 -926.02050781 458.90087891 C-922.49809942 454.07893167 -918.95264627 449.27455502 -915.39111328 444.48144531 C-913.79075022 442.3263821 -912.1958594 440.16736478 -910.6015625 438.0078125 C-904.02317921 429.13049134 -897.1776321 420.50474764 -890.15527344 411.97509766 C-888.86418526 410.40388405 -887.58183291 408.82550109 -886.30078125 407.24609375 C-881.53221021 401.36715147 -876.64433094 395.60110811 -871.68334961 389.88427734 C-869.52833795 387.39124555 -867.5298082 384.94900918 -865.69921875 382.203125 C-865.03921875 382.203125 -864.37921875 382.203125 -863.69921875 382.203125 C-863.4367334 381.61845459 -863.17424805 381.03378418 -862.90380859 380.43139648 C-861.63723342 378.08846344 -860.26573381 376.46974862 -858.42578125 374.55078125 C-857.76449219 373.85533203 -857.10320312 373.15988281 -856.421875 372.44335938 C-855.72964844 371.72470703 -855.03742188 371.00605469 -854.32421875 370.265625 C-852.98225427 368.86145901 -851.641134 367.45648581 -850.30078125 366.05078125 C-849.57375 365.28991211 -848.84671875 364.52904297 -848.09765625 363.74511719 C-845.90591789 361.4221958 -843.745398 359.0733442 -841.59207153 356.71485901 C-834.72832216 349.20867335 -827.61924838 341.96939642 -820.41601562 334.78955078 C-818.43371631 332.8126649 -816.45689242 330.83041461 -814.48046875 328.84765625 C-803.39055315 317.751921 -803.39055315 317.751921 -797.44873047 312.70751953 C-794.1492534 309.87031918 -791.03827839 306.82729641 -787.88671875 303.828125 C-782.51020375 298.74576962 -777.06046285 293.91918346 -771.2734375 289.30859375 C-768.48891527 287.03111654 -765.84508072 284.64000492 -763.19921875 282.203125 C-757.86941767 277.30933021 -752.33086297 272.74291983 -746.69921875 268.203125 C-745.46916859 267.19378406 -744.24005665 266.18329902 -743.01171875 265.171875 C-734.46550682 258.150071 -725.75896428 251.40268278 -716.87109375 244.8203125 C-714.55451209 243.0953758 -712.25087178 241.35417649 -709.94921875 239.609375 C-682.84209151 219.08323062 -654.5262426 200.22072944 -625.69921875 182.203125 C-624.94979004 181.73390625 -624.20036133 181.2646875 -623.42822266 180.78125 C-601.37314902 167.01722287 -578.68665891 154.33425493 -555.69921875 142.203125 C-554.57837891 141.61112305 -553.45753906 141.01912109 -552.30273438 140.40917969 C-536.93318626 132.31326803 -521.45148833 124.52642261 -505.69921875 117.203125 C-503.92659668 116.37458008 -503.92659668 116.37458008 -502.11816406 115.52929688 C-440.85097657 86.9359906 -376.84436998 63.29909553 -311.69921875 45.203125 C-310.5117807 44.87242004 -310.5117807 44.87242004 -309.300354 44.53503418 C-224.94388018 21.1055988 -137.33125363 5.66790885 -49.81651688 1.30859852 C-48.33279871 1.23468688 -46.84913749 1.15962741 -45.36552048 1.08371258 C-30.23838353 0.32100608 -15.14504524 0.02615517 0 0 Z " fill="#E31837" transform="translate(1067.69921875,-0.203125)"/>
<path d="M0 0 C1.13861795 -0.00282738 2.27723591 -0.00565475 3.45035744 -0.00856781 C9.50149374 -0.02343439 15.55260707 -0.03273713 21.60375977 -0.03710938 C26.47493164 -0.04144773 31.34592177 -0.05517606 36.21704102 -0.078125 C70.35951543 -0.23550573 104.24316051 0.78230471 138.30078125 3.203125 C139.79326772 3.30681557 141.28576924 3.4102899 142.77828979 3.51348877 C150.58503305 4.06126454 158.38152456 4.68795108 166.17578125 5.390625 C167.31317749 5.49161499 168.45057373 5.59260498 169.62243652 5.69665527 C251.27232606 13.02289158 332.0553521 27.2626898 411.30078125 48.203125 C412.13899414 48.42438049 412.97720703 48.64563599 413.84082031 48.87359619 C419.10627005 50.26756818 424.36252355 51.69237401 429.61328125 53.140625 C430.86343018 53.48174316 432.1135791 53.82286133 433.40161133 54.17431641 C458.84835412 61.37305437 479.215551 76.48704346 492.45703125 99.46508789 C506.98340178 125.70815928 503.78740045 152.40374604 498.92730689 180.84285235 C498.2678311 184.72445194 497.62772293 188.60925548 496.98506165 192.4936676 C495.85465366 199.31047564 494.7125542 206.12524125 493.56262207 212.93878174 C491.86050824 223.02500783 490.17714274 233.11429786 488.49828935 243.20441866 C486.33121268 256.22771804 484.15996412 269.25031398 481.97940063 282.2713623 C481.80386803 283.31954628 481.62833543 284.36773025 481.44748366 285.44767737 C481.18201171 287.03289014 481.18201171 287.03289014 480.91117668 288.65012741 C475.89701543 318.5913597 470.92423196 348.53937817 465.96216893 378.48928428 C464.8896564 384.96255475 463.81687996 391.43578148 462.74412537 397.90901184 C462.31409345 400.50393643 461.88406167 403.09886103 461.45403004 405.69378567 C461.24120463 406.97802044 461.02837922 408.26225521 460.80910456 409.58540618 C460.37919783 412.17959775 459.94930299 414.77379129 459.51942003 417.3679868 C456.60208699 434.97301548 453.68287088 452.5777303 450.76039112 470.18190539 C450.35921653 472.59847083 449.95807284 475.01504141 449.55696023 477.43161714 C447.40524518 490.3947622 445.25108539 503.3574933 443.09107971 516.31925964 C442.32809262 520.89932903 441.56533742 525.47943697 440.80273438 530.05957031 C440.52236275 531.74314823 440.52236275 531.74314823 440.23632705 533.46073782 C437.76086212 548.33239082 435.31636635 563.20878567 432.90021896 578.09018898 C431.62822694 585.92374925 430.34677591 593.75575355 429.06299901 601.5873903 C428.04250794 607.81831389 427.03460371 614.05108999 426.03682423 620.2856884 C425.42234677 624.10520036 424.7954184 627.92259419 424.16515064 631.73952913 C423.88076884 633.47725683 423.60138388 635.21581228 423.32784557 636.95527983 C418.90049907 665.05877976 408.35691951 688.82925271 385.62890625 706.88671875 C375.61704121 714.11376576 364.29596766 719.34261283 352.30078125 722.203125 C351.41519531 722.42613281 350.52960938 722.64914062 349.6171875 722.87890625 C327.92649405 727.61669516 303.97725305 722.88749875 285.23828125 711.2265625 C277.91659318 706.18316567 271.08584171 700.53393544 264.265625 694.83984375 C254.25122969 686.4865153 243.99217761 678.67091699 233.30078125 671.203125 C232.51380859 670.65237305 231.72683594 670.10162109 230.91601562 669.53417969 C199.51577735 647.63028878 166.3224816 629.35705476 130.30078125 616.203125 C129.1809082 615.79030273 128.06103516 615.37748047 126.90722656 614.95214844 C99.83098713 605.08924874 71.98909619 599.05524485 43.30078125 596.203125 C42.46321289 596.1103125 41.62564453 596.0175 40.76269531 595.921875 C30.46890144 594.8987077 20.13508651 594.95940479 9.80078125 594.953125 C8.80178802 594.95245026 7.8027948 594.95177551 6.77352905 594.95108032 C-58.45369447 595.02086578 -127.7301743 613.64286603 -181.69921875 651.203125 C-182.37388184 651.6657373 -183.04854492 652.12834961 -183.74365234 652.60498047 C-196.21718921 661.16678051 -207.8418072 670.34623569 -218.921875 680.6484375 C-221.18199543 682.72736684 -223.47506196 684.72737543 -225.82421875 686.703125 C-244.26786423 702.78415473 -258.66225419 725.02765389 -268.69921875 747.203125 C-268.9813623 747.82396973 -269.26350586 748.44481445 -269.55419922 749.08447266 C-280.84707537 774.39196116 -283.8708278 803.36482148 -274.51171875 829.703125 C-259.12588466 867.36874259 -225.90386769 889.80063135 -189.69921875 905.203125 C-107.3898739 937.93186081 -10.15296875 925.49129147 72.30078125 899.203125 C73.34588867 898.87119141 74.39099609 898.53925781 75.46777344 898.19726562 C102.575326 889.47357769 128.87005987 877.98029476 154.30078125 865.203125 C155.48389893 864.60951172 155.48389893 864.60951172 156.69091797 864.00390625 C180.79052704 851.81490002 203.82230836 837.71290463 226.36328125 822.87109375 C248.82411901 808.19270017 272.54701311 801.49320549 299.36328125 806.453125 C322.84054896 811.92355631 343.66063899 825.45527099 356.67578125 845.953125 C377.6585299 880.52847183 368.76537797 916.10741286 359.84527206 953.00042343 C358.80088862 957.32805873 357.76548178 961.6578395 356.72973633 965.98754883 C356.29223137 967.81608828 355.85471596 969.64462523 355.41719055 971.47315979 C355.19589289 972.39807283 354.97459522 973.32298588 354.74659157 974.27592659 C354.05750386 977.15437445 353.36745236 980.03258981 352.6771698 982.91075134 C347.44823858 1004.7197124 342.29689658 1026.54695772 337.14468384 1048.37414551 C334.64170714 1058.97767105 332.13588314 1069.58052388 329.63039589 1080.18345642 C328.79846758 1083.70419768 327.96662667 1087.22495957 327.1348114 1090.74572754 C322.00266406 1112.46784093 316.86544843 1134.18875407 311.72656631 1155.90927505 C311.05039392 1158.76726213 310.37423902 1161.62525334 309.6980896 1164.48324585 C307.90645813 1172.05621782 306.11480328 1179.62918426 304.32307434 1187.20213318 C302.07137554 1196.71919803 299.81975548 1206.2362815 297.56835938 1215.75341797 C297.34176762 1216.71126536 297.11517586 1217.66911276 296.88171768 1218.65598583 C295.73315127 1223.51124714 294.58464087 1228.36652169 293.43621826 1233.22181702 C291.37916863 1241.91843084 289.32185567 1250.61498173 287.26282883 1259.31112766 C286.12942876 1264.09799195 284.99628752 1268.88491749 283.86328125 1273.671875 C283.63837257 1274.62209471 283.4134639 1275.57231441 283.18173981 1276.55132866 C280.03215523 1289.86030402 276.89482857 1303.17212301 273.76586914 1316.48596191 C272.00778708 1323.96642389 270.24645655 1331.44611999 268.48442078 1338.92565155 C267.28554493 1344.01579643 266.0885083 1349.10635823 264.89599609 1354.19799805 C256.42057931 1390.37801164 256.42057931 1390.37801164 252.91015625 1402.796875 C252.5853125 1403.95243896 252.5853125 1403.95243896 252.25390625 1405.13134766 C245.71648211 1427.31881444 230.63987822 1445.97749458 210.36035156 1457.13598633 C200.93827635 1462.01790795 191.51156504 1465.65247509 181.30078125 1468.515625 C180.64726685 1468.70155212 179.99375244 1468.88747925 179.32043457 1469.07904053 C151.39233135 1477.01974367 123.09532763 1483.47484111 94.55517578 1488.78314209 C92.30172691 1489.20294883 90.04929604 1489.62793994 87.796875 1490.05322266 C56.02729169 1496.01312963 23.97163943 1499.95104106 -8.11114502 1503.77539062 C-11.36071069 1504.16277144 -14.60981754 1504.55379555 -17.85888672 1504.9453125 C-75.04734519 1511.78390526 -133.12961925 1516.2604127 -190.69921875 1518.203125 C-192.5407251 1518.27080078 -192.5407251 1518.27080078 -194.41943359 1518.33984375 C-250.07079993 1520.34892297 -306.17816016 1520.7754606 -361.69921875 1516.203125 C-362.72936096 1516.120625 -363.75950317 1516.038125 -364.82086182 1515.953125 C-454.40596274 1508.76849351 -543.01802423 1490.3305285 -696.02783203 1430.44482422 C-698.48512674 1429.30263807 -700.9481622 1428.17423551 -703.4140625 1427.05078125 C-712.53400753 1422.86940518 -721.27028538 1418.20657437 -729.9609375 1413.19775391 C-732.31321278 1411.85180313 -734.69077773 1410.55544446 -737.07421875 1409.265625 C-738.94949336 1408.24529621 -740.82445707 1407.22439595 -742.69921875 1406.203125 C-743.33520996 1405.85701172 -743.97120117 1405.51089844 -744.62646484 1405.15429688 C-762.56220388 1395.36890867 -779.82691893 1384.7232642 -796.69921875 1373.203125 C-797.62492676 1372.57180664 -798.55063477 1371.94048828 -799.50439453 1371.29003906 C-810.63179716 1363.68014125 -821.6170889 1355.99047025 -832.08984375 1347.49755859 C-834.3653909 1345.66731724 -836.67396097 1343.88062206 -838.98022461 1342.08935547 C-845.81271045 1336.77280694 -852.46115877 1331.26803611 -859.02978516 1325.62988281 C-860.77011051 1324.14253836 -862.52077806 1322.66809576 -864.2734375 1321.1953125 C-870.62199244 1315.84005722 -876.68002152 1310.36720566 -882.48828125 1304.41796875 C-884.41230774 1302.49054292 -886.37177825 1300.71062213 -888.44921875 1298.953125 C-896.82677022 1291.76992914 -904.74438473 1283.7349743 -911.87109375 1275.3125 C-913.86058608 1273.01693193 -915.92123385 1270.8004334 -917.99511719 1268.58129883 C-922.9416161 1263.28530239 -927.70279267 1257.91098677 -932.23828125 1252.25390625 C-934.10675766 1249.93758866 -935.99537054 1247.64860449 -937.91015625 1245.37109375 C-950.29445516 1230.6061339 -961.23830016 1215.01650179 -971.94921875 1199.015625 C-972.36737854 1198.3924942 -972.78553833 1197.7693634 -973.21636963 1197.12734985 C-981.14825945 1185.28724415 -988.63039071 1173.18782017 -995.51171875 1160.703125 C-995.9185791 1159.96505615 -996.32543945 1159.2269873 -996.74462891 1158.46655273 C-998.06991308 1156.04919641 -999.38599959 1153.62705534 -1000.69921875 1151.203125 C-1001.16730957 1150.34219238 -1001.63540039 1149.48125977 -1002.11767578 1148.59423828 C-1032.51348351 1092.40620052 -1051.8343565 1031.19359238 -1061.69921875 968.203125 C-1061.86115723 967.20764648 -1062.0230957 966.21216797 -1062.18994141 965.18652344 C-1075.13395031 884.55885852 -1067.95009986 799.11196676 -1048.4140625 720.10742188 C-1047.74992618 717.40914127 -1047.11299919 714.70582467 -1046.48046875 712 C-1039.44592154 682.77152519 -1029.3460492 653.95913307 -1017.90527344 626.18139648 C-1016.58755117 622.92736938 -1015.33366385 619.65255806 -1014.0859375 616.37109375 C-1012.39502113 611.95148123 -1010.62298527 607.65441919 -1008.57421875 603.390625 C-1007.97271843 602.12949688 -1007.37255832 600.86772903 -1006.7734375 599.60546875 C-1006.44649902 598.91694824 -1006.11956055 598.22842773 -1005.78271484 597.51904297 C-1004.54986113 594.88388065 -1003.35135814 592.23452339 -1002.15625 589.58203125 C-996.81630219 577.74489211 -991.24751925 566.12163793 -985.05322266 554.70800781 C-983.59109048 552.00308966 -982.15037957 549.2873686 -980.7109375 546.5703125 C-964.98596411 517.02546461 -947.44758329 488.24212699 -927.69921875 461.203125 C-927.14524414 460.44338379 -926.59126953 459.68364258 -926.02050781 458.90087891 C-922.49809942 454.07893167 -918.95264627 449.27455502 -915.39111328 444.48144531 C-913.79075022 442.3263821 -912.1958594 440.16736478 -910.6015625 438.0078125 C-904.02317921 429.13049134 -897.1776321 420.50474764 -890.15527344 411.97509766 C-888.86418526 410.40388405 -887.58183291 408.82550109 -886.30078125 407.24609375 C-881.53221021 401.36715147 -876.64433094 395.60110811 -871.68334961 389.88427734 C-869.52833795 387.39124555 -867.5298082 384.94900918 -865.69921875 382.203125 C-865.03921875 382.203125 -864.37921875 382.203125 -863.69921875 382.203125 C-863.4367334 381.61845459 -863.17424805 381.03378418 -862.90380859 380.43139648 C-861.63723342 378.08846344 -860.26573381 376.46974862 -858.42578125 374.55078125 C-857.76449219 373.85533203 -857.10320312 373.15988281 -856.421875 372.44335938 C-855.72964844 371.72470703 -855.03742188 371.00605469 -854.32421875 370.265625 C-852.98225427 368.86145901 -851.641134 367.45648581 -850.30078125 366.05078125 C-849.57375 365.28991211 -848.84671875 364.52904297 -848.09765625 363.74511719 C-845.90591789 361.4221958 -843.745398 359.0733442 -841.59207153 356.71485901 C-834.72832216 349.20867335 -827.61924838 341.96939642 -820.41601562 334.78955078 C-818.43371631 332.8126649 -816.45689242 330.83041461 -814.48046875 328.84765625 C-803.39055315 317.751921 -803.39055315 317.751921 -797.44873047 312.70751953 C-794.1492534 309.87031918 -791.03827839 306.82729641 -787.88671875 303.828125 C-782.51020375 298.74576962 -777.06046285 293.91918346 -771.2734375 289.30859375 C-768.48891527 287.03111654 -765.84508072 284.64000492 -763.19921875 282.203125 C-757.86941767 277.30933021 -752.33086297 272.74291983 -746.69921875 268.203125 C-745.46916859 267.19378406 -744.24005665 266.18329902 -743.01171875 265.171875 C-734.46550682 258.150071 -725.75896428 251.40268278 -716.87109375 244.8203125 C-714.55451209 243.0953758 -712.25087178 241.35417649 -709.94921875 239.609375 C-682.84209151 219.08323062 -654.5262426 200.22072944 -625.69921875 182.203125 C-624.94979004 181.73390625 -624.20036133 181.2646875 -623.42822266 180.78125 C-601.37314902 167.01722287 -578.68665891 154.33425493 -555.69921875 142.203125 C-554.57837891 141.61112305 -553.45753906 141.01912109 -552.30273438 140.40917969 C-536.93318626 132.31326803 -521.45148833 124.52642261 -505.69921875 117.203125 C-503.92659668 116.37458008 -503.92659668 116.37458008 -502.11816406 115.52929688 C-440.85097657 86.9359906 -376.84436998 63.29909553 -311.69921875 45.203125 C-310.5117807 44.87242004 -310.5117807 44.87242004 -309.300354 44.53503418 C-224.94388018 21.1055988 -137.33125363 5.66790885 -49.81651688 1.30859852 C-48.33279871 1.23468688 -46.84913749 1.15962741 -45.36552048 1.08371258 C-30.23838353 0.32100608 -15.14504524 0.02615517 0 0 Z M-39.69921875 89.203125 C-40.6093573 89.25446594 -41.51949585 89.30580688 -42.45721436 89.35870361 C-48.56265808 89.71360963 -54.66245302 90.13029142 -60.76171875 90.578125 C-61.66420349 90.6434845 -62.56668823 90.70884399 -63.496521 90.77618408 C-76.78737536 91.74572525 -89.99768794 92.97931801 -103.20800781 94.75097656 C-107.35493641 95.28804731 -111.50678872 95.77358977 -115.66015625 96.2578125 C-197.82212412 105.91733267 -278.57732929 125.07025946 -356.69921875 152.203125 C-357.42931152 152.45580139 -358.1594043 152.70847778 -358.91162109 152.96881104 C-402.30390981 167.99868245 -444.48317593 185.96644523 -485.69921875 206.203125 C-486.34671082 206.52021423 -486.99420288 206.83730347 -487.66131592 207.16400146 C-505.48329765 215.8926291 -523.08204325 224.82935123 -540.25146484 234.79785156 C-543.26256592 236.52654674 -546.30788684 238.18637737 -549.35888672 239.84326172 C-569.07732302 250.58128974 -587.97403825 262.83387328 -606.69921875 275.203125 C-607.46669434 275.7079541 -608.23416992 276.2127832 -609.02490234 276.73291016 C-636.74177876 294.97463212 -663.20708076 314.74526101 -688.89501953 335.73095703 C-690.48194921 337.02584011 -692.07270612 338.31602978 -693.6640625 339.60546875 C-704.08347268 348.06645822 -714.28761975 356.75513802 -724.08544922 365.9309082 C-726.89619352 368.56047858 -729.74559867 371.13224855 -732.6484375 373.66015625 C-744.13961387 383.67338972 -754.97657608 394.37932104 -765.76171875 405.140625 C-766.30214813 405.67846619 -766.84257751 406.21630737 -767.39938354 406.77044678 C-772.81512177 412.16570865 -778.16089583 417.57559028 -783.1315918 423.39038086 C-785.84384824 426.52673097 -788.72233063 429.50678894 -791.57421875 432.515625 C-796.48961938 437.73779134 -801.14441971 443.05211732 -805.62109375 448.65625 C-807.75640328 451.2732083 -809.98452238 453.77155279 -812.26171875 456.265625 C-816.63478898 461.08201335 -820.6960016 466.07713576 -824.69921875 471.203125 C-825.73953681 472.5247762 -826.77990554 473.84638753 -827.8203125 475.16796875 C-845.87926975 498.17613277 -863.43867504 521.74890986 -878.35302734 546.93896484 C-879.78334884 549.34462346 -881.23344053 551.7375269 -882.6875 554.12890625 C-928.57679482 629.73962532 -960.65852903 711.43887284 -977.07421875 824.140625 C-977.15393921 824.87914703 -977.23365967 825.61766907 -977.3157959 826.37857056 C-979.11301822 843.33896239 -979.91252318 860.2753657 -979.88671875 877.328125 C-979.88578217 878.14360809 -979.88484558 878.95909119 -979.88388062 879.79928589 C-979.79275513 916.90710889 -976.37124783 954.06300116 -967.69921875 990.203125 C-967.42770996 991.35844727 -967.15620117 992.51376953 -966.87646484 993.70410156 C-948.36411249 1071.69926911 -909.99590003 1145.89185682 -855.671875 1205.046875 C-853.82508786 1207.06554134 -852.03973194 1209.12396341 -850.26171875 1211.203125 C-845.98886634 1216.11341926 -841.33265373 1220.63673329 -836.69921875 1225.203125 C-833.71290479 1228.17922934 -830.74111353 1231.16940123 -827.7734375 1234.1640625 C-826.31125545 1235.63547384 -824.84901445 1237.1068266 -823.38671875 1238.578125 C-822.66548828 1239.30773438 -821.94425781 1240.03734375 -821.20117188 1240.7890625 C-816.53555892 1245.47559749 -811.73162218 1249.91422756 -806.69921875 1254.203125 C-805.89762329 1254.89510986 -805.89762329 1254.89510986 -805.07983398 1255.60107422 C-797.45057501 1262.1805255 -789.66221668 1268.53379326 -781.67919922 1274.67822266 C-780.32140436 1275.72394235 -778.96639682 1276.77328825 -777.61376953 1277.82568359 C-711.59976986 1329.07513534 -634.71018465 1365.88467551 -479.69921875 1410.203125 C-478.4973291 1410.4604541 -477.29543945 1410.7177832 -476.05712891 1410.98291016 C-445.24944482 1417.5450757 -414.32337766 1422.09705431 -383.01171875 1425.453125 C-381.85222717 1425.57800293 -380.6927356 1425.70288086 -379.49810791 1425.83154297 C-292.46974848 1435.12542936 -204.22832498 1431.97064805 -117.08007812 1425.45446777 C-113.8896787 1425.21728434 -110.69888045 1424.9867776 -107.5078125 1424.75878906 C-27.37787309 1418.99381552 53.78270521 1409.84529999 131.78540039 1390.28564453 C133.09074989 1389.95853485 133.09074989 1389.95853485 134.42247009 1389.62481689 C136.15298163 1389.17531861 137.87779768 1388.70327848 139.59596252 1388.2086792 C144.03459968 1386.93884225 148.12212013 1386.07725861 152.73779297 1385.79345703 C158.42550023 1385.22512624 163.13750619 1384.35364446 167.30078125 1380.203125 C172.10890321 1370.86643402 173.41006975 1359.88486506 175.26409912 1349.6517334 C176.82046156 1341.22618422 178.92258382 1332.92674901 180.94895744 1324.60466194 C182.17763874 1319.52532759 183.36602233 1314.43658385 184.55737305 1309.34838867 C185.05884988 1307.21118871 185.56042805 1305.07401253 186.06210327 1302.93685913 C186.44273233 1301.31476847 186.44273233 1301.31476847 186.83105087 1299.65990829 C189.02229011 1290.3266805 191.22052773 1280.99509608 193.41765022 1271.66325188 C193.99250727 1269.22155669 194.56727864 1266.77984132 195.14196587 1264.33810616 C201.59339614 1236.9280376 208.09286483 1209.52942758 214.59962845 1182.1324501 C217.25712392 1170.9426094 219.91368573 1159.75254697 222.5703125 1148.5625 C223.00092515 1146.74878623 223.00092515 1146.74878623 223.44023705 1144.89843178 C229.19743143 1120.64866915 234.94024176 1096.39551765 240.67578125 1072.140625 C240.89580559 1071.2101963 241.11582993 1070.27976761 241.34252167 1069.3211441 C243.31885756 1060.96363372 245.29498309 1052.60607362 247.27081299 1044.2484436 C251.82945126 1024.96572346 256.39060976 1005.68359968 260.95207214 986.40154743 C262.3510113 980.48799509 263.74988174 974.57442651 265.14862823 968.66082859 C265.58647748 966.80976391 266.02435868 964.9587068 266.46227264 963.10765743 C267.51684971 958.64993113 268.57101825 954.1921092 269.62420654 949.73405457 C271.49962085 941.79807178 273.37968587 933.86328456 275.27729893 925.93257618 C276.12964336 922.36973071 276.97968625 918.80633777 277.82962608 915.24291801 C278.23129131 913.56211626 278.63417373 911.88160486 279.03833961 910.20140266 C279.59193741 907.89986232 280.14149207 905.59739136 280.69018555 903.29467773 C280.93690663 902.27642442 280.93690663 902.27642442 281.18861198 901.23760033 C281.84343791 898.47446957 282.30078125 896.05618404 282.30078125 893.203125 C278.12934184 894.67042689 274.86305194 896.74686301 271.23828125 899.265625 C247.3187201 915.5311721 221.84930113 930.44911186 195.79589844 942.99023438 C192.70572862 944.49238346 189.63329348 946.02893775 186.55859375 947.5625 C141.6195141 969.8674909 94.18443824 986.88882864 45.30078125 998.203125 C44.26566406 998.44401855 43.23054688 998.68491211 42.1640625 998.93310547 C13.58426128 1005.52457371 -15.367438 1009.19704851 -44.63671875 1010.890625 C-45.6947168 1010.95316467 -46.75271484 1011.01570435 -47.84277344 1011.08013916 C-109.05336793 1014.65098674 -170.33047999 1009.40402994 -227.34667969 985.20166016 C-228.88596505 984.54831052 -230.42820163 983.90186007 -231.97363281 983.26318359 C-257.06561047 972.88956537 -280.46114198 958.30357227 -300.69921875 940.203125 C-301.56675781 939.44515625 -302.43429687 938.6871875 -303.328125 937.90625 C-332.35881683 912.28291637 -352.94407661 880.06244573 -363.01171875 842.578125 C-363.25438477 841.68512695 -363.49705078 840.79212891 -363.74707031 839.87207031 C-367.37895177 825.62708123 -368.11231393 811.32615116 -368.07421875 796.703125 C-368.07290451 795.45955231 -368.07290451 795.45955231 -368.07156372 794.19085693 C-367.83809052 726.87463569 -331.86079159 668.07445371 -285.94921875 621.328125 C-282.33995819 617.78777634 -278.53392573 614.49536124 -274.69921875 611.203125 C-273.67915867 610.30789388 -272.65967067 609.41201066 -271.640625 608.515625 C-245.21715314 585.39268848 -215.31083437 566.32414362 -183.67138672 551.15673828 C-181.60907828 550.15953888 -179.56254211 549.13385568 -177.515625 548.10546875 C-148.3057317 533.61983829 -116.33532983 522.93086271 -84.35644531 516.72070312 C-81.77635082 516.21814889 -79.20270418 515.69000072 -76.62890625 515.15625 C-66.39197262 513.07419538 -56.1064846 511.46447361 -45.76171875 510.015625 C-44.57755371 509.84861084 -43.39338867 509.68159668 -42.17333984 509.50952148 C-25.57000563 507.26016446 -9.17893094 506.99834804 7.55078125 507.015625 C9.29920319 507.01702988 9.29920319 507.01702988 11.08294678 507.01846313 C27.57969341 507.04725649 43.90887053 507.17701569 60.30078125 509.203125 C62.12996094 509.41316162 62.12996094 509.41316162 63.99609375 509.62744141 C135.73415416 517.97052564 204.04552763 545.96542484 264.30078125 585.203125 C265.37199219 585.89792969 266.44320313 586.59273437 267.546875 587.30859375 C285.98494693 599.44219604 303.38582036 612.75796774 320.47070312 626.70947266 C323.05451959 628.81830258 325.64302054 630.92087885 328.23828125 633.015625 C329.01042969 633.64082031 329.78257813 634.26601563 330.578125 634.91015625 C332.0750939 636.30317336 332.0750939 636.30317336 333.30078125 636.203125 C342.04892324 584.98124887 350.74533428 533.7509704 359.29322052 482.49525452 C359.85269668 479.14157239 360.41280372 475.7879962 360.9730835 472.43444824 C364.60389978 450.69650064 368.19687831 428.95389092 371.65292358 407.18741608 C374.88312619 386.84460747 378.22871373 366.52262877 381.6484375 346.2109375 C381.7644746 345.52159292 381.88051171 344.83224833 382.00006509 344.12201452 C383.78432429 333.52346387 385.57339512 322.92572657 387.36328125 312.328125 C389.27335379 301.01865327 391.18177151 289.70890536 393.0859375 278.3984375 C393.20098798 277.71527332 393.31603846 277.03210914 393.43457532 276.32824302 C396.71570103 256.84186273 399.90790911 237.34344887 402.98123169 217.82316589 C405.43658896 202.23928093 408.06207414 186.68806509 410.73828125 171.140625 C411.61481768 166.04605442 412.48807874 160.95093781 413.359375 155.85546875 C413.55615341 154.71843002 413.75293182 153.5813913 413.95567322 152.40989685 C414.1332869 151.37091751 414.31090057 150.33193817 414.49389648 149.26147461 C414.65043198 148.35272079 414.80696747 147.44396698 414.96824646 146.50767517 C415.37218913 144.09632004 415.37218913 144.09632004 415.30078125 141.203125 C348.25450415 122.18991226 280.46168327 107.9889863 211.30078125 99.203125 C210.30002563 99.07572937 209.29927002 98.94833374 208.26818848 98.81707764 C176.66813346 94.81737828 145.05990137 91.9907382 113.2734375 89.96484375 C112.28662994 89.90158401 111.29982239 89.83832428 110.28311157 89.77314758 C106.95631363 89.56863256 103.62905007 89.3822597 100.30078125 89.203125 C99.51949986 89.16088051 98.73821846 89.11863602 97.93326187 89.07511139 C84.26112656 88.35123232 70.63128462 88.05322303 56.94140625 88.0703125 C54.97247302 88.06963514 53.00353988 88.06866157 51.03460693 88.06741333 C46.94396148 88.06595522 42.85333815 88.0680282 38.76269531 88.07275391 C33.60160285 88.07843569 28.44056208 88.07507073 23.2794714 88.06932259 C-8.22311315 88.03008314 -8.22311315 88.03008314 -39.69921875 89.203125 Z " fill="#FEFEFE" transform="translate(1067.69921875,-0.203125)"/>
</svg>
