<svg xmlns="http://www.w3.org/2000/svg" fill="none" viewBox="0 0 20 20">
  <rect width="20" height="20" fill="#fff" rx="4" />
  <path fill="#E7792B" fill-rule="evenodd"
    d="M16.317 4.285v1.987c0 1.84-1.184 2.209-2.122 2.209s-2.122-.369-2.122-2.209V3.965c0-.223.131-.36.339-.36.207 0 .338.137.338.36v2.568c0 .859.584 1.365 1.445 1.365.861 0 1.445-.506 1.445-1.365V4.285h-.313l.63-1.282.628 1.282h-.268Zm-5.922 5.302H18V2h-7.605v7.587Z"
    clip-rule="evenodd" />
  <path fill="#7AB642" fill-rule="evenodd"
    d="M7.403 12.649v-.306H6.166v4.466c0 .22-.13.356-.338.356-.208 0-.338-.136-.338-.356v-4.466H3.68c-.192 0-.33-.099-.33-.311 0-.213.138-.31.33-.31h3.723v-.33l1.286.629-1.286.627ZM2 18h7.605v-7.587H2V18Z"
    clip-rule="evenodd" />
  <path fill="#BD2531" fill-rule="evenodd"
    d="M16.388 15.9c.136.136.164.304.014.454-.15.15-.318.122-.454-.014l-1.724-1.72-1.872 1.867c-.135.135-.303.163-.454.013-.15-.15-.122-.317.014-.453l1.871-1.866-1.83-1.825c-.135-.136-.163-.303-.013-.453.15-.15.319-.122.454.013l1.83 1.825 1.57-1.566-.233-.232 1.354-.463-.464 1.351-.217-.216-1.57 1.566 1.724 1.72ZM10.395 18H18v-7.587h-7.605V18Z"
    clip-rule="evenodd" />
  <path fill="#006CA7" fill-rule="evenodd"
    d="M5.929 3.737c-1.353 0-2.023 1.15-2.023 2.193 0 1.043.687 2.193 1.98 2.193.916 0 1.319-.49 1.635-.49.18 0 .3.122.3.314 0 .345-.864.76-1.935.76-1.764 0-2.671-1.358-2.671-2.777s.907-2.776 2.714-2.776c.696 0 1.227.3 1.517.552l.011-.01.252-.21.345 1.385-1.309-.579.235-.196.014-.012c-.213-.155-.5-.347-1.065-.347ZM2 9.587h7.605V2H2v7.587Z"
    clip-rule="evenodd" />
</svg>