<svg viewBox="0 0 20 20" fill="none" xmlns="http://www.w3.org/2000/svg">
  <rect width="20" height="20" rx="4" fill="white" />
  <g clip-path="url(#clip0_14_458)">
    <path
      d="M15.7329 10.7111C15.7951 10.9944 15.959 11.0944 16.2983 11.0944C16.5979 11.0944 16.7619 10.9889 16.7619 10.8222C16.7619 10.5833 16.5414 10.5667 16.0834 10.45C15.5463 10.3111 15.2014 10.1944 15.0431 10.0833C14.7435 9.87778 14.6022 9.58333 14.6022 9.21111C14.6022 8.47778 15.1901 8 16.2135 8C17.2085 8 17.7908 8.42778 17.8587 9.19444H16.6884C16.6488 8.96667 16.4905 8.86111 16.1908 8.86111C15.9308 8.86111 15.8007 8.94444 15.8007 9.11667C15.8007 9.31667 15.9986 9.35555 16.3718 9.45C16.8523 9.57222 17.2311 9.64444 17.4742 9.81111C17.8135 10.0333 17.9661 10.3056 17.9661 10.6944C17.9661 11.5167 17.3668 12 16.2474 12C15.2128 12 14.6078 11.5222 14.5287 10.7111H15.7329ZM11.1873 10.4222C11.1195 11.4167 10.4523 12 9.34421 12C8.1117 12 7.36541 11.2333 7.36541 10C7.36541 8.76111 8.12299 8 9.32159 8C10.441 8 11.0968 8.55556 11.1704 9.53889H9.99437C9.96046 9.15556 9.73995 8.95 9.33855 8.95C8.85234 8.95 8.61488 9.3 8.61488 10C8.61488 10.6889 8.87494 11.0444 9.37812 11.0444C9.75126 11.0444 9.98872 10.8222 10.0283 10.4167H11.1873V10.4222ZM10.9216 8.11111H12.1824L12.8325 10.5556L13.528 8.11111H14.7435L13.4488 11.9H12.2163L10.9216 8.11111ZM3.40215 8.00556C3.25515 8.00556 3.10816 8.06111 3.00074 8.17222L2.19226 8.96667C1.97176 9.18333 1.97176 9.53889 2.19226 9.76111L4.47635 12L6.75481 9.75555C6.9753 9.53889 6.9753 9.18333 6.75481 8.96111L5.94632 8.17222C5.83324 8.06111 5.68624 8.00556 5.5449 8.00556C5.39792 8.00556 5.25092 8.06111 5.13784 8.17222L4.47635 8.82778L3.80922 8.17222C3.69614 8.06111 3.54915 8.00556 3.40215 8.00556Z"
      fill="#CC0000" />
  </g>
  <defs>
    <clipPath id="clip0_14_458">
      <rect width="16" height="4" fill="white" transform="translate(2 8)" />
    </clipPath>
  </defs>
</svg>
  