<svg xmlns="http://www.w3.org/2000/svg" xmlns:xlink="http://www.w3.org/1999/xlink"
  viewBox="0 0 37 37">
  <defs>
    <path id="a"
      d="M35.75 11.134c0-.424 0-.849-.002-1.273a50.488 50.488 0 0 0-.016-1.073c-.021-.779-.067-1.564-.206-2.334a7.873 7.873 0 0 0-.731-2.219A7.46 7.46 0 0 0 31.53.973 7.883 7.883 0 0 0 29.31.24c-.77-.138-1.556-.184-2.335-.205a48.08 48.08 0 0 0-1.073-.016c-.425-.003-.85-.002-1.274-.002L19.698 0h-3.689l-4.843.018c-.426 0-.851 0-1.277.002a51.63 51.63 0 0 0-1.075.016c-.78.021-1.568.067-2.34.205-.783.14-1.512.37-2.224.731A7.48 7.48 0 0 0 .98 4.235a7.863 7.863 0 0 0-.734 2.22C.107 7.225.062 8.01.04 8.788c-.01.358-.013.715-.016 1.073-.002.424-.024.951-.024 1.376v8.504l.022 4.877c0 .425 0 .85.002 1.275.003.358.007.716.016 1.074.022.78.068 1.567.206 2.338.141.782.37 1.51.733 2.222a7.473 7.473 0 0 0 3.27 3.267 7.901 7.901 0 0 0 2.226.732c.772.138 1.559.184 2.34.205.358.01.716.014 1.074.016.426.003.851.003 1.277.003h13.462c.424 0 .85 0 1.274-.003a48.08 48.08 0 0 0 1.073-.016c.779-.02 1.565-.067 2.336-.205a7.87 7.87 0 0 0 2.22-.732 7.463 7.463 0 0 0 3.264-3.267c.361-.711.59-1.44.731-2.223.139-.77.185-1.557.206-2.337.01-.358.013-.716.016-1.074.002-.425.002-.85.002-1.275V11.134" />
    <path id="c" d="M0 0h35.75v35.75H0z" />
    <path id="f"
      d="M40.74-4.99v45.73H-4.99V-4.99h45.73ZM19.696 0H16.01l-4.843.018c-.426 0-.851 0-1.277.002a51.63 51.63 0 0 0-1.075.016c-.78.021-1.568.067-2.34.205-.783.14-1.512.37-2.224.731A7.48 7.48 0 0 0 .98 4.235a7.863 7.863 0 0 0-.734 2.22C.107 7.225.062 8.01.04 8.788c-.01.358-.013.715-.016 1.073-.002.424-.024.951-.024 1.376v8.504l.022 4.877c0 .425 0 .85.002 1.275.003.358.007.716.016 1.074.022.78.068 1.567.206 2.338.141.782.37 1.51.733 2.222a7.473 7.473 0 0 0 3.27 3.267 7.901 7.901 0 0 0 2.226.732c.772.138 1.559.184 2.34.205.358.01.716.014 1.074.016l.639.003h14.1c.424 0 .85 0 1.274-.003a48.08 48.08 0 0 0 1.073-.016c.779-.02 1.565-.067 2.336-.205a7.87 7.87 0 0 0 2.22-.732 7.463 7.463 0 0 0 3.264-3.267c.361-.711.59-1.44.731-2.223.139-.77.185-1.557.206-2.337.01-.358.013-.716.016-1.074l.002-.637V11.134c0-.424 0-.849-.002-1.273a50.488 50.488 0 0 0-.016-1.073c-.021-.779-.067-1.564-.206-2.334a7.873 7.873 0 0 0-.731-2.219A7.46 7.46 0 0 0 31.53.973 7.883 7.883 0 0 0 29.31.24c-.77-.138-1.556-.184-2.335-.205a48.08 48.08 0 0 0-1.073-.016c-.425-.003-.85-.002-1.274-.002L19.698 0Z" />
    <path id="h"
      d="M19.556 37.946.834 53.625l-2.652-15.291 18.897-5.113a12.97 12.97 0 0 1-.349-5.24l-19.523-3.148.352-13.5 20.67 12.199a12.614 12.614 0 0 1 3.65-4.096L7.112-1.867l13.99.519 4.818 18.884a12.193 12.193 0 0 1 6.25-.001l6.076-23.44 3.489 20.115L37 20.058a12.635 12.635 0 0 1 4.288 7.519c1.193 6.875-3.323 13.43-10.086 14.643-.413.074-.826.126-1.235.158v-3.931a8.58 8.58 0 0 0 .566-.083c4.669-.836 7.786-5.362 6.963-10.108-.824-4.745-5.275-7.914-9.944-7.077-4.668.837-7.785 5.362-6.962 10.108.717 4.136 4.192 7.075 8.163 7.207v3.917c-3.605-.082-6.937-1.76-9.197-4.465Z" />
    <radialGradient id="i" cx="45.213%" cy="34.733%" r="47.277%" fx="45.213%" fy="34.733%"
      gradientTransform="matrix(0 .748 -1 0 .8 .01)">
      <stop offset="0%" stop-color="#FFF" />
      <stop offset="72.318%" stop-color="#FFF" stop-opacity=".7" />
      <stop offset="100%" stop-color="#FFF" stop-opacity=".35" />
    </radialGradient>
    <linearGradient id="d" x1="50%" x2="50%" y1="0%" y2="100%">
      <stop offset="0%" stop-color="#FFE000" />
      <stop offset="51.031%" stop-color="#FFBC00" />
      <stop offset="74.935%" stop-color="#FF9D00" />
      <stop offset="100%" stop-color="#FF6A00" />
    </linearGradient>
    <filter id="g" width="152.5%" height="152.5%" x="-26.2%" y="-26.2%"
      filterUnits="objectBoundingBox">
      <feOffset in="SourceAlpha" result="shadowOffsetOuter1" />
      <feGaussianBlur in="shadowOffsetOuter1" result="shadowBlurOuter1" stdDeviation="4" />
      <feComposite in="shadowBlurOuter1" in2="SourceAlpha" operator="out" result="shadowBlurOuter1" />
      <feColorMatrix in="shadowBlurOuter1"
        values="0 0 0 0 0.999901831 0 0 0 0 1 0 0 0 0 0.999879897 0 0 0 1 0" />
    </filter>
  </defs>
  <g fill="none" fill-rule="evenodd" transform="translate(.125 .125)">
    <mask id="b" fill="#fff">
      <use xlink:href="#a" />
    </mask>
    <use xlink:href="#a" fill="#FFF" />
    <g mask="url(#b)">
      <path
        d="M35.75 11.134c0-.424 0-.849-.002-1.273a50.488 50.488 0 0 0-.016-1.073c-.021-.779-.067-1.564-.206-2.334a7.873 7.873 0 0 0-.731-2.219A7.46 7.46 0 0 0 31.53.973 7.883 7.883 0 0 0 29.31.24c-.77-.138-1.556-.184-2.335-.205a48.08 48.08 0 0 0-1.073-.016c-.425-.003-.85-.002-1.274-.002L19.698 0h-3.689l-4.843.018c-.426 0-.851 0-1.277.002a51.63 51.63 0 0 0-1.075.016c-.78.021-1.568.067-2.34.205-.783.14-1.512.37-2.224.731A7.48 7.48 0 0 0 .98 4.235a7.863 7.863 0 0 0-.734 2.22C.107 7.225.062 8.01.04 8.788c-.01.358-.013.715-.016 1.073-.002.424-.024.951-.024 1.376v8.504l.022 4.877c0 .425 0 .85.002 1.275.003.358.007.716.016 1.074.022.78.068 1.567.206 2.338.141.782.37 1.51.733 2.222a7.473 7.473 0 0 0 3.27 3.267 7.901 7.901 0 0 0 2.226.732c.772.138 1.559.184 2.34.205.358.01.716.014 1.074.016.426.003.851.003 1.277.003h13.462c.424 0 .85 0 1.274-.003a48.08 48.08 0 0 0 1.073-.016c.779-.02 1.565-.067 2.336-.205a7.87 7.87 0 0 0 2.22-.732 7.463 7.463 0 0 0 3.264-3.267c.361-.711.59-1.44.731-2.223.139-.77.185-1.557.206-2.337.01-.358.013-.716.016-1.074.002-.425.002-.85.002-1.275V11.134" />
      <mask id="e" fill="#fff">
        <use xlink:href="#c" />
      </mask>
      <use xlink:href="#c" fill="url(#d)" />
      <g mask="url(#e)" opacity=".75" style="mix-blend-mode:soft-light">
        <use xlink:href="#f" fill="#000" filter="url(#g)" />
        <use xlink:href="#f" fill="#FFF" fill-opacity=".547" />
      </g>
      <g mask="url(#e)">
        <use xlink:href="#h" fill="url(#i)" />
        <use xlink:href="#h" fill="#FFF" fill-opacity=".1" />
      </g>
    </g>
  </g>
</svg>