<svg xmlns="http://www.w3.org/2000/svg" fill="none" viewBox="0 0 20 20">
  <g clip-path="url(#a)">
    <rect width="20" height="20" fill="#fff" rx="4" />
    <path fill="url(#b)"
      d="M21 17c-1.5 4-4.36 2.51-6.5 3.5-2.14.99-2.67 0-6.98 0-2.29-.52-5.47 1.33-7.02-.5-1.55-1.83-1.24-6.01-1.45-8.44C-1.17 9.13-1.7 5.09-.5 3 .7.9 1.66.24 3.81-.7c2.16-.96 5.88-.36 8.15.2C14.23.06 18.48-.86 20 1l-8.04 13.62a3.68 3.68 0 0 1-2.22 1.65 3.6 3.6 0 0 1-2.7-.4 3.81 3.81 0 0 1-1.68-2.24 4 4 0 0 1 .25-2.84l3.17-5.75a2.27 2.27 0 0 1 1.41-1.09 2.1 2.1 0 0 1 1.73.33 2.45 2.45 0 0 1 .64 3.13l-3.13 5.65c-.17.32-.54.5-.88.37a.73.73 0 0 1-.28-.17.78.78 0 0 1-.22-.62.8.8 0 0 1 .1-.32L11.3 6.6a.8.8 0 0 0 .02-.55.76.76 0 0 0-.33-.42.71.71 0 0 0-.52-.09.73.73 0 0 0-.44.3l-3.16 5.73a2.4 2.4 0 0 0-.22 1.74c.15.6.52 1.1 1.02 1.4.5.3 1.11.39 1.67.23a2.22 2.22 0 0 0 1.34-1.07l3.18-5.76a4 4 0 0 0 .36-2.9 3.81 3.81 0 0 0-1.7-2.33 3.53 3.53 0 0 0-2.79-.38 3.7 3.7 0 0 0-2.22 1.78l-3.18 5.75a5.54 5.54 0 0 0 1.87 7.34 4.95 4.95 0 0 0 3.96.5 5.15 5.15 0 0 0 3.06-2.47L21 2c1.07 1.77-.04 6.4 0 8.5.04 2.1 1 3.19 0 5V17Z" />
  </g>
  <defs>
    <linearGradient id="b" x1="3.48" x2="18.8" y1="16.9" y2="2.25" gradientUnits="userSpaceOnUse">
      <stop stop-color="#5AC3FF" />
      <stop offset="1" stop-color="#0550C8" />
    </linearGradient>
    <clipPath id="a">
      <rect width="20" height="20" fill="#fff" rx="4" />
    </clipPath>
  </defs>
</svg>