<svg xmlns="http://www.w3.org/2000/svg" fill="none" viewBox="0 0 20 20">
  <rect width="20" height="20" fill="#fff" rx="4" />
  <path fill="#000"
    d="M10.556 3C6.996 3 4 6.004 4 9.71v6.948l6.554-.007c3.56 0 6.446-3.119 6.446-6.824C17 6.122 14.11 3 10.556 3Z" />
  <path fill="#FFF9AE"
    d="M10.619 5.597c-1.408.001-2.711.773-3.432 2.032a4.309 4.309 0 0 0-.08 4.109l-.723 2.42 2.596-.61c1.486.697 3.23.384 4.407-.791 1.176-1.176 1.548-2.977.94-4.552-.608-1.575-2.074-2.607-3.704-2.608h-.004Z" />
  <path fill="#00AEEF"
    d="M13.743 12.33c-1.135 1.49-3.097 1.989-4.763 1.211l-2.596.619 2.642-.325c1.752 1.068 3.995.598 5.214-1.093 1.218-1.69 1.024-4.064-.451-5.516a4.293 4.293 0 0 1-.046 5.104Z" />
  <path fill="#00A94F"
    d="M13.52 11.54c-.98 1.605-2.88 2.315-4.616 1.722l-2.52.898 2.596-.612c1.848.87 4.03.158 5.071-1.655 1.041-1.812.612-4.15-.998-5.434 1.253 1.383 1.445 3.476.466 5.081Z" />
  <path fill="#F15D22"
    d="M7.345 11.83c-.723-1.816-.127-3.91 1.43-5.023 1.557-1.112 3.649-.938 5.016.418-1.266-1.73-3.599-2.152-5.351-.969-1.753 1.183-2.334 3.572-1.333 5.482l-.723 2.42.961-2.328Z" />
  <path fill="#D0232B"
    d="M7.107 11.738c-.898-1.727-.514-3.871.92-5.145a3.874 3.874 0 0 1 5.026-.134c-1.435-1.573-3.79-1.734-5.41-.37-1.619 1.364-1.96 3.795-.783 5.584l-.475 2.487.722-2.422Z" />
</svg>