<svg xmlns="http://www.w3.org/2000/svg" fill="none" viewBox="0 0 20 20">
  <rect width="20" height="20" fill="#5865F2" rx="4" />
  <circle cx="10" cy="10" r="10" fill="#5865F2" />
  <path fill="#fff"
    d="M13.13 7.32a7.43 7.43 0 0 0-1.87-.56c-.08.16-.16.31-.22.47-.69-.1-1.38-.1-2.06 0a4.72 4.72 0 0 0-.27-.48 7.4 7.4 0 0 0-1.84.58 7.6 7.6 0 0 0-1.32 5.15 7.47 7.47 0 0 0 2.28 1.13 5.34 5.34 0 0 0 .46-.79h-.02a4.93 4.93 0 0 1-.71-.36.03.03 0 0 1 0-.03 3.36 3.36 0 0 0 .18-.1 5.33 5.33 0 0 0 4.56 0 3.39 3.39 0 0 0 .15.13v.01l-.02.01a4.62 4.62 0 0 1-.72.37 6 6 0 0 0 .5.77 7.45 7.45 0 0 0 2.26-1.16 7.56 7.56 0 0 0-1.34-5.14ZM8.5 11.43c-.44 0-.8-.4-.8-.9s.35-.91.8-.91c.46 0 .82.4.81.9 0 .5-.36.91-.8.91Zm3 0c-.45 0-.82-.4-.82-.9s.36-.91.81-.91c.46 0 .82.4.81.9 0 .5-.35.91-.8.91Z" />
</svg>