<svg xmlns="http://www.w3.org/2000/svg" fill="none" viewBox="0 0 20 20">
  <rect width="20" height="20" fill="#ED1C24" rx="4" />
  <path fill="#fff"
    d="m2.9 8-.02 1.24a1.34 1.34 0 0 0-.58-.13c-.8 0-1.3.56-1.3 1.26s.5 1.26 1.3 1.26c.28 0 .51-.07.7-.17l.52-.29.09-.04V8h-.7Zm-.6 2.98a.61.61 0 1 1 0-1.22.61.61 0 1 1 0 1.22Zm8.3-1.22a.61.61 0 1 0 0 1.22.61.61 0 1 0 0-1.22Zm1.3.61c0 .7-.57 1.26-1.3 1.26-.75 0-1.31-.56-1.31-1.26s.53-1.26 1.3-1.26c.78 0 1.3.56 1.3 1.26ZM8.2 11.6c-.72 0-1.26-.49-1.26-1.23s.5-1.24 1.25-1.24l.76-.02v.67h-.73a.58.58 0 1 0 0 1.17h.73v.65H8.2Zm9.5-1.84a.61.61 0 1 0 0 1.22.61.61 0 1 0 0-1.22Zm1.3.61c0 .7-.56 1.26-1.3 1.26s-1.3-.56-1.3-1.26.52-1.26 1.3-1.26c.77 0 1.3.56 1.3 1.26ZM5.3 9.76a.61.61 0 1 0 0 1.22.61.61 0 1 0 0-1.22Zm1.3.61c0 .7-.57 1.26-1.3 1.26-.74 0-1.3-.56-1.3-1.26s.52-1.26 1.3-1.26c.77 0 1.3.56 1.3 1.26Zm5.68 1.23h.7v-1.48c0-.21.17-.37.4-.37.25 0 .4.1.4.36v1.48h.71v-1.47c0-.24.15-.37.41-.37s.4.16.4.36v1.48h.7v-1.52a.94.94 0 0 0-1-.96c-.55 0-.86.25-.86.25s-.3-.25-.85-.25c-.59 0-1 .44-1 .95v1.53ZM4.12 8.79V8h.2l.35.49V8h.19v.79h-.2l-.34-.5-.01.5h-.19Zm1.14 0v-.62L5 8.16V8h.68v.16l-.25.01v.62h-.18Zm.8 0v-.62l-.25-.01V8h.68v.16l-.25.01v.62h-.18Z" />
</svg>