<svg viewBox="0 0 20 20" fill="none" xmlns="http://www.w3.org/2000/svg">
  <rect width="20" height="20" rx="4" fill="white" />
  <path
    d="M3.32754 7.57355C2.05795 7.57355 1 8.11217 1 9.73717C1 11.0245 1.71139 11.8352 3.36032 11.8352C5.30118 11.8352 5.4256 10.5567 5.4256 10.5567H4.48516C4.48516 10.5567 4.28352 11.2452 3.30295 11.2452C2.5043 11.2452 1.92988 10.7056 1.92988 9.94944H5.52395V9.47492C5.52395 8.72679 5.04903 7.57355 3.32754 7.57355ZM3.29476 8.18002C4.05499 8.18002 4.57326 8.64575 4.57326 9.34379H1.95068C1.95068 8.60274 2.62717 8.18002 3.29476 8.18002Z"
    fill="#E53238" />
  <path
    d="M5.52326 6V11.0192C5.52326 11.3041 5.50293 11.7041 5.50293 11.7041H6.39991C6.39991 11.7041 6.43211 11.4168 6.43211 11.1542C6.43211 11.1542 6.87527 11.8475 8.08028 11.8475C9.3492 11.8475 10.2111 10.9666 10.2111 9.70439C10.2111 8.53021 9.41941 7.58584 8.08233 7.58584C6.83024 7.58584 6.44117 8.26197 6.44117 8.26197V6H5.52326ZM7.8508 8.20665C8.7125 8.20665 9.26044 8.84618 9.26044 9.70439C9.26044 10.6247 8.62758 11.2267 7.85695 11.2267C6.93726 11.2267 6.44117 10.5086 6.44117 9.71259C6.44117 8.97083 6.88633 8.20665 7.8508 8.20665Z"
    fill="#0064D2" />
  <path
    d="M12.4404 7.57355C10.5304 7.57355 10.4079 8.61937 10.4079 8.78649H11.3585C11.3585 8.78649 11.4084 8.17592 12.3748 8.17592C13.0028 8.17592 13.4894 8.46336 13.4894 9.01597V9.21266H12.3748C10.8951 9.21266 10.1128 9.64553 10.1128 10.5239C10.1128 11.3884 10.8356 11.8588 11.8124 11.8588C13.1436 11.8588 13.5724 11.1232 13.5724 11.1232C13.5724 11.4158 13.5949 11.7041 13.5949 11.7041H14.4401C14.4401 11.7041 14.4073 11.3468 14.4073 11.1181V9.14197C14.4073 7.84624 13.3621 7.57355 12.4404 7.57355ZM13.4894 9.80274V10.065C13.4894 10.4071 13.2783 11.2575 12.0357 11.2575C11.3553 11.2575 11.0635 10.9179 11.0635 10.5239C11.0635 9.80735 12.046 9.80274 13.4894 9.80274Z"
    fill="#F5AF02" />
  <path
    d="M13.8954 7.73763H14.9649L16.4998 10.8127L18.0312 7.73763H19L16.2106 13.2123H15.1944L15.9993 11.6861L13.8954 7.73763Z"
    fill="#86B817" />
</svg>
  