<svg xmlns="http://www.w3.org/2000/svg" fill="none" viewBox="0 0 20 20">
  <rect width="20" height="20" fill="#01B72F" rx="4"/>
  <path fill="#fff" d="M10.497 16c-1.298 0-2.44-.26-3.428-.78-.974-.52-1.729-1.227-2.265-2.123C4.268 12.188 4 11.155 4 10c0-1.17.261-2.202.783-3.097a5.66 5.66 0 0 1 2.18-2.123C7.88 4.26 8.917 4 10.074 4c1.115 0 2.117.245 3.005.736a5.253 5.253 0 0 1 2.138 2.08c.522.895.783 1.971.783 3.227 0 .13-.007.282-.021.455l-.042.455h-9.25V8.982h7.514l-1.27.585c0-.607-.12-1.134-.36-1.581a2.585 2.585 0 0 0-.994-1.04c-.424-.26-.917-.39-1.482-.39-.564 0-1.065.13-1.502.39-.424.245-.755.6-.995 1.061-.24.448-.36.982-.36 1.603v.52c0 .635.134 1.198.402 1.69.282.476.67.844 1.164 1.104.508.246 1.1.368 1.778.368.607 0 1.136-.093 1.587-.281.466-.188.89-.47 1.27-.845l1.757 1.95a5.22 5.22 0 0 1-1.969 1.408c-.79.317-1.7.476-2.73.476Z"/>
</svg>
