<svg xmlns="http://www.w3.org/2000/svg" viewBox="0 0 1024 1024">
    <defs>
        <g id="icon">
            <path d="M512.61 512.61 274.88 349.17v326.89l148.58-44.58 89.15-118.87Z" fill="#ffc107" />
            <path d="M274.88 676.06h445.75a29.72 29.72 0 0 0 29.72-29.72V349.17L274.88 676.06Z" fill="black" />
            <path d="M840.48 287.2a395.95 395.95 0 0 1 70.13 225.41c0 219.8-178.2 398-398 398-136.08 0-256.1-68.4-327.86-172.59l-91.8 63.12c91.86 133.36 245.47 220.9 419.66 220.9 281.35 0 509.44-228.08 509.44-509.43a506.82 506.82 0 0 0-89.77-288.52l-91.8 63.12Z" fill="#69b3e7" />
            <path d="M114.62 512.61c0-219.8 178.19-398 398-398 136.08 0 256.09 68.4 327.86 172.6l91.8-63.12C840.41 90.73 686.8 3.2 512.61 3.2 231.26 3.18 3.18 231.25 3.18 512.6a506.82 506.82 0 0 0 89.76 288.53l91.8-63.12a395.95 395.95 0 0 1-70.12-225.4Z" fill="#0067b9" />
        </g>
    </defs>
    <g>
        <rect id="bg" width="1024" height="1024" rx="128" fill="white" />
        <use href="#icon" x="12.5%" y="12.5%" transform="scale(0.8 0.8)"/>
    </g>
</svg>