<svg viewBox="0 0 32 32" fill="none" xmlns="http://www.w3.org/2000/svg">
  <rect width="32" height="32" rx="4" fill="white" />
  <path
    d="M11.1373 8.49231C10.8834 8.49231 10.6352 8.56752 10.424 8.70844C10.2129 8.84936 10.0482 9.04967 9.95076 9.2841C9.85332 9.51853 9.82752 9.77657 9.8766 10.0257C9.92569 10.2747 10.0475 10.5037 10.2265 10.6836C10.4056 10.8636 10.634 10.9864 10.8828 11.0367C11.1317 11.087 11.3898 11.0624 11.6247 10.9661C11.8596 10.8698 12.0607 10.7061 12.2027 10.4956C12.3446 10.2851 12.421 10.0373 12.4222 9.78339C12.4232 9.61409 12.3906 9.44626 12.3265 9.28959C12.2623 9.13291 12.1678 8.99047 12.0484 8.87047C11.929 8.75046 11.787 8.65527 11.6306 8.59037C11.4742 8.52547 11.3066 8.49215 11.1373 8.49231ZM7.69112 12.0911V13.7748H10.0025V19.4462H10.8308V16.224H11.4339V19.4462H12.2745V12.096H7.69604L7.69112 12.0911ZM18.5588 12.7249H18.533C18.1933 12.2326 17.5127 11.8942 16.5933 11.8942C14.8308 11.8942 13.2825 13.3428 13.2948 15.8228C13.2948 18.1145 14.693 19.6123 16.4431 19.6123C17.3871 19.6123 18.2893 19.1852 18.7336 18.3815L18.8776 19.4462H20.853V8.66093H18.5637L18.5588 12.7249ZM18.5588 16.1625C18.5584 16.3395 18.5457 16.5164 18.5207 16.6917C18.4579 17.0034 18.2883 17.2834 18.0411 17.4834C17.794 17.6833 17.4847 17.7908 17.1668 17.7871C16.2228 17.7871 15.6062 17.0068 15.6062 15.7477C15.6062 14.5895 16.1342 13.6554 17.1791 13.6554C17.8967 13.6554 18.389 14.1723 18.5268 14.7766C18.5477 14.9142 18.5564 15.0535 18.5527 15.1926L18.5588 16.1625Z"
    fill="#FEBD3E" />
  <path
    d="M4.50955 21.184H5.12493L6.46524 23.9458H5.89908L5.61108 23.3107H4.01108L3.71816 23.9458H3.14955L4.50955 21.184ZM5.39447 22.848L4.81724 21.6172L4.24001 22.848H5.39447ZM7.20247 21.184H7.74524V23.467H9.7477V23.9458H7.20247V21.184ZM10.5379 21.184H11.0769V23.467H13.0782V23.9458H10.5379V21.184ZM13.9077 21.184H14.4468V23.9458H13.9077V21.184ZM16.5772 21.184H17.1926L18.5329 23.9458H17.9606L17.6726 23.3107H16.0837L15.7908 23.9458H15.2172L16.5772 21.184ZM17.4683 22.848L16.8911 21.6172L16.3139 22.848H17.4683ZM19.2702 21.184H19.84L21.6862 23.1778V21.184H22.2031V23.9458H21.7108L19.7871 21.8781V23.9458H19.2702V21.184ZM26.0628 22.9624C26.0086 23.2689 25.7883 24.0135 24.5206 24.0135C23.6468 24.0135 22.9588 23.5212 22.9588 22.5206C22.9588 21.7157 23.4646 21.1163 24.5588 21.1163C25.7895 21.1163 25.9754 21.9175 26.0172 22.0652H25.4769C25.4474 21.9704 25.2308 21.5729 24.5883 21.5729C23.8252 21.5729 23.5065 22.0024 23.5065 22.576C23.5065 23.2098 23.9655 23.5446 24.5588 23.5446C25.1889 23.5446 25.4659 23.168 25.5188 22.9563L26.0628 22.9624ZM26.8419 21.184H29.3182V21.648H27.3809V22.2892H29.0462V22.7532H27.3809V23.4781H29.3637V23.9421H26.8419V21.184ZM7.53108 10.1267L8.09354 8.23258C7.93739 8.18062 7.77783 8.1395 7.61601 8.1095C6.87798 7.94233 6.10947 7.96648 5.38339 8.17966C5.23245 8.22367 5.08612 8.2822 4.94647 8.35443C4.65718 8.49952 4.3926 8.68934 4.16247 8.91689C3.57047 9.49658 3.27016 10.2843 3.27016 11.2553V12.0935H1.84616V13.7723H3.26524V19.4461H5.53847V13.7723H6.95878V12.096H5.53847V11.2086C5.51951 10.9039 5.6162 10.6032 5.80924 10.3667C5.83313 10.3406 5.85861 10.3159 5.88555 10.2929C5.88555 10.2929 6.37662 9.80797 7.53108 10.1267ZM25.8843 11.9003C23.5052 11.9003 21.9459 13.4227 21.9459 15.8153C21.9459 18.208 23.5951 19.6172 25.7489 19.6172C27.7182 19.6172 29.6271 18.3864 29.6271 15.6787C29.6246 13.4609 28.1268 11.9003 25.8843 11.9003ZM25.8092 17.9692C24.8246 17.9692 24.2991 17.0252 24.2991 15.7538C24.2991 14.6707 24.7262 13.5507 25.8092 13.5507C26.8406 13.5507 27.2702 14.6584 27.2702 15.7415C27.2702 17.088 26.6991 17.9692 25.8092 17.9692ZM28.4739 11.1593H28.7483V11.8572H28.9145V11.1581H29.1877V11.019H28.4739V11.1593ZM30.0197 11.0203L29.8043 11.6184L29.5902 11.0203H29.3502V11.8572H29.504V11.1803L29.7379 11.856H29.872L30.1034 11.1803V11.856H30.2572V11.019L30.0197 11.0203Z"
    fill="#231F20" />
</svg>