<svg xmlns="http://www.w3.org/2000/svg" viewBox="0 0 20 20" fill="none">
  <rect width="20" height="20" fill="#21133A" rx="4" />
  <path fill="url(#paint0_radial_76_2)"
    d="M15.59 5.74c-1.265-1.662-3.238-2.697-5.312-2.738-1.625-.033-2.748.454-3.384.846.85-.492 2.08-.77 3.157-.757 2.77.035 5.746 1.917 6.188 5.308.507 3.892-2.212 7.141-6.036 7.151-4.208.011-6.768-3.705-6.099-7.042.034-.166.017-.329.073-.486.032-.587.254-1.507.733-2.446-.484.25-1.101 1.04-1.406 1.773-.439 1.056-.594 2.32-.454 3.52l.031.271A7.01 7.01 0 0 0 17 9.955a6.974 6.974 0 0 0-1.41-4.215Z" />
  <path fill="url(#paint1_radial_76_2)"
    d="M15.59 5.74c-1.265-1.662-3.238-2.697-5.312-2.738-1.625-.033-2.748.454-3.384.846.85-.492 2.08-.77 3.157-.757 2.77.035 5.746 1.917 6.188 5.308.507 3.892-2.212 7.141-6.036 7.151-4.208.011-6.768-3.705-6.099-7.042.034-.166.017-.329.073-.486.032-.587.254-1.507.733-2.446-.484.25-1.101 1.04-1.406 1.773-.439 1.056-.594 2.32-.454 3.52l.031.271A7.01 7.01 0 0 0 17 9.955a6.974 6.974 0 0 0-1.41-4.215Z"
    opacity=".67" />
  <path fill="url(#paint2_radial_76_2)"
    d="M15.59 5.74c-1.265-1.662-3.238-2.697-5.312-2.738-1.625-.033-2.748.454-3.384.846.85-.492 2.08-.77 3.157-.757 2.77.035 5.746 1.917 6.188 5.308.507 3.892-2.212 7.141-6.036 7.151-4.208.011-6.768-3.705-6.099-7.042.034-.166.017-.329.073-.486.032-.587.254-1.507.733-2.446-.484.25-1.101 1.04-1.406 1.773-.439 1.056-.594 2.32-.454 3.52l.031.271A7.01 7.01 0 0 0 17 9.955a6.974 6.974 0 0 0-1.41-4.215Z" />
  <path fill="url(#paint3_radial_76_2)"
    d="M15.59 5.74c-1.265-1.662-3.238-2.697-5.312-2.738-1.625-.033-2.748.454-3.384.846.85-.492 2.08-.77 3.157-.757 2.77.035 5.746 1.917 6.188 5.308.507 3.892-2.212 7.141-6.036 7.151-4.208.011-6.768-3.705-6.099-7.042.034-.166.017-.329.073-.486.032-.587.254-1.507.733-2.446-.484.25-1.101 1.04-1.406 1.773-.439 1.056-.594 2.32-.454 3.52l.031.271A7.01 7.01 0 0 0 17 9.955a6.974 6.974 0 0 0-1.41-4.215Z" />
  <path fill="url(#paint4_radial_76_2)"
    d="M15.59 5.74c-1.265-1.662-3.238-2.697-5.312-2.738-1.625-.033-2.748.454-3.384.846.85-.492 2.08-.77 3.157-.757 2.77.035 5.746 1.917 6.188 5.308.507 3.892-2.212 7.141-6.036 7.151-4.208.011-6.768-3.705-6.099-7.042.034-.166.017-.329.073-.486.032-.587.254-1.507.733-2.446-.484.25-1.101 1.04-1.406 1.773-.439 1.056-.594 2.32-.454 3.52l.031.271A7.01 7.01 0 0 0 17 9.955a6.974 6.974 0 0 0-1.41-4.215Z" />
  <path fill="url(#paint5_linear_76_2)"
    d="M16.239 8.399c.056.43.072.852.053 1.264.232-.034.464-.065.697-.092A6.97 6.97 0 0 0 15.59 5.74c-1.265-1.662-3.238-2.697-5.312-2.738-1.625-.033-2.748.454-3.384.846.85-.492 2.08-.77 3.157-.757 2.77.035 5.746 1.917 6.188 5.308Z" />
  <path fill="url(#paint6_radial_76_2)"
    d="M16.41 8.205c-.395-3.544-3.564-5.137-6.359-5.114-1.077.009-2.307.265-3.157.757a3.45 3.45 0 0 0-.622.471c.022-.018.09-.073.201-.15l.011-.007.01-.007c.405-.28.862-.482 1.346-.623.739-.216 1.538-.289 2.307-.27 3.16.182 5.391 2.798 5.469 5.583.064 2.305-1.828 4.143-4.008 4.249-1.586.077-3.08-.688-3.81-2.219a3.774 3.774 0 0 1-.343-1.105c-.346-2.33 1.223-4.317 2.661-4.808-.776-.677-2.72-.63-4.168.431-1.042.765-1.719 1.928-1.943 3.317-.17 1.058-.01 2.158.41 3.141a6.214 6.214 0 0 0 1.996 2.535 6.279 6.279 0 0 0 3.27 1.207c.173.013.347.02.522.02 4.63 0 6.64-3.506 6.206-7.408Z" />
  <path fill="url(#paint7_radial_76_2)"
    d="M16.41 8.205c-.395-3.544-3.564-5.137-6.359-5.114-1.077.009-2.307.265-3.157.757a3.45 3.45 0 0 0-.622.471c.022-.018.09-.073.201-.15l.011-.007.01-.007c.405-.28.862-.482 1.346-.623.739-.216 1.538-.289 2.307-.27 3.16.182 5.391 2.798 5.469 5.583.064 2.305-1.828 4.143-4.008 4.249-1.586.077-3.08-.688-3.81-2.219a3.774 3.774 0 0 1-.343-1.105c-.346-2.33 1.223-4.317 2.661-4.808-.776-.677-2.72-.63-4.168.431-1.042.765-1.719 1.928-1.943 3.317-.17 1.058-.01 2.158.41 3.141a6.214 6.214 0 0 0 1.996 2.535 6.279 6.279 0 0 0 3.27 1.207c.173.013.347.02.522.02 4.63 0 6.64-3.506 6.206-7.408Z" />
  <path fill="url(#paint8_radial_76_2)"
    d="M16.41 8.205c-.395-3.544-3.564-5.137-6.359-5.114-1.077.009-2.307.265-3.157.757a3.45 3.45 0 0 0-.622.471c.022-.018.09-.073.201-.15l.011-.007.01-.007c.405-.28.862-.482 1.346-.623.739-.216 1.538-.289 2.307-.27 3.16.182 5.391 2.798 5.469 5.583.064 2.305-1.828 4.143-4.008 4.249-1.586.077-3.08-.688-3.81-2.219a3.774 3.774 0 0 1-.343-1.105c-.346-2.33 1.223-4.317 2.661-4.808-.776-.677-2.72-.63-4.168.431-1.042.765-1.719 1.928-1.943 3.317-.17 1.058-.01 2.158.41 3.141a6.214 6.214 0 0 0 1.996 2.535 6.279 6.279 0 0 0 3.27 1.207c.173.013.347.02.522.02 4.63 0 6.64-3.506 6.206-7.408Z"
    opacity=".53" />
  <path fill="url(#paint9_radial_76_2)"
    d="M16.41 8.205c-.395-3.544-3.564-5.137-6.359-5.114-1.077.009-2.307.265-3.157.757a3.45 3.45 0 0 0-.622.471c.022-.018.09-.073.201-.15l.011-.007.01-.007c.405-.28.862-.482 1.346-.623.739-.216 1.538-.289 2.307-.27 3.16.182 5.391 2.798 5.469 5.583.064 2.305-1.828 4.143-4.008 4.249-1.586.077-3.08-.688-3.81-2.219a3.774 3.774 0 0 1-.343-1.105c-.346-2.33 1.223-4.317 2.661-4.808-.776-.677-2.72-.63-4.168.431-1.042.765-1.719 1.928-1.943 3.317-.17 1.058-.01 2.158.41 3.141a6.214 6.214 0 0 0 1.996 2.535 6.279 6.279 0 0 0 3.27 1.207c.173.013.347.02.522.02 4.63 0 6.64-3.506 6.206-7.408Z"
    opacity=".53" />
  <path fill="url(#paint10_radial_76_2)"
    d="M11.608 13.094c2.993-.181 4.273-2.652 4.354-4.406.125-2.738-1.504-5.692-5.815-5.425-.769-.02-1.568.053-2.307.269a5.06 5.06 0 0 0-1.346.623l-.01.007-.01.007a3.828 3.828 0 0 0-.197.147c.12-.082 1.606-.957 3.671-.687 2.474.324 4.737 2.244 4.737 4.777 0 1.95-1.51 3.437-3.279 3.331-2.628-.158-3.29-2.845-1.923-4.006-.369-.079-1.061.076-1.544.795-.432.645-.408 1.642-.14 2.35.73 1.53 2.224 2.314 3.809 2.218Z" />
  <path fill="url(#paint11_linear_76_2)"
    d="M15.59 5.74a6.967 6.967 0 0 0-.61-.695 5.48 5.48 0 0 0-.555-.51c.113.098.221.201.323.312.38.409.68.892.855 1.42.365 1.106.341 2.488-.357 3.574-.831 1.293-2.185 1.932-3.65 1.9-.062.001-.126 0-.19-.004-2.628-.158-3.29-2.845-1.923-4.006-.369-.079-1.061.076-1.544.795-.432.645-.408 1.642-.14 2.35a3.773 3.773 0 0 1-.344-1.106c-.346-2.33 1.223-4.317 2.661-4.808-.776-.676-2.72-.63-4.168.431-.844.619-1.447 1.499-1.765 2.548.046-.589.27-1.468.727-2.365-.484.25-1.101 1.04-1.406 1.773-.439 1.056-.594 2.32-.454 3.52l.031.271A7.01 7.01 0 0 0 17 9.955a6.973 6.973 0 0 0-1.41-4.215Z" />
  <path fill="url(#paint12_linear_76_2)"
    d="M15.603 6.268a3.917 3.917 0 0 0-.855-1.421c-.446-.482-1.002-.848-1.591-1.133a7.096 7.096 0 0 0-1.565-.553 6.988 6.988 0 0 0-2.899-.017c-.994.209-1.869.638-2.422 1.175.415-.252.994-.455 1.406-.56 1.913-.481 4.019.04 5.455 1.414.289.276.548.585.758.926.856 1.388.775 3.135.107 4.165-.496.764-1.559 1.482-2.55 1.474 1.521.08 2.94-.56 3.8-1.897.697-1.086.721-2.468.356-3.573Z" />
  <path fill="url(#paint13_linear_76_2)"
    d="M15.603 6.268a3.917 3.917 0 0 0-.855-1.421c-.446-.482-1.002-.848-1.591-1.133a7.096 7.096 0 0 0-1.565-.553 6.988 6.988 0 0 0-2.899-.017c-.994.209-1.869.638-2.422 1.175.415-.252.994-.455 1.406-.56 1.913-.481 4.019.04 5.455 1.414.289.276.548.585.758.926.856 1.388.775 3.135.107 4.165-.496.764-1.559 1.482-2.55 1.474 1.521.08 2.94-.56 3.8-1.897.697-1.086.721-2.468.356-3.573Z" />
  <defs>
    <radialGradient id="paint0_radial_76_2" cx="0" cy="0" r="1"
      gradientTransform="matrix(15.8865 0 0 15.8801 15.518 5.645)" gradientUnits="userSpaceOnUse">
      <stop stop-color="#FFF44F" />
      <stop offset=".295" stop-color="#FF980E" />
      <stop offset=".432" stop-color="#FF5D36" />
      <stop offset=".53" stop-color="#FF3750" />
      <stop offset=".749" stop-color="#F5156C" />
      <stop offset=".765" stop-color="#F1136E" />
      <stop offset=".88" stop-color="#DA057A" />
      <stop offset=".953" stop-color="#D2007F" />
    </radialGradient>
    <radialGradient id="paint1_radial_76_2" cx="0" cy="0" r="1"
      gradientTransform="matrix(9.40206 0 0 9.3983 4.16 6.302)" gradientUnits="userSpaceOnUse">
      <stop stop-color="#B5007F" />
      <stop offset="1" stop-color="#F5156C" stop-opacity="0" />
    </radialGradient>
    <radialGradient id="paint2_radial_76_2" cx="0" cy="0" r="1"
      gradientTransform="matrix(18.6549 0 0 18.6474 16.876 4.741)" gradientUnits="userSpaceOnUse">
      <stop stop-color="#FD0" stop-opacity=".6" />
      <stop offset=".084" stop-color="#FFD801" stop-opacity=".524" />
      <stop offset=".182" stop-color="#FECA05" stop-opacity=".435" />
      <stop offset=".288" stop-color="#FEB20C" stop-opacity=".339" />
      <stop offset=".4" stop-color="#FD9115" stop-opacity=".239" />
      <stop offset=".515" stop-color="#FB6621" stop-opacity=".134" />
      <stop offset=".633" stop-color="#F9332F" stop-opacity=".028" />
      <stop offset=".664" stop-color="#F92433" stop-opacity="0" />
    </radialGradient>
    <radialGradient id="paint3_radial_76_2" cx="0" cy="0" r="1"
      gradientTransform="matrix(24.0663 0 0 24.0566 10.4 10.768)" gradientUnits="userSpaceOnUse">
      <stop offset=".153" stop-color="#960E18" />
      <stop offset=".206" stop-color="#CC2335" stop-opacity=".554" />
      <stop offset=".249" stop-color="#F13148" stop-opacity=".191" />
      <stop offset=".272" stop-color="#FF3750" stop-opacity="0" />
    </radialGradient>
    <radialGradient id="paint4_radial_76_2" cx="0" cy="0" r="1"
      gradientTransform="matrix(24.0663 0 0 24.0566 8.579 10.465)" gradientUnits="userSpaceOnUse">
      <stop offset=".113" stop-color="#960E18" />
      <stop offset=".189" stop-color="#CC2335" stop-opacity=".554" />
      <stop offset=".252" stop-color="#F13148" stop-opacity=".191" />
      <stop offset=".284" stop-color="#FF3750" stop-opacity="0" />
    </radialGradient>
    <radialGradient id="paint6_radial_76_2" cx="0" cy="0" r="1"
      gradientTransform="matrix(14.9113 0 0 14.9054 15.185 5.108)" gradientUnits="userSpaceOnUse">
      <stop stop-color="#FF980E" />
      <stop offset=".295" stop-color="#FF7139" />
      <stop offset=".485" stop-color="#FF5B51" />
      <stop offset=".626" stop-color="#FF4F5E" />
      <stop offset=".737" stop-color="#FF4055" />
      <stop offset=".843" stop-color="#FF3750" />
    </radialGradient>
    <radialGradient id="paint7_radial_76_2" cx="0" cy="0" r="1"
      gradientTransform="matrix(14.9113 0 0 14.9054 15.185 5.108)" gradientUnits="userSpaceOnUse">
      <stop offset=".084" stop-color="#FFDE08" />
      <stop offset=".208" stop-color="#FFD609" stop-opacity=".832" />
      <stop offset=".403" stop-color="#FFBF0B" stop-opacity=".568" />
      <stop offset=".644" stop-color="#FF9B0F" stop-opacity=".242" />
      <stop offset=".822" stop-color="#FF7B12" stop-opacity="0" />
    </radialGradient>
    <radialGradient id="paint8_radial_76_2" cx="0" cy="0" r="1"
      gradientTransform="matrix(1.80803 7.08335 -7.39476 1.88751 11.74 9.745)"
      gradientUnits="userSpaceOnUse">
      <stop offset=".363" stop-color="#FF3750" />
      <stop offset=".411" stop-color="#FF444B" stop-opacity=".789" />
      <stop offset=".59" stop-color="#FF7139" stop-opacity="0" />
    </radialGradient>
    <radialGradient id="paint9_radial_76_2" cx="0" cy="0" r="1"
      gradientTransform="rotate(75.681 -1.431 11.927) scale(7.31046 7.31945)"
      gradientUnits="userSpaceOnUse">
      <stop offset=".216" stop-color="#FF3750" stop-opacity=".8" />
      <stop offset=".27" stop-color="#FF444B" stop-opacity=".632" />
      <stop offset=".474" stop-color="#FF7139" stop-opacity="0" />
    </radialGradient>
    <radialGradient id="paint10_radial_76_2" cx="0" cy="0" r="1"
      gradientTransform="matrix(25.2029 0 0 25.1928 18.16 3.424)" gradientUnits="userSpaceOnUse">
      <stop offset=".054" stop-color="#FFF44F" />
      <stop offset=".457" stop-color="#FF980E" />
      <stop offset=".521" stop-color="#FF8424" />
      <stop offset=".587" stop-color="#FF7634" />
      <stop offset=".639" stop-color="#FF7139" />
    </radialGradient>
    <linearGradient id="paint5_linear_76_2" x1="11.02" x2="15.136" y1="4.357" y2="11.488"
      gradientUnits="userSpaceOnUse">
      <stop stop-color="#FFBC04" />
      <stop offset=".26" stop-color="#FFA202" stop-opacity=".489" />
      <stop offset=".508" stop-color="#FF8E00" stop-opacity="0" />
    </linearGradient>
    <linearGradient id="paint11_linear_76_2" x1="13.329" x2="6.188" y1="4.232" y2="16.605"
      gradientUnits="userSpaceOnUse">
      <stop stop-color="#FFF44F" stop-opacity=".8" />
      <stop offset=".75" stop-color="#FFF44F" stop-opacity="0" />
    </linearGradient>
    <linearGradient id="paint12_linear_76_2" x1="11.054" x2="11.054" y1="11.781" y2="3.089"
      gradientUnits="userSpaceOnUse">
      <stop stop-color="#3A8EE6" />
      <stop offset=".236" stop-color="#5C79F0" />
      <stop offset=".629" stop-color="#9059FF" />
      <stop offset="1" stop-color="#C139E6" />
    </linearGradient>
    <linearGradient id="paint13_linear_76_2" x1="7.854" x2="14.907" y1="3.049" y2="10.105"
      gradientUnits="userSpaceOnUse">
      <stop offset=".805" stop-color="#9059FF" stop-opacity="0" />
      <stop offset="1" stop-color="#6E008B" stop-opacity=".5" />
    </linearGradient>
  </defs>
</svg>