<svg xmlns="http://www.w3.org/2000/svg" fill="none" viewBox="0 0 20 20">
  <rect width="20" height="20" fill="#fff" rx="4" />
  <path fill="#EE6055"
    d="M4.56 8.61V8c-.66 0-1.2.52-1.2 1.16H3v.57h.36v1.46H4V9.73h.57v-.57h-.57c0-.3.26-.55.57-.55ZM5.03 11.19h.63V8h-.63v3.19ZM6.86 10.24h1.8a.98.98 0 0 0 .01-.44c-.1-.57-.62-1-1.23-1-.7 0-1.26.54-1.26 1.21 0 .68.57 1.22 1.26 1.22.54 0 1-.33 1.18-.8H7.9a.63.63 0 0 1-1.04-.19Zm1.16-.44H6.85c.1-.23.32-.4.59-.4.26 0 .5.17.58.4ZM9.78 10.24h1.8a.98.98 0 0 0 0-.44c-.1-.57-.62-1-1.23-1-.69 0-1.25.54-1.25 1.21 0 .68.56 1.22 1.25 1.22.54 0 1.01-.33 1.18-.8h-.72a.63.63 0 0 1-1.03-.19Zm1.15-.44H9.77c.08-.23.31-.4.58-.4.27 0 .5.17.58.4ZM13.33 8.8c-.7 0-1.26.54-1.26 1.21V12h.63v-.93c.18.1.4.16.63.16.69 0 1.25-.54 1.25-1.22 0-.67-.56-1.22-1.25-1.22Zm0 1.82a.62.62 0 0 1-.63-.6c0-.34.28-.62.63-.62.34 0 .62.28.62.61 0 .34-.28.61-.62.61ZM16.1 9.67c-.28-.09-.42-.14-.42-.2 0-.1.17-.14.28-.14.37 0 .37.14.37.2h.63c0-.5-.38-.8-1-.8-.53 0-.91.3-.91.73 0 .54.53.7.88.8.3.08.44.13.44.22 0 .08-.08.23-.4.23-.03 0-.34 0-.34-.23H15c0 .49.41.84.97.84.68 0 1.03-.42 1.03-.84 0-.56-.54-.71-.9-.81Z" />
</svg>