<svg xmlns="http://www.w3.org/2000/svg" fill="none" viewBox="0 0 20 20">
  <rect width="20" height="20" fill="#10171E" rx="4" />
  <path fill="#F50" fill-rule="evenodd"
    d="M10.957 5.376a2.581 2.581 0 0 0-2.581 2.58v6.747H6.792V7.957a4.165 4.165 0 0 1 4.165-4.165h1.349v1.584h-1.35Z"
    clip-rule="evenodd" />
  <path fill="#C00" fill-rule="evenodd"
    d="M10.957 9.76a2.581 2.581 0 0 0-2.581 2.581v2.362H6.792V12.34a4.165 4.165 0 0 1 4.165-4.164h1.349V9.76h-1.35Z"
    clip-rule="evenodd" />
  <path fill="#F50" fill-rule="evenodd"
    d="M12.98 3.939a.645.645 0 1 0 0 1.29.645.645 0 0 0 0-1.29Zm-1.583.645a1.584 1.584 0 1 1 3.167 0 1.584 1.584 0 0 1-3.167 0Z"
    clip-rule="evenodd" />
  <path fill="#C00" fill-rule="evenodd"
    d="M12.98 8.323a.645.645 0 1 0 0 1.29.645.645 0 0 0 0-1.29Zm-1.583.646a1.584 1.584 0 1 1 3.167 0 1.584 1.584 0 0 1-3.167 0Zm-3.813 5.763a.645.645 0 1 0 0 1.29.645.645 0 0 0 0-1.29ZM6 15.377a1.584 1.584 0 1 1 3.167 0 1.584 1.584 0 0 1-3.167 0Z"
    clip-rule="evenodd" />
</svg>