<svg viewBox="0 0 20 20" fill="none" xmlns="http://www.w3.org/2000/svg">
  <rect width="20" height="20" rx="4" fill="white" />
  <path
    d="M5.64865 6.18595C5.64865 6.04345 5.70526 5.90678 5.80602 5.80602C5.90678 5.70526 6.04345 5.64865 6.18595 5.64865H9.98581C11.1361 5.64865 12.2393 6.1056 13.0527 6.91898C13.866 7.73235 14.323 8.83553 14.323 9.98581C14.323 11.1361 13.866 12.2393 13.0527 13.0527C12.2393 13.866 11.1361 14.323 9.98581 14.323H6.18595C6.04361 14.323 5.90709 14.2665 5.80636 14.1659C5.70562 14.0654 5.6489 13.929 5.64865 13.7866V6.18595Z"
    fill="#25D0B1" stroke="#25D0B1" stroke-width="5" />
  <path
    d="M7.33904 8.38717C7.24195 8.29008 7.18741 8.1584 7.18741 8.02109C7.18741 7.88378 7.24195 7.7521 7.33904 7.65501C7.43613 7.55792 7.56782 7.50337 7.70513 7.50337C7.84243 7.50337 7.97412 7.55792 8.07121 7.65501L8.84972 8.43352C8.94681 8.53061 9.00136 8.66229 9.00136 8.7996C9.00136 8.93691 8.94681 9.06859 8.84972 9.16568C8.75263 9.26277 8.62095 9.31732 8.48364 9.31732C8.34633 9.31732 8.21465 9.26277 8.11756 9.16568L7.33904 8.38717ZM10.4938 11.5428C10.3967 11.4456 10.3422 11.3138 10.3423 11.1764C10.3424 11.039 10.397 10.9073 10.4942 10.8102C10.5915 10.7131 10.7233 10.6586 10.8607 10.6587C10.9981 10.6588 11.1298 10.7135 11.2269 10.8107L12.0044 11.5892C12.1015 11.6863 12.1561 11.818 12.1561 11.9553C12.1561 12.0926 12.1015 12.2243 12.0044 12.3214C11.9074 12.4184 11.7757 12.473 11.6384 12.473C11.5011 12.473 11.3694 12.4184 11.2723 12.3214L10.4938 11.5428ZM11.2723 7.65406C11.3204 7.60599 11.3776 7.56786 11.4404 7.54187C11.5033 7.51588 11.5707 7.50252 11.6387 7.50256C11.7067 7.50261 11.7741 7.51605 11.8369 7.54213C11.8998 7.5682 11.9568 7.6064 12.0049 7.65453C12.053 7.70267 12.0911 7.7598 12.1171 7.82267C12.1431 7.88554 12.1565 7.95292 12.1564 8.02095C12.1564 8.08898 12.1429 8.15634 12.1169 8.21917C12.0908 8.28201 12.0526 8.33909 12.0044 8.38717L11.2269 9.16568C11.1298 9.2629 10.9981 9.31756 10.8607 9.31765C10.7233 9.31774 10.5915 9.26325 10.4942 9.16616C10.397 9.06906 10.3424 8.93733 10.3423 8.79994C10.3422 8.66254 10.3967 8.53074 10.4938 8.43352L11.2723 7.65501V7.65406ZM8.11756 10.8107C8.16563 10.7626 8.2227 10.7245 8.28552 10.6985C8.34833 10.6724 8.41565 10.659 8.48364 10.659C8.55163 10.659 8.61895 10.6724 8.68176 10.6985C8.74457 10.7245 8.80165 10.7626 8.84972 10.8107C8.89779 10.8588 8.93593 10.9158 8.96195 10.9786C8.98796 11.0415 9.00136 11.1088 9.00136 11.1768C9.00136 11.2448 8.98796 11.3121 8.96195 11.3749C8.93593 11.4377 8.89779 11.4948 8.84972 11.5428L8.07121 12.3214C7.97412 12.4184 7.84243 12.473 7.70513 12.473C7.56782 12.473 7.43613 12.4184 7.33904 12.3214C7.24195 12.2243 7.18741 12.0926 7.18741 11.9553C7.18741 11.818 7.24195 11.6863 7.33904 11.5892L8.11756 10.8107ZM10.1636 9.63582L10.0208 9.49203C9.92785 9.39909 9.80178 9.34688 9.67033 9.34688C9.53888 9.34688 9.41281 9.39909 9.31985 9.49203L9.17607 9.63582C9.08342 9.72873 9.03139 9.8546 9.03139 9.98582C9.03139 10.117 9.08342 10.2429 9.17607 10.3358L9.31985 10.4796C9.41277 10.5723 9.53864 10.6243 9.66986 10.6243C9.80107 10.6243 9.92694 10.5723 10.0199 10.4796L10.1636 10.3368C10.2566 10.2438 10.3088 10.1177 10.3088 9.98629C10.3088 9.85484 10.2566 9.72877 10.1636 9.63582Z"
    fill="white" />
</svg>
  