<svg xmlns="http://www.w3.org/2000/svg" fill="none" viewBox="0 0 20 20">
  <rect width="20" height="20" fill="#fff" rx="4" />
  <path fill="#73A952"
    d="M16.21 6.142c-.09-.092-.205-.084-.205-.084s-2.513.139-3.81.17c-.284.005-.568.01-.847.01v2.514c-.122-.055-.236-.114-.356-.17V6.245c-.622.006-1.908-.047-1.908-.047s-3.033-.15-3.359-.18c-.21-.012-.483-.043-.833.03-.186.036-.719.158-1.153.574-.966.858-.719 2.23-.689 2.435.037.248.145.948.678 1.553.978 1.202 3.093 1.172 3.093 1.172s.261.622.659 1.19c.538.705 1.088 1.262 1.619 1.329h4.046s.261 0 .606-.223c.302-.18.567-.502.567-.502s.277-.297.664-.972a6.31 6.31 0 0 0 .302-.598s1.183-2.507 1.183-4.954c-.034-.734-.215-.867-.256-.91ZM5.56 10.514c-.556-.18-.792-.4-.792-.4s-.41-.289-.616-.852c-.35-.955-.03-1.528-.03-1.528s.18-.483.827-.641c.297-.078.664-.067.664-.067s.15 1.275.339 2.017c.158.628.53 1.667.53 1.667s-.56-.069-.922-.196Zm6.433 2.302s-.134.308-.423.333c-.127.006-.222-.025-.222-.025s-.006 0-.115-.042l-2.416-1.177s-.236-.122-.272-.333c-.047-.175.061-.386.061-.386l1.166-2.4s.103-.205.26-.277c.012-.006.049-.025.098-.03.175-.043.386.06.386.06l2.375 1.147s.272.122.325.345a.607.607 0 0 1-.036.369c-.141.325-1.187 2.416-1.187 2.416Z" />
  <path fill="#73A952"
    d="M9.873 11.077a.383.383 0 0 0-.369.297c-.042.17.042.35.194.428a.396.396 0 0 0 .489-.114.39.39 0 0 0-.036-.495l.514-1.05c.03 0 .078.006.133-.012.091-.019.15-.078.15-.078.091.037.186.078.284.134.102.055.2.102.289.158.019.01.036.024.06.041.037.03.073.067.103.122.042.122-.041.32-.041.32-.048.163-.392.87-.392.87a.392.392 0 0 0-.38.266.389.389 0 0 0 .193.458c.17.09.375.036.483-.114a.382.382 0 0 0-.024-.483c.042-.078.078-.158.121-.242.109-.223.29-.652.29-.652.019-.037.121-.223.06-.459-.055-.242-.272-.356-.272-.356-.26-.17-.627-.325-.627-.325s0-.091-.025-.15a.391.391 0 0 0-.084-.134c.103-.205.2-.41.303-.622a3.051 3.051 0 0 1-.261-.133l-.308.634a.382.382 0 0 0-.303.622l-.544 1.069Z" />
</svg>