<svg xmlns="http://www.w3.org/2000/svg" fill="none" viewBox="0 0 20 20">
  <g clip-path="url(#a)">
    <rect width="20" height="20" fill="#fff" rx="4" />
    <path fill="#030303" fill-rule="evenodd"
      d="M9.86-.41C-2.42-1.12-.3.49-.3 9.99c-1.5 11.5 2.63 10.35 6.82 10.04.49-.03.76-.28.76-.57l-.01-1.83c-3.06.65-3.7-1.44-3.7-1.44-.5-1.25-1.23-1.58-1.23-1.58-1-.66.08-.65.08-.65 1.1.07 1.68 1.1 1.68 1.1.98 1.65 2.58 1.18 3.2.9.1-.7.39-1.17.7-1.44-2.44-.27-5-1.2-5-5.32 0-1.17.42-2.13 1.12-2.89a3.8 3.8 0 0 1 .11-2.84s.93-.3 3.03 1.1a10.78 10.78 0 0 1 5.5 0c2.1-1.4 3.03-1.1 3.03-1.1a3.8 3.8 0 0 1 .1 2.84 4.1 4.1 0 0 1 1.14 2.9c0 4.13-2.58 5.04-5.03 5.3.4.34.75 1 .75 2l-.01 2.95c0 .29.27.54.8.56 4 .5 8.49.93 6.91-10.79 0-5.7 1.8-11.13-10.58-9.64Z"
      clip-rule="evenodd" />
  </g>
  <defs>
    <clipPath id="a">
      <rect width="20" height="20" fill="#fff" rx="4" />
    </clipPath>
  </defs>
</svg>