<svg xmlns="http://www.w3.org/2000/svg" fill="none" viewBox="0 0 20 20">
  <rect width="20" height="20" fill="#2E2B6B" rx="4" />
  <path fill="#E24329"
    d="m15.8 9.354-.016-.041-1.633-4.055a.415.415 0 0 0-.168-.194.448.448 0 0 0-.502.026.41.41 0 0 0-.146.21l-1.102 3.212H7.768L6.665 5.3a.411.411 0 0 0-.146-.208.445.445 0 0 0-.67.167L4.217 9.313l-.017.041a2.755 2.755 0 0 0-.082 1.828c.181.602.563 1.13 1.089 1.508l.005.004.015.01 2.484 1.773 1.981 1.425a.523.523 0 0 0 .61 0l1.982-1.425 2.502-1.783.007-.005a2.888 2.888 0 0 0 1.09-1.507 2.755 2.755 0 0 0-.083-1.828Z" />
  <path fill="#FC6D26"
    d="m15.8 9.354-.016-.041a5.646 5.646 0 0 0-2.196.94l-3.586 2.581 2.284 1.643 2.502-1.783.007-.005a2.885 2.885 0 0 0 1.087-1.507 2.755 2.755 0 0 0-.082-1.828Z" />
  <path fill="#FCA326"
    d="m7.711 14.477 1.981 1.425a.523.523 0 0 0 .61 0l1.982-1.425L10 12.834l-2.289 1.643Z" />
  <path fill="#FC6D26"
    d="M6.412 10.253a5.64 5.64 0 0 0-2.195-.94l-.017.041a2.755 2.755 0 0 0-.082 1.828c.181.602.563 1.13 1.089 1.508l.005.004.015.01 2.484 1.773 2.285-1.643-3.584-2.581Z" />
</svg>