<svg xmlns="http://www.w3.org/2000/svg" fill="none" viewBox="0 0 20 20">
  <rect width="20" height="20" fill="#fff" rx="4" />
  <mask id="a" width="15" height="13" x="3" y="4" maskUnits="userSpaceOnUse"
    style="mask-type:luminance">
    <path fill="#fff" d="M3 4h14.12v12.59H3V4Z" />
  </mask>
  <g mask="url(#a)">
    <path fill="#1BDBDB" fill-rule="evenodd"
      d="M15.65 10.17a7.58 7.58 0 0 1-1.8 3.25c.38-1.52.12-3.4-.8-5.14a.23.23 0 0 0-.32-.1l-2.86 1.8a.23.23 0 0 0-.07.31l.42.68c.06.1.2.14.32.07l1.85-1.16c.06.18.12.36.16.54.18.68.25 1.34.2 1.97-.09 1.16-.56 2.07-1.34 2.55a2.6 2.6 0 0 1-1.32.39h-.06a2.6 2.6 0 0 1-1.32-.39c-.78-.48-1.25-1.39-1.34-2.55-.05-.63.02-1.3.2-1.97A7.58 7.58 0 0 1 9.95 6.6c.53-.46 1.1-.8 1.68-1.04 1.09-.43 2.11-.4 2.88.08.78.49 1.25 1.4 1.34 2.56.05.63-.02 1.29-.2 1.97ZM5.38 12.25a7.58 7.58 0 0 1-.91-2.08 5.98 5.98 0 0 1-.2-1.97c.09-1.16.56-2.07 1.34-2.56.77-.48 1.8-.51 2.88-.08.16.07.33.14.49.23A8.9 8.9 0 0 0 7.4 7.67a7.7 7.7 0 0 0-1.14 5.75 7.8 7.8 0 0 1-.9-1.17Zm9.8-7.67c-1.47-.92-3.4-.7-5.12.38-1.72-1.08-3.65-1.3-5.12-.38-2.32 1.45-2.6 5.18-.63 8.34 1.46 2.33 3.73 3.7 5.75 3.67 2.02.02 4.3-1.34 5.75-3.67 1.97-3.16 1.69-6.9-.63-8.34Z"
      clip-rule="evenodd" />
  </g>
</svg>