<svg viewBox="0 0 32 32" fill="none" xmlns="http://www.w3.org/2000/svg">
  <rect width="32" height="32" rx="4" fill="black" />
  <path
    d="M25.2944 15.816C25.2944 15.184 25.2384 14.584 25.1424 14H16.1024V17.608H21.2784C21.0464 18.792 20.3664 19.792 19.3584 20.472V22.872H22.4464C24.2544 21.2 25.2944 18.736 25.2944 15.816Z"
    fill="#4285F4" />
  <path
    d="M16.1024 25.1999C18.6944 25.1999 20.8624 24.3359 22.4464 22.8719L19.3584 20.4719C18.4944 21.0479 17.3984 21.3999 16.1024 21.3999C13.5984 21.3999 11.4784 19.7119 10.7184 17.4319H7.53438V19.9039C9.11038 23.0399 12.3504 25.1999 16.1024 25.1999Z"
    fill="#34A853" />
  <path
    d="M10.7183 17.4319C10.5184 16.8559 10.4143 16.2399 10.4143 15.5999C10.4143 14.9599 10.5264 14.3439 10.7183 13.7679V11.2959H7.53435C6.87835 12.5919 6.50235 14.0479 6.50235 15.5999C6.50235 17.1519 6.87835 18.6079 7.53435 19.9039L10.7183 17.4319Z"
    fill="#FBBC05" />
  <path
    d="M16.1024 9.8C17.5184 9.8 18.7824 10.288 19.7824 11.24L22.5184 8.504C20.8624 6.952 18.6944 6 16.1024 6C12.3504 6 9.11038 8.16 7.53438 11.296L10.7184 13.768C11.4784 11.488 13.5984 9.8 16.1024 9.8Z"
    fill="#EA4335" />
</svg>