<svg xmlns="http://www.w3.org/2000/svg" fill="none" viewBox="0 0 20 20">
  <rect width="20" height="20" fill="#8740E7" rx="4" />
  <path fill="#fff"
    d="M8.6 5.246c.217.127.386.264.556.453.047-.078.095-.155.145-.234.164-.244.164-.244.318-.324.295-.034.426-.026.676.144.174.175.174.175.329.414l.118-.1a242.381 242.381 0 0 0 .319-.259c.568-.377 1.232-.331 1.88-.279.711.173 1.272.746 1.68 1.348.35.598.452 1.31.33 1.997-.158.227-.28.376-.553.433-.206.011-.41.01-.615.004l-.227-.002a60.078 60.078 0 0 1-.716-.012l-.486-.005c-.397-.005-.793-.012-1.19-.02.198.361.367.559.762.682.636.134 1.236 0 1.853-.175.297-.035.397.024.63.21.155.16.155.16.194.463-.01.276-.035.328-.213.557-.703.498-1.708.506-2.53.413-.52-.115-.971-.3-1.39-.637l-.059.19c-.096.208-.096.208-.232.318-.249.071-.39.053-.637-.03a3.145 3.145 0 0 1-.386-.478l-.136.1c-.65.461-1.156.619-1.95.537-.687-.17-1.218-.583-1.608-1.184a7.951 7.951 0 0 1-.17-.329l-.074-.149c-.299-.73-.272-1.747-.032-2.489.316-.746.84-1.381 1.58-1.693.571-.187 1.3-.132 1.834.136ZM6.683 6.893c-.313.456-.393.966-.309 1.513.165.547.475.87.961 1.14.46.127.805.069 1.213-.163.373-.261.588-.602.685-1.057.036-.465.007-.867-.232-1.274-.36-.4-.668-.643-1.207-.672-.468.007-.78.176-1.11.513Zm4.612.04c-.15.205-.15.205-.208.517h2.473c-.133-.46-.133-.46-.425-.741l-.143-.119c-.592-.441-1.249-.157-1.697.343ZM6.031 12.076c.169.13.31.251.457.394.77.712 1.773 1.257 2.964 1.357 1.355.06 2.544-.202 3.581-.938.245-.186.463-.377.675-.587.176-.168.244-.221.505-.302.275.014.409.069.625.205.166.201.19.28.138.513-.124.278-.375.49-.614.71l-.121.116c-.849.756-2.272 1.341-3.521 1.447-.236.008-.47.01-.707.008l-.253-.002c-1.46-.026-2.73-.524-3.808-1.312l-.158-.115c-.322-.246-.625-.514-.794-.85 0-.24.014-.378.188-.571.293-.164.514-.152.843-.073Z" />
</svg>