<svg viewBox="0 0 20 20" fill="none" xmlns="http://www.w3.org/2000/svg">
  <rect width="20" height="20" rx="4" fill="white" />
  <path
    d="M13.4205 6.65591V14.9143H12.2768V10.3934C12.2768 10.3934 9.26004 10.3934 7.7572 10.3934C7.7572 10.7688 7.7572 11.1224 7.7572 11.5087C8.89538 11.5087 10.0004 11.5087 11.1331 11.5087C11.1331 11.7262 11.1331 11.9058 11.1331 12.0853C11.1331 13.527 11.1331 14.9741 11.1331 16.4158C11.1331 16.5082 11.1386 16.579 11.1497 16.6334C12.4315 16.4266 13.5973 15.8826 14.5477 15.0883C14.5477 13.9568 14.5477 9.50664 14.5477 9.27813C14.5421 8.41312 14.3432 7.45018 13.4205 6.65591Z"
    fill="#FF2E4C" />
  <path
    d="M11.1277 7.00403H12.2714V4.52872C12.9621 4.6756 15.5755 6.35665 15.6805 8.99518V13.8914C16.5258 12.749 17.0286 11.3454 17.0286 9.82211C17.0286 6.38385 14.4815 3.53315 11.1443 3C11.1332 3.05984 11.1277 3.13057 11.1277 3.22305V7.00403Z"
    fill="#FF2E4C" />
  <path
    d="M6.60791 12.9775V4.71913H7.75163V9.24001C7.75163 9.24001 10.7684 9.24001 12.2712 9.24001C12.2712 8.86463 12.2712 8.511 12.2712 8.12475C11.133 8.12475 10.028 8.12475 8.89533 8.12475C8.89533 7.90711 8.89533 7.72759 8.89533 7.54806C8.89533 6.1064 8.89533 4.65929 8.89533 3.21761C8.89533 3.12513 8.8898 3.0544 8.87877 3C7.59692 3.20673 6.43111 3.75076 5.48077 4.54504C5.48077 5.67662 5.48077 10.1268 5.48077 10.3552C5.4863 11.2257 5.68521 12.1886 6.60791 12.9775Z"
    fill="#FF2E4C" />
  <path
    d="M8.90091 12.6346H7.7572V15.1099C7.06654 14.963 4.45313 13.282 4.34815 10.6434V5.74718C3.50279 6.88964 3 8.29322 3 9.81652C3 13.2548 5.54711 16.1055 8.88431 16.6386C8.89538 16.5788 8.90091 16.5081 8.90091 16.4155V12.6346Z"
    fill="#FF2E4C" />
</svg>
  