<svg xmlns="http://www.w3.org/2000/svg" fill="none" viewBox="0 0 20 20">
  <rect width="20" height="20" fill="#F96301" rx="4" />
  <path fill="#fff"
    d="m3.56 19 .03-.05a.4.4 0 0 0 .05-.17c0-.04-.02-.1-.04-.11v-.02a440.98 440.98 0 0 0-3.32-3.28H.15a.82.82 0 0 0-.13.06H0v-.61l.68-.69a43.65 43.65 0 0 1 .8-.74.21.21 0 0 1 .17 0c.04.01.1.06.1.08v.01c.03.02.03.13.01.16l-.02.05-.01.03-.02.03-.01.03-.02.04-.01.04v.11l.01.03.01.02.02.02a318.37 318.37 0 0 0 3.26 3.25c0 .02.08.04.1.04a.52.52 0 0 0 .2-.06l.03-.01c.02 0 .03-.02.03-.02l.05-.01a.2.2 0 0 1 .1 0l.03.01.01.01c.02 0 .07.06.1.1v.09c0 .05 0 .06-.02.11a.23.23 0 0 1-.04.06l-.01.02-.69.69-.68.68h-.62Zm6.06 0c0-.01 0-.03.02-.04 0-.02.01-.03 0-.07v-.05l-.02-.03a65.37 65.37 0 0 0-1.84-1.83.16.16 0 0 0-.15.01.22.22 0 0 1-.1.03H7.5L7.46 17c-.05-.05-.06-.07-.03-.12.01-.03.1-.12.44-.46l.43-.43 1.17 1.17 1.17 1.17-.34.34-.34.34h-.34Zm8.55-.25-.04-.01a.4.4 0 0 0-.04-.02h-.03s0-.02-.02-.02-.03-.01-.03-.02H18a.69.69 0 0 1-.16-.16.3.3 0 0 1-.05-.1v-.02a.65.65 0 0 1 0-.33v-.03l.04-.07a.16.16 0 0 0 .02-.03c0-.01.11-.13.14-.14a.53.53 0 0 1 .13-.06.1.1 0 0 0 .04-.01.7.7 0 0 1 .21 0h.04l.13.07c.02.01.12.1.13.13a1.76 1.76 0 0 1 .07.14l.02.16a.56.56 0 0 1-.03.2c0 .02-.02.03-.02.03l-.01.03c0 .02-.02.03-.02.03l-.01.02-.13.13-.02.01-.03.02-.03.01-.03.02a.16.16 0 0 0-.05.01c0 .01-.18.02-.21.01Zm.23-.08c.06-.02.1-.05.15-.1a.5.5 0 0 0-.06-.73l-.03-.01a.36.36 0 0 0-.2-.04c-.08 0-.12 0-.2.04a.52.52 0 0 0-.16.18.5.5 0 0 0-.06.23c0 .2.11.37.29.43.07.03.2.03.27 0Zm-.32-.44v-.3h.14c.13.01.15.01.18.03.05.02.06.04.08.09.02.05.01.08 0 .13-.03.04-.04.06-.12.08l-.02.01.02.04a.83.83 0 0 0 .04.07l.02.04c.02.01.02.03.02.03l.03.04.02.04h-.03c-.04 0-.04 0-.08-.07l-.04-.07-.05-.08-.02-.04h-.12v.27h-.07v-.3Zm.3-.04c.03-.02.05-.1.03-.11v-.02c0-.02-.04-.05-.06-.05l-.03-.01h-.17v.2h.23Zm-7.66-.12-.08-.08.01-.02.01-.02.02-.03.01-.04v-.18a.23.23 0 0 0-.05-.09l-.01-.02a71.41 71.41 0 0 0-1.55-1.56.68.68 0 0 0-.1-.07l-.07-.03h-.1l-.12.01a.35.35 0 0 0-.05.03c-.01.01-.02 0-.1-.07a.4.4 0 0 1-.07-.1l.07-.06a19.95 19.95 0 0 0 .17-.13l.07-.04.05-.02a1.02 1.02 0 0 1 .17-.08 1.39 1.39 0 0 1 .38-.06 1.71 1.71 0 0 1 .54.1l.03.02h.01a1.6 1.6 0 0 1 .4.23l.06.04.02.01.01.02.14.11a3.44 3.44 0 0 1 .36.4l.02.04.02.04.1.18.01.05.02.05.02.04a1.7 1.7 0 0 1 .06.57 3.04 3.04 0 0 0-.05.23l-.01.06-.01.03-.02.05a.2.2 0 0 0-.02.03l-.01.04a.25.25 0 0 0-.02.05l-.03.04a.92.92 0 0 1-.05.1.74.74 0 0 1-.1.12s-.01.03-.04.05l-.04.04-.08-.08Zm-4.92-.86c-.06-.03-.13-.08-.13-.1v-.02l-.02-.04a.2.2 0 0 1 0-.08l.01-.05.02-.03.01-.03a.65.65 0 0 0 .07-.2c0-.03-.03-.1-.05-.12a98.04 98.04 0 0 0-1.5-1.5l-.25.24-.24.24-.15-.15-.16-.16.24-.24a4 4 0 0 0 .24-.25l-1.43-1.44a.31.31 0 0 0-.12-.04.53.53 0 0 0-.2.07l-.06.02a.2.2 0 0 1-.09.02c-.05 0-.06 0-.1-.02a.25.25 0 0 1-.09-.1.25.25 0 0 1 0-.15l.01-.04.03-.05c0-.01.38-.4.84-.85l.83-.83.06-.03c.05-.03.07-.03.1-.03.05 0 .07 0 .1.02.05.02.1.08.11.13.01.04 0 .11-.01.16a.2.2 0 0 0-.02.04c-.02.01-.05.1-.06.15-.02.05-.01.08.01.14.03.05.11.13 1.64 1.66a62.5 62.5 0 0 0 1.65 1.63c.09.05.14.05.27-.01a.44.44 0 0 1 .08-.03v-.01l.1-.02c.06 0 .1.01.14.06a.2.2 0 0 1 .05.05v.03c.02.02.02.03.02.07l-.01.07a.87.87 0 0 0-.05.08 110.21 110.21 0 0 1-1.72 1.7.22.22 0 0 1-.1.04H5.8Zm6-.19c-.03-.02-.06-.05-.06-.09l.04-.11c.02-.03.02-.14 0-.15v-.02a162.6 162.6 0 0 0-1.84-1.82c-.03-.03-.1-.02-.16 0a.19.19 0 0 1-.1.04c-.04 0-.05 0-.06-.02-.04-.04-.06-.1-.04-.12l.01-.03.43-.45.43-.43 1.18 1.17 1.17 1.17-.42.42c-.44.44-.47.46-.52.46-.02 0-.04 0-.06-.02Zm1.07-1.1-.08-.08.02-.03a1.1 1.1 0 0 0 .14-.3.65.65 0 0 0 .02-.22.86.86 0 0 0-.08-.4.75.75 0 0 1-.06-.16c0-.04.04-.1.08-.1.06-.03.06-.03.42.33l.33.34-.35.35-.35.35-.09-.08Zm.9-.83a.23.23 0 0 1-.07-.06c-.02-.03-.02-.07.01-.13a.18.18 0 0 0 .03-.09v-.04l-.89-.88c-.48-.5-.9-.91-.94-.94l-.06-.05h-.13c0 .01-.01.02-.03.02l-.03.02s-.06.02-.08.01a.15.15 0 0 1-.05-.04c-.03-.03-.03-.03-.03-.08 0-.03 0-.05.02-.07l.44-.44.41-.42 1.04 1.04 1.06 1.05.07.01c.04 0 .05 0 .1-.03.06-.02.07-.03.1-.02h.04l.01.02.02.02.01.01c.02.01.02.05.01.1v.02l-.02.02c-.01.03-.93.95-.96.96h-.09Zm-1.35-.1a.52.52 0 0 1-.07-.04.68.68 0 0 0-.32-.1.47.47 0 0 0-.16.04c-.02 0-.02 0-.11-.09l-.1-.09.02-.02.02-.05a.85.85 0 0 0 0-.23l-.02-.04a.92.92 0 0 0-.09-.18.23.23 0 0 1-.02-.08c0-.04 0-.05.02-.07a.16.16 0 0 1 .04-.05h.06c.03.01.06.04.44.42.44.44.46.45.44.5a.17.17 0 0 1-.08.08c-.03.01-.03.01-.07 0Zm-4.52-.77a2.5 2.5 0 0 1-.63-.14l-.08-.03a1.3 1.3 0 0 1-.13-.05 4.08 4.08 0 0 1-.97-.61 10.82 10.82 0 0 1-.67-.73.17.17 0 0 1-.03-.04v-.01l-.02-.01a.1.1 0 0 0-.02-.04.1.1 0 0 1-.02-.03l-.01-.01-.01-.01s0-.02-.02-.03a.08.08 0 0 1-.02-.04s-.02-.01-.02-.03a.64.64 0 0 0-.03-.05.6.6 0 0 1-.03-.05l-.01-.02-.03-.05-.06-.11-.07-.14-.04-.1a.15.15 0 0 1-.01-.04l-.02-.03a1.07 1.07 0 0 1-.06-.19 4.45 4.45 0 0 1-.09-.37l-.03-.3a2.76 2.76 0 0 1 .07-.63l.1-.3a2.74 2.74 0 0 1 .44-.75l.02-.02.15.15c.12.12.15.16.15.17a1 1 0 0 0-.06.18.62.62 0 0 0 .01.23.31.31 0 0 0 .04.09l.01.03.02.01.03.05.03.04a992.52 992.52 0 0 0 3.05 3.04c.12.1.29.14.45.1a.52.52 0 0 0 .14-.05l.17.15.15.15-.01.02-.02.01-.06.05a.44.44 0 0 1-.07.05l-.05.03a.4.4 0 0 1-.05.04s-.02 0-.03.02a.2.2 0 0 1-.03.02l-.04.03-.2.1a.66.66 0 0 1-.16.07l-.01.01-.06.02a1.8 1.8 0 0 1-.23.08l-.08.02-.33.05a2.1 2.1 0 0 1-.4 0Zm2.8-.48-.09-.08.35-.34.34-.34.32.32c.23.22.32.33.33.34.01.04 0 .07-.03.1-.03.04-.07.06-.1.05a.42.42 0 0 1-.08-.03.96.96 0 0 0-.44-.11.76.76 0 0 0-.36.08.76.76 0 0 0-.14.08l-.02.02-.08-.09Zm-.84-.56a1.6 1.6 0 0 1-.15-.16V13l.03-.05.01-.04a.64.64 0 0 0 0-.32l-.01-.04a.32.32 0 0 0-.03-.05 476.31 476.31 0 0 0-3.2-3.2.4.4 0 0 0-.05-.03l-.05-.01a.72.72 0 0 0-.4.03.1.1 0 0 1-.03.01l-.3-.3.01-.02a1.75 1.75 0 0 0 .14-.11l.05-.03a.46.46 0 0 1 .09-.06l.02-.02H6l.04-.03a.51.51 0 0 1 .06-.03l.03-.02a1.54 1.54 0 0 1 .29-.13l.04-.02.03-.01.03-.01.05-.02.04-.01.06-.02.05-.01.06-.02.07-.01.1-.02.15-.02a3.52 3.52 0 0 1 .79.07l.06.01a.2.2 0 0 1 .05.01l.04.02a.2.2 0 0 1 .05.01l.04.02a.2.2 0 0 1 .04.01l.03.01.04.02.05.02.03.01h.01a2.34 2.34 0 0 1 .7.38V9l.02.01.1.08.02.02.06.04a.5.5 0 0 0 .05.04l.03.03.03.02a7.2 7.2 0 0 1 .74.83v.01l.06.08.02.03a.79.79 0 0 0 .05.1l.02.02a2.95 2.95 0 0 1 .38 1.79 1.32 1.32 0 0 1-.07.3l-.01.05c0 .03-.01.05-.02.05l-.01.03-.02.06-.02.05-.03.06a.6.6 0 0 1-.14.27.47.47 0 0 0-.02.05l-.02.02-.03.04a.1.1 0 0 0-.01.03l-.04.05a.32.32 0 0 0-.03.05l-.04.05a.87.87 0 0 0-.05.07l-.03.02-.16-.15Zm4.03-.09-.08-.08.02-.04a.31.31 0 0 0 .01-.28l-.02-.04a.1.1 0 0 1-.02-.03l-.02-.01-.01-.02a17.45 17.45 0 0 0-.74-.71l-.04-.02a.1.1 0 0 1-.04-.01h-.13l-.03.01a.18.18 0 0 0-.06.02.15.15 0 0 1-.03.02l-.08-.08-.09-.08.06-.05.18-.17.07-.05a.74.74 0 0 1 .1-.08.87.87 0 0 1 .2-.1l.05-.03.05-.01.04-.01a1.11 1.11 0 0 1 .48.01l.04.01.01.01a.67.67 0 0 1 .18.1l.06.04.06.04.01.02c.02.02.04.01.04-.01v-.02l-.01-.01s0-.03-.02-.05a.97.97 0 0 1-.06-.16 1.35 1.35 0 0 1 .12-1.18 1.47 1.47 0 0 1 .13-.18c0-.02.02 0 .1.07l.08.08-.02.05a.27.27 0 0 0-.01.12c0 .07 0 .08.02.12l.04.06.02.02a137.33 137.33 0 0 0 1.7 1.7.2.2 0 0 0 .12.06l.04.01h.06l.06-.01.06-.02s.03.01.1.08l.08.08-.03.03a.34.34 0 0 1-.06.04.43.43 0 0 0-.05.03.44.44 0 0 1-.1.06v.01h-.01l-.04.03a.18.18 0 0 1-.05.02h-.02l-.03.02a.32.32 0 0 0-.05.02l-.04.01-.03.02h-.04a1.7 1.7 0 0 1-.36.05 1.75 1.75 0 0 1-.57-.11l-.02-.01a1.21 1.21 0 0 1-.25-.13.12.12 0 0 0-.03-.02l-.05-.03a.32.32 0 0 0-.04-.03l-.02-.01a.2.2 0 0 1-.05-.04.28.28 0 0 0-.04-.03l-.03-.03a1.68 1.68 0 0 1-.15-.14.94.94 0 0 0-.14-.12v.03l.01.07a.6.6 0 0 1 .02.2.67.67 0 0 1-.06.32.9.9 0 0 1-.1.2v.01l-.01.01-.02.03a.13.13 0 0 0-.02.03l-.01.02c-.06.06-.1.13-.1.13l-.14.15-.06.06-.09-.09Zm2.96-1.05a1.24 1.24 0 0 1-.08-.08l.01-.05a.28.28 0 0 0 .02-.13l-.01-.09-.02-.03a.08.08 0 0 0-.02-.03v-.01a67.46 67.46 0 0 0-1.8-1.77l-.05-.03h-.14l-.05.01-.04.02-.18-.17h.01l.04-.03a.2.2 0 0 1 .04-.03l.02-.01.02-.02.03-.02a1.75 1.75 0 0 1 .43-.2 1.5 1.5 0 0 1 .45-.03 1.8 1.8 0 0 1 .3.06l.02-.01c0-.01-.1-.12-.24-.25l-.23-.24.21-.22.22-.21.09.08.08.08v.09l.02.2.01.03a1.52 1.52 0 0 0 .24.43l.07.14v.03c-.02.03-.03.07-.02.08l.03.02c.02 0 .03.02.03.02l.05.03a.2.2 0 0 0 .04.03l.02.02.08.07a3.94 3.94 0 0 1 .44.5l.03.05.04.07a1.38 1.38 0 0 1 .14.31l.02.05.01.05.02.06.01.07c.01.03.02.23.01.34a.8.8 0 0 1-.02.18.2.2 0 0 1-.02.06v.03l-.06.13-.08.18-.05.08a.3.3 0 0 1-.05.05v.01l-.03.05-.03.03-.08-.08Zm-5.32-.57a.13.13 0 0 1-.04-.02l-.02-.01-.03-.02v-.03l-.03-.03c-.02-.02-.02-.03-.01-.08v-.07l.02-.04a.2.2 0 0 1 .02-.05l.01-.06.02-.07a.4.4 0 0 0 0-.14l-.01-.03-.02-.1-.01-.03a.34.34 0 0 0-.03-.07.27.27 0 0 1-.01-.04v-.01l-.04-.05-.08-.14a.98.98 0 0 0-.07-.1 85.95 85.95 0 0 0-1.88-1.9l.76.38a10.13 10.13 0 0 0 .42.21 70.23 70.23 0 0 1 1.03 1 .98.98 0 0 0 .1.08 1.72 1.72 0 0 0 .32.16l.13.02h.12a.65.65 0 0 0 .22-.05c.11-.03.17-.02.23.04.03.04.06.1.06.13s-.03.1-.05.14a16.34 16.34 0 0 1-.94.94.44.44 0 0 1-.15.06l-.04-.02Zm6.55-.72c-.05-.02-.06-.04-.06-.1l.02-.08a.24.24 0 0 0 .02-.05l.01-.02v-.08c0-.02-.48-.5-1.06-1.07l-1.04-1.04.37-.38.38-.37a140.87 140.87 0 0 1 2.09 2.07c.02.02.03.02.08.02l.08-.01.03-.02v.34l-.39.39c-.31.31-.4.39-.42.4-.05.03-.08.03-.11 0Zm-5.44-1.1A309.33 309.33 0 0 0 9.12 7.9c-.69-.34-.7-.35-.73-.35l-.04-.02-.04-.01-.03-.01a.33.33 0 0 0-.1-.02v-.01l-.1-.01-.1.01a.36.36 0 0 0-.07.04.36.36 0 0 1-.07.06c-.1.05-.13.06-.19.05-.02 0-.04 0-.08-.05-.05-.05-.05-.06-.06-.1-.03-.07-.01-.13.05-.21l.75-.76.74-.74.12.07a3.32 3.32 0 0 0 .3.14l.29.14a42.37 42.37 0 0 1 1.17.57 3.22 3.22 0 0 0 .3.15l.04.01.03.02s.06.03.08.02v-.04l-.05-.08-.06-.12a3.4 3.4 0 0 1-.14-.25 5.03 5.03 0 0 0-.25-.47 9.04 9.04 0 0 1-.28-.52.92.92 0 0 1-.04-.08l-.07-.11-.05-.11a1.36 1.36 0 0 0-.08-.15l-.06-.11-.06-.11-.05-.08v-.02l.73-.74c.8-.8.8-.8.9-.83a.2.2 0 0 1 .13.02c.06.03.1.08.12.14.01.05 0 .12-.05.21-.07.14-.07.23 0 .3 0 .02.03.04.03.05a674.2 674.2 0 0 0 3.18 3.17.2.2 0 0 0 .2.07.48.48 0 0 0 .15-.06c.13-.07.22-.06.3.02a.2.2 0 0 1 .05.14l-.02.1-.02.04a59.34 59.34 0 0 1-1.7 1.7l-.04.03c-.07.04-.13.04-.19.01a.16.16 0 0 1-.05-.03h-.01l-.01-.02-.02-.02c-.03-.02-.04-.07-.04-.12 0-.04 0-.06.04-.13.05-.11.07-.15.07-.21a.2.2 0 0 0-.05-.13 276.5 276.5 0 0 0-2.73-2.72c-.02 0 0 .06.05.14 0 .02.02.04.03.05l.01.03.04.07a2.95 2.95 0 0 0 .19.35l.06.11.04.08.01.02.02.03.01.03a2.54 2.54 0 0 1 .17.31l.02.03.01.03.03.05a2.54 2.54 0 0 0 .14.25l.05.1.07.12.05.1.02.04.01.03.04.05a3.32 3.32 0 0 0 .13.24l.06.12.06.11.04.08.03.05.01.03.1.18.05.08.05.1v.01l.04.06a10.2 10.2 0 0 0 .37.68l.06.12a1.2 1.2 0 0 0 .07.12l.01.02.05.1.03.05-.07.07a.53.53 0 0 1-.08.08l-.6-.3ZM4.27 9.5l-.03-.02v-.02c-.03-.02-.03-.1 0-.12l.03-.1-.01-.06-1-1-.97-.98.36-.36.35-.36.99.99 1.01 1a.3.3 0 0 0 .14-.04.16.16 0 0 1 .07-.02c.04 0 .04 0 .07.03a.3.3 0 0 1 .03.03v.1l-.47.47c-.5.5-.5.5-.57.46ZM2.09 8.1l-.36-.36.2-.2.21-.2.07.07.08.08v.1c0 .09.02.18.04.21l.01.04a1.28 1.28 0 0 0 .17.3l.03.04c.07.1.09.17.05.22-.04.04-.05.05-.1.05h-.04l-.36-.35Zm3.72-.15a.1.1 0 0 1-.05-.09c0-.02 0-.07.02-.08l.03-.1a.1.1 0 0 0 0-.06 69.68 69.68 0 0 0-1.76-1.75c-.04-.02-.08-.01-.16.03-.05.02-.1.02-.13 0a.13.13 0 0 1-.04-.1c0-.04.03-.07.47-.51.24-.25.45-.45.47-.46.04-.02.07-.02.09 0 .03 0 .07.06.07.08a.3.3 0 0 1-.03.1.19.19 0 0 0-.02.13c0 .02.24.25.88.9.86.86.87.86.9.87.04 0 .07 0 .13-.03.05-.03.1-.03.13 0 .05.04.06.08.03.13a11.78 11.78 0 0 1-.98.95.1.1 0 0 1-.05-.01Zm12.07-.09a.13.13 0 0 1-.04-.02h-.01l-.03-.02-.03-.03-.03-.01v-.01l-.02-.01-.04-.02-.02-.02-.01-.01-.05-.03-.06-.03-.02-.01-.03-.01a1.15 1.15 0 0 1-.09-.04.47.47 0 0 0-.07-.02.32.32 0 0 1-.06-.02h-.21l-.09-.09-.08-.08.21-.22c.2-.2.22-.21.23-.2l.72.71c.03.04.04.08.02.12l-.04.06c-.03.03-.03.03-.07.03-.04 0-.05 0-.08-.02ZM6.93 6.83c-.06-.03-.07-.08-.03-.16l.01-.04h.01c.01 0 .02-.06.01-.1a11.26 11.26 0 0 0-.82-.83l-.13.12-.13.13-.07-.08-.08-.07.12-.13.13-.14a19.4 19.4 0 0 0-.82-.78c-.04 0-.05 0-.13.04-.07.04-.14.01-.16-.06a.12.12 0 0 1 .02-.1c.04-.05.89-.9.91-.9.04-.03.07-.03.1-.01.06.02.09.09.06.13l-.03.06c-.02.06-.02.12 0 .14A166.89 166.89 0 0 0 7.66 5.8c.03.01.07 0 .13-.02a.44.44 0 0 1 .08-.03c.02 0 .07.02.08.04l.02.03v.08l-.02.03a24.64 24.64 0 0 1-.93.92h-.09Zm9.25-.02a.22.22 0 0 1-.09-.06.21.21 0 0 1-.04-.05l-.01-.03a.11.11 0 0 1-.01-.05c0-.03.02-.1.05-.16a.39.39 0 0 0 .06-.2c0-.04 0-.06-.02-.08a.13.13 0 0 1-.01-.03l-.02-.02-.03-.03a603.84 603.84 0 0 0-3.24-3.22c-.02-.02-.03-.02-.1-.02h-.09c-.18.1-.2.1-.24.1-.03.01-.04 0-.1-.02a.3.3 0 0 1-.1-.12c-.02-.05-.02-.09-.01-.1V2.7l.03-.06a.16.16 0 0 0 .02-.03l.77-.78.75-.75 2.09 2.09 2.09 2.1-.75.74-.76.75a.42.42 0 0 1-.12.06l-.03.01h-.09ZM4.08 6.8a.35.35 0 0 1-.05-.04.2.2 0 0 0-.04-.02l-.05-.03a.26.26 0 0 0-.05-.04l-.03-.02a1.18 1.18 0 0 0-.26-.12l-.07-.02H3.4l-.1-.01-.08-.07a.91.91 0 0 1-.07-.08l.2-.21.2-.2.35.34a6.18 6.18 0 0 1 .36.41c0 .04-.04.1-.08.12a.15.15 0 0 1-.1 0Zm3.98-1.07C8.03 5.7 8 5.66 8 5.62l.03-.07c.03-.06.04-.13.02-.16A226.14 226.14 0 0 0 6.3 3.65l-.06-.02c-.04 0-.05.01-.1.03-.08.04-.12.04-.16-.02a.1.1 0 0 1-.02-.05c0-.05 0-.06.42-.49l.4-.4 1.1 1.1 1.1 1.1-.4.4c-.22.22-.4.4-.42.4a.12.12 0 0 1-.1.02Zm9.98-.9c-.15-.14-.15-.15-.14-.16l.01-.02.02-.02.04-.06.01-.02.02-.02a11.58 11.58 0 0 1 .13-.29l.01-.04a.2.2 0 0 1 .02-.04l.01-.06.02-.07a1.93 1.93 0 0 0-.02-.7.19.19 0 0 0-.01-.05l-.01-.02a.96.96 0 0 0-.06-.18l-.01-.04a1.71 1.71 0 0 1-.1-.22.32.32 0 0 1 0-.17c0-.03.06-.1.11-.12.04-.02.05-.02.1-.02l.06.02a18.8 18.8 0 0 1 .39.37l.36.36v.93l-.4.4-.4.4-.16-.15Zm-8.98-.15-.08-.08.02-.02.02-.04a.1.1 0 0 1 .02-.02c0-.01.04-.07.04-.1l.01-.02.02-.04.01-.04c.01 0 .03-.15.03-.24a.77.77 0 0 0-.06-.32l-.02-.05a.9.9 0 0 0-.03-.05c-.02-.04-.03-.1-.02-.13 0-.02.03-.05.05-.05l.01-.01c0-.02.06-.02.08 0l.03.02.3.3.3.3-.32.33-.34.33-.07-.07Zm-.42-.87a.8.8 0 0 0-.38-.14.51.51 0 0 0-.15.04s-.03 0-.1-.08l-.08-.08V3.5l.02-.04.01-.1a.43.43 0 0 0-.03-.18 1.31 1.31 0 0 1-.04-.08l-.04-.07a.16.16 0 0 1-.02-.08l.02-.06c.04-.04.07-.05.08-.04h.02l.4.38.4.41c.04.04.03.08 0 .12-.04.03-.07.04-.11.03Zm8.6-.63a.61.61 0 0 1-.15-.07 1.3 1.3 0 0 0-.32-.14 1.09 1.09 0 0 0-.22-.03.81.81 0 0 0-.27.05c-.05.03-.04.04-.22-.14l-.17-.17.02-.04c.04-.08.06-.2.06-.32a.92.92 0 0 0-.13-.42c-.13-.26-.13-.25-.13-.3 0-.07.01-.1.07-.16.05-.04.08-.06.14-.05.03 0 .05 0 .07.02l.03.02.02.01.05.04a111.47 111.47 0 0 0 1.4 1.44c.05.09.04.14-.04.22a.3.3 0 0 1-.13.06c-.01 0-.05 0-.07-.02ZM7.03 2.63a.82.82 0 0 1-.08-.08l.32-.32.32-.32.31.31.31.33-.04.09-.04.02c-.02.02-.03.02-.06 0A.51.51 0 0 1 8 2.65a.2.2 0 0 0-.05-.02l-.02-.01-.03-.01-.03-.01a.36.36 0 0 0-.06-.02 1 1 0 0 0-.46 0 .84.84 0 0 0-.26.13l-.07-.07ZM14.17.96a2.95 2.95 0 0 1-.15-.16l.4-.4.4-.4h.86l.36.37a3.47 3.47 0 0 1 .39.42v.05l-.02.04a.4.4 0 0 1-.14.16c-.03.01-.1.02-.1 0l-.05-.01a1.76 1.76 0 0 1-.23-.1L15.85.9a.35.35 0 0 0-.06-.01l-.03-.02h-.03a1.66 1.66 0 0 0-.93 0 .23.23 0 0 0-.04 0 .2.2 0 0 1-.04.02l-.03.01-.03.02-.03.01-.02.01a2.04 2.04 0 0 1-.21.12.2.2 0 0 1-.04.03h-.02l-.02.02-.15-.15Z" />
</svg>