<svg xmlns="http://www.w3.org/2000/svg" fill="none" viewBox="0 0 20 20">
  <rect width="20" height="20" fill="#030303" rx="4" />
  <path fill="#fff"
    d="M9.15 2.01a1.4 1.4 0 0 0-.27.05c-.13.03-.3.07-.44.12-.24.09-.24.09-.38.16a3.73 3.73 0 0 0-2.02 2.72c-.02.1-.02.3-.03 1.1v10.68l.04.05.09.09.05.04h.2a3.93 3.93 0 0 0 1.55-.46 3.42 3.42 0 0 0 1.14-1.04 3.76 3.76 0 0 0 .64-1.58c.02-.13.03-.22.04-1.26.01-1.54 0-10.45-.01-10.5A.39.39 0 0 0 9.59 2a2.22 2.22 0 0 0-.44 0Zm4.01 7.65a3.24 3.24 0 0 0-2.45 1.55c-.08.13-.22.43-.26.54a4.2 4.2 0 0 0-.18.67l-.02.15v4.55c.02.05.12.16.18.18a5.43 5.43 0 0 0 .95-.04 3.13 3.13 0 0 0 .97-.36l.15-.09a3.4 3.4 0 0 0 1.23-1.44c.15-.3.24-.7.26-1.06l.01-2.3c0-2.29 0-2.17-.07-2.26a.37.37 0 0 0-.08-.07l-.05-.03h-.64Z" />
</svg>