<svg xmlns="http://www.w3.org/2000/svg" fill="none" viewBox="0 0 20 20">
  <rect width="20" height="20" fill="#0072CE" rx="4" />
  <path fill="#fff"
    d="M12.048 13.57h.52v2.228h.476v-2.229h.52v-.22h-1.516v.22Zm2.26 0h.52v2.228h.475v-2.229h.52v-.22h-1.516v.22Zm-3.44 2.228h.492l-.732-2.45h-.303l-.779 2.45h.3l.205-.643h.624l.192.643h.001Zm-.747-.86.253-.795.237.794h-.49Zm4.254-10.904v2.45h.722c.556 0 .879-.456.879-1.224 0-.767-.323-1.225-.879-1.225h-.722v-.001Zm.628.219c.306 0 .496.427.496 1.009 0 .568-.181.986-.474 1.001h-.175v-2.01h.153Zm-3.53 2.231L10.974 5.4c.24-.105.354-.312.354-.65 0-.48-.26-.715-.836-.715h-.611v2.45h.474v-1h.147l.46 1.002h.508l.001-.003Zm-1.115-1.22v-1.01h.127c.258 0 .365.193.365.497 0 .343-.128.512-.365.512h-.127Zm-3.97-1.23-.292 1.36-.297-1.36H5.56l-.291 1.36-.298-1.36H4.5l.536 2.45h.239l.296-1.388.292 1.388h.239l.54-2.45h-.255Zm-.534 10.433h-.62V13.35h-.477v2.449h.476v-1.11h.621v1.11h.475v-2.45h-.475v1.12ZM8.78 13.35l-.53 1.048-.535-1.048h-.513l.673 1.312v1.137h.48v-1.12l.668-1.33H8.78Zm4.883-7.084h-.834V4.034h-.476v2.45h1.31v-.22Zm-4.64-1.008c0-.402-.09-.729-.26-.946A.754.754 0 0 0 8.142 4a.75.75 0 0 0-.622.31c-.17.218-.26.546-.26.947v.003c0 .402.09.73.26.947a.75.75 0 0 0 .622.31.75.75 0 0 0 .623-.31c.169-.218.26-.545.26-.947v-.003ZM8.141 6.3c-.216 0-.362-.206-.362-1.041 0-.836.146-1.041.362-1.041s.362.205.362 1.04c0 .836-.146 1.042-.362 1.042Zm2.717 4.838h.476V9.925h.789v-.219h-.789V8.91h.923v-.22h-1.399v2.45Zm-.851-1.226c0-.402-.091-.73-.26-.947a.753.753 0 0 0-.623-.31.75.75 0 0 0-.622.31c-.17.218-.26.545-.26.947v.003c0 .402.09.729.26.947.158.202.362.31.622.31a.75.75 0 0 0 .623-.31c.169-.218.26-.546.26-.947v-.003Zm-.883 1.042c-.216 0-.362-.205-.362-1.04 0-.836.146-1.042.362-1.042s.363.206.363 1.041c0 .836-.147 1.041-.363 1.041Zm6.631 4.653c0-.22.164-.399.373-.399.208 0 .372.177.372.396 0 .22-.164.396-.372.396-.21 0-.373-.17-.373-.394m.677-.002c0-.196-.128-.332-.306-.332s-.305.139-.305.333c0 .196.133.331.305.331s.306-.137.306-.332Zm-.432-.2h.129c.085 0 .14.037.14.118 0 .06-.03.093-.074.108l.096.168h-.084l-.088-.153h-.038v.153H16v-.395Zm.128.18c.04 0 .063-.02.063-.057 0-.043-.024-.058-.063-.058h-.047v.114h.047v.001Z" />
</svg>