<svg xmlns="http://www.w3.org/2000/svg" fill="none" viewBox="0 0 20 20">
  <rect width="20" height="20" fill="#fff" rx="4" />
  <path fill="#000" fill-rule="evenodd"
    d="M17 12.6v.4h-1.842v-.4H17Zm-4.421 0v.4h-1.842v-.4h1.842Zm1.437 0-.148.4-.146-.4h.294Zm-4.127 0c-.264.248-.612.4-1.002.4h-2.94v-.4H9.89Zm-4.31 0v.4H3v-.4h2.579Zm7-.8v.4h-1.842v-.4h1.842Zm1.725 0-.143.4h-.583l-.145-.4h.871Zm-4.046 0a1.564 1.564 0 0 1-.155.4H5.947v-.4h4.31Zm-4.679 0v.4H3v-.4h2.579ZM17 11.8v.4h-1.842v-.4H17Zm-.737-.8v.4h-1.105V11h1.105Zm-3.684 0v.4h-1.105V11h1.105Zm2.014 0-.145.4h-1.16l-.146-.4h1.451Zm-4.387 0c.033.127.052.261.052.4H8.895V11h1.311ZM7.79 11v.4H6.684V11H7.79Zm-2.947 0v.4H3.737V11h1.105Zm11.421-.8v.4h-1.105v-.4h1.105Zm-3.684 0v.4h-1.105v-.4h1.105Zm2.303 0-.144.4h-1.743l-.143-.4h2.03Zm-5.129 0c.127.113.237.248.32.4H6.685v-.4h3.07Zm-4.91 0v.4H3.736v-.4h1.105Zm8.922-.8.103.323.104-.323h2.291v.4h-1.105v-.368l-.125.368H12.7l-.122-.368V9.8h-1.105v-.4h2.291Zm-8.923 0v.4H3.737v-.4h1.105Zm5.232 0a1.525 1.525 0 0 1-.32.4h-3.07v-.4h3.39Zm6.19-.8V9h-2.165l.13-.4h2.034Zm-2.756 0 .13.4h-2.164v-.4h2.034Zm-3.25 0c0 .138-.019.272-.052.4H8.895v-.4h1.363Zm-2.469 0V9H6.684v-.4H7.79Zm-2.947 0V9H3.737v-.4h1.105Zm8.411-.8.128.4h-2.644v-.4h2.516ZM17 7.8v.4h-2.646l.133-.4H17Zm-6.897 0c.069.123.122.258.155.4h-4.31v-.4h4.155Zm-4.524 0v.4H3v-.4h2.579Zm7.416-.8.13.4h-2.388V7h2.258ZM17 7v.4h-2.385l.127-.4H17ZM8.887 7c.387 0 .738.152 1.002.4H5.947V7h2.94ZM5.58 7v.4H3V7h2.579Z"
    clip-rule="evenodd" />
</svg>