<svg xmlns="http://www.w3.org/2000/svg" fill="none" viewBox="0 0 20 20">
  <rect width="20" height="20" fill="#fff" rx="4" />
  <path fill="#339FF8"
    d="M10.1 15a4.811 4.811 0 0 1-2.763-.868c-.37.197-1.205.242-1.57.197-.53-.062-1.082-.513-.552-.947.829-.67.608-.941.608-.941A5.046 5.046 0 0 1 5.199 10c0-2.762 2.193-5 4.9-5C12.807 5 15 7.238 15 10s-2.193 5-4.9 5Zm0-9.267c-2.327 0-4.21 1.922-4.21 4.3a4.3 4.3 0 0 0 .613 2.233s.276.733-.431 1.274c.442.152 1.38-.13 1.425-.13a4.156 4.156 0 0 0 2.602.92c2.326 0 4.21-1.929 4.21-4.302 0-2.373-1.884-4.295-4.21-4.295Zm2.254 5.53c-.514 0-.912-.344-.912-.93 0-.587.376-.953.945-.953.541 0 .9.378.9.919 0 .66-.458.964-.934.964Zm.016-1.488c-.265 0-.359.276-.359.54 0 .31.127.542.36.542.215 0 .347-.22.347-.541 0-.265-.1-.541-.348-.541Zm-1.536 1.443h-.298c-.138 0-.11-.209-.11-.209v-.772c0-.26-.084-.412-.26-.412-.127 0-.216.09-.255.198a.429.429 0 0 0-.022.146v.88s0 .174-.154.174h-.243s-.139-.011-.139-.191v-.818c0-.23-.077-.383-.254-.383-.138 0-.22.113-.254.203a.417.417 0 0 0-.022.14v.858s.022.191-.122.191h-.237c-.177 0-.177-.191-.177-.191V9.994c0-.174-.01-.468-.01-.468s-.006-.107.11-.107h.226c.11 0 .127.107.127.107l.011.136h.011a.617.617 0 0 1 .536-.282c.227 0 .409.118.486.304h.006a.934.934 0 0 1 .226-.22c.1-.062.205-.09.338-.09.337 0 .596.243.596.784v.868c.011.18-.116.192-.116.192Zm-3.403-2.17a.276.276 0 0 1-.288-.283c-.005-.163.11-.281.288-.281a.28.28 0 0 1 .293.281c.005.153-.11.282-.293.282Zm-.16.371h.32s.122 0 .122.141v1.5s.005.163-.128.163H7.26s-.099-.005-.099-.14V9.537s0-.119.11-.119Z" />
</svg>