<svg xmlns="http://www.w3.org/2000/svg" fill="none" viewBox="0 0 20 20">
  <rect width="20" height="20" fill="#fff" rx="4" />
  <path fill="#FF8200"
    d="M11.98 8.34c.78.8 1.43 2.09 1.06 2.86-.99 2.06-8.34 5.67-8.97 5.05-.62-.63 3-8 5.05-8.98.77-.37 2.07.28 2.86 1.07Z" />
  <path fill="#43B02A"
    d="M15.87 7.47c-.12-.47-.45-.95-.94-1.01-.9-.1-2.3 1.48-2.2 1.85.1.38 2.09 1.04 2.83.5.39-.27.44-.87.31-1.34Zm-2.76-4.38c.66.18 1.33.64 1.41 1.32.15 1.25-2.07 3.23-2.6 3.09-.52-.14-1.45-2.93-.7-3.98.39-.54 1.22-.61 1.89-.43Z" />
</svg>