<svg xmlns="http://www.w3.org/2000/svg" fill="none" viewBox="0 0 20 20">
  <rect width="20" height="20" fill="#fff" rx="4" />
  <path fill="#81BB41"
    d="M13.194 15.142c-1.575 3.081-7.728 2.667-9.524-.77 2.877 2.196 6.447 1.38 9.524.77Zm2.806.21c-1.33 1.43-2.65 3.506-5.197 3.538 1.85-.982 2.478-3.703 5.197-3.538Z" />
  <path fill="#81BB41"
    d="M10.85 14.784a6.256 6.256 0 0 1-6.088-2.382C2.9 10.174 2.226 7.474 4.17 5.07c-1.103 4.146 3.533 7.252 6.68 9.714Z" />
  <path fill="#81BB41"
    d="M9.122 11.923C3.787 9.148 6.695.461 12.324 1.026c-4.211 1.77-4.419 7.047-3.202 10.897Z" />
</svg>