<?xml version="1.0" encoding="UTF-8" standalone="no"?>
<!DOCTYPE svg PUBLIC "-//W3C//DTD SVG 1.0//EN" "http://www.w3.org/TR/2001/REC-SVG-20010904/DTD/svg10.dtd">
<!-- Created with Inkscape (http://www.inkscape.org/) -->
<svg xmlns:svg="http://www.w3.org/2000/svg" xmlns="http://www.w3.org/2000/svg" version="1.0" width="1000" height="500" id="svg4523">
  <defs id="defs4525"/>
  <g id="layer1">
    <g transform="matrix(2.0960172,0,0,2.0960172,-293.72903,-223.21478)" id="g4572">
      <path d="M 609.84127,118.62051 L 499.86416,118.62051 L 499.86416,156.0779 L 532.0193,156.0779 L 532.0193,285.21128 L 577.68629,285.21128 L 577.68629,156.0779 L 609.84127,156.0779 L 609.84127,118.62051 z M 488.91767,285.04017 L 443.25055,285.04017 L 443.25055,118.62051 L 488.91767,118.62051 L 488.91767,285.04017 z M 435.55387,285.04017 L 384.75576,285.04017 L 324.37952,220.21702 L 324.37952,183.1018 L 382.87431,118.44939 L 435.21191,118.44939 L 367.82307,202.25806 L 435.55387,285.04017 z" id="path73" style="fill:#000000;fill-opacity:1;fill-rule:evenodd;stroke:none"/>
      <path d="M 313.43303,285.04017 L 313.43303,285.04017 L 313.43303,285.04017 L 313.43303,285.04017 z" id="path75" style="fill:#000000;fill-opacity:1;fill-rule:evenodd;stroke:none"/>
      <path d="M 313.43303,285.04017 L 313.43303,285.04017 L 313.43303,285.04017 L 313.43303,285.04017 z" id="path77" style="fill:#000000;fill-opacity:1;fill-rule:evenodd;stroke:none"/>
      <path d="M 183.27346,179.50994 C 174.55046,190.11438 167.02492,201.74496 161.20948,214.23066 L 313.43303,285.04017 L 183.27346,179.50994 z" id="path79" style="fill:#32a189;fill-opacity:1;fill-rule:evenodd;stroke:none"/>
      <path d="M 313.43303,285.04017 L 242.45248,134.01399 C 229.79562,139.8291 218.16514,147.01295 207.56081,155.56481 L 313.43303,285.04017 L 313.43303,285.04017 z" id="path81" style="fill:#32a189;fill-opacity:1;fill-rule:evenodd;stroke:none"/>
      <path d="M 313.43303,285.04017 L 313.60405,118.62051 C 313.09098,118.62051 312.74897,118.62051 312.23587,118.62051 C 298.72383,118.62051 285.55392,120.33108 272.8972,123.40969 L 313.43303,285.04017 L 313.43303,285.04017 z" id="path83" style="fill:#000000;fill-opacity:1;fill-rule:evenodd;stroke:none"/>
      <path d="M 313.43303,285.04017 L 313.43303,285.04017 L 313.43303,285.04017 L 313.43303,285.04017 L 313.43303,285.04017 z" id="path85" style="fill:#000000;fill-opacity:1;fill-rule:evenodd;stroke:none"/>
      <path d="M 313.43303,285.04017 L 313.43303,285.04017 L 313.43303,285.04017 L 313.43303,285.04017 L 313.43303,285.04017 z" id="path87" style="fill:#000000;fill-opacity:1;fill-rule:evenodd;stroke:none"/>
      <path d="M 150.26314,244.33329 C 146.84246,257.33225 145.13206,271.01513 144.96098,285.04017 L 313.43303,285.04017 L 150.26314,244.33329 z" id="path89" style="fill:#32a189;fill-opacity:1;fill-rule:evenodd;stroke:none"/>
      <path d="M 144.9077,326.33115 L 147.94868,326.33115 L 147.94868,315.93101 L 157.40603,326.33115 L 161.84621,326.33115 L 151.08108,315.14048 L 161.05566,305.10527 L 157.01079,305.10527 L 147.94868,314.44146 L 147.94868,305.10527 L 144.9077,305.10527 L 144.9077,326.33115 z" id="path91" style="fill:#000000;fill-opacity:1;fill-rule:nonzero;stroke:none"/>
      <path d="M 165.64735,314.34987 C 166.80285,313.37681 168.53612,312.76874 170.1475,312.76874 C 173.00655,312.76874 173.97958,314.13718 173.97958,316.81313 C 172.85437,316.75249 172.06391,316.75249 170.9387,316.75249 C 167.98867,316.75249 163.73094,317.96838 163.73094,321.86137 C 163.73094,325.23691 166.07292,326.70144 169.41817,326.70144 C 172.03287,326.70144 173.55339,325.26721 174.22264,324.32447 L 174.28329,324.32447 L 174.28329,326.33115 L 176.9592,326.33115 C 176.89859,325.87531 176.83801,325.05437 176.83801,323.29013 L 176.83801,316.87374 C 176.83801,312.64695 175.0435,310.45718 170.60399,310.45718 C 168.62703,310.45718 166.92408,311.066 165.49517,311.91707 L 165.64735,314.34987 z M 173.97958,320.3106 C 173.97958,322.62156 172.48945,324.38512 169.66126,324.38512 C 168.35361,324.38512 166.77255,323.50368 166.77255,321.86137 C 166.77255,319.12409 170.60399,318.88097 172.15479,318.88097 C 172.76281,318.88097 173.37083,318.94156 173.97958,318.94156 L 173.97958,320.3106 z" id="path93" style="fill:#000000;fill-opacity:1;fill-rule:nonzero;stroke:none"/>
      <path d="M 181.67344,326.33115 L 184.53193,326.33115 L 184.53193,319.27621 C 184.53193,315.3842 186.20454,312.9513 188.7586,312.9513 C 189.24549,312.9513 189.82319,313.01191 190.34038,313.22475 L 190.34038,310.67061 C 189.73228,310.54878 189.3061,310.45718 188.4549,310.45718 C 186.81262,310.45718 185.17022,311.61334 184.41006,313.22475 L 184.34936,313.22475 L 184.34936,310.82207 L 181.67344,310.82207 L 181.67344,326.33115 z" id="path95" style="fill:#000000;fill-opacity:1;fill-rule:nonzero;stroke:none"/>
      <path d="M 193.86812,326.33115 L 196.72656,326.33115 L 196.72656,303.52416 L 193.86812,303.52416 L 193.86812,326.33115 z" id="path97" style="fill:#000000;fill-opacity:1;fill-rule:nonzero;stroke:none"/>
      <path d="M 200.64956,325.84486 C 201.9573,326.54922 203.44744,326.70144 204.90662,326.70144 C 207.67413,326.70144 210.31978,325.17559 210.31978,321.86137 C 210.31978,316.90461 203.59961,317.81647 203.59961,314.65419 C 203.59961,313.37681 204.87632,312.76874 206.33617,312.76874 C 207.00551,312.76874 208.70839,313.16412 209.34671,313.55937 L 209.5899,311.066 C 208.46469,310.73134 207.37043,310.45718 206.03179,310.45718 C 202.96058,310.45718 200.55799,312.00858 200.55799,315.23199 C 200.55799,319.58068 207.27896,319.33679 207.27896,322.16498 C 207.27896,323.83762 205.66752,324.38512 204.3598,324.38512 C 203.53835,324.38512 201.92699,324.02012 200.80173,323.29013 L 200.64956,325.84486 z" id="path99" style="fill:#000000;fill-opacity:1;fill-rule:nonzero;stroke:none"/>
      <path d="M 213.78691,326.33115 L 216.6454,326.33115 L 216.6454,319.27621 C 216.6454,315.3842 218.31802,312.9513 220.87209,312.9513 C 221.35889,312.9513 221.93669,313.01191 222.45386,313.22475 L 222.45386,310.67061 C 221.84578,310.54878 221.4195,310.45718 220.56843,310.45718 C 218.92609,310.45718 217.28372,311.61334 216.52347,313.22475 L 216.46286,313.22475 L 216.46286,310.82207 L 213.78691,310.82207 L 213.78691,326.33115 z" id="path101" style="fill:#000000;fill-opacity:1;fill-rule:nonzero;stroke:none"/>
      <path d="M 239.33103,310.82207 L 236.47265,310.82207 L 236.47265,317.99883 C 236.47265,321.76974 235.01344,324.38512 231.75907,324.38512 C 229.26559,324.23285 228.47504,322.46933 228.47504,318.85067 L 228.47504,310.82207 L 225.6166,310.82207 L 225.6166,320.03655 C 225.6166,324.20255 227.41053,326.70144 231.42509,326.70144 C 233.58391,326.70144 235.65176,325.63213 236.50361,323.86793 L 236.56419,323.86793 L 236.56419,326.33115 L 239.33103,326.33115 L 239.33103,310.82207 z" id="path103" style="fill:#000000;fill-opacity:1;fill-rule:nonzero;stroke:none"/>
      <path d="M 244.19684,326.33115 L 247.05527,326.33115 L 247.05527,319.15444 C 247.05527,315.3842 248.5151,312.76874 251.76883,312.76874 C 254.26231,312.9204 255.0528,314.68467 255.0528,318.30332 L 255.0528,326.33115 L 257.91129,326.33115 L 257.91129,317.11745 C 257.91129,312.9513 256.11745,310.45718 252.10346,310.45718 C 249.94398,310.45718 248.15018,311.39988 247.11585,313.04219 L 247.05527,313.04219 L 247.05527,303.52416 L 244.19684,303.52416 L 244.19684,326.33115 z" id="path105" style="fill:#000000;fill-opacity:1;fill-rule:nonzero;stroke:none"/>
      <path d="M 274.66733,322.83425 C 273.96766,323.41205 271.77858,324.38512 269.89313,324.38512 C 267.18617,324.38512 264.78425,322.28675 264.78425,319.2156 L 275.85317,319.2156 C 275.85317,314.22806 274.18044,310.45718 269.01102,310.45718 C 264.63217,310.45718 261.74273,313.71161 261.74273,318.30332 C 261.74273,323.35144 264.26712,326.70144 269.77126,326.70144 C 272.32534,326.70144 273.57242,326.08801 274.66733,325.69274 L 274.66733,322.83425 z M 264.78425,317.08715 C 264.99709,315.07991 266.15261,312.76874 268.9504,312.76874 C 271.4136,312.76874 272.81214,314.71477 272.81214,317.08715 L 264.78425,317.08715 z" id="path107" style="fill:#000000;fill-opacity:1;fill-rule:nonzero;stroke:none"/>
      <path d="M 288.41269,326.33115 L 291.45363,326.33115 L 291.45363,305.10527 L 288.41269,305.10527 L 288.41269,326.33115 z" id="path109" style="fill:#000000;fill-opacity:1;fill-rule:nonzero;stroke:none"/>
      <path d="M 296.5934,326.33115 L 299.45189,326.33115 L 299.45189,319.15444 C 299.45189,315.3842 300.91173,312.76874 304.1654,312.76874 C 306.65886,312.9204 307.44942,314.68467 307.44942,318.30332 L 307.44942,326.33115 L 310.30791,326.33115 L 310.30791,317.11745 C 310.30791,312.9513 308.51399,310.45718 304.50011,310.45718 C 302.34061,310.45718 300.2727,311.52183 299.42159,313.28534 L 299.36098,313.28534 L 299.36098,310.82207 L 296.5934,310.82207 L 296.5934,326.33115 z" id="path111" style="fill:#000000;fill-opacity:1;fill-rule:nonzero;stroke:none"/>
      <path d="M 313.86595,325.84486 C 315.17365,326.54922 316.66378,326.70144 318.1229,326.70144 C 320.89047,326.70144 323.53609,325.17559 323.53609,321.86137 C 323.53609,316.90461 316.81595,317.81647 316.81595,314.65419 C 316.81595,313.37681 318.09259,312.76874 319.55248,312.76874 C 320.22185,312.76874 321.92477,313.16412 322.56309,313.55937 L 322.80621,311.066 C 321.68094,310.73134 320.58678,310.45718 319.24817,310.45718 C 316.17689,310.45718 313.77434,312.00858 313.77434,315.23199 C 313.77434,319.58068 320.49521,319.33679 320.49521,322.16498 C 320.49521,323.83762 318.88388,324.38512 317.57611,324.38512 C 316.75463,324.38512 315.14334,324.02012 314.01807,323.29013 L 313.86595,325.84486 z" id="path113" style="fill:#000000;fill-opacity:1;fill-rule:nonzero;stroke:none"/>
      <path d="M 335.24466,310.82207 L 331.13912,310.82207 L 331.13912,306.32204 L 328.28063,307.23373 L 328.28063,310.82207 L 324.78317,310.82207 L 324.78317,313.13384 L 328.28063,313.13384 L 328.28063,322.19602 C 328.28063,325.29751 330.10474,326.70144 333.05479,326.70144 C 333.96723,326.70144 334.84869,326.45847 335.48772,326.27057 L 335.48772,323.83762 C 335.06212,324.11163 334.42315,324.38512 333.54101,324.38512 C 332.234,324.38512 331.13912,323.41205 331.13912,321.61822 L 331.13912,313.13384 L 335.24466,313.13384 L 335.24466,310.82207 z" id="path115" style="fill:#000000;fill-opacity:1;fill-rule:nonzero;stroke:none"/>
      <path d="M 339.19796,326.33115 L 342.0564,326.33115 L 342.0564,310.82207 L 339.19796,310.82207 L 339.19796,326.33115 z M 342.23885,304.13223 L 339.01543,304.13223 L 339.01543,307.35566 L 342.23885,307.35566 L 342.23885,304.13223 z" id="path117" style="fill:#000000;fill-opacity:1;fill-rule:nonzero;stroke:none"/>
      <path d="M 355.52837,310.82207 L 351.42289,310.82207 L 351.42289,306.32204 L 348.56449,307.23373 L 348.56449,310.82207 L 345.06695,310.82207 L 345.06695,313.13384 L 348.56449,313.13384 L 348.56449,322.19602 C 348.56449,325.29751 350.38864,326.70144 353.3386,326.70144 C 354.25103,326.70144 355.1325,326.45847 355.77155,326.27057 L 355.77155,323.83762 C 355.34599,324.11163 354.70686,324.38512 353.82475,324.38512 C 352.5178,324.38512 351.42289,323.41205 351.42289,321.61822 L 351.42289,313.13384 L 355.52837,313.13384 L 355.52837,310.82207 z" id="path119" style="fill:#000000;fill-opacity:1;fill-rule:nonzero;stroke:none"/>
      <path d="M 372.83126,310.82207 L 369.97277,310.82207 L 369.97277,317.99883 C 369.97277,321.76974 368.51359,324.38512 365.25921,324.38512 C 362.76571,324.23285 361.97524,322.46933 361.97524,318.85067 L 361.97524,310.82207 L 359.11675,310.82207 L 359.11675,320.03655 C 359.11675,324.20255 360.91064,326.70144 364.9252,326.70144 C 367.08403,326.70144 369.152,325.63213 370.00381,323.86793 L 370.06439,323.86793 L 370.06439,326.33115 L 372.83126,326.33115 L 372.83126,310.82207 z" id="path121" style="fill:#000000;fill-opacity:1;fill-rule:nonzero;stroke:none"/>
      <path d="M 385.93825,310.82207 L 381.83277,310.82207 L 381.83277,306.32204 L 378.97428,307.23373 L 378.97428,310.82207 L 375.47682,310.82207 L 375.47682,313.13384 L 378.97428,313.13384 L 378.97428,322.19602 C 378.97428,325.29751 380.79848,326.70144 383.74853,326.70144 C 384.66087,326.70144 385.54237,326.45847 386.1814,326.27057 L 386.1814,323.83762 C 385.75583,324.11163 385.11675,324.38512 384.23459,324.38512 C 382.92767,324.38512 381.83277,323.41205 381.83277,321.61822 L 381.83277,313.13384 L 385.93825,313.13384 L 385.93825,310.82207 z" id="path123" style="fill:#000000;fill-opacity:1;fill-rule:nonzero;stroke:none"/>
      <path d="M 401.41696,322.83425 C 400.71726,323.41205 398.5282,324.38512 396.64273,324.38512 C 393.93583,324.38512 391.53392,322.28675 391.53392,319.2156 L 402.60272,319.2156 C 402.60272,314.22806 400.9301,310.45718 395.76068,310.45718 C 391.38178,310.45718 388.49239,313.71161 388.49239,318.30332 C 388.49239,323.35144 391.01682,326.70144 396.52087,326.70144 C 399.07496,326.70144 400.32203,326.08801 401.41696,325.69274 L 401.41696,322.83425 z M 391.53392,317.08715 C 391.7467,315.07991 392.90227,312.76874 395.7001,312.76874 C 398.16324,312.76874 399.56183,314.71477 399.56183,317.08715 L 391.53392,317.08715 z" id="path125" style="fill:#000000;fill-opacity:1;fill-rule:nonzero;stroke:none"/>
      <path d="M 413.85467,318.57663 C 413.85467,323.01682 417.07812,326.70144 421.76131,326.70144 C 426.41432,326.70144 429.63759,323.01682 429.63759,318.57663 C 429.63759,313.86314 426.47479,310.45718 421.76131,310.45718 C 417.01749,310.45718 413.85467,313.86314 413.85467,318.57663 z M 416.8963,318.57663 C 416.8963,315.62737 418.69004,312.76874 421.76131,312.76874 C 424.80226,312.76874 426.59668,315.62737 426.59668,318.57663 C 426.59668,321.34417 425.1066,324.38512 421.76131,324.38512 C 418.38573,324.38512 416.8963,321.34417 416.8963,318.57663 z" id="path127" style="fill:#000000;fill-opacity:1;fill-rule:nonzero;stroke:none"/>
      <path d="M 435.3242,326.33115 L 438.18273,326.33115 L 438.18273,313.13384 L 442.28814,313.13384 L 442.28814,310.82207 L 438.18273,310.82207 L 438.18273,309.15023 C 438.18273,307.05131 438.4864,305.4702 440.94945,305.4702 C 441.43642,305.4702 441.98386,305.53084 442.31849,305.65262 L 442.43961,303.34177 C 441.86193,303.25012 441.25391,303.1592 440.52394,303.1592 C 436.29733,303.1592 435.3242,305.62247 435.3242,309.39322 L 435.3242,310.82207 L 431.67458,310.82207 L 431.67458,313.13384 L 435.3242,313.13384 L 435.3242,326.33115 z" id="path129" style="fill:#000000;fill-opacity:1;fill-rule:nonzero;stroke:none"/>
      <path d="M 458.25372,326.33115 L 461.29469,326.33115 L 461.29469,307.78123 L 467.89361,307.78123 L 467.89361,305.10527 L 451.65462,305.10527 L 451.65462,307.78123 L 458.25372,307.78123 L 458.25372,326.33115 z" id="path131" style="fill:#000000;fill-opacity:1;fill-rule:nonzero;stroke:none"/>
      <path d="M 480.30093,322.83425 C 479.60147,323.41205 477.41223,324.38512 475.52691,324.38512 C 472.81989,324.38512 470.41798,322.28675 470.41798,319.2156 L 481.4869,319.2156 C 481.4869,314.22806 479.81416,310.45718 474.64482,310.45718 C 470.26598,310.45718 467.37645,313.71161 467.37645,318.30332 C 467.37645,323.35144 469.90088,326.70144 475.40498,326.70144 C 477.95898,326.70144 479.20615,326.08801 480.30093,325.69274 L 480.30093,322.83425 z M 470.41798,317.08715 C 470.63083,315.07991 471.78628,312.76874 474.58425,312.76874 C 477.04724,312.76874 478.44589,314.71477 478.44589,317.08715 L 470.41798,317.08715 z" id="path133" style="fill:#000000;fill-opacity:1;fill-rule:nonzero;stroke:none"/>
      <path d="M 495.41472,311.066 C 494.59392,310.73134 493.10385,310.45718 491.94824,310.45718 C 487.20438,310.45718 484.04163,313.86314 484.04163,318.57663 C 484.04163,323.01682 487.26494,326.70144 491.94824,326.70144 C 492.98192,326.70144 494.35077,326.60983 495.53664,326.0577 L 495.32393,323.50368 C 494.4418,324.08148 493.22562,324.38512 492.25259,324.38512 C 488.57268,324.38512 487.08254,321.34417 487.08254,318.57663 C 487.08254,315.62737 488.87703,312.76874 492.07008,312.76874 C 492.98192,312.76874 494.07676,312.98158 495.17166,313.43742 L 495.41472,311.066 z" id="path135" style="fill:#000000;fill-opacity:1;fill-rule:nonzero;stroke:none"/>
      <path d="M 498.82065,326.33115 L 501.67914,326.33115 L 501.67914,319.15444 C 501.67914,315.3842 503.13891,312.76874 506.39263,312.76874 C 508.88608,312.9204 509.67655,314.68467 509.67655,318.30332 L 509.67655,326.33115 L 512.53518,326.33115 L 512.53518,317.11745 C 512.53518,312.9513 510.7412,310.45718 506.72729,310.45718 C 504.56782,310.45718 502.77398,311.39988 501.73977,313.04219 L 501.67914,313.04219 L 501.67914,303.52416 L 498.82065,303.52416 L 498.82065,326.33115 z" id="path137" style="fill:#000000;fill-opacity:1;fill-rule:nonzero;stroke:none"/>
      <path d="M 517.40074,326.33115 L 520.25923,326.33115 L 520.25923,319.15444 C 520.25923,315.3842 521.71915,312.76874 524.97272,312.76874 C 527.46629,312.9204 528.25678,314.68467 528.25678,318.30332 L 528.25678,326.33115 L 531.11527,326.33115 L 531.11527,317.11745 C 531.11527,312.9513 529.32143,310.45718 525.30752,310.45718 C 523.14805,310.45718 521.08002,311.52183 520.22892,313.28534 L 520.16834,313.28534 L 520.16834,310.82207 L 517.40074,310.82207 L 517.40074,326.33115 z" id="path139" style="fill:#000000;fill-opacity:1;fill-rule:nonzero;stroke:none"/>
      <path d="M 534.94676,318.57663 C 534.94676,323.01682 538.17003,326.70144 542.85338,326.70144 C 547.50626,326.70144 550.72971,323.01682 550.72971,318.57663 C 550.72971,313.86314 547.56687,310.45718 542.85338,310.45718 C 538.10946,310.45718 534.94676,313.86314 534.94676,318.57663 z M 537.98821,318.57663 C 537.98821,315.62737 539.78204,312.76874 542.85338,312.76874 C 545.89429,312.76874 547.6888,315.62737 547.6888,318.57663 C 547.6888,321.34417 546.19864,324.38512 542.85338,324.38512 C 539.4779,324.38512 537.98821,321.34417 537.98821,318.57663 z" id="path141" style="fill:#000000;fill-opacity:1;fill-rule:nonzero;stroke:none"/>
      <path d="M 554.92616,326.33115 L 557.78463,326.33115 L 557.78463,303.52416 L 554.92616,303.52416 L 554.92616,326.33115 z" id="path143" style="fill:#000000;fill-opacity:1;fill-rule:nonzero;stroke:none"/>
      <path d="M 561.98096,318.57663 C 561.98096,323.01682 565.20438,326.70144 569.8876,326.70144 C 574.54063,326.70144 577.76402,323.01682 577.76402,318.57663 C 577.76402,313.86314 574.60124,310.45718 569.8876,310.45718 C 565.14379,310.45718 561.98096,313.86314 561.98096,318.57663 z M 565.02257,318.57663 C 565.02257,315.62737 566.81638,312.76874 569.8876,312.76874 C 572.92859,312.76874 574.72317,315.62737 574.72317,318.57663 C 574.72317,321.34417 573.23294,324.38512 569.8876,324.38512 C 566.51206,324.38512 565.02257,321.34417 565.02257,318.57663 z" id="path145" style="fill:#000000;fill-opacity:1;fill-rule:nonzero;stroke:none"/>
      <path d="M 595.30991,310.82207 L 592.66426,310.82207 L 592.66426,313.13384 L 592.60368,313.13384 C 591.75242,311.46125 590.23204,310.45718 587.49477,310.45718 C 582.81161,310.45718 580.5612,314.71477 580.5612,318.69859 C 580.5612,322.71248 582.75097,326.33115 587.19115,326.33115 C 589.16736,326.33115 591.17476,325.54051 592.39081,323.92925 L 592.45156,323.92925 L 592.45156,325.44962 C 592.45156,328.73916 590.65758,330.7767 587.64703,330.7767 C 585.54885,330.7767 584.24105,330.38074 582.05139,329.37739 L 581.74762,332.02308 C 584.24105,332.87486 585.66993,333.08773 587.31238,333.08773 C 592.87769,333.08773 595.30991,330.38074 595.30991,325.66244 L 595.30991,310.82207 z M 587.92034,324.02012 C 585.24436,324.02012 583.60281,321.46598 583.60281,318.54633 C 583.60281,315.90068 585.03168,312.76874 587.92034,312.76874 C 590.96134,312.76874 592.45156,315.53577 592.45156,318.7592 C 592.45156,321.64855 590.597,324.02012 587.92034,324.02012 z" id="path147" style="fill:#000000;fill-opacity:1;fill-rule:nonzero;stroke:none"/>
      <path d="M 598.83764,332.87486 C 599.35486,332.9658 599.87128,333.08773 600.78374,333.08773 C 604.55451,333.08773 605.67977,329.65141 606.74428,326.67117 L 612.46111,310.82207 L 609.57261,310.82207 L 605.31481,323.6552 L 605.25406,323.6552 L 601.08805,310.82207 L 597.95556,310.82207 L 603.21651,325.29751 C 603.39908,325.8147 603.76401,326.60983 603.76401,326.94444 C 603.76401,327.24894 602.91217,330.7767 600.35802,330.7767 C 599.87128,330.7767 599.38513,330.65478 599.02021,330.533 L 598.83764,332.87486 z" id="path149" style="fill:#000000;fill-opacity:1;fill-rule:nonzero;stroke:none"/>
    </g>
  </g>
</svg>