<svg xmlns="http://www.w3.org/2000/svg" fill="none" viewBox="0 0 20 20">
  <rect width="20" height="20" fill="#5841D8" rx="4" />
  <path fill="#fff"
    d="M9.99859 5C6.68554 5 4 7.84948 4 11.3644v2.7274c0 .5017.38325.9082.85634.9082s.85915-.4065.85915-.9082v-2.7274c0-.5032.38184-.9096.85634-.9096.47309 0 .85633.4064.85633.9096v2.7274c0 .5017.38327.9082.85635.9082.47449 0 .85773-.4065.85773-.9082v-2.7274c0-.5032.38327-.9096.85635-.9096.47451 0 .85911.4064.85911.9096v2.7274c0 .5017.3833.9082.8564.9082.4731 0 .8563-.4065.8563-.9082v-2.7274c0-.5032.3833-.9096.8592-.9096.4731 0 .8563.4064.8563.9096v2.7274c0 .5017.3833.9082.8578.9082.473 0 .8563-.4065.8563-.9082v-2.7274C16 7.84948 13.3131 5 9.99859 5Z" />
</svg>