<svg xmlns="http://www.w3.org/2000/svg" fill="none" viewBox="0 0 20 20">
  <rect width="20" height="20" fill="#0A66C2" rx="4" />
  <path fill="#fff" fill-rule="evenodd"
    d="M6.76 15.61V7.78h-2.6v7.83h2.6Zm-1.3-8.9c.9 0 1.47-.6 1.47-1.36C6.9 4.58 6.36 4 5.47 4S4 4.58 4 5.35c0 .76.57 1.36 1.44 1.36h.02ZM8.2 15.61h2.6v-4.37c0-.24.02-.47.09-.64.19-.47.62-.95 1.33-.95.95 0 1.32.72 1.32 1.77v4.2h2.6v-4.5c0-2.4-1.28-3.53-3-3.53a2.6 2.6 0 0 0-2.35 1.32h.01V7.78H8.2c.03.73 0 7.83 0 7.83Z"
    clip-rule="evenodd" />
</svg>