<svg xmlns="http://www.w3.org/2000/svg" fill="none" viewBox="0 0 20 20">
  <rect width="20" height="20" fill="#B996F7" rx="4" />
  <path fill="#FEFEFE"
    d="M12.492 4.001 12.63 4c.935.01 1.798.44 2.448 1.096.345.363.578.785.775 1.24l.058.133c.307.856.147 1.878-.216 2.685l-.038.085c-.224.464-.606.819-.967 1.176l-.226.226-.144.143-.069.068c-.135.134-.2.197-.391.22-.156-.017-.156-.017-.277-.114-.127-.161-.136-.28-.145-.48a3.51 3.51 0 0 0-.14-.744 1.4 1.4 0 0 1-.057-.532c.054-.091.054-.091.129-.166l.081-.086.085-.085c.196-.21.356-.406.463-.674l.046-.113c.105-.38.108-.911-.069-1.27-.315-.475-.723-.773-1.283-.892-.524-.049-.929.118-1.348.42a6.734 6.734 0 0 0-.416.396l-.112.112a57.2 57.2 0 0 0-.47.473c-.117.115-.232.23-.347.347l-.107.106c-.406.413-.621.798-.63 1.387.003.476.153.837.481 1.182.061.05.122.1.184.148.123.103.178.171.203.331-.001.362-.132.606-.381.862l-.095.094-.093.099c-.151.152-.262.256-.483.264a.574.574 0 0 1-.364-.15l-.095-.082-.098-.091-.104-.093a3.48 3.48 0 0 1-1.09-2.314c-.028-1.031.243-1.936.958-2.7.3-.315.604-.625.91-.933l.237-.24c.84-.856.84-.856 1.364-1.135l.122-.065c.506-.258 1.014-.33 1.574-.333Z" />
  <path fill="#D4BFF9"
    d="M11.092 7.877a.547.547 0 0 1 .27.14l.095.082.098.092.104.092a3.45 3.45 0 0 1 1.082 2.39c.013 1.14-.348 2.012-1.14 2.835l-.23.232-.124.126a106.879 106.879 0 0 1-.524.527c-.87.884-1.712 1.578-3.012 1.606-.416.003-.817.002-1.212-.14l-.078-.029a3.712 3.712 0 0 1-2.084-1.883 9.413 9.413 0 0 1-.113-.28l-.053-.132c-.229-.687-.245-1.643.053-2.311l.036-.081c.274-.615.659-1.102 1.131-1.578.077-.077.152-.156.227-.234l.148-.15.067-.07c.122-.12.212-.177.38-.181.16.019.16.019.28.09.138.214.153.435.183.685a72.436 72.436 0 0 0 .054.424c.023.133.062.252.106.379.025.15.033.247-.055.376a5.595 5.595 0 0 1-.24.256c-.369.386-.555.755-.56 1.29l-.004.11c-.004.421.171.75.446 1.064.368.328.768.518 1.27.5.611-.08 1.014-.391 1.436-.817l.11-.11.228-.228a73.87 73.87 0 0 1 .57-.57l.104-.103c.409-.414.665-.795.671-1.386-.006-.478-.125-.818-.437-1.183a5.251 5.251 0 0 0-.302-.27c-.086-.075-.115-.118-.13-.23l-.002-.095-.005-.092c.053-.338.278-.573.51-.808l.086-.093c.178-.181.3-.266.56-.242Z" />
</svg>