<svg xmlns="http://www.w3.org/2000/svg" fill="none" viewBox="0 0 20 20">
  <rect width="20" height="20" fill="#fff" rx="4" />
  <path fill="#B51E23"
    d="M14.104 3H9.872v14.655c4.017-1.745 5.42-4.006 5.776-4.71a.956.956 0 0 0 .1-.433v-7.9a1.598 1.598 0 0 0-.481-1.14A1.658 1.658 0 0 0 14.104 3Z" />
  <path fill="#E21D3E"
    d="M5.642 3C4.735 3 4 3.722 4 4.612v7.9a.95.95 0 0 0 .1.432c.355.698 1.777 2.977 5.772 4.711V3h-4.23Z" />
  <path fill="#fff"
    d="M10.913 9.315a1.619 1.619 0 0 0-.069-2.622 1.665 1.665 0 0 0-.962-.3 1.665 1.665 0 0 0-1.575 1.1 1.618 1.618 0 0 0 .545 1.822 701.435 701.435 0 0 0-.548 3.078 9.485 9.485 0 0 0 1.568.133 9.359 9.359 0 0 0 1.592-.105c-.185-1.046-.356-2.072-.55-3.105Z" />
</svg>