<?xml version="1.0" encoding="utf-8" standalone="yes"?>
<svg version="1.2" baseProfile="tiny-ps" id="logo" lang="en" viewBox="0 0 256 256" xmlns="http://www.w3.org/2000/svg" xml:space="preserve">
  <title>LuxID GIE</title>
  <desc>A logo made out of the letters 'ID', filled with the unique swirls and lines of a thumbprint.</desc>
  <g>
    <rect fill="#ffffff" width="256" height="256"/>
    <rect fill="#CC3D80" width="256" height="256" rx="27.4" ry="27.4"/>
    <path fill="#ffffff" d="M 34.735 81.16 L 34.735 87.29 C 43.565 81.46 54.955 79.73 65.525 83.66 C 65.975 83.83 66.435 83.98 66.885 84.14 L 66.885 78.57 C 55.955 74.66 44.305 75.95 34.735 81.17 L 34.735 81.16 Z M 34.735 69.56 L 34.735 75.28 C 44.545 70.7 55.965 69.62 66.885 73.01 L 66.885 67.55 C 55.975 64.55 44.705 65.47 34.735 69.56 Z M 34.735 93.84 L 34.735 101.45 C 40.885 93.34 51.905 89.8 61.855 93.5 C 63.525 94.12 65.205 94.66 66.885 95.14 L 66.885 89.66 C 65.815 89.33 64.755 88.97 63.695 88.58 C 53.545 84.81 42.485 87.19 34.735 93.84 Z M 36.475 108.98 C 35.635 111.12 35.215 113.37 35.215 115.67 C 35.215 123.17 39.705 129.85 46.645 132.7 C 52.765 135.2 59.705 138.55 66.875 142.97 L 66.875 136.85 C 60.415 133.07 54.195 130.12 48.635 127.84 C 42.025 125.14 38.775 117.54 41.365 110.91 C 43.945 104.27 51.495 100.88 58.185 103.37 C 61.055 104.44 63.965 105.32 66.875 106.03 L 66.875 100.61 C 64.575 100.01 62.285 99.29 60.015 98.44 C 50.665 94.96 40.105 99.7 36.475 108.99 L 36.475 108.98 Z M 34.735 144.12 L 34.735 150.24 C 36.015 150.93 37.315 151.59 38.685 152.15 C 47.005 155.56 57.115 160.79 66.885 168.64 L 66.885 162 C 57.705 155.18 48.445 150.47 40.675 147.29 C 38.565 146.42 36.585 145.35 34.735 144.12 Z M 34.735 129.92 L 34.735 137.55 C 37.055 139.55 39.715 141.21 42.665 142.42 C 49.885 145.38 58.345 149.6 66.885 155.52 L 66.885 149.19 C 59.015 144.06 51.325 140.29 44.655 137.56 C 40.615 135.9 37.235 133.23 34.735 129.92 Z M 34.735 197.26 C 36.665 198.49 38.605 199.86 40.505 201.39 L 48.425 201.39 C 44.035 197.13 39.295 193.75 34.725 191.11 L 34.725 197.26 L 34.735 197.26 Z M 34.735 167.61 L 34.735 173.37 C 44.905 178.07 57.245 185.87 66.885 198.48 L 66.885 190.28 C 56.645 178.92 44.515 171.86 34.735 167.61 Z M 34.735 58.38 L 34.735 63.94 C 44.815 60.25 55.985 59.43 66.885 62.12 L 66.885 56.73 C 55.995 54.29 44.905 55 34.735 58.38 Z M 34.735 179.19 L 34.735 185.1 C 41.655 188.78 49.195 194.03 55.685 201.39 L 62.505 201.39 C 54.205 190.65 43.765 183.65 34.735 179.19 Z M 34.735 156.15 L 34.735 161.9 C 44.195 165.78 56.185 172.25 66.885 182.68 L 66.885 175.51 C 56.595 166.47 45.575 160.65 36.695 157.02 C 36.035 156.75 35.385 156.46 34.735 156.16 L 34.735 156.15 Z M 46.275 112.81 C 44.715 116.79 46.675 121.35 50.635 122.97 C 55.635 125.02 61.145 127.59 66.885 130.79 L 66.885 124.8 C 61.865 122.13 57.045 119.92 52.615 118.11 C 51.285 117.57 50.635 116.06 51.165 114.72 C 51.685 113.38 53.185 112.71 54.525 113.21 C 58.605 114.73 62.735 115.92 66.885 116.8 L 66.885 111.41 C 63.355 110.61 59.845 109.57 56.365 108.28 C 52.355 106.79 47.825 108.82 46.275 112.81 Z" transform="matrix(1, 0, 0, 1, -1.7763568394002505e-15, 0)"/>
    <path fill="#ffffff" d="M 131.615 96.64 C 122.605 104.48 111.485 109.7 99.465 112.04 L 99.465 117.38 C 111.265 115.24 122.315 110.52 131.615 103.42 L 131.615 96.64 Z M 131.615 134.15 C 129.495 135.2 127.345 136.19 125.145 137.09 C 127.385 139.56 129.535 142.11 131.615 144.71 L 131.615 134.15 Z M 187.765 137.1 C 188.465 136.33 189.155 135.56 189.825 134.77 C 201.495 121.23 210.095 105.79 215.485 88.77 C 214.495 86.13 213.375 83.69 212.145 81.43 C 207.475 98.92 199.415 114.75 188.075 128.65 C 188.065 131.64 187.955 134.46 187.755 137.09 L 187.765 137.1 Z M 185.525 104.76 C 192.325 93.15 196.935 80.33 199.305 66.43 C 197.765 65.29 196.145 64.25 194.465 63.3 C 192.845 73.89 189.525 86.04 183.115 98.22 C 184.045 100.18 184.855 102.35 185.525 104.76 Z M 187.865 120.33 C 197.645 106.97 204.475 91.89 208.245 75.33 C 206.895 73.54 205.455 71.89 203.915 70.38 C 200.935 85.67 195.295 99.67 187.075 112.24 C 187.445 114.74 187.705 117.44 187.865 120.33 Z M 138.265 173.89 C 142.925 182.64 146.655 191.82 149.435 201.39 L 149.795 201.39 C 151.515 201.39 153.205 201.36 154.875 201.31 C 152.205 191.8 148.645 182.65 144.195 173.9 L 138.265 173.9 L 138.265 173.89 Z M 179.675 162.68 C 184.295 172.55 188.035 182.79 190.875 193.37 C 192.505 192.54 194.075 191.64 195.585 190.65 C 192.415 179.17 188.195 168.06 182.965 157.41 C 182.005 159.36 180.905 161.12 179.675 162.68 Z M 191.985 147.97 C 193.985 145.9 195.945 143.77 197.785 141.64 C 206.905 131.04 214.305 119.35 219.905 106.73 C 219.425 103.38 218.815 100.23 218.085 97.28 C 212.455 112.26 204.335 125.97 193.795 138.2 C 191.525 140.85 189.115 143.43 186.615 145.91 C 186.295 147.62 185.915 149.23 185.475 150.75 C 191.565 162.42 196.455 174.65 200.095 187.33 C 201.605 186.09 203.035 184.75 204.395 183.31 C 201.035 172.17 196.725 161.35 191.505 150.98 C 191.005 149.98 191.185 148.77 191.965 147.97 L 191.985 147.97 Z M 171.255 169.56 C 175.285 178.51 178.555 187.78 181.045 197.34 C 182.755 196.81 184.405 196.22 186.025 195.58 C 183.405 185.64 179.965 175.99 175.725 166.68 C 174.355 167.78 172.865 168.74 171.265 169.56 L 171.255 169.56 Z M 209.545 152.14 C 211.595 156.67 213.475 161.29 215.205 165.98 C 216.185 163.51 217.055 160.89 217.805 158.1 C 217.315 156.89 216.815 155.68 216.305 154.48 C 215.925 153.58 216.075 152.55 216.685 151.79 C 217.795 150.43 218.875 149.04 219.945 147.64 C 220.435 144.33 220.795 140.84 221.015 137.16 C 217.565 142.26 213.785 147.21 209.725 151.93 L 209.545 152.14 Z M 99.455 163.61 L 99.455 171.85 C 101.975 175.06 104.385 178.49 106.665 182.15 C 110.465 188.26 113.645 194.68 116.215 201.39 L 121.825 201.39 C 119.025 193.7 115.455 186.34 111.125 179.38 C 107.525 173.58 103.585 168.35 99.455 163.61 Z M 99.455 180.74 L 99.455 190.57 C 101.475 194.07 103.275 197.68 104.865 201.39 L 110.575 201.39 C 108.265 195.67 105.465 190.18 102.195 184.93 C 101.305 183.49 100.385 182.1 99.455 180.74 Z M 102.185 59.35 C 103.415 57.93 104.305 56.3 104.955 54.6 L 99.455 54.6 L 99.455 61.89 C 100.455 61.14 101.375 60.29 102.185 59.35 Z M 179.895 92.93 C 185.375 81.66 188.165 70.52 189.505 60.86 C 187.875 60.16 186.195 59.53 184.465 58.97 C 183.295 68.19 180.805 78.51 176.005 88.9 C 177.425 90.07 178.725 91.41 179.895 92.93 Z M 204.465 149.96 L 205.745 148.49 C 210.575 142.88 217.025 133.62 221.275 126.93 C 221.255 123.36 221.135 119.95 220.925 116.71 C 215.695 126.82 209.295 136.3 201.755 145.07 C 200.235 146.82 198.655 148.57 197.035 150.28 C 201.515 159.39 205.295 168.83 208.385 178.52 C 209.695 176.72 210.915 174.8 212.035 172.75 C 209.705 165.94 207.035 159.28 204.045 152.8 C 203.615 151.86 203.775 150.75 204.455 149.97 L 204.465 149.96 Z M 126.095 79.91 C 133.015 71.87 136.125 62.68 137.365 54.59 L 132.035 54.59 C 130.835 61.69 128.045 69.59 122.105 76.49 C 116.235 83.3 108.335 88.04 99.455 90.49 L 99.455 95.91 C 109.895 93.31 119.225 87.88 126.085 79.91 L 126.095 79.91 Z M 118.125 73.06 C 123.085 67.3 125.555 60.67 126.705 54.59 L 121.345 54.59 C 120.265 59.64 118.145 65 114.145 69.64 C 110.275 74.14 105.205 77.47 99.465 79.52 L 99.465 85.03 C 106.785 82.75 113.265 78.71 118.135 73.06 L 118.125 73.06 Z M 148.105 81.67 C 148.815 81.67 149.525 81.67 150.215 81.69 C 155.205 72.43 157.535 62.97 158.495 54.78 C 156.785 54.7 155.045 54.65 153.285 54.62 C 152.275 62.98 149.735 72.5 144.215 81.66 L 148.105 81.66 L 148.105 81.67 Z M 161.495 82.7 C 165.875 73.34 168.035 63.98 168.975 55.65 C 167.265 55.44 165.525 55.26 163.755 55.12 C 162.825 63.28 160.615 72.67 155.995 81.99 C 157.915 82.15 159.755 82.39 161.505 82.7 L 161.495 82.7 Z M 110.155 66.21 C 113.205 62.67 114.955 58.57 115.945 54.59 L 110.505 54.59 C 109.655 57.46 108.295 60.31 106.175 62.77 C 104.315 64.94 102.035 66.71 99.455 68.08 L 99.455 73.87 C 103.615 72.1 107.285 69.54 110.155 66.2 L 110.155 66.21 Z M 131.605 81.67 L 137.965 81.67 C 144.115 72.65 146.895 63.03 147.995 54.6 L 142.675 54.6 C 141.395 63.67 138.005 74.15 130.075 83.35 C 122.215 92.48 111.435 98.58 99.455 101.31 L 99.455 106.69 C 111.775 104.11 123.005 98.24 131.605 89.43 L 131.605 81.67 Z M 150.045 173.87 C 154.285 182.57 157.695 191.63 160.255 201.03 C 162.055 200.9 163.825 200.73 165.565 200.53 C 163.085 191.23 159.815 182.23 155.745 173.58 C 153.925 173.74 152.015 173.84 150.035 173.88 L 150.045 173.87 Z M 161.195 172.84 C 165.165 181.5 168.375 190.49 170.805 199.77 C 172.565 199.47 174.295 199.12 175.975 198.72 C 173.535 189.37 170.335 180.3 166.385 171.55 C 164.745 172.07 163.015 172.5 161.195 172.84 Z M 131.615 173.9 L 131.615 172.71 C 130.765 171.22 129.895 169.75 128.995 168.29 C 121.055 155.51 111.105 144.08 99.465 134.24 L 99.465 141.19 C 108.455 149.29 117.105 159.12 124.535 171.07 C 130.455 180.6 135.105 190.74 138.485 201.41 L 143.965 201.41 C 141.065 191.82 137.165 182.64 132.285 173.91 L 131.615 173.91 L 131.615 173.9 Z M 99.465 148.35 L 99.465 155.82 C 105.225 161.85 110.705 168.73 115.595 176.61 C 120.455 184.43 124.395 192.71 127.405 201.4 L 132.965 201.4 C 129.765 191.73 125.455 182.52 120.065 173.84 C 113.895 163.91 106.845 155.49 99.465 148.36 L 99.465 148.35 Z M 171.575 85.98 C 176.045 76.08 178.325 66.26 179.365 57.51 C 177.685 57.1 175.965 56.74 174.195 56.43 C 173.225 64.92 171.035 74.43 166.705 83.98 C 168.435 84.53 170.055 85.19 171.575 85.98 Z M 131.615 109.91 C 122.095 116.41 111.105 120.73 99.465 122.71 L 99.465 128.03 C 111.115 126.16 122.045 122.08 131.615 116.14 L 131.615 109.91 Z M 131.615 122.26 C 123.555 126.86 114.685 130.27 105.305 132.29 C 115.465 141.25 124.275 151.45 131.615 162.66 L 131.615 153.38 C 127.655 147.94 123.325 142.74 118.685 137.86 C 118.075 137.22 117.835 136.31 118.035 135.45 C 118.235 134.59 118.855 133.88 119.685 133.58 C 123.805 132.07 127.795 130.28 131.615 128.25 L 131.615 122.26 Z" transform="matrix(1, 0, 0, 1, -1.7763568394002505e-15, 0)"/>
  </g>
</svg>