<?xml version="1.0" encoding="utf-8" standalone="yes"?>
<svg  id="logo" lang="en" viewBox="0 0 512 256" xmlns="http://www.w3.org/2000/svg">
  <title>LuxID GIE</title>
  <desc>A logo made out of the letters 'ID', filled with the unique swirls and lines of a thumbprint.</desc>
  <defs>
    <style>
      svg {
        background: transparent;
      }
      rect {
        fill: transparent;
      }
      path {
        fill: #515259;
      }
    </style>
  </defs>
  <g>
    <rect width="512" height="256"/>
    <path d="M 100.499 232.298 L 23.942 232.298 L 23.942 253 L 118.484 253 L 118.484 194.699 L 100.499 194.699 L 100.499 232.298 Z"/>
    <path d="M 87.151 103.282 L 23.942 103.282 L 23.942 123.848 L 84.841 123.848 C 95.472 123.848 102.147 127.397 102.147 142.919 C 102.147 158.441 96.152 161.855 84.841 161.855 L 23.942 161.855 L 23.942 182.556 L 87.151 182.556 C 112.081 182.556 119.842 168.393 119.842 143.055 C 119.842 117.717 110.451 103.265 87.151 103.265 L 87.151 103.282 Z"/>
    <path d="M 118.484 92.243 L 118.484 68.264 L 83.058 47.834 L 83.058 47.019 L 118.484 27.676 L 118.484 3 L 69.574 32.159 L 23.942 3.951 L 23.942 27.795 L 57.72 46.73 L 57.72 47.545 L 23.942 66.073 L 23.942 90.188 L 70.389 62.541 L 118.484 92.243 Z"/>
    <path d="M 171.266 48.751 L 171.266 59.161 C 186.261 49.26 205.604 46.322 223.555 52.997 C 224.319 53.285 225.1 53.54 225.864 53.812 L 225.864 44.352 C 207.302 37.712 187.518 39.903 171.266 48.768 L 171.266 48.751 Z M 171.266 29.051 L 171.266 38.765 C 187.925 30.987 207.319 29.153 225.864 34.91 L 225.864 25.638 C 207.336 20.543 188.197 22.105 171.266 29.051 Z M 171.266 70.285 L 171.266 83.209 C 181.71 69.436 200.425 63.424 217.322 69.707 C 220.158 70.76 223.011 71.677 225.864 72.493 L 225.864 63.186 C 224.047 62.626 222.247 62.014 220.447 61.352 C 203.21 54.95 184.427 58.991 171.266 70.285 Z M 174.221 95.996 C 172.794 99.631 172.081 103.452 172.081 107.358 C 172.081 120.095 179.706 131.439 191.492 136.279 C 201.885 140.525 213.671 146.214 225.847 153.72 L 225.847 143.327 C 214.877 136.907 204.314 131.897 194.871 128.025 C 183.646 123.44 178.126 110.533 182.525 99.274 C 186.906 87.998 199.728 82.241 211.09 86.469 C 215.964 88.286 220.906 89.781 225.847 90.987 L 225.847 81.782 C 221.941 80.763 218.052 79.54 214.197 78.097 C 198.319 72.187 180.385 80.237 174.221 96.013 L 174.221 95.996 Z M 171.266 155.673 L 171.266 166.066 C 173.439 167.238 175.647 168.359 177.974 169.31 C 192.103 175.101 209.272 183.983 225.864 197.314 L 225.864 186.038 C 210.274 174.456 194.549 166.457 181.353 161.057 C 177.77 159.579 174.407 157.762 171.266 155.673 Z M 171.266 131.558 L 171.266 144.516 C 175.205 147.912 179.723 150.731 184.733 152.786 C 196.994 157.813 211.361 164.979 225.864 175.033 L 225.864 164.283 C 212.499 155.571 199.44 149.169 188.112 144.532 C 181.251 141.713 175.511 137.179 171.266 131.558 Z M 171.266 245.918 C 174.543 248.007 177.838 250.334 181.064 252.932 L 194.515 252.932 C 187.059 245.697 179.01 239.957 171.249 235.474 L 171.249 245.918 L 171.266 245.918 Z M 171.266 195.565 L 171.266 205.347 C 188.537 213.329 209.493 226.575 225.864 247.99 L 225.864 234.064 C 208.474 214.772 187.874 202.783 171.266 195.565 Z M 171.266 10.065 L 171.266 19.507 C 188.384 13.24 207.353 11.848 225.864 16.416 L 225.864 7.263 C 207.37 3.119 188.537 4.325 171.266 10.065 Z M 171.266 215.231 L 171.266 225.267 C 183.017 231.517 195.822 240.433 206.844 252.932 L 218.426 252.932 C 204.331 234.693 186.601 222.805 171.266 215.231 Z M 171.266 176.103 L 171.266 185.868 C 187.331 192.457 207.693 203.445 225.864 221.158 L 225.864 208.981 C 208.389 193.629 189.675 183.745 174.594 177.581 C 173.473 177.122 172.369 176.63 171.266 176.12 L 171.266 176.103 Z M 190.863 102.501 C 188.214 109.26 191.543 117.004 198.268 119.755 C 206.759 123.236 216.116 127.601 225.864 133.035 L 225.864 122.863 C 217.339 118.328 209.154 114.575 201.63 111.501 C 199.372 110.584 198.268 108.02 199.168 105.744 C 200.051 103.469 202.598 102.331 204.874 103.18 C 211.803 105.761 218.817 107.782 225.864 109.277 L 225.864 100.123 C 219.87 98.765 213.909 96.998 207.999 94.808 C 201.189 92.277 193.496 95.725 190.863 102.501 Z"/>
    <path d="M 335.792 75.04 C 320.491 88.354 301.607 97.219 281.194 101.193 L 281.194 110.262 C 301.233 106.627 319.999 98.612 335.792 86.554 L 335.792 75.04 Z M 335.792 138.741 C 332.192 140.525 328.541 142.206 324.805 143.734 C 328.609 147.929 332.26 152.26 335.792 156.675 L 335.792 138.741 Z M 431.149 143.751 C 432.338 142.444 433.51 141.136 434.648 139.794 C 454.466 116.8 469.071 90.579 478.225 61.675 C 476.544 57.191 474.642 53.048 472.553 49.209 C 464.622 78.912 450.934 105.795 431.676 129.401 C 431.659 134.479 431.472 139.268 431.132 143.734 L 431.149 143.751 Z M 427.345 88.83 C 438.893 69.113 446.722 47.341 450.747 23.736 C 448.132 21.8 445.381 20.033 442.528 18.42 C 439.777 36.405 434.138 57.038 423.252 77.723 C 424.832 81.052 426.207 84.737 427.345 88.83 Z M 431.319 115.272 C 447.928 92.583 459.527 66.973 465.93 38.85 C 463.637 35.81 461.191 33.008 458.576 30.444 C 453.515 56.41 443.937 80.186 429.978 101.533 C 430.606 105.778 431.047 110.364 431.319 115.272 Z M 347.086 206.23 C 355 221.09 361.334 236.68 366.055 252.932 L 366.667 252.932 C 369.588 252.932 372.458 252.881 375.294 252.796 C 370.759 236.646 364.714 221.107 357.156 206.247 L 347.086 206.247 L 347.086 206.23 Z M 417.41 187.193 C 425.256 203.954 431.608 221.345 436.431 239.312 C 439.199 237.903 441.865 236.374 444.43 234.693 C 439.046 215.197 431.88 196.329 422.998 178.243 C 421.367 181.554 419.499 184.543 417.41 187.193 Z M 438.316 162.211 C 441.713 158.696 445.041 155.079 448.166 151.461 C 463.654 133.46 476.221 113.607 485.731 92.175 C 484.916 86.486 483.88 81.137 482.64 76.127 C 473.079 101.567 459.289 124.85 441.39 145.619 C 437.535 150.12 433.442 154.501 429.196 158.713 C 428.653 161.617 428.008 164.351 427.26 166.932 C 437.603 186.751 445.907 207.521 452.089 229.055 C 454.653 226.949 457.082 224.673 459.391 222.228 C 453.685 203.309 446.366 184.934 437.501 167.323 C 436.652 165.625 436.957 163.57 438.282 162.211 L 438.316 162.211 Z M 403.111 198.877 C 409.955 214.076 415.508 229.819 419.737 246.054 C 422.641 245.154 425.443 244.152 428.194 243.065 C 423.745 226.185 417.903 209.796 410.702 193.986 C 408.376 195.854 405.845 197.484 403.128 198.877 L 403.111 198.877 Z M 468.137 169.293 C 471.619 176.986 474.811 184.832 477.749 192.797 C 479.414 188.602 480.891 184.153 482.165 179.415 C 481.333 177.36 480.484 175.305 479.618 173.267 C 478.972 171.739 479.227 169.989 480.263 168.699 C 482.148 166.389 483.982 164.028 485.799 161.651 C 486.631 156.03 487.243 150.103 487.616 143.853 C 481.757 152.514 475.338 160.921 468.443 168.936 L 468.137 169.293 Z M 281.177 188.772 L 281.177 202.766 C 285.456 208.217 289.549 214.042 293.421 220.258 C 299.874 230.634 305.275 241.537 309.639 252.932 L 319.166 252.932 C 314.411 239.872 308.349 227.373 300.995 215.553 C 294.881 205.704 288.19 196.822 281.177 188.772 Z M 281.177 217.863 L 281.177 234.557 C 284.607 240.501 287.664 246.632 290.364 252.932 L 300.061 252.932 C 296.138 243.218 291.383 233.895 285.83 224.979 C 284.318 222.533 282.756 220.173 281.177 217.863 Z M 285.813 11.712 C 287.902 9.301 289.413 6.532 290.517 3.645 L 281.177 3.645 L 281.177 16.026 C 282.875 14.752 284.437 13.308 285.813 11.712 Z M 417.784 68.739 C 427.091 49.6 431.829 30.682 434.104 14.276 C 431.336 13.088 428.483 12.018 425.545 11.067 C 423.558 26.725 419.33 44.251 411.178 61.895 C 413.589 63.882 415.797 66.158 417.784 68.739 Z M 459.51 165.591 L 461.684 163.094 C 469.887 153.567 480.84 137.841 488.058 126.48 C 488.024 120.417 487.82 114.626 487.463 109.124 C 478.582 126.293 467.713 142.393 454.908 157.286 C 452.327 160.258 449.643 163.23 446.892 166.134 C 454.5 181.605 460.92 197.637 466.167 214.093 C 468.392 211.036 470.464 207.775 472.366 204.294 C 468.409 192.729 463.875 181.419 458.797 170.414 C 458.067 168.818 458.338 166.932 459.493 165.608 L 459.51 165.591 Z M 326.418 46.628 C 338.17 32.974 343.452 17.367 345.557 3.628 L 336.506 3.628 C 334.468 15.686 329.73 29.102 319.642 40.82 C 309.673 52.385 296.257 60.435 281.177 64.596 L 281.177 73.8 C 298.906 69.385 314.751 60.163 326.401 46.628 L 326.418 46.628 Z M 312.883 34.995 C 321.306 25.213 325.501 13.954 327.454 3.628 L 318.351 3.628 C 316.517 12.205 312.917 21.307 306.124 29.187 C 299.552 36.829 290.942 42.484 281.194 45.966 L 281.194 55.323 C 293.625 51.451 304.629 44.59 312.9 34.995 L 312.883 34.995 Z M 363.797 49.617 C 365.002 49.617 366.208 49.617 367.38 49.651 C 375.854 33.925 379.811 17.86 381.441 3.951 C 378.537 3.815 375.582 3.73 372.594 3.679 C 370.878 17.877 366.565 34.044 357.19 49.6 L 363.797 49.6 L 363.797 49.617 Z M 386.536 51.366 C 393.975 35.471 397.643 19.575 399.239 5.429 C 396.335 5.072 393.38 4.766 390.374 4.528 C 388.795 18.386 385.042 34.333 377.196 50.161 C 380.456 50.432 383.581 50.84 386.553 51.366 L 386.536 51.366 Z M 299.348 23.362 C 304.528 17.35 307.499 10.387 309.181 3.628 L 299.942 3.628 C 298.499 8.502 296.189 13.342 292.589 17.52 C 289.43 21.205 285.558 24.211 281.177 26.538 L 281.177 36.371 C 288.241 33.365 294.474 29.017 299.348 23.345 L 299.348 23.362 Z M 335.775 49.617 L 346.576 49.617 C 357.021 34.299 361.742 17.962 363.61 3.645 L 354.575 3.645 C 352.401 19.049 346.644 36.846 333.177 52.47 C 319.829 67.975 301.522 78.335 281.177 82.971 L 281.177 92.107 C 302.099 87.726 321.17 77.757 335.775 62.796 L 335.775 49.617 Z M 367.091 206.196 C 374.292 220.971 380.083 236.357 384.43 252.321 C 387.487 252.1 390.493 251.811 393.448 251.472 C 389.236 235.678 383.683 220.394 376.771 205.704 C 373.68 205.975 370.437 206.145 367.074 206.213 L 367.091 206.196 Z M 386.027 204.447 C 392.769 219.154 398.22 234.421 402.347 250.181 C 405.336 249.671 408.274 249.077 411.127 248.398 C 406.983 232.519 401.549 217.116 394.841 202.256 C 392.056 203.139 389.118 203.869 386.027 204.447 Z M 335.792 206.247 L 335.792 204.226 C 334.349 201.696 332.871 199.199 331.343 196.72 C 317.859 175.016 300.961 155.605 281.194 138.894 L 281.194 150.697 C 296.461 164.453 311.151 181.147 323.769 201.441 C 333.822 217.625 341.719 234.846 347.459 252.966 L 356.766 252.966 C 351.841 236.68 345.218 221.09 336.93 206.264 L 335.792 206.264 L 335.792 206.247 Z M 281.194 162.857 L 281.194 175.543 C 290.975 185.783 300.282 197.467 308.586 210.849 C 316.84 224.13 323.531 238.191 328.643 252.949 L 338.085 252.949 C 332.651 236.527 325.331 220.886 316.178 206.145 C 305.699 189.281 293.727 174.982 281.194 162.874 L 281.194 162.857 Z M 403.655 56.937 C 411.246 40.124 415.118 23.447 416.884 8.587 C 414.031 7.891 411.11 7.28 408.104 6.753 C 406.457 21.171 402.738 37.322 395.384 53.54 C 398.322 54.474 401.073 55.595 403.655 56.937 Z M 335.792 97.576 C 319.625 108.614 300.961 115.951 281.194 119.313 L 281.194 128.348 C 300.978 125.172 319.54 118.244 335.792 108.156 L 335.792 97.576 Z M 335.792 118.549 C 322.104 126.361 307.041 132.152 291.111 135.583 C 308.366 150.799 323.327 168.121 335.792 187.159 L 335.792 171.399 C 329.067 162.16 321.714 153.329 313.834 145.042 C 312.798 143.955 312.39 142.41 312.73 140.949 C 313.07 139.489 314.123 138.283 315.532 137.773 C 322.529 135.209 329.305 132.169 335.792 128.722 L 335.792 118.549 Z"/>
  </g>
</svg>
