<svg xmlns="http://www.w3.org/2000/svg" fill="none" viewBox="0 0 20 20">
  <rect width="20" height="20" fill="#030303" rx="4" />
  <g clip-path="url(#a)">
    <path fill="#FF6740"
      d="M15.82 11.92H5.29a.23.23 0 0 1-.17-.07.24.24 0 0 1 0-.34c.04-.04.1-.07.17-.07h10.53c.06 0 .12.03.16.07a.24.24 0 0 1 0 .34.23.23 0 0 1-.16.07Zm0 .92H5.29a.23.23 0 0 1-.17-.07.24.24 0 0 1 0-.35c.04-.04.1-.07.17-.07h10.53c.06 0 .12.03.16.07a.24.24 0 0 1 0 .35.23.23 0 0 1-.16.07Z" />
    <path fill="#FF6740" d="M14.1 12.56v1.62l.66-.4.67.4v-1.61H14.1Z" />
    <path fill="#272B30" d="M16.29 7.47h-1.77v1h1.77v-1Z" />
    <path fill="#F1F1F1"
      d="m17.23 8.74-.02-.03a2.48 2.48 0 0 1-.8-1.53v-.05a.63.63 0 0 0-.14-.3l-.02-.03a4.15 4.15 0 0 0-2.12-1.31c-.02-.5.09-1 .33-1.44a.16.16 0 0 0-.06-.2.15.15 0 0 0-.08-.03 5.42 5.42 0 0 0-3.93 2.84 4.98 4.98 0 0 0-4.57-.15 5.3 5.3 0 0 0-3.02 4.84v1.33a2.33 2.33 0 0 0 1.13 1.99c.3.17.66.28 1.03.29h3.28a.63.63 0 0 1 .12 0h.02c.17.02.34.1.46.23a.8.8 0 0 1 .23.57v.01a.82.82 0 0 0 .37.67.76.76 0 0 0 1.05-.24.81.81 0 0 0 .13-.42v-.04a2.46 2.46 0 0 0-.7-1.71 2.3 2.3 0 0 0-1.63-.7H5.51c-.3 0-.6-.13-.81-.35a1.22 1.22 0 0 1 .38-1.95c.15-.06.3-.1.45-.1h10.44a.6.6 0 0 0 .36-.12.6.6 0 0 0 .22-.3l.01-.04c.04-.12.1-.22.2-.3l.03-.02.03-.02a1.26 1.26 0 0 0 .41-1.4Zm-1.4-.48-.06-.02a.8.8 0 0 0-.81-.01h-.02a.14.14 0 0 1-.1.02.15.15 0 0 1-.08-.07.16.16 0 0 1 .04-.2l.01-.01a1.1 1.1 0 0 1 1.1 0 .15.15 0 0 1 .07.18l-.05.08a.14.14 0 0 1-.1.03Z" />
    <path fill="#E6E6E6"
      d="m17.23 8.74-.02-.03a2.48 2.48 0 0 1-.8-1.53v-.05a.63.63 0 0 0-.14-.3l-.02-.03a4.15 4.15 0 0 0-2.12-1.31c-.02-.5.09-1 .33-1.44a.16.16 0 0 0-.06-.2.15.15 0 0 0-.08-.03 5.42 5.42 0 0 0-3.93 2.84 4.98 4.98 0 0 0-4.57-.15 5.3 5.3 0 0 0-3.02 4.84v1.33a2.33 2.33 0 0 0 1.13 1.99c.3.17.66.28 1.03.29h3.28a.63.63 0 0 1 .12 0h.02c.17.02.34.1.46.23a.8.8 0 0 1 .23.57v.01a.82.82 0 0 0 .37.67.76.76 0 0 0 1.05-.24.81.81 0 0 0 .13-.42v-.04a2.46 2.46 0 0 0-.7-1.71 2.3 2.3 0 0 0-1.63-.7H5.51c-.3 0-.6-.13-.81-.35a1.22 1.22 0 0 1 .38-1.95c.15-.06.3-.1.45-.1h10.44a.6.6 0 0 0 .36-.12.6.6 0 0 0 .22-.3l.01-.04c.04-.12.1-.22.2-.3l.03-.02.03-.02a1.26 1.26 0 0 0 .41-1.4Zm-1.4-.48-.06-.02a.8.8 0 0 0-.81-.01h-.02a.14.14 0 0 1-.1.02.15.15 0 0 1-.08-.07.16.16 0 0 1 .04-.2l.01-.01a1.1 1.1 0 0 1 1.1 0 .15.15 0 0 1 .07.18l-.05.08a.14.14 0 0 1-.1.03Z" />
    <path fill="#FF6740"
      d="M10.4 6.63a2.96 2.96 0 0 0 2.86 2.44c.83 0 1.57-.36 2.1-.94l-.16.01a.76.76 0 0 0-.24.09l-.02.01a.14.14 0 0 1-.14 0 .15.15 0 0 1-.07-.14c0-.05.03-.1.07-.12l.01-.01c.24-.14.52-.18.78-.12.26-.36.43-.76.52-1.2a4.14 4.14 0 0 0-1.98-1.16c-.02-.5.09-1 .32-1.44a.16.16 0 0 0 0-.15.15.15 0 0 0-.13-.08 5.42 5.42 0 0 0-3.92 2.81Z" />
    <path fill="#272B30"
      d="M16.46 9.5a6.55 6.55 0 0 0-2.33-.29l-.2.03-.19.04c-.13.02-.25.07-.38.1.24-.12.5-.2.76-.24a4.34 4.34 0 0 1 2.34.37Zm-.12.26a6.53 6.53 0 0 0-2.34.07l-.19.05-.18.07c-.13.03-.25.1-.37.15a3.49 3.49 0 0 1 1.5-.51 4.39 4.39 0 0 1 1.58.17Zm-.01.28-.4.04a6.56 6.56 0 0 0-1.88.56l-.17.09-.17.1c-.12.07-.21.16-.33.23.2-.2.4-.36.63-.5a4.35 4.35 0 0 1 2.31-.52Z" />
    <path fill="#F27BAA"
      d="M17.2 8.71a2.45 2.45 0 0 1-.12-.12.4.4 0 0 0-.16.2.41.41 0 0 0 .12.46.4.4 0 0 0 .24.08l.01-.05c.02-.19 0-.37-.06-.55l-.02-.02Z" />
    <path fill="#fff"
      d="M14 5.7v.05c-.47.2-.9.48-1.27.83-.08-.57.06-1.16.38-1.64.32-.47.8-.8 1.36-.93A3.2 3.2 0 0 0 14 5.7Z" />
    <path fill="#FF6740"
      d="m9.93 14.03-.17-.15a1.78 1.78 0 0 0-1.3 1.1c.18.04.33.14.44.28.1.14.17.31.17.5v.01a.82.82 0 0 0 .37.67.76.76 0 0 0 1.06-.26.81.81 0 0 0 .12-.4v-.04a2.46 2.46 0 0 0-.7-1.71Z" />
  </g>
  <defs>
    <clipPath id="a">
      <path fill="#fff" d="M2 3h16v14H2z" />
    </clipPath>
  </defs>
</svg>