<svg xmlns="http://www.w3.org/2000/svg" fill="none" viewBox="0 0 20 20">
  <rect width="20" height="20" fill="#F3969A" rx="4" />
  <path fill="#FDFDFD"
    d="M9.606 3.002 9.722 3c.67-.002 1.213.364 1.706.78l.06.051c.223.187.442.378.657.574l.21.186c.341.298.668.614.99.935l.074.074c.133.134.26.27.384.414.086.099.177.194.267.29.156.166.304.335.446.513.053.066.107.13.162.194.58.664.94 1.326.887 2.23-.074.787-.524 1.562-.975 2.195l-.056.08c-.221.31-.447.608-.71.885l-.11.127c-.34.39-.693.778-1.088 1.114a4.82 4.82 0 0 0-.136.123c-.955.886-2.3 1.841-3.654 1.817-.615-.027-1.096-.305-1.568-.684l-.066-.053c-.277-.223-.547-.45-.806-.693a9.764 9.764 0 0 0-.223-.2 20.38 20.38 0 0 1-.988-.933l-.074-.074a7.757 7.757 0 0 1-.384-.414c-.087-.1-.177-.194-.268-.29a8.612 8.612 0 0 1-.445-.513 6.634 6.634 0 0 0-.164-.195c-.63-.72-.9-1.394-.843-2.36.044-.387.231-.752.4-1.099l.035-.073a7.01 7.01 0 0 1 .63-1.025l.077-.107c.403-.547.867-1.043 1.347-1.522l.173-.175c.198-.2.398-.387.619-.561.087-.07.17-.143.254-.217.686-.57 1.497-1.06 2.357-1.312l.121-.038c.193-.046.389-.041.586-.042Z" />
  <path fill="#4E4E4E"
    d="M9.606 3.002 9.722 3c.67-.002 1.213.364 1.706.78l.06.051c.223.187.442.378.657.574l.21.186c.341.298.668.614.99.935l.074.074c.133.134.26.27.384.414.086.099.177.194.267.29.156.166.304.335.446.513.053.066.107.13.162.194.58.664.94 1.326.887 2.23-.074.787-.524 1.562-.975 2.195l-.056.08c-.221.31-.447.608-.71.885l-.11.127c-.34.39-.693.778-1.088 1.114a4.82 4.82 0 0 0-.136.123c-.955.886-2.3 1.841-3.654 1.817-.615-.027-1.096-.305-1.568-.684l-.066-.053c-.277-.223-.547-.45-.806-.693a9.764 9.764 0 0 0-.223-.2 20.38 20.38 0 0 1-.988-.933l-.074-.074a7.757 7.757 0 0 1-.384-.414c-.087-.1-.177-.194-.268-.29a8.612 8.612 0 0 1-.445-.513 6.634 6.634 0 0 0-.164-.195c-.63-.72-.9-1.394-.843-2.36.044-.387.231-.752.4-1.099l.035-.073a7.01 7.01 0 0 1 .63-1.025l.077-.107c.403-.547.867-1.043 1.347-1.522l.173-.175c.198-.2.398-.387.619-.561.087-.07.17-.143.254-.217.686-.57 1.497-1.06 2.357-1.312l.121-.038c.193-.046.389-.041.586-.042Zm-1.14 1.136-.1.05c-.318.16-.612.348-.898.558l-.061.044a11.82 11.82 0 0 0-2.07 1.92l-.072.083c-.653.764-1.495 1.85-1.442 2.909.035.374.216.714.45 1.002l.068.086.23.28.086.102a46.272 46.272 0 0 0 .383.451c.21.248.428.482.66.708.091.09.18.179.26.278.062.074.119.133.193.194.127.108.243.224.36.343.159.161.324.309.502.45.085.069.166.141.247.216.526.477 1.106.958 1.855.931 1.05-.114 2.054-.933 2.81-1.61l.095-.082c.424-.38.855-.78 1.204-1.231.063-.08.128-.156.195-.231.523-.6.955-1.293 1.203-2.05.01-.033.022-.066.034-.1a1.486 1.486 0 0 0-.1-1.165 5.502 5.502 0 0 0-.633-.866l-.095-.112a20.029 20.029 0 0 0-.786-.877 10.719 10.719 0 0 0-.886-.884 3.567 3.567 0 0 1-.19-.186 4.696 4.696 0 0 0-.416-.363 6.227 6.227 0 0 1-.24-.207c-.444-.431-.444-.431-.982-.699l-.014.055c-.323 1.232-.985 2.262-1.843 3.193-.061.067-.12.135-.179.203a9.1 9.1 0 0 1-.523.544 8.619 8.619 0 0 1-.503.465l-.091.08c-1.61 1.365-1.61 1.365-2.364 1.353h-.08l-.061-.002-.03-.06c-.038-.08-.038-.08-.103-.173-.011-.147-.014-.272.066-.399l.082-.027c.16-.054.305-.131.455-.21l.094-.05c.966-.515 1.804-1.3 2.531-2.11l.051-.056c.604-.674 1.115-1.41 1.48-2.24l.039-.069c.058-.134.046-.287.028-.43a.444.444 0 0 0-.2-.167c-.268-.035-.463.039-.699.158Z" />
  <path fill="#504F4F"
    d="M11.628 9.705c.216.15.357.385.433.633.068.457-.03.816-.303 1.187-.225.273-.537.499-.895.543-.41.034-.682-.051-1.002-.307-.161-.15-.161-.15-.17-.302.057-.175.161-.244.304-.352l.156-.123.076-.06a5.787 5.787 0 0 0 1.017-1.07c.126-.165.178-.211.384-.149Z" />
  <path fill="#4C4C4C"
    d="M14.124 13.666c.081.057.148.126.217.197l.063.063.204.204.141.143.297.298a114.26 114.26 0 0 0 .673.677l.14.14.196.198.058.059c.169.171.169.171.208.284a.338.338 0 0 1-.089.235l-.069.06-.068.063c-.073.042-.073.042-.154.033a.425.425 0 0 1-.201-.116l-.07-.064a43.527 43.527 0 0 1-.592-.579 258.71 258.71 0 0 1-.607-.602 74.119 74.119 0 0 1-.636-.63l-.053-.052c-.108-.11-.151-.19-.157-.345.091-.225.265-.337.5-.266ZM10.962 16.362c.088.054.157.124.229.198l.064.064.21.21.147.146a58.25 58.25 0 0 0 .7.7 53.85 53.85 0 0 1 .447.447 20.355 20.355 0 0 1 .263.263c.1.103.134.148.153.293-.019.13-.058.184-.149.275a.503.503 0 0 1-.333.033 1.054 1.054 0 0 1-.228-.195l-.064-.063a97.954 97.954 0 0 0-.35-.352l-.3-.303c-.128-.13-.257-.259-.386-.387a69.514 69.514 0 0 1-.637-.642l-.06-.059c-.111-.115-.168-.194-.172-.362.04-.078.04-.078.1-.145l.059-.07c.11-.075.176-.067.307-.051ZM16.82 10.537c.083.058.151.127.222.198a33.033 33.033 0 0 1 .416.413l.302.301c.128.13.258.258.388.385a59.584 59.584 0 0 1 .441.439 17.031 17.031 0 0 1 .26.258c.097.1.147.168.151.311a.403.403 0 0 1-.15.291c-.106.054-.18.047-.299.034-.088-.054-.156-.125-.228-.198l-.065-.064-.21-.21-.147-.147a55.429 55.429 0 0 1-.306-.307c-.13-.132-.262-.262-.393-.393a53.832 53.832 0 0 1-.448-.447 20.365 20.365 0 0 1-.202-.203l-.06-.06c-.1-.103-.135-.147-.153-.294.018-.124.041-.16.136-.24l.068-.06c.11-.056.16-.04.277-.007Z" />
  <path fill="#F8B294"
    d="M8.678 12.397c.174.103.33.255.42.437.024.252.019.487-.133.699-.218.204-.38.249-.678.246a.64.64 0 0 1-.42-.213 1.23 1.23 0 0 1-.133-.233l-.033-.066c-.03-.262-.022-.46.142-.672a.768.768 0 0 1 .835-.198ZM13.34 7.729c.199.086.323.254.418.445.022.255.029.49-.133.699a.714.714 0 0 1-.47.244c-.372.005-.372.005-.528-.144-.21-.219-.281-.361-.275-.669.018-.21.122-.328.275-.463l.083-.077c.198-.095.417-.09.63-.035Z" />
  <path fill="#4F4F4F"
    d="M7.815 10.206c.13.099.245.218.318.364.024.235.016.442-.133.633a.756.756 0 0 1-.576.213.686.686 0 0 1-.437-.273c-.105-.178-.115-.37-.085-.573.052-.11.052-.11.133-.2l.045-.055c.197-.211.475-.189.735-.109ZM10.962 6.91a.76.76 0 0 1 .413.366.75.75 0 0 1-.036.544.68.68 0 0 1-.41.32c-.173.022-.32.023-.478-.053-.147-.133-.277-.255-.294-.462-.006-.327-.006-.327.106-.483.222-.217.385-.273.7-.233Z" />
  <path fill="#E06D61"
    d="M11.695 10.704c.028.259-.089.443-.225.657-.182.182-.406.33-.668.347-.073-.006-.073-.006-.106-.04.005-.286.103-.489.296-.7.211-.199.414-.282.703-.264Z" />
</svg>