<svg xmlns="http://www.w3.org/2000/svg" fill="none" viewBox="0 0 20 20">
  <rect width="20" height="20" fill="#fff" rx="4" />
  <path fill="#E3740D"
    d="M12.9 15.34a6.22 6.22 0 1 1 .96-9.17c.11.13.14.22.04.38-.56.87-1.1 1.75-1.66 2.66l-.16-.2-1.13-1.61a.92.92 0 0 0-.96-.43c-.4.07-.64.3-.77.68L8.46 9.9l-.08.21c-.26-.31-.5-.6-.73-.9a.93.93 0 0 0-.94-.4c-.4.07-.64.32-.76.7L4.9 12.85c-.17.55.1 1.08.62 1.23a.95.95 0 0 0 1.2-.67l.5-1.56.03-.06.69.88c.23.29.53.41.9.36.39-.05.64-.3.77-.66l.7-2.08.1-.26.93 1.33.12.16c.44.68 1.35.46 1.66-.06l1.4-2.28.54-.88c.8 1.94.42 5.13-2.16 7.05Zm4.09-9.52c-.28.5-.7.75-1.26.7a1.2 1.2 0 0 1-1.07-.86 1.26 1.26 0 1 1 2.4-.02l-.07.18Z" />
</svg>