<svg xmlns="http://www.w3.org/2000/svg" fill="none" viewBox="0 0 20 20">
  <rect width="20" height="20" fill="#fff" rx="4"/>
  <path fill="#A60B16" fill-rule="evenodd" d="M12.052 10.84c-7.692 0-1.995 3.825-1.995 3.825L2 10.568c.073 1.612.614 2.792 1.648 3.554 1.054.781 2.064.878 3.375.878h5.97c1.312 0 2.32-.097 3.376-.878.974-.717 1.512-1.809 1.631-3.282h-5.948ZM9.958 5.336l8.04 4.087C17.774 6.409 16.154 5 12.933 5h-5.85C3.957 5 2.338 6.327 2.042 9.16h5.922c7.692 0 1.994-3.824 1.994-3.824Z" clip-rule="evenodd"/>
</svg>
