<svg viewBox="0 0 20 20" fill="none" xmlns="http://www.w3.org/2000/svg">
  <rect width="20" height="20" rx="4" fill="#E60012" />
  <path
    d="M4.96083 10.36L4.16082 9.05335H3.58351V10.9317H4.16082V9.62502L4.96083 10.9317H5.5299V9.05335H4.95588L4.95918 10.36H4.96083ZM9.50516 9.68669V9.49835H9.20495V9.24502H8.64412V9.50002H8.34062V9.68835H8.64577V10.9334H9.20495V9.68835H9.50516V9.68669ZM5.8499 10.9267H6.40577V9.68169H5.8499V10.9267ZM5.8499 9.43835H6.41072V9.05335H5.8499V9.43669V9.43835ZM15.6099 9.59502C15.1596 9.59502 14.7951 9.90835 14.7951 10.295C14.7951 10.6817 15.1596 10.9917 15.6099 10.9917C16.0602 10.9917 16.4247 10.6784 16.4247 10.2934C16.4247 9.91002 16.0602 9.59502 15.6099 9.59502ZM15.8342 10.5567C15.8342 10.755 15.7188 10.835 15.6099 10.835C15.4994 10.835 15.379 10.755 15.379 10.5567V10.03C15.379 9.83335 15.4944 9.75169 15.6099 9.75169C15.7204 9.75169 15.8342 9.83335 15.8342 10.03V10.5567ZM14.0643 9.74169C13.9693 9.68152 13.8623 9.64339 13.7509 9.63002C13.6616 9.62509 13.5723 9.63814 13.488 9.66842C13.4038 9.69869 13.3263 9.74559 13.2602 9.80638C13.194 9.86718 13.1405 9.94065 13.1027 10.0225C13.0649 10.1044 13.0436 10.1931 13.04 10.2834C13.04 10.7184 13.3699 10.8767 13.4194 10.9C13.6107 10.9867 13.8499 10.9917 14.0594 10.855V10.9267H14.6103V9.05335H14.0577C14.0627 9.05335 14.0627 9.45335 14.0627 9.74169H14.0643ZM14.0693 10.2984V10.5217C14.0693 10.7134 13.9406 10.765 13.8499 10.765C13.7592 10.765 13.6305 10.715 13.6305 10.5217V10.0767C13.6305 9.88335 13.7592 9.83335 13.8499 9.83335C13.9357 9.83335 14.0693 9.88335 14.0693 10.0767V10.2984ZM7.71217 9.62502C7.54597 9.63091 7.38761 9.69788 7.2668 9.81335V9.68002H6.71093V10.9267H7.2668V10.1067C7.2668 10 7.38227 9.87835 7.53072 9.87835C7.68082 9.87835 7.78639 10 7.78639 10.1067V10.9267H8.34062V10.2484C8.34062 9.75669 7.92165 9.61502 7.71052 9.62502H7.71217ZM12.2367 9.62502C12.0703 9.62998 11.9116 9.69708 11.7913 9.81335V9.68002H11.2371V10.9267H11.7913V10.1067C11.7913 10 11.9068 9.87835 12.0553 9.87835C12.207 9.87835 12.3109 10 12.3109 10.1067V10.9267H12.8668V10.2484C12.8668 9.75669 12.4462 9.61502 12.2367 9.62502ZM11.0722 10.3084C11.0722 9.92502 10.701 9.60002 10.2507 9.60002C9.79711 9.60002 9.43093 9.91335 9.43093 10.3C9.43093 10.6834 9.79711 10.9984 10.2524 10.9984C10.6268 10.9984 10.9452 10.78 11.0408 10.4867H10.4866V10.5617C10.4866 10.79 10.3365 10.84 10.2557 10.84C10.1732 10.84 10.0214 10.79 10.0214 10.5617V10.3034L11.0722 10.3084ZM10.061 9.86835C10.0816 9.83436 10.1104 9.80624 10.1448 9.7867C10.1791 9.76715 10.2179 9.75682 10.2573 9.75669C10.3315 9.75669 10.4058 9.79335 10.452 9.86835C10.4849 9.92835 10.4849 10.005 10.4849 10.1117H10.0214C10.0214 10.005 10.0264 9.93502 10.061 9.86835ZM16.6458 9.28502C16.6458 9.22502 16.6012 9.19502 16.5122 9.19502H16.3868V9.51335H16.461V9.38335H16.5023L16.5617 9.51669H16.6458L16.5765 9.37335C16.621 9.35835 16.6458 9.32835 16.6458 9.28835V9.28502ZM16.499 9.33335H16.4594V9.24169H16.494C16.5402 9.24169 16.5649 9.25835 16.5649 9.28835C16.5649 9.32169 16.5452 9.33335 16.499 9.33335ZM16.5039 9.07002C16.3489 9.07002 16.2202 9.20169 16.2202 9.35835C16.2202 9.51502 16.3505 9.64669 16.5056 9.64669C16.6606 9.64669 16.7893 9.51502 16.7893 9.35835C16.7893 9.28217 16.7594 9.20908 16.7063 9.15506C16.6531 9.10103 16.581 9.07046 16.5056 9.07002H16.5039ZM16.5039 9.59169C16.4431 9.59082 16.385 9.5659 16.3422 9.52228C16.2993 9.47867 16.2751 9.41982 16.2746 9.35835C16.2746 9.23169 16.3802 9.12502 16.5056 9.12502C16.6293 9.12502 16.7348 9.23169 16.7348 9.35835C16.7348 9.48502 16.6293 9.59169 16.5039 9.59169ZM15.8804 8.00002H4.08495C2.83464 7.99502 2 8.90669 2 9.99502C2 11.0834 2.83464 11.985 4.0899 11.985H15.8837C17.1406 11.985 17.9753 11.085 17.9753 9.99502C17.9703 8.90669 17.1307 8.00002 15.8804 8.00002ZM15.8755 11.5H4.0899C3.09526 11.5034 2.4899 10.825 2.4899 9.99502C2.4899 9.16502 3.10021 8.49502 4.0899 8.49169H15.8755C16.8652 8.49169 17.4755 9.16502 17.4755 9.99502C17.4755 10.825 16.8701 11.4984 15.8755 11.4984V11.5Z"
    fill="white" />
</svg>
  