<svg height="24" viewBox="0 0 24 24" width="24" xmlns="http://www.w3.org/2000/svg"><path d="m15.46875 1.5-12.4882812.5a.50038132.50038132 0 0 0 -.0292969.0019531 1.0001 1.0001 0 0 0 -.0214844.0019531 1.0001 1.0001 0 0 0 -.9296875.9960938v13.894531c0 .592469.1760213 1.171487.5039062 1.664063l2.6640626 3.996094a1.0001 1.0001 0 0 0 .8945312.443359l16-1a1.0001 1.0001 0 0 0 .9375-.998047v-15.5a1.0001 1.0001 0 0 0 -.263672-.6757812.50037856.50037856 0 0 0 -.148437-.1308594.50037856.50037856 0 0 0 -.001953-.0019532 1.0001 1.0001 0 0 0 -.1875-.1074218l-4.101563-2.3398438.033203.0214844c-.837805-.5693952-1.844766-.8395293-2.855469-.765625zm.056641.9980469a.50005.50005 0 0 0 .017578 0c.787317-.058611 1.572048.1502533 2.224609.59375a.50005.50005 0 0 0 .033203.0214843l2.523438 1.4394532-13.4687502.4355468-2.3867188-2.046875zm5.474609 4.0351562v13.5273439l-14 .875v-13.951172zm-1.558594 1.96875c-1.014.06-2.033781.1095469-3.050781.1855469-.334.025-.582047.3138594-.623047.6308594-.019.148.021453.2243281.189453.2363281.308.023.613594.0665156.933594.1035156v5.8691409c-.094-.135-.145359-.206297-.193359-.279297-1.31-1.979-2.625828-3.954406-3.923828-5.9414064-.196001-.3-.379485-.4443906-.771485-.4003906-.917.101-1.841719.1310781-2.7617186.2050781-.51.041-.8127813.4876563-.6757813.9726559.345.03.6928282.060797 1.0488281.091797v8.431641c-.2339999.066-.4671249.140266-.703125.197266-.2399999.058-.3524375.219406-.3984374.441406-.0370001.178.0066093.267953.2246093.251953.749-.053 1.5019529-.085859 2.2519529-.130859.31-.018.620782-.024219.925781-.074219.416-.069.642501-.322516.6875-.728516-.369999-.082-.742187-.172141-1.117187-.244141-.167-.032-.223656-.100437-.222656-.273437.006-1.956.004859-3.913141.005859-5.869141 0-.064.013391-.129328.025391-.236328.058.077.081515.108578.103515.142578 1.012 1.571 2.021063 3.145891 3.039063 4.712891.438.674.886656 1.341 1.347656 2 .334.478.82386.629672 1.380859.513672.348-.073.682438-.212313 1.023438-.320313.19-.06.245141-.182812.244141-.382812-.007-2.874-.003907-5.747094-.003907-8.6210939 0-.535-.001703-.5345312.529297-.6445312.488-.101.631375-.3398438.484375-.8398438z"/></svg>