<svg viewBox="0 0 20 20" fill="none" xmlns="http://www.w3.org/2000/svg">
  <rect width="20" height="20" rx="4" fill="black" />
  <g clip-path="url(#clip0_26_836)">
    <path
      d="M17.8883 15.6203C17.8883 15.7952 17.7623 15.9126 17.613 15.9126V15.9115C17.4596 15.9126 17.3358 15.7952 17.3358 15.6204C17.3358 15.4456 17.4596 15.3286 17.613 15.3286C17.7623 15.3285 17.8883 15.4456 17.8883 15.6203ZM18 15.6203C18 15.3804 17.817 15.2411 17.613 15.2411C17.4077 15.2411 17.2247 15.3804 17.2247 15.6203C17.2247 15.8602 17.4077 16 17.613 16C17.817 16 18 15.8602 18 15.6203ZM17.5488 15.6524H17.5903L17.6863 15.8241H17.7917L17.6854 15.6452C17.7403 15.6412 17.7855 15.6145 17.7855 15.5392C17.7855 15.4456 17.7222 15.4155 17.6148 15.4155H17.4595V15.8241H17.5488V15.6524M17.5488 15.5832V15.4848H17.6109C17.6447 15.4848 17.6907 15.4876 17.6907 15.5296C17.6907 15.5753 17.6669 15.5832 17.6271 15.5832H17.5488Z"
      fill="white" />
    <path
      d="M15.3941 13.5298L15.8766 14.8743H14.8967L15.3941 13.5298ZM14.8774 13.0064L13.7655 15.8758H14.5507L14.7265 15.3688H16.0423L16.2088 15.8758H17.0611L15.9409 13.006L14.8774 13.0064ZM12.6452 15.8768H13.4417V13.0055L12.6451 13.0053L12.6452 15.8768ZM7.11548 13.0053L6.45092 15.2811L5.81431 13.0055L4.95485 13.0053L5.86406 15.8768H7.0116L7.92814 13.0053H7.11548ZM10.3352 13.6306H10.6775C11.1742 13.6306 11.4954 13.8577 11.4954 14.4471C11.4954 15.0367 11.1742 15.2638 10.6775 15.2638H10.3352V13.6306ZM9.54535 13.0053V15.8768H10.8367C11.5247 15.8768 11.7494 15.7604 11.9923 15.499C12.1639 15.3155 12.2749 14.9128 12.2749 14.4727C12.2749 14.0689 12.1809 13.709 12.0172 13.4848C11.7221 13.0837 11.2971 13.0053 10.6628 13.0053H9.54535ZM2 13.0013V15.8768H2.80328V13.6934L3.42569 13.6936C3.63178 13.6936 3.77868 13.7459 3.87793 13.8539C4.0038 13.9905 4.0552 14.2109 4.0552 14.6142V15.8768H4.83357V14.2881C4.83357 13.1542 4.12403 13.0013 3.42978 13.0013H2ZM8.26338 13.0053L8.2637 15.8768H9.05988V13.0053H8.26338Z"
      fill="white" />
    <path
      d="M4.14069 7.28776C4.14069 7.28776 5.16517 5.74812 7.21071 5.58884V5.03026C4.94501 5.2156 2.983 7.17021 2.983 7.17021C2.983 7.17021 4.09425 10.4424 7.21071 10.742V10.1482C4.92371 9.85516 4.14069 7.28776 4.14069 7.28776ZM7.21071 8.96744V9.51119C5.48224 9.1973 5.00246 7.36715 5.00246 7.36715C5.00246 7.36715 5.83237 6.4307 7.21071 6.27883V6.87548C7.20967 6.87548 7.20894 6.87516 7.20807 6.87516C6.48465 6.78673 5.91951 7.4751 5.91951 7.4751C5.91951 7.4751 6.23627 8.63395 7.21071 8.96744ZM7.21071 4V5.03026C7.27723 5.02507 7.34374 5.02066 7.41061 5.01834C9.98647 4.92991 11.6648 7.17021 11.6648 7.17021C11.6648 7.17021 9.73718 9.55774 7.72892 9.55774C7.54486 9.55774 7.37255 9.54035 7.21071 9.51114V10.1482C7.34911 10.1661 7.4926 10.1766 7.64233 10.1766C9.51115 10.1766 10.8626 9.20449 12.1713 8.0539C12.3882 8.23089 13.2765 8.66149 13.4591 8.84999C12.2148 9.91109 9.31499 10.7664 7.67097 10.7664C7.5125 10.7664 7.36031 10.7567 7.21071 10.742V11.6372H14.314V4H7.21071ZM7.21071 6.27883V5.58884C7.27654 5.58416 7.34287 5.58059 7.41061 5.57841C9.26291 5.51915 10.4781 7.19975 10.4781 7.19975C10.4781 7.19975 9.16558 9.05657 7.75824 9.05657C7.5557 9.05657 7.37415 9.02341 7.21071 8.96744V6.87548C7.93182 6.96424 8.07691 7.28869 8.51044 8.02482L9.47464 7.19669C9.47464 7.19669 8.77079 6.25644 7.58429 6.25644C7.45532 6.25639 7.3319 6.26562 7.21071 6.27883Z"
      fill="#77B900" />
  </g>
  <defs>
    <clipPath id="clip0_26_836">
      <rect width="16" height="12" fill="white" transform="translate(2 4)" />
    </clipPath>
  </defs>
</svg>
  