<svg xmlns="http://www.w3.org/2000/svg" fill="none" viewBox="0 0 20 20">
  <rect width="20" height="20" fill="#fff" rx="4" />
  <g clip-path="url(#a)">
    <path fill="#000" fill-rule="evenodd"
      d="m10.7 3.1-.29 3.55a3.6 3.6 0 0 0-.92.01l-.17-1.72c0-.05.04-.1.1-.1h.29l-.14-1.73c0-.06.04-.1.09-.1h.95c.05 0 .1.04.09.1Zm-2.4.18c-.02-.05-.07-.09-.12-.07l-.9.33a.1.1 0 0 0-.05.13l.73 1.58-.28.1a.1.1 0 0 0-.05.13l.74 1.56c.27-.15.56-.26.87-.33L8.3 3.28Zm-2.2.98 2.06 2.9c-.26.18-.5.38-.7.61L6.23 6.56a.1.1 0 0 1 0-.14l.23-.18-1.23-1.25a.1.1 0 0 1 .01-.13l.73-.61c.04-.04.1-.03.13.01ZM4.38 5.94c-.05-.03-.1-.01-.14.03l-.47.83a.1.1 0 0 0 .04.13l1.58.74-.15.26c-.03.04 0 .1.04.13l1.57.71c.12-.29.27-.56.46-.8L4.38 5.94ZM3.2 8.18c.01-.05.07-.08.12-.07l3.44.9c-.1.29-.14.6-.15.92L4.9 9.79a.09.09 0 0 1-.08-.11l.05-.3-1.74-.15c-.06 0-.1-.06-.08-.11l.16-.94Zm-.12 2.33c-.06 0-.1.05-.09.1l.17.95c0 .05.06.08.11.07l1.7-.44.04.29c.01.05.06.08.12.07l1.66-.46a3.5 3.5 0 0 1-.18-.9l-3.54.32Zm.55 2.46a.1.1 0 0 1 .04-.12l3.2-1.53c.13.29.3.56.49.8l-1.41 1a.1.1 0 0 1-.13-.02l-.15-.26-1.44 1c-.04.02-.1 0-.13-.04l-.48-.83Zm3.9-.66-2.51 2.53a.1.1 0 0 0 0 .13l.74.61c.04.04.1.03.13-.01l1.01-1.42.23.19c.04.03.1.02.13-.02l.98-1.43a3.5 3.5 0 0 1-.72-.58Zm-.5 4.06c-.05-.02-.08-.08-.05-.12L8.47 13a3 3 0 0 0 .87.3L8.91 15a.1.1 0 0 1-.12.06l-.28-.1-.46 1.68c-.02.05-.07.08-.12.06l-.9-.32Zm2.55-3.01L9.3 16.9c0 .06.04.1.09.1h.95c.06 0 .1-.04.1-.1l-.15-1.74h.3a.1.1 0 0 0 .09-.1l-.17-1.72a3.18 3.18 0 0 1-.92.02Zm3.43-9.6c.02-.06 0-.11-.05-.13l-.9-.33c-.05-.02-.1.02-.12.07l-.46 1.68-.28-.1c-.05-.02-.1.01-.12.06l-.43 1.67c.3.07.6.17.87.3l1.49-3.23Zm1.95 1.4-2.5 2.54a3.4 3.4 0 0 0-.72-.59l.98-1.42a.1.1 0 0 1 .14-.02l.22.19 1.01-1.43c.03-.04.1-.05.13-.01l.74.61a.1.1 0 0 1 0 .14Zm1.35 2a.09.09 0 0 0 .04-.13l-.48-.83a.1.1 0 0 0-.13-.03l-1.43 1-.15-.26c-.03-.04-.1-.06-.13-.03l-1.41 1c.2.25.35.52.48.8l3.2-1.52h.01Zm.5 1.29.17.94a.1.1 0 0 1-.08.1l-3.54.33a3.34 3.34 0 0 0-.18-.9l1.67-.46c.05-.02.1.02.11.07l.05.29 1.69-.44a.1.1 0 0 1 .11.07Zm-.15 3.44a.1.1 0 0 0 .11-.07l.17-.94a.1.1 0 0 0-.09-.11l-1.73-.16.05-.3a.1.1 0 0 0-.09-.1l-1.72-.14c0 .32-.06.63-.15.92l3.45.9Zm-.92 2.14a.1.1 0 0 1-.13.03l-2.93-2.02c.19-.25.34-.52.45-.81l1.57.72c.05.02.07.08.05.13l-.15.25 1.58.75a.1.1 0 0 1 .04.12l-.48.83Zm-3.91-1.2 2.05 2.9c.03.05.1.06.13.02l.73-.6a.1.1 0 0 0 .01-.14l-1.22-1.25.22-.18a.1.1 0 0 0 0-.14l-1.23-1.21c-.2.23-.44.44-.7.6Zm-.02 3.96c-.05.02-.1-.02-.12-.07l-.95-3.43c.31-.07.6-.18.87-.33l.74 1.56c.03.05 0 .11-.05.13l-.27.1.73 1.59c.02.05 0 .1-.06.12l-.89.33Z"
      clip-rule="evenodd" />
  </g>
  <defs>
    <clipPath id="a">
      <path fill="#fff" d="M3 3h14v14H3z" />
    </clipPath>
  </defs>
</svg>