<svg xmlns="http://www.w3.org/2000/svg" fill="none" viewBox="0 0 20 20">
  <rect width="20" height="20" fill="#fff" rx="4" />
  <g clip-path="url(#a)">
    <path fill="#FF69AD"
      d="M10 16.4A4.78 4.78 0 0 1 6.6 15l-3.2-3.2A4.8 4.8 0 0 1 10 4.81a4.8 4.8 0 0 1 6.6 6.97L13.4 15a4.78 4.78 0 0 1-3.4 1.4Z" />
    <path fill="#461036" d="M9.06 7.65a.38.38 0 1 1-.76 0 .38.38 0 0 1 .76 0Z" />
    <path fill="#461036" fill-rule="evenodd"
      d="M8.12 7.65a.56.56 0 1 0 1.12 0 .56.56 0 0 0-1.12 0Zm.56.2a.2.2 0 1 1 0-.4.2.2 0 0 1 0 .4Z"
      clip-rule="evenodd" />
    <path fill="#461036" d="M11.7 7.65a.38.38 0 1 1-.76 0 .38.38 0 0 1 .76 0Z" />
    <path fill="#461036" fill-rule="evenodd"
      d="M10.76 7.65a.56.56 0 1 0 1.12 0 .56.56 0 0 0-1.12 0Zm.56.2a.2.2 0 1 1 0-.4.2.2 0 0 1 0 .4ZM11.06 9c-.48.8-1.64.8-2.12 0a.3.3 0 1 0-.52.32 1.85 1.85 0 0 0 3.16 0 .3.3 0 0 0-.52-.32Z"
      clip-rule="evenodd" />
    <path fill="#E34198"
      d="M16.04 8.78a1.89 1.89 0 1 0-3.78 0 1.89 1.89 0 0 0 3.78 0Zm-8.3 0a1.89 1.89 0 1 0-3.78 0 1.89 1.89 0 0 0 3.78 0Z" />
    <path fill="#461036" fill-rule="evenodd"
      d="M11.06 9c-.48.8-1.64.8-2.12 0a.3.3 0 1 0-.52.32 1.85 1.85 0 0 0 3.16 0 .3.3 0 0 0-.52-.32Z"
      clip-rule="evenodd" />
  </g>
  <defs>
    <clipPath id="a">
      <path fill="#fff" d="M2 2h16v16H2z" />
    </clipPath>
  </defs>
</svg>