<svg xmlns="http://www.w3.org/2000/svg" fill="none" viewBox="0 0 20 20">
  <rect width="20" height="20" fill="#fff" rx="4" />
  <path fill="#00AEEF"
    d="M7.333 5A5.335 5.335 0 0 0 2 10.334a5.335 5.335 0 0 0 5.333 5.333 5.335 5.335 0 0 0 5.334-5.333A5.335 5.335 0 0 0 7.333 5Zm0 6.934c-.885 0-1.6-.715-1.6-1.6 0-.886.715-1.6 1.6-1.6.886 0 1.6.714 1.6 1.6 0 .885-.714 1.6-1.6 1.6Z" />
  <path fill="#008CCF"
    d="M13.328 9c1.355.39 2.955 0 2.955 0-.464 2.027-1.936 3.296-4.059 3.45a5.322 5.322 0 0 1-4.89 3.217l1.6-5.086C10.577 5.354 11.42 5 15.321 5H18c-.448 1.973-1.992 3.481-4.672 4Z" />
</svg>