<svg xmlns="http://www.w3.org/2000/svg" fill="none" viewBox="0 0 20 20">
  <rect width="20" height="20" fill="#CC1B1A" rx="4" />
  <path fill="#FFFEFE"
    d="M9.18418 5.0363c-.4225.07944-.68611.13722-.88472.19139-.11917.0325-.28167.07583-.36111.0975-.07944.01805-.17694.04694-.21667.065-.03972.01805-.1625.06861-.27083.11194-.10833.03972-.23111.09028-.27083.10834-.03973.01444-.1625.065-.27084.10833-.57777.23111-1.58889.84139-1.7875 1.07611l-.10833.12639-.01083 2.535c-.00723 2.015 0 2.5422.03611 2.5711.02528.0217.17694.0795.33583.1336.15889.0506.71139.2311 1.22778.4009.51639.1697 1.04361.343 1.17361.3827.13.0398.26722.0867.30694.1048.03973.0144.41528.1372.83056.2708.41889.1336.86306.2817.99306.325.12999.0469.64999.2167 1.15559.3828.5055.1625 1.3288.4297 1.8236.5922 1.495.4947 1.5961.5236 1.7658.5236h.1661v-2.5386c0-2.72279 0-2.73001-.1842-2.99723-.0866-.12278-.2491-.31056-.5525-.63917-.1011-.10833-.3466-.37917-.5452-.59583-.1986-.22028-.4514-.49112-.5598-.61028-.1083-.11556-.213-.23111-.2347-.25278-.065-.07583-.7547-.83056-.9389-1.02917-.2166-.23472-.2022-.22027-.6355-.69333-.1878-.20583-.3972-.43333-.4586-.50556-.2131-.23833-.3648-.28527-.89558-.28166-.25639.00361-.53806.01805-.62834.03611ZM6.14724 7.68685c.85222.28167 2.26778.74389 2.98278.975.41889.13362.79083.25639.83055.27084.03973.01805.44773.15166.90273.29972.4587.14806 1.3181.42611 1.9139.62111.5959.19138 1.1556.37918 1.2459.41168l.1625.0614.0108.9533c.0108 1.0942.0181 1.0725-.2997.9389-.0397-.0144-.9967-.3322-2.1306-.7042-1.1339-.3719-2.16303-.715-2.29303-.7583-.13-.0469-1.02916-.3467-2.00416-.6681-.97139-.32135-1.79112-.60301-1.81278-.62107-.03611-.02889-.04695-.26361-.04695-.94972 0-.49833.01084-.92083.02528-.93167.04333-.04333.12639-.02889.51278.10111Zm1.86333 2.84555c1.25306.4153 2.30753.7656 2.34723.7836.0397.0145.1878.065.325.1084.1408.0397.2853.0902.325.1083.0397.0144.7222.2419 1.5167.5055.7944.2637 1.4986.4984 1.5636.5237l.1155.0505v.8522c0 .7186-.0072.8559-.0541.8703-.0289.0108-.2275-.0361-.4406-.1083-.2167-.0722-.8125-.2672-1.3289-.437-2.1847-.715-3.13804-1.0291-4.31526-1.4155-.68611-.2239-1.49861-.4911-1.80556-.5922-.30694-.1012-.58139-.2095-.60305-.242-.03611-.0433-.04695-.2708-.04695-.8594 0-.80892.01084-.92809.08667-.91003.02167.00722 1.06528.35023 2.31472.76193Z" />
</svg>