<svg xmlns="http://www.w3.org/2000/svg" fill="none" viewBox="0 0 20 20">
  <rect width="20" height="20" fill="#fff" rx="4" />
  <g clip-path="url(#a)">
    <path fill="#001C64"
      d="M8.91 6.4a.36.36 0 0 0-.23.08.34.34 0 0 0-.12.21l-.58 3.6-.54 3.31.54-3.3c.03-.18.18-.3.35-.3h1.7a3.46 3.46 0 0 0 3.48-3.25A3.3 3.3 0 0 0 12 6.4H8.91Z" />
    <path fill="#0070E0"
      d="M13.51 6.75A3.46 3.46 0 0 1 10.04 10H8.33a.35.35 0 0 0-.35.3l-.54 3.3-.33 2.08a.27.27 0 0 0 .06.22.29.29 0 0 0 .22.1h1.86a.4.4 0 0 0 .23-.08c.06-.06.1-.13.12-.21l.48-3.02a.35.35 0 0 1 .35-.29h1.1a3.46 3.46 0 0 0 3.44-2.88 2.62 2.62 0 0 0-1.46-2.77Z" />
    <path fill="#003087"
      d="M6.8 4a.36.36 0 0 0-.22.08.34.34 0 0 0-.12.21L5 13.28a.27.27 0 0 0 .07.22.29.29 0 0 0 .22.1h2.15l.54-3.3.58-3.6a.34.34 0 0 1 .12-.22.36.36 0 0 1 .23-.08H12c.56 0 1.07.13 1.51.35.03-1.5-1.24-2.75-3-2.75h-3.7Z" />
  </g>
  <defs>
    <clipPath id="a">
      <path fill="#fff" d="M5 4h10v12H5z" />
    </clipPath>
  </defs>
</svg>