<svg xmlns="http://www.w3.org/2000/svg" fill="none" viewBox="0 0 20 20">
  <rect width="20" height="20" fill="url(#a)" rx="4" />
  <path fill="#fff" fill-rule="evenodd"
    d="M16.8756 12.4189c-.2736.3513-.9435.6018-.9435.6018l-4.9843 1.8225v-1.344l3.668-1.3305c.4163-.1518.4802-.3664.1419-.4791-.3377-.113-.9493-.0807-1.3658.0719l-2.4441.8763v-1.3949l.1409-.0486s.7062-.2544 1.6994-.3664c.993-.1114 2.209.0152 3.1636.3836 1.0758.3461 1.1969.8562.9238 1.2074h.0001Zm-5.4533-2.2886V6.69299c0-.40366-.0732-.77522-.4452-.88046-.285-.09293-.4618.17635-.4618.57973V15l-2.28026-.7368V4c.96953.18319 2.38216.61637 3.14146.87693 1.9311.67496 2.5859 1.51504 2.5859 3.40783 0 1.84484-1.1187 2.54404-2.5401 1.84554Zm-7.37142 3.2284c-1.10444-.3166-1.28821-.9763-.78484-1.3564.46525-.3509 1.25646-.6151 1.25646-.6151l3.26956-1.1835v1.3493l-2.35285.8572c-.41561.1518-.47953.3667-.14176.4793.33798.1127.9498.0807 1.36605-.0715l1.12856-.4169v1.2071c-.07156.0129-.15131.0259-.22513.0385-1.12891.1878-2.33121.1094-3.51605-.2881v.0001Zm12.09832.5345c.1428 0 .2767.0563.3775.1602.0497.0503.0892.1101.116.176.0269.0659.0406.1366.0404.2079.0003.0714-.0134.1421-.0403.208-.0268.0659-.0663.1257-.1161.176-.0493.0508-.1081.0911-.173.1185-.0648.0274-.1343.0413-.2045.0411-.0702.0002-.1397-.0138-.2045-.0412s-.1236-.0676-.1729-.1184c-.0498-.0503-.0892-.1101-.116-.176-.0268-.0659-.0405-.1366-.0402-.208 0-.2998.2392-.5441.5336-.5441Zm-.4439.5441c0 .1207.0461.2344.1301.3192.041.0423.0899.0758.1437.0986.0539.0228.1117.0344.1701.0341.1177 0 .2306-.0476.3139-.1324.0832-.0847.13-.1996.1301-.3195 0-.121-.0459-.2346-.1301-.3198-.0411-.0423-.09-.0757-.1438-.0985-.0539-.0227-.1118-.0342-.1701-.0339-.0583-.0003-.1162.0112-.1701.034-.0539.0227-.1028.0562-.1438.0984-.0414.0419-.0742.0917-.0965.1466-.0224.0549-.0337.1138-.0335.1732Zm.6051-.2929c.0586.0262.0881.0767.0881.1485 0 .037-.0076.068-.0232.0923-.0112.0175-.027.0317-.0448.044.014.0084.0264.0185.0356.0302.0127.0167.02.0436.021.0802l.0028.0774c.001.0207.0022.0366.0054.0463.0032.0142.0092.0233.0169.0262l.0079.0039v.0352h-.1151l-.0038-.0067c-.0034-.0076-.006-.0155-.0076-.0236-.0024-.0157-.0038-.0315-.0041-.0473l-.0048-.0962c-.0013-.0333-.0124-.054-.0334-.0651-.0131-.0061-.0346-.009-.0639-.009h-.1619v.2479h-.1033v-.605h.276c.0451 0 .083.0068.1122.0208Zm-.2849.2437h.1647c.0331 0 .0595-.0061.0783-.0187.0172-.0127.0254-.0356.0254-.069 0-.0363-.0118-.0599-.0366-.0725-.0136-.0068-.0327-.0107-.0569-.0107h-.1749v.1709Z"
    clip-rule="evenodd" />
  <defs>
    <linearGradient id="a" x1="0" x2="20" y1="0" y2="20" gradientUnits="userSpaceOnUse">
      <stop stop-color="#6ABBED" />
      <stop offset="1" stop-color="#487FC5" />
    </linearGradient>
  </defs>
</svg>