<svg xmlns="http://www.w3.org/2000/svg" fill="none" viewBox="0 0 20 20">
  <rect width="20" height="20" fill="#EF7878" rx="4" />
  <path fill="#fff"
    d="M6.596 4.224A13.268 13.268 0 0 0 3.344 3C3.114 3.497 3 3.995 3 4.568c0 .842.268 1.607.727 2.219a7.732 7.732 0 0 1 2.869-2.563ZM16.273 6.825c.46-.612.727-1.377.727-2.218 0-.574-.115-1.11-.344-1.569-1.148.23-2.257.65-3.252 1.224a7.384 7.384 0 0 1 2.87 2.563ZM11.492 9.044a.343.343 0 0 0-.344.344c0 .076.038.153.076.191.115.153.306.306.497.344a.771.771 0 0 0 .115-.42V9.35c0-.153-.153-.306-.344-.306Z" />
  <path fill="#fff"
    d="M9.732 3.88C5.945 4.033 3 7.246 3 11.033v3.94c0 .688.574 1.262 1.262 1.262.689 0 1.263-.574 1.263-1.262V13.94h8.874v1.033c0 .688.574 1.262 1.262 1.262.689 0 1.263-.574 1.263-1.262V10.88c.038-3.94-3.214-7.115-7.192-7Zm3.366 5.852c-.153.306-.459.536-.803.612-.23.421-.65.727-1.186.727h-.153a.343.343 0 0 1-.344-.344c0-.191.153-.345.344-.345a.77.77 0 0 0 .421-.114 1.243 1.243 0 0 1-.497-.383c-.115-.115-.153-.306-.153-.497 0-.42.344-.803.803-.803.268 0 .497.114.65.306.192.23.306.535.306.841v.115a.903.903 0 0 0 .345-.306c.038-.077.153-.115.23-.038.076.038.114.153.037.23Z" />
</svg>