<svg xmlns="http://www.w3.org/2000/svg" fill="none" viewBox="0 0 20 20">
  <rect width="20" height="20" fill="#FFD06F" rx="4" />
  <path fill="#FFF6EB" fill-rule="evenodd"
    d="M5.85 5.75c-.05.15-.02.33.03.69l.64 4.52c.11.78.17 1.17.32 1.52.13.3.31.6.54.84.26.28.6.5 1.26.91l.94.6c.46.3.68.44.93.5.19.04.38.05.57.01a2.92 2.92 0 0 1 3.98-3.77l.09-.61.64-4.52c.06-.36.08-.54.04-.7a.73.73 0 0 0-.23-.34c-.12-.1-.3-.15-.64-.25l-3.8-1.09-.24-.06h-.17l-.23.06-3.8 1.09c-.36.1-.53.15-.65.25a.8.8 0 0 0-.22.35Z"
    clip-rule="evenodd" />
  <path fill="#28323F" fill-rule="evenodd"
    d="M9.34 5.1h.08c.02 0 .05 0 .18.04l3.8 1.09.38.11a.4.4 0 0 1 .13.07c.05.04.09.1.1.17a5.63 5.63 0 0 1-.04.53l-.54 3.8a3.28 3.28 0 0 0-2.81 4.23l-.19.12c-.47.3-.64.4-.8.44a1.1 1.1 0 0 1-.5 0 3.02 3.02 0 0 1-.8-.44l-.96-.6a6.01 6.01 0 0 1-1.18-.86c-.2-.21-.36-.46-.47-.73-.13-.3-.18-.63-.3-1.43L4.79 7.1a5.9 5.9 0 0 1-.04-.53.36.36 0 0 1 .11-.17 6.1 6.1 0 0 1 .5-.18l3.8-1.09c.14-.04.16-.04.19-.04Zm5.36 2.1-.53 3.72a3.28 3.28 0 1 1-3.26 4.9l-.08.05-.06.04c-.4.25-.68.43-.98.5-.27.06-.55.06-.82 0-.3-.07-.58-.25-.99-.5l-.05-.04-1-.63c-.61-.4-.99-.63-1.27-.94-.26-.28-.47-.6-.62-.95-.16-.4-.22-.83-.33-1.56L4.06 7.2A6.09 6.09 0 0 1 4 6.77c0-.13 0-.26.04-.4.06-.2.18-.38.34-.52.1-.09.22-.14.34-.19l.42-.13h.01l3.8-1.09h.03c.1-.03.18-.06.28-.07h.24c.1.01.18.04.28.07h.02l3.81 1.1.42.12a1.1 1.1 0 0 1 .68.71c.05.14.05.27.04.4 0 .12-.03.27-.05.43Zm-.95 4.42a2.55 2.55 0 1 0 0 5.1 2.55 2.55 0 0 0 0-5.1Zm1.74 1.7a.36.36 0 1 0-.56-.47l-1.57 1.88-.8-.81a.36.36 0 0 0-.52.51l1.09 1.1a.36.36 0 0 0 .54-.03l1.82-2.18ZM7.56 9.07a1.82 1.82 0 1 1 2.91 1.46V12a1.1 1.1 0 1 1-2.19 0v-1.46a1.82 1.82 0 0 1-.72-1.46Zm2.18 1.83h-.73v1.09a.36.36 0 0 0 .73 0v-1.1Zm-.36-.73a1.1 1.1 0 1 0 0-2.19 1.1 1.1 0 0 0 0 2.19Z"
    clip-rule="evenodd" />
</svg>