<svg xmlns="http://www.w3.org/2000/svg" fill="none" viewBox="0 0 20 20">
  <rect width="20" height="20" fill="#002615" rx="4" />
  <path fill="#C3F53C"
    d="M13.4 4c-.49-.01-1.08.1-1.75.34-.1.04-.18.1-.25.18-.68.68-1.34 1.41-1.96 2.16l-.05.06a.05.05 0 0 0 0 .06c0 .02.03.03.05.02l.07-.01c1-.23 2.02-.41 3.01-.53.07 0 .14.02.19.07.04.04.07.11.07.19a37.4 37.4 0 0 0 .1 3.18l.01.07c0 .02.02.04.04.04h.01c.02 0 .03 0 .04-.02l.04-.05c.56-.87 1.17-1.7 1.81-2.5.07-.09.1-.14.1-.22.2-1.4-.1-2.43-.38-2.7-.25-.22-.6-.33-1.14-.34Zm-1.54 2.83h-.06c-.96.15-1.93.35-2.89.6-.1.02-.15.09-.17.1-.72.93-1.4 1.9-2.02 2.9a.47.47 0 0 0-.03.18s.15 1.3.38 2.26C6.51 14.62 6 16.94 6 16.94v.04l.05.02h.32c.02 0 .04-.01.04-.03l.03-.07c.32-.97.7-1.92 1.11-2.85l.3-.66.23-.46v-.02a32.33 32.33 0 0 1 3.79-5.95l.04-.05a.06.06 0 0 0 0-.06.05.05 0 0 0-.05-.02Zm.45.4-.05.01-.04.05a31.91 31.91 0 0 0-4.27 7.03l-.03.06.01.05a.05.05 0 0 0 .05.01l.06-.02c.96-.43 1.94-.8 2.91-1.1.06-.02.1-.07.14-.12.42-.9 1.41-2.64 1.41-2.64.03-.03.02-.1.02-.1s-.17-2.07-.18-3.12v-.07a.05.05 0 0 0-.03-.04ZM9.78 14.2l-.08.03a19 19 0 0 0-1.97.8.26.26 0 0 0-.06.08l-.04.11-.23.6-.04.08v.05a.03.03 0 0 0 .05 0l.08-.04.67-.37h.01l1.33-.68s.05-.03.08-.09l.24-.52v-.04a.03.03 0 0 0-.04-.01Z" />
</svg>