<svg xmlns="http://www.w3.org/2000/svg" fill="none" viewBox="0 0 20 20">
  <rect width="20" height="20" fill="#F6F2F1" rx="4" />
  <path fill="#0D9DDA"
    d="M8.79 6.09a2.409 2.409 0 0 1 1.764-.777c.919 0 1.72.526 2.147 1.306.371-.17.782-.266 1.213-.266 1.657 0 3 1.39 3 3.108 0 1.717-1.344 3.108-3 3.108-.203 0-.4-.02-.59-.061a2.186 2.186 0 0 1-1.915 1.153 2.13 2.13 0 0 1-.959-.227C10.07 14.354 9.181 15 8.148 15c-1.033 0-1.995-.7-2.348-1.681a2.287 2.287 0 0 1-.478.051C4.04 13.37 3 12.292 3 10.96c0-.891.467-1.67 1.161-2.087a2.82 2.82 0 0 1-.222-1.101C3.939 6.24 5.149 5 6.642 5c.876 0 1.655.428 2.148 1.09Z" />
  <path fill="#fff"
    d="M5.016 10.186c-.009.023.003.028.006.033.026.019.054.033.08.05.141.076.275.1.415.1.286 0 .463-.156.463-.406v-.005c0-.231-.201-.316-.388-.377l-.025-.008c-.141-.046-.263-.087-.263-.184v-.005c0-.08.071-.142.183-.142.123 0 .269.042.362.096 0 0 .027.018.038-.01l.058-.16c.006-.016-.005-.027-.014-.034a.794.794 0 0 0-.41-.112h-.028c-.262 0-.445.162-.445.394v.004c0 .246.201.324.39.38l.03.01c.137.043.256.08.256.18v.004c0 .09-.078.158-.201.158-.049 0-.202 0-.368-.11l-.047-.03c-.008-.004-.03-.014-.038.013l-.057.16h.003ZM9.193 10.186c-.009.023.004.028.007.033.025.019.053.033.079.05.141.076.275.1.415.1.286 0 .463-.156.463-.406v-.005c0-.231-.2-.316-.388-.377l-.025-.008c-.141-.046-.263-.087-.263-.184v-.005c0-.08.072-.142.183-.142.123 0 .27.042.362.096 0 0 .027.018.038-.01l.058-.16c.006-.016-.005-.027-.014-.034a.794.794 0 0 0-.41-.112H9.67c-.262 0-.445.162-.445.394v.004c0 .246.201.324.39.38l.03.01c.137.043.256.08.256.18v.004c0 .09-.078.158-.2.158-.05 0-.203 0-.369-.11l-.047-.03c-.005-.003-.03-.012-.038.013l-.057.16h.003ZM12.284 9.431a.58.58 0 0 0-.108-.212.522.522 0 0 0-.183-.142.595.595 0 0 0-.255-.054.572.572 0 0 0-.256.054.52.52 0 0 0-.182.142.581.581 0 0 0-.109.212.968.968 0 0 0 0 .525.535.535 0 0 0 .546.406.595.595 0 0 0 .256-.051.504.504 0 0 0 .183-.142.58.58 0 0 0 .108-.213.964.964 0 0 0 .035-.262.956.956 0 0 0-.035-.263Zm-.239.263a.622.622 0 0 1-.076.333c-.05.078-.126.115-.231.115-.105 0-.181-.037-.231-.115a.623.623 0 0 1-.077-.333c0-.142.026-.253.075-.332.05-.078.125-.115.231-.115.107 0 .181.037.232.116.05.078.076.189.076.33" />
  <path fill="#fff" fill-rule="evenodd"
    d="M14.241 10.105c-.008-.024-.03-.014-.03-.014a.507.507 0 0 1-.111.032.84.84 0 0 1-.131.01.36.36 0 0 1-.273-.105c-.065-.07-.103-.183-.102-.334 0-.14.034-.242.092-.322.057-.08.146-.119.264-.119a.75.75 0 0 1 .253.038s.018.007.027-.018l.06-.167c.006-.019-.01-.026-.015-.028a.835.835 0 0 0-.159-.04 1.196 1.196 0 0 0-.178-.013c-.1 0-.188.017-.266.053a.556.556 0 0 0-.307.355.863.863 0 0 0-.04.264c0 .203.053.367.158.487.105.12.263.182.47.182a.933.933 0 0 0 .338-.063s.017-.008.01-.03l-.058-.165-.002-.003ZM15.46 9.386a.504.504 0 0 0-.257-.314.562.562 0 0 0-.231-.049c-.1 0-.192.018-.267.054a.527.527 0 0 0-.185.145.621.621 0 0 0-.11.216.98.98 0 0 0 .002.528.525.525 0 0 0 .32.348c.08.033.179.049.291.049.233 0 .356-.055.407-.083.009-.005.016-.014.007-.04l-.053-.15c-.008-.023-.03-.015-.03-.015-.058.022-.14.06-.332.06-.125 0-.218-.037-.276-.096-.059-.06-.088-.15-.094-.275h.807s.02 0 .022-.02c0-.01.028-.17-.024-.357l.003-.001Zm-.802.173a.474.474 0 0 1 .066-.195c.048-.078.124-.12.23-.12.107 0 .176.042.226.12a.418.418 0 0 1 .053.195h-.575ZM9.002 9.386a.504.504 0 0 0-.257-.314.562.562 0 0 0-.232-.049c-.1 0-.191.018-.266.054a.527.527 0 0 0-.186.145.622.622 0 0 0-.11.216.978.978 0 0 0 .002.528.525.525 0 0 0 .32.348c.08.033.18.049.292.049.233 0 .356-.055.406-.083.01-.005.017-.014.006-.04l-.053-.15c-.007-.023-.03-.015-.03-.015-.058.022-.14.06-.332.06-.125 0-.218-.037-.275-.096-.06-.06-.089-.15-.095-.275H9s.021 0 .023-.02c0-.01.027-.17-.025-.357l.005-.001Zm-.802.173a.474.474 0 0 1 .065-.195.255.255 0 0 1 .232-.12.25.25 0 0 1 .226.12.419.419 0 0 1 .054.195H8.2Z"
    clip-rule="evenodd" />
  <path fill="#fff"
    d="M6.777 9.519a1.473 1.473 0 0 0-.126-.003.767.767 0 0 0-.2.026.514.514 0 0 0-.169.08.4.4 0 0 0-.117.136.403.403 0 0 0-.042.19c0 .072.012.138.036.19.024.051.06.095.105.13.044.032.1.057.164.073a.992.992 0 0 0 .214.022c.082 0 .165-.008.245-.02.079-.015.176-.035.202-.041l.056-.014c.02-.005.018-.027.018-.027v-.758c0-.165-.044-.289-.129-.366-.085-.076-.208-.114-.37-.114-.06 0-.158.008-.216.02 0 0-.176.035-.248.095 0 0-.015.009-.007.032l.057.158c.008.02.026.014.026.014l.014-.006c.155-.086.352-.084.352-.084.086 0 .153.018.199.053.044.034.067.087.067.197v.034a1.772 1.772 0 0 0-.133-.016l.002-.001Zm-.321.581a.19.19 0 0 1-.047-.048.208.208 0 0 1-.025-.108c0-.074.023-.125.072-.161 0 0 .07-.063.234-.06.116 0 .22.02.22.02v.376s-.103.022-.218.03c-.165.009-.238-.049-.236-.049Z" />
  <path fill="#fff" fill-rule="evenodd"
    d="M13.28 9.092c.007-.019-.005-.028-.011-.03a.728.728 0 0 0-.136-.023.392.392 0 0 0-.208.034.383.383 0 0 0-.137.104v-.102c0-.014-.01-.025-.023-.025h-.207c-.014 0-.023.01-.023.025v1.236c0 .014.01.025.025.025h.211c.014 0 .024-.011.024-.025v-.617c0-.083.01-.166.028-.217a.31.31 0 0 1 .07-.122.23.23 0 0 1 .099-.061.36.36 0 0 1 .196-.005c.015.002.024-.008.029-.022.014-.037.053-.151.06-.173l.004-.002ZM11.292 8.52a.563.563 0 0 0-.189-.028.45.45 0 0 0-.34.127.678.678 0 0 0-.162.375l-.009.056h-.183s-.023 0-.027.023l-.03.172c-.002.018.004.027.025.027h.178l-.18 1.036a1.29 1.29 0 0 1-.05.204.431.431 0 0 1-.056.118c-.021.026-.04.047-.073.057a.292.292 0 0 1-.16.007c-.02-.003-.028-.008-.044-.014 0 0-.02-.008-.029.014l-.059.168c-.006.016.003.03.012.033a.52.52 0 0 0 .073.022c.044.011.082.011.119.011.075 0 .142-.01.198-.031a.377.377 0 0 0 .149-.106.558.558 0 0 0 .105-.186 1.72 1.72 0 0 0 .072-.278l.18-1.057h.267s.023 0 .027-.023l.03-.172c.002-.017-.004-.027-.025-.027h-.257s.013-.098.042-.187a.252.252 0 0 1 .057-.09.185.185 0 0 1 .067-.043.298.298 0 0 1 .086-.012.41.41 0 0 1 .108.017c.026.008.03 0 .035-.013l.063-.173c.006-.019-.01-.027-.015-.028l-.005.001ZM7.69 10.31c0 .015-.01.026-.023.026h-.214c-.014 0-.023-.011-.023-.025V8.544c0-.014.009-.025.023-.025h.214c.014 0 .023.01.023.025v1.767Z"
    clip-rule="evenodd" />
</svg>