<svg xmlns="http://www.w3.org/2000/svg" fill="none" viewBox="0 0 20 20">
  <rect width="20" height="20" fill="#14299F" rx="4" />
  <path fill="#fff"
    d="M1.333 11.07v-.178H2v.227c0 .03.006.06.018.087a.209.209 0 0 0 .055.071.226.226 0 0 0 .176.052.228.228 0 0 0 .153-.034.203.203 0 0 0 .088-.123.27.27 0 0 0-.005-.174c-.128-.304-1.009-.441-1.12-.915a.784.784 0 0 1-.005-.315c.069-.38.425-.518.868-.518.352 0 .837.077.837.587v.165h-.618v-.145a.188.188 0 0 0-.014-.084.199.199 0 0 0-.05-.071.215.215 0 0 0-.168-.056.219.219 0 0 0-.147.038.194.194 0 0 0-.08.12.296.296 0 0 0 .004.122c.072.27 1.013.416 1.116.906.026.127.027.257.004.384-.06.388-.43.534-.876.534-.468 0-.902-.158-.902-.68Zm8.066-.008v-.178h.657v.223a.194.194 0 0 0 .017.086c.012.027.03.052.053.072a.233.233 0 0 0 .174.053.226.226 0 0 0 .152-.034.201.201 0 0 0 .088-.12.258.258 0 0 0-.004-.17c-.124-.3-.996-.438-1.108-.91a.765.765 0 0 1-.004-.312c.07-.376.426-.514.86-.514.347 0 .828.081.828.583v.162h-.614V9.86a.188.188 0 0 0-.062-.154.214.214 0 0 0-.165-.056.21.21 0 0 0-.145.034.187.187 0 0 0-.079.12.296.296 0 0 0 .005.12c.068.272 1 .413 1.103.899a.998.998 0 0 1 .005.38c-.06.388-.426.53-.867.53-.465 0-.894-.158-.894-.671Zm2.353.086a.861.861 0 0 1-.004-.154V9.319h.627v1.727c0 .03 0 .06.004.09a.23.23 0 0 0 .088.122.255.255 0 0 0 .297 0 .229.229 0 0 0 .088-.123.59.59 0 0 0 .004-.089V9.32h.627v1.674c0 .045-.004.13-.004.154-.043.438-.408.579-.863.579s-.82-.142-.864-.579Zm5.162-.025a1.14 1.14 0 0 1-.008-.154v-.983c0-.04.004-.113.008-.154.056-.436.43-.574.872-.574.438 0 .825.138.868.575.005.05.006.102.004.153v.076h-.627v-.128c0-.03-.003-.06-.008-.09a.244.244 0 0 0-.094-.122.271.271 0 0 0-.307 0 .244.244 0 0 0-.093.123.456.456 0 0 0-.009.11v1.067c0 .03 0 .06.004.089.015.053.05.1.098.13a.258.258 0 0 0 .164.04.246.246 0 0 0 .161-.04.22.22 0 0 0 .097-.219v-.34h-.253v-.34h.876v.627c0 .051-.003.103-.009.154-.043.424-.433.574-.872.574-.438 0-.829-.15-.872-.574Zm-8.74.53-.016-2.16-.43 2.16h-.627l-.425-2.16-.017 2.16H6.04l.052-2.33h1.01l.313 1.82.313-1.82h1.01l.055 2.33h-.618Zm-3.297 0-.335-2.16-.344 2.16h-.67l.455-2.33h1.104l.456 2.33h-.666Zm10.496-.024L14.75 9.69l.034 1.937h-.61V9.323h.92l.583 1.877-.034-1.877h.614v2.306h-.884Z" />
</svg>