<svg xmlns="http://www.w3.org/2000/svg" fill="none" viewBox="0 0 20 20">
  <rect width="20" height="20" fill="#2c7cef" rx="4" />
  <path fill="#fefefe"
    d="M9.85 3.004h.016a5.05 5.05 0 0 1 5.231 4.763c.016.267.008.577.008.849v2.572c0 .292.006.571-.019.863a5 5 0 0 1-1.263 2.924c-.933 1.045-2.17 1.605-3.56 1.684-1.293.072-2.613-.423-3.577-1.282A5.04 5.04 0 0 1 5.009 11.9c-.015-.265-.007-.575-.007-.845V8.463c0-.28-.006-.555.017-.834a5.02 5.02 0 0 1 1.266-2.942C7.221 3.64 8.457 3.08 9.849 3.004" />
  <path fill="#c3d0ec"
    d="M9.748 4.077c.085-.01.278-.007.367-.006a4.1 4.1 0 0 1 2.379.784c.886.64 1.486 1.601 1.67 2.678.07.437.06.751.06 1.187v2.239c0 .186.007.435-.003.617a4.133 4.133 0 0 1-.794 2.3 4.16 4.16 0 0 1-2.296 1.58c-.297.078-.463.087-.751.133-.192.003-.435.01-.622-.002a4.15 4.15 0 0 1-2.345-.932 4.15 4.15 0 0 1-1.505-2.79c-.033-.334-.026-.605-.026-.938V8.776c0-.383-.009-.729.042-1.11a4.14 4.14 0 0 1 .911-2.082 4.16 4.16 0 0 1 2.913-1.507" />
  <path fill="#fefefe"
    d="M6.135 7.98c-.018-.036.022-.294.032-.353a3.95 3.95 0 0 1 .884-1.919A3.93 3.93 0 0 1 9.749 4.33a3.9 3.9 0 0 1 1.982.363c.083.04.275.133.34.189.05-.01.106.039.15.067.602.391 1.19 1.062 1.46 1.74.154.356.254.733.297 1.12.03.264.023.59.024.86L14 10.038l.002 1.038c0 .127.005.592-.028.69a3.954 3.954 0 0 1-1.55 2.752 3.94 3.94 0 0 1-2.937.753c-.841-.12-1.505-.471-2.132-1.029a5 5 0 0 1-.408-.448 3.94 3.94 0 0 1-.813-2.05c-.03-.332-.018-.829-.017-1.17-.02-.053-.012-.247-.012-.317.002-.697-.005-1.395.002-2.092 0-.045-.008-.163.028-.185" />
  <path fill="url(#a)"
    d="M6.135 7.98c-.018-.036.022-.294.032-.353a3.95 3.95 0 0 1 .884-1.919A3.93 3.93 0 0 1 9.749 4.33a3.9 3.9 0 0 1 1.982.363c.083.04.275.133.34.189.05-.01.106.039.15.067.602.391 1.19 1.062 1.46 1.74a1 1 0 0 0-.03.103c-.105.085-.227.143-.342.214-.059.036-.095.117-.166.14-.012.005-.043.023-.056.03l-.004.015c-.122.006-.244 0-.365.005-.227.294-.444.602-.666.901-.225.302-.404.595-.698.84-.23.19-.45.225-.728.307l-.864.253-2.256.667-.908.265c-.151.045-.334.094-.48.145-.021-.052-.013-.246-.013-.316.002-.697-.005-1.395.002-2.092 0-.045-.008-.163.028-.185" />
  <path fill="#34a4e2"
    d="M6.135 7.98c-.018-.036.022-.294.032-.353a3.95 3.95 0 0 1 .884-1.919A3.93 3.93 0 0 1 9.749 4.33a3.9 3.9 0 0 1 1.982.363c.083.04.275.133.34.189-.881.2-1.543.626-2.102 1.335-.162 0-.307-.002-.469.016-.65.071-1.256.364-1.716.829a2.8 2.8 0 0 0-.541.767c-.384-.033-.75-.014-1.108.152" />
  <path fill="#2c7cf0"
    d="M9.75 11.941c.636.012 1.304.002 1.943.002h.817c.167 0 .351.004.517-.005q.288-.017.571-.079c.081-.017.317-.094.376-.093a3.953 3.953 0 0 1-1.55 2.752 3.94 3.94 0 0 1-2.937.753c-.841-.12-1.504-.471-2.132-1.029l.28-.27c.11.017.267.024.382.027.95.03 2.232.09 3.084-.369-.001-.11.003-.222 0-.332-.002-.039-.005-.038-.027-.058-.449-.469-1.134-.749-1.76-.879q.22-.207.436-.42" />
  <path fill="url(#b)"
    d="m13.083 7.19.005-.015c.012-.007.043-.025.056-.03.07-.023.106-.104.165-.14.115-.071.237-.13.342-.214a1 1 0 0 1 .03-.104c.154.357.254.734.297 1.12.03.265.023.59.024.86L14 10.038l.002 1.039c0 .127.005.592-.028.69-.06-.001-.295.076-.376.094a4 4 0 0 1-.57.078c-.167.01-.351.005-.518.005h-.817c-.639 0-1.306.01-1.943-.002q.05-.053.103-.102c.206-.189.401-.394.61-.58.536.064 1.585.115 2.06-.143 0-.07.013-.203-.022-.251-.226-.319-.644-.489-1-.606.32-.324.676-.633.994-.957.067-.068.264-.587.312-.704q.295-.702.58-1.407a8 8 0 0 1-.304 0" />
  <path fill="#c3d0ec"
    d="M8.822 12.838c.165.033.38.056.554.083q.492.08.982.179c.104.02.653.148.716.14.022.02.025.02.026.058.004.11 0 .223.001.332-.852.458-2.134.399-3.084.37a4 4 0 0 1-.383-.028l.784-.752c.108-.104.293-.292.404-.382M11.296 10.462q.295.066.582.165.125.043.248.09c.06.024.33.146.375.148.035.048.022.181.022.25-.475.26-1.524.207-2.06.144z" />
  <defs>
    <linearGradient id="a" x1="10.406" x2="8.657" y1="9.479" y2="6.451"
      gradientUnits="userSpaceOnUse">
      <stop stop-color="#98d0ea" />
      <stop offset="1" stop-color="#f7f6f4" />
    </linearGradient>
    <linearGradient id="b" x1="13.335" x2="11.09" y1="12.098" y2="8.195"
      gradientUnits="userSpaceOnUse">
      <stop stop-color="#37aae1" />
      <stop offset="1" stop-color="#add9ed" />
    </linearGradient>
  </defs>
</svg>