<svg xmlns="http://www.w3.org/2000/svg" fill="none" viewBox="0 0 20 20">
  <rect width="20" height="20" fill="#5433EB" rx="4" />
  <path fill="#fff"
    d="M4.67 9.64c-.57-.13-.82-.18-.82-.4 0-.22.17-.32.51-.32.3 0 .52.13.68.4.01.02.04.03.06.02L5.73 9a.04.04 0 0 0 .02-.03.05.05 0 0 0 0-.03C5.49 8.46 5 8.2 4.36 8.2 3.52 8.2 3 8.63 3 9.32c0 .73.63.91 1.2 1.04.56.13.81.18.81.4 0 .23-.18.34-.55.34a.75.75 0 0 1-.43-.12.8.8 0 0 1-.3-.36.05.05 0 0 0-.03-.02h-.03l-.64.33a.05.05 0 0 0-.02.03v.03c.25.53.77.82 1.46.82.87 0 1.4-.42 1.4-1.13 0-.7-.64-.91-1.2-1.04ZM8.06 8.2a1.22 1.22 0 0 0-.9.37c-.02.02-.04 0-.04-.02v-1.5A.05.05 0 0 0 7.1 7a.04.04 0 0 0-.03 0h-.79l-.03.01-.01.04v4.68c0 .03.02.05.04.05h.8c.02 0 .04-.02.04-.05V9.68c0-.4.29-.7.68-.7a.63.63 0 0 1 .49.2.68.68 0 0 1 .2.5v2.05c0 .03.01.05.04.05h.79c.02 0 .04-.02.04-.05V9.68c0-.87-.54-1.48-1.3-1.48Zm2.91-.13c-.43 0-.83.14-1.12.33-.02.02-.03.05-.02.07l.35.62c.01.02.04.03.06.02.22-.14.47-.22.73-.21.7 0 1.2.5 1.2 1.18 0 .57-.4 1-.92 1-.42 0-.71-.26-.71-.62 0-.2.08-.38.3-.5a.05.05 0 0 0 .02-.04V9.9l-.33-.58a.04.04 0 0 0-.03-.02h-.03c-.22.08-.42.24-.55.44-.13.2-.2.45-.2.7 0 .83.64 1.45 1.53 1.45 1.03 0 1.78-.75 1.78-1.83 0-1.15-.87-2-2.06-2Zm4.38.13c-.4 0-.76.15-1.02.42a.02.02 0 0 1-.04-.01v-.33l-.01-.03-.04-.02h-.77c-.01 0-.02 0-.03.02l-.01.03v4.67c0 .03.02.05.04.05h.8c.02 0 .04-.02.04-.05v-1.53c0-.02.02-.03.04-.02.27.26.63.4 1 .4.92 0 1.65-.78 1.65-1.8s-.73-1.8-1.65-1.8ZM15.2 11c-.53 0-.93-.44-.93-1.02 0-.58.4-1.01.93-1.01s.93.43.93 1.01c0 .6-.4 1.02-.93 1.02Z" />
</svg>