<svg xmlns="http://www.w3.org/2000/svg" fill="none" viewBox="0 0 20 20">
  <rect width="20" height="20" fill="#fff" rx="4" />
  <path fill="#95BF47"
    d="M13.86 6.21c0-.06-.06-.09-.1-.1h-.85l-.76-.74c-.06-.07-.2-.05-.25-.03l-.34.1a2.26 2.26 0 0 0-.17-.4c-.24-.46-.6-.7-1.03-.7h-.08l-.04-.05A.9.9 0 0 0 9.52 4c-.55.01-1.1.41-1.56 1.13-.32.5-.55 1.14-.62 1.62l-1.1.34c-.31.1-.32.11-.37.42L5 14.25l7.06 1.22 3.06-.76-1.26-8.5Zm-2.66-.66-.54.17a3.44 3.44 0 0 0-.17-1c.42.07.63.55.71.83Zm-.91.29L9.1 6.2c.11-.43.33-.86.6-1.15.1-.1.23-.22.4-.29.15.32.18.77.18 1.08Zm-.76-1.47a.6.6 0 0 1 .33.1c-.15.07-.3.18-.43.33-.35.38-.63.96-.73 1.53l-.97.3c.2-.9.95-2.23 1.8-2.26Z" />
  <path fill="#5E8E3E"
    d="m13.76 6.12-.85-.02-.76-.73a.13.13 0 0 0-.1-.04v10.14l3.07-.76-1.26-8.5a.12.12 0 0 0-.1-.1Z" />
  <path fill="#fff"
    d="m10.36 7.69-.35 1.33s-.4-.18-.87-.15c-.69.04-.7.47-.69.59.04.6 1.6.72 1.69 2.12.07 1.1-.58 1.84-1.52 1.9-1.12.07-1.74-.59-1.74-.59l.24-1.01s.62.47 1.11.44a.44.44 0 0 0 .43-.47c-.05-.78-1.32-.74-1.4-2-.07-1.08.64-2.16 2.19-2.26.6-.06.91.1.91.1Z" />
</svg>