<svg xmlns="http://www.w3.org/2000/svg" fill="none" viewBox="0 0 20 20">
  <rect width="20" height="20" fill="#000" rx="4" />
  <path fill="#fff"
    d="m2 10.4467 1.0613-.0913c.06545.3265.19548.5664.39052.7201.19637.1527.46153.2285.79481.2285.35169 0 .61774-.0691.79813-.2039.17884-.1389.26693-.297.26693-.4775 0-.1174-.03772-.2197-.11183-.3022-.07544-.0804-.20635-.1537-.39296-.2115-.1287-.0447-.42026-.11676-.87469-.22254-.58601-.13177-.99739-.29704-1.23148-.49115-.33239-.27552-.49903-.61154-.49903-1.00523 0-.25339.07633-.49297.23542-.71123.1551-.22151.38209-.39024.67765-.50698C3.40922 7.05888 3.76224 7 4.18272 7c.67943 0 1.1911.13786 1.53614.41115.34393.27856.52344.64423.5403 1.10329l-1.09879.03391c-.0486-.25055-.14578-.4351-.30133-.5484-.15266-.11248-.38365-.16852-.68941-.16852-.3173 0-.56626.05969-.74466.18131-.11716.07837-.17462.17867-.17462.30699 0 .11979.05347.21847.16242.30253.1369.10882.47307.21927 1.00449.33277.53276.11593.9255.23593 1.17934.36019.25473.12425.45509.29318.5991.50921.1429.21057.21723.47957.21723.79547 0 .2847-.08742.5543-.25983.8026-.17263.2479-.41738.4355-.7329.5572-.31642.1185-.71005.1819-1.18112.1819-.6863 0-1.21484-.1468-1.58184-.4402-.36657-.2924-.58579-.7173-.65724-1.2747Z" />
  <path fill="#fff"
    d="M6.27426 8.45698h1.1019l.94126 2.56432.91706-2.56432h1.07412L8.92828 11.9291l-.25273.6337c-.09142.2117-.17752.3715-.25984.4826-.08232.1131-.17751.2042-.28468.2721-.10917.0674-.24097.1218-.39496.1601-.15754.0388-.33395.0608-.53143.0608-.19903 0-.39563-.0218-.58911-.0608l-.0861-.7498c.16154.0313.30821.0467.43823.0467.24009 0 .41871-.0649.53343-.1943.11604-.1328.20436-.3003.26582-.5017L6.27426 8.45698Zm7.64734 3.61222h-1.0375v-1.8387c0-.38718-.0218-.63712-.0672-.75244-.0458-.11411-.1159-.20304-.2182-.26639-.1-.06274-.2232-.09482-.3641-.09482-.1824 0-.3441.0463-.4897.13705-.146.09015-.2441.20872-.2975.35593-.0524.15085-.0804.42477-.0804.82897v1.6302h-1.0353V8.45699h.959v.52911c.345-.39998.7784-.59753 1.3009-.59753.2321 0 .4425.03857.6338.11146.1914.07797.3372.17218.4333.29136.0972.11796.1655.25115.2044.39917.0383.14699.0583.36323.0583.64037l.0002 2.23827Zm.0061-1.8442c0-.32016.0863-.62431.2571-.92297.1702-.29562.4123-.52262.7258-.67997.3133-.15715.6633-.23329 1.0491-.23329.5982 0 1.0864.17664 1.4667.53155.3821.35491.5736.80341.5736 1.34428 0 .5464-.1933.9969-.5782 1.3571-.3848.3582-.8707.5401-1.455.5401-.3608 0-.7051-.0766-1.0342-.2256-.3282-.1498-.5773-.3687-.7475-.659-.1711-.2875-.2574-.6384-.2574-1.0522Zm1.0619.0481c0 .3604.0923.6362.2798.8234.1864.1926.4156.2887.6894.2887.2736 0 .5026-.0961.689-.2887.1837-.1872.276-.466.276-.8278 0-.35675-.0923-.62984-.276-.81866-.1864-.18882-.4154-.28689-.689-.28689-.2738 0-.503.09807-.6894.28689-.1875.18882-.2798.46475-.2798.82306Z" />
</svg>