<svg xmlns="http://www.w3.org/2000/svg" fill="none" viewBox="0 0 20 20">
  <rect width="20" height="20" fill="#fff" rx="4" />
  <path fill="#242424"
    d="M5.5 11.48a1.5 1.5 0 1 0 0-3 1.5 1.5 0 0 0 0 3Zm4.5 0a1.5 1.5 0 1 0 0-3 1.5 1.5 0 0 0 0 3Z" />
  <path fill="#242424"
    d="M5.5 15.97a1.5 1.5 0 1 0 0-3 1.5 1.5 0 0 0 0 3Zm9 0a1.5 1.5 0 1 0 0-3 1.5 1.5 0 0 0 0 3Z"
    opacity=".2" />
  <path fill="#242424"
    d="M10 15.97a1.5 1.5 0 1 0 0-3 1.5 1.5 0 0 0 0 3Zm4.5-4.49a1.5 1.5 0 1 0 0-3 1.5 1.5 0 0 0 0 3Z" />
  <path fill="#242424"
    d="M5.5 7a1.5 1.5 0 1 0 0-3 1.5 1.5 0 0 0 0 3ZM10 7a1.5 1.5 0 1 0 0-3 1.5 1.5 0 0 0 0 3Zm4.5 0a1.5 1.5 0 1 0 0-3 1.5 1.5 0 0 0 0 3Z"
    opacity=".2" />
</svg>