<svg xmlns="http://www.w3.org/2000/svg" fill="none" viewBox="0 0 20 20">
  <rect width="20" height="20" fill="#3B3A38" rx="4" />
  <g clip-path="url(#a)">
    <path fill="#EE5128" d="M10 17a7 7 0 1 0 0-14 7 7 0 0 0 0 14Z" />
    <mask id="b" width="15" height="15" x="2" y="2" maskUnits="userSpaceOnUse"
      style="mask-type:luminance">
      <path fill="#fff" d="M10 17a7 7 0 1 0 0-14 7 7 0 0 0 0 14Z" />
    </mask>
    <g fill-rule="evenodd" clip-rule="evenodd" mask="url(#b)">
      <path fill="#FAB314" d="m2.16 17.86 15.7-15.7 6.5 6.5-15.7 15.7-6.5-6.5Z" />
      <path fill="#7CBB41" d="M10 2.16v6.68l.02 1.16 6-6-3.42-1.84H10Z" />
      <path fill="#279AD5" d="M18.9 10h-8.88l6.4-6.4L18.9 10Z" />
    </g>
    <path fill="#000" d="M10 16.17a6.17 6.17 0 1 0 0-12.34 6.17 6.17 0 0 0 0 12.34Z" />
    <mask id="c" width="14" height="14" x="3" y="3" maskUnits="userSpaceOnUse"
      style="mask-type:luminance">
      <path fill="#fff" d="M10 16.17a6.17 6.17 0 1 0 0-12.34 6.17 6.17 0 0 0 0 12.34Z" />
    </mask>
    <g mask="url(#c)">
      <path fill="#fff" d="M10 33.03a10.67 10.67 0 1 0 0-21.35 10.67 10.67 0 0 0 0 21.35Z" />
      <path fill="#FAB314" fill-rule="evenodd"
        d="M10.08 14.21a.16.16 0 0 1-.16 0 4.24 4.24 0 0 1-1.36-1.24 4.22 4.22 0 0 1-.62-1.57.23.23 0 0 1 .18-.18c.24-.05.65-.15 1-.32.35-.18.62-.42.77-.56a.16.16 0 0 1 .22 0 3.28 3.28 0 0 0 1.85.91.23.23 0 0 1 .1.24c-.07.32-.25.94-.63 1.48a4.24 4.24 0 0 1-1.35 1.24Z"
        clip-rule="evenodd" />
      <path fill="#fff" fill-rule="evenodd"
        d="M9.86 6.68a.16.16 0 0 0 .28 0c.27-.48.7-.85 1.24-1 1.17-.3 2.43.55 2.8 1.93.36 1.38-.29 2.75-1.46 3.07-1 .26-2.05-.32-2.58-1.34a.16.16 0 0 0-.29 0c-.52 1.02-1.57 1.6-2.57 1.34-1.17-.32-1.83-1.7-1.46-3.07.37-1.38 1.63-2.24 2.8-1.92.54.14.96.5 1.24 1Z"
        clip-rule="evenodd" />
      <path fill="#000"
        d="M8.75 9.33a.68.68 0 1 0 0-1.36.68.68 0 0 0 0 1.36Zm2.5 0a.68.68 0 1 0 0-1.36.68.68 0 0 0 0 1.36Z" />
    </g>
  </g>
  <defs>
    <clipPath id="a">
      <path fill="#fff" d="M3 3h14v14H3z" />
    </clipPath>
  </defs>
</svg>