<svg xmlns="http://www.w3.org/2000/svg" fill="none" viewBox="0 0 20 20">
  <rect width="20" height="20" fill="#0F1031" rx="4" />
  <path fill="#AB957A"
    d="m13.32 5.445-.919.444-.006 4.573c-.002 2.516 0 4.573.002 4.573.004 0 .428-.207.94-.46l.934-.458v-4.56c0-2.508-.007-4.56-.015-4.557-.01 0-.43.2-.936.445Zm-6.416.011L6 5.886v9.126l.13-.06.925-.437.793-.377.007-1.913.004-1.916h4.344v-.188H9.317c-2.858-.002-2.889-.002-2.816-.042.071-.04.155-.04 2.889-.042h2.813V9.87l-2.636-.004c-2.525-.006-2.636-.008-2.57-.044.062-.033.227-.035 2.637-.035h2.569v-.168l-2.385-.004L7.43 9.61l.079-.048.08-.046h4.613v-.188H7.859V7.173c0-1.71-.006-2.154-.025-2.152-.015.002-.435.196-.93.435Z" />
</svg>