<svg xmlns="http://www.w3.org/2000/svg" fill="none" viewBox="0 0 20 20">
  <rect width="20" height="20" fill="#000" rx="4" />
  <path fill="#00F2EA"
    d="M8.94 8.52V8a3.9 3.9 0 0 0-.59-.04C5.95 7.96 4 9.79 4 12.04c0 1.38.74 2.6 1.86 3.35a3.94 3.94 0 0 1-1.17-2.78c0-2.23 1.9-4.04 4.25-4.09Z" />
  <path fill="#00F2EA"
    d="M9.06 14.33c1.01 0 1.84-.8 1.88-1.81V3.57h1.64a3.1 3.1 0 0 1-.05-.57h-2.24v8.95a1.88 1.88 0 0 1-2.76 1.6 1.89 1.89 0 0 0 1.53.78Zm6.59-7.72v-.5c-.6 0-1.2-.18-1.7-.5.44.5 1.04.85 1.7 1Z" />
  <path fill="#FF004F"
    d="M13.88 5.73a3.06 3.06 0 0 1-.76-2.02h-.6a3.1 3.1 0 0 0 1.36 2.02ZM8.35 10.1a1.87 1.87 0 0 0-1.6 2.83c.17.3.43.53.73.69-.23-.32-.36-.7-.36-1.09a1.87 1.87 0 0 1 2.44-1.78V8.5A4.13 4.13 0 0 0 9 8.45h-.1v1.74a1.86 1.86 0 0 0-.55-.09Z" />
  <path fill="#FF004F"
    d="M15.35 6.9v1.72c-1.12 0-2.2-.34-3.11-1v4.53a4.1 4.1 0 0 1-6.48 3.35 4.12 4.12 0 0 0 7.13-2.79V8.2c.9.65 2 1 3.11 1V6.96c-.22 0-.44-.02-.65-.07Z" />
  <path fill="#fff"
    d="M12.46 12V7.47c.94.65 2.05 1 3.19 1V6.74a3.2 3.2 0 0 1-1.74-1 3.1 3.1 0 0 1-1.4-2.03h-1.67v8.92a1.94 1.94 0 0 1-3.48 1.02A1.87 1.87 0 0 1 6.33 12a1.9 1.9 0 0 1 2.49-1.79V8.47a4.16 4.16 0 0 0-4.11 4.1c0 1.07.43 2.05 1.13 2.78.7.49 1.55.75 2.41.75a4.16 4.16 0 0 0 4.21-4.1Z" />
</svg>