<svg xmlns="http://www.w3.org/2000/svg" fill="none" viewBox="0 0 20 20">
  <rect width="20" height="20" fill="#D6212A" rx="4" />
  <path fill="#fff"
    d="M8.15434 8.84921c.24474.02896.3789.10201.56843.248.04577.03483.09155.06965.13871.10553.03427.02684.06855.05368.10386.08133-.08231.17085-.18867.32022-.30258.47385-1.35821 1.84218-1.57463 3.57518-1.72493 5.83168h6.95147v.8697c-2.5807.0179-5.16147.0359-7.8204.0543-.08498-.1594-.06654-.3016-.06766-.4796-.00037-.0562-.00037-.0562-.00074-.1136-.00058-.1227-.00057-.2455-.00039-.3682.00004-.0419.00007-.0837.00011-.1269.00568-2.5019.58978-4.5379 2.15412-6.57609Zm4.46056-5.21834c.9506.63622 1.5027 1.47854 1.7187 2.54786.1672 1.01251-.1266 2.01108-.7487 2.84566-.4058.48352-.8902.87365-1.4914 1.12941h-.1159c-.0678-.1244-.1354-.24902-.2027-.37371-.0193-.03538-.0387-.07077-.0586-.10723-.1442-.26775-.1442-.26775-.1442-.38878.0974-.06498.1983-.12541.3005-.18346.6574-.37488 1.1068-.8945 1.3263-1.59209.1956-.76782.0661-1.5341-.3487-2.21295-.4717-.68865-1.0959-1.06534-1.9429-1.2634-.8232-.11719-1.60027.03251-2.28953.46841-.34602.25465-.63226.5218-.86893.86973-.1026-.06113-.20518-.12229-.30775-.18346-.05712-.03405-.11425-.06811-.17311-.10319-.11076-.06649-.22074-.13413-.33014-.20257.09635-.4967.64075-.90071 1.04271-1.19587 1.38713-.89299 3.22365-.91533 4.63435-.05436Z" />
</svg>