<svg xmlns="http://www.w3.org/2000/svg" fill="none" viewBox="0 0 20 20">
  <rect width="20" height="20" fill="#000" rx="4" />
  <path fill="#fff"
    d="M3.805 10.57c.06.162.142.3.246.415.105.115.229.203.372.264.144.06.3.09.468.09a1.13 1.13 0 0 0 .836-.36 1.23 1.23 0 0 0 .25-.412c.058-.159.088-.337.088-.533V7h.717v4.916h-.71v-.457c-.16.174-.347.307-.563.4a1.74 1.74 0 0 1-.7.141 1.85 1.85 0 0 1-.713-.137 1.667 1.667 0 0 1-.574-.39 1.844 1.844 0 0 1-.382-.607c-.093-.236-.14-.5-.14-.79V7h.717v3.034c0 .196.03.375.088.537ZM8.017 7v1.79c.16-.163.344-.293.553-.389a1.62 1.62 0 0 1 .683-.144c.254 0 .493.05.716.147a1.829 1.829 0 0 1 .97.998c.095.23.143.473.143.73a1.899 1.899 0 0 1-.532 1.32 1.827 1.827 0 0 1-.58.4 1.757 1.757 0 0 1-.717.148 1.64 1.64 0 0 1-.686-.144 1.812 1.812 0 0 1-.557-.39v.45h-.682V7h.69Zm.079 3.617a1.224 1.224 0 0 0 .638.66c.145.065.302.098.47.098.165 0 .32-.033.465-.098.146-.066.272-.155.379-.267.107-.112.192-.244.256-.393.063-.15.095-.312.095-.485a1.295 1.295 0 0 0-.351-.885 1.148 1.148 0 0 0-.843-.358 1.187 1.187 0 0 0-.846.358 1.262 1.262 0 0 0-.356.885c0 .173.031.335.093.485Zm3.375-1.208c.091-.225.216-.423.375-.594.16-.17.348-.305.567-.403.218-.099.455-.148.71-.148.25 0 .482.047.696.14.214.094.398.224.553.39.155.166.275.363.362.59.086.227.13.474.13.741v.232H12.03a1.227 1.227 0 0 0 .392.727 1.122 1.122 0 0 0 .761.291c.414 0 .749-.175 1.004-.527l.498.38a1.8 1.8 0 0 1-1.502.766 1.888 1.888 0 0 1-.727-.142 1.766 1.766 0 0 1-.587-.393 1.87 1.87 0 0 1-.535-1.334c0-.253.045-.492.136-.716Zm.959-.278a1.203 1.203 0 0 0-.386.664h2.123a1.169 1.169 0 0 0-.379-.664 1.01 1.01 0 0 0-.679-.249c-.26 0-.486.083-.679.25Zm3.724.081c-.146.164-.219.386-.219.667v2.037h-.69V8.334h.683v.443c.087-.145.2-.26.338-.344a.935.935 0 0 1 .495-.127H17v.66h-.287a.715.715 0 0 0-.56.246Z" />
</svg>