<svg xmlns="http://www.w3.org/2000/svg" fill="none" viewBox="0 0 20 20">
  <rect width="20" height="20" fill="#000" rx="4" />
  <path fill="#fff"
    d="M4.89 12.33c.662 0 1.173-.526 1.173-1.304V8h.716v4.904H6.07v-.455c-.32.343-.764.539-1.262.539-1.023 0-1.808-.764-1.808-1.919V8.001h.716v3.025c0 .792.505 1.304 1.174 1.304M7.312 8H8v1.787a1.72 1.72 0 0 1 .565-.395c.212-.092.44-.138.67-.138 1.023 0 1.828.834 1.828 1.87 0 1.03-.805 1.864-1.828 1.864-.231 0-.46-.046-.674-.137a1.736 1.736 0 0 1-.569-.395v.448h-.682V8Zm1.876 4.365c.655 0 1.194-.554 1.194-1.24 0-.694-.539-1.24-1.194-1.24-.662 0-1.2.546-1.2 1.24 0 .686.531 1.24 1.2 1.24ZM13.125 9.261c1.002 0 1.74.792 1.74 1.857v.23h-2.832c.096.582.567 1.017 1.153 1.017.403 0 .744-.169 1.003-.526l.498.378a1.808 1.808 0 0 1-1.5.764c-1.045 0-1.85-.799-1.85-1.863 0-1.01.771-1.857 1.788-1.857m-1.078 1.527h2.121c-.115-.546-.545-.91-1.057-.91-.512 0-.941.364-1.064.91ZM16.713 9.962c-.45 0-.778.357-.778.91v2.032h-.689V9.331h.683v.442c.17-.287.45-.47.832-.47H17v.659h-.287Z" />
</svg>