<svg xmlns="http://www.w3.org/2000/svg" fill="none" viewBox="0 0 20 20">
  <g clip-path="url(#a)">
    <rect width="20" height="20" fill="#FB0019" rx="4" />
    <path fill="#fff"
      d="M16.167 9.737a.132.132 0 0 0-.133.13c0 .07.06.127.133.127a.13.13 0 0 0 .133-.127.13.13 0 0 0-.133-.13Zm-2.407.361a.28.28 0 0 0-.254.128c-.04-.083-.128-.128-.237-.128a.28.28 0 0 0-.233.116v-.048a.047.047 0 0 0-.048-.046h-.111a.047.047 0 0 0-.048.046v.68c0 .025.02.045.046.046H13a.046.046 0 0 0 .045-.045v-.407c0-.015 0-.051.026-.09a.143.143 0 0 1 .124-.062c.097 0 .141.063.141.146v.412c0 .026.021.046.047.046h.12c.026 0 .047-.02.047-.046v-.406c0-.083.055-.152.148-.152.099 0 .141.063.141.146v.412c0 .026.021.046.048.046H14c.026 0 .048-.02.048-.046v-.454c0-.208-.142-.294-.29-.294Zm.62.32c.004-.07.066-.152.178-.152.123 0 .175.075.179.152h-.357Zm.175-.322a.394.394 0 0 0-.393.407c0 .26.193.413.412.413a.38.38 0 0 0 .302-.13c.02-.024.04-.05.049-.079.006-.02-.007-.042-.033-.05l-.089-.025c-.036-.01-.046-.003-.062.022-.031.05-.082.082-.165.082-.107 0-.196-.073-.201-.175h.532c.024 0 .038-.019.041-.036a.08.08 0 0 0 .001-.011v-.018a.532.532 0 0 0-.006-.085c-.03-.197-.171-.315-.388-.315Zm.915.628c-.114 0-.199-.082-.199-.22s.088-.216.198-.216c.11 0 .197.077.197.215 0 .14-.086.221-.197.221Zm.405-.925c0-.024-.022-.044-.047-.044h-.118c-.025 0-.048.016-.048.041v.4c-.022-.04-.087-.095-.225-.095-.226 0-.383.177-.383.403 0 .234.162.407.39.407.106 0 .188-.047.223-.108v.043c0 .033.015.046.046.046h.123c.033 0 .044-.015.043-.031l-.004-.137V9.8Zm1.145.704c0 .14-.087.221-.197.221-.114 0-.198-.081-.198-.22 0-.138.087-.216.198-.216.11 0 .196.077.196.215Zm-.613.001c0 .234.163.407.39.407.107 0 .188-.047.224-.108v.044c0 .032.014.045.046.045h.122c.034 0 .044-.015.044-.031a4.242 4.242 0 0 1-.005-.137v-.56c0-.025-.021-.044-.047-.044h-.118c-.03 0-.047.015-.047.04v.037c-.022-.041-.088-.096-.226-.096-.225 0-.383.177-.383.403Zm-.179-.384h-.12a.047.047 0 0 0-.048.046v.68c0 .026.021.046.047.046h.121c.026 0 .048-.02.048-.046v-.68a.047.047 0 0 0-.048-.046Zm-11.58.674.004-.002c.003-.002.002-.007.003-.01l.001-.004.002-.004v-.013c.001-.005.005-.008.004-.012l-.001-.01-.001-.006v-.004l-.001-.004v-.005l-.004-.005c-.002-.002-.002-.004-.002-.007-.001-.015.007-.03.01-.044v-.011l.003-.005h.006c.006 0 .006-.003.009-.007a.03.03 0 0 0 .004-.01c0-.003.003-.007 0-.01a.007.007 0 0 0-.005-.001v-.005c0-.005.003-.005.007-.007a.015.015 0 0 0 .004-.01c0-.002-.002-.003-.004-.004a.02.02 0 0 1-.002-.005c-.001-.004-.001-.006.002-.01.003-.002.004-.003.005-.007l.001-.004v-.005c-.001-.004-.005-.002-.005-.007l.003-.01c0-.004 0-.007.002-.01.002-.004.002-.006.002-.01 0-.005.002-.009.004-.013l.002-.005c.001-.002 0-.004.002-.005.002-.003.003-.003.002-.006-.001-.005.001-.01.001-.015l.001-.006v-.003l.002-.004.001-.007a.02.02 0 0 1 .003-.01l.004-.01v-.01a.05.05 0 0 0 .002-.01c0-.003 0-.007.002-.01l.004-.008a.047.047 0 0 0 .002-.01v-.01l.001-.005c.002 0 .003 0 .003-.002v-.009l.001-.004v-.005l.004-.009.005-.022.005-.01c0-.004 0-.01.004-.01.001-.002-.004-.001-.004-.004s.003-.003.005-.004c0-.002-.003-.001-.003-.002l.002-.002c0-.005 0-.01.002-.015l.002-.005c0-.002-.002-.004 0-.006 0-.002.002-.002.003-.003v-.006c0-.003 0-.008.002-.011 0-.002.002-.003.003-.005v-.005c0-.002 0-.005.002-.006l.002-.001v-.003l.002-.011v-.006c.003-.002.005.001.005-.003 0-.002-.002-.005-.001-.008l.002-.003v-.005c0-.003.002-.003.003-.005l.001-.005.002-.005c-.002 0 0-.002 0-.003l.001-.005.003-.01c0-.003 0-.005.003-.008.001-.003 0-.007.002-.009l.003-.004v-.006l.002-.005v-.005c0-.002 0-.003.002-.004v-.005l.003-.006c.001-.001.003-.002.003-.004l-.001-.003.002-.007.004-.003c.002 0 .002-.002.003-.003l.002-.001v-.009c.001-.004.003-.006.006-.007l.003-.006.001-.004a.02.02 0 0 1 0-.004c.003-.005 0-.012.004-.017l.006-.007a.023.023 0 0 0 .002-.01c0-.004 0-.008.002-.011.004-.005.01-.007.014-.012v-.005l.002-.004v-.008c0-.003 0-.007.002-.01 0-.003.005-.005.005-.009l.001-.006v-.003l.002-.001.003-.011c0-.004.001-.007.003-.01l.002-.013.006-.009a.014.014 0 0 1 .008-.007c.002 0 .004 0 .006-.002l.003-.003c.004-.001.005-.005.007-.008l.001-.005.001-.006.003-.004.002-.005.004-.007.003-.006v-.004c.001-.004.003-.005.002-.009 0-.004-.002-.008 0-.011 0-.004.004-.006.004-.01 0-.003-.001-.002-.003-.004-.002 0-.002-.003-.002-.005 0-.004 0-.007.002-.01v-.013c.001-.002.003-.001.003-.004v-.006l.002-.011v-.017c0-.002.002-.003.003-.005v-.006c-.001-.002-.003-.002-.002-.004l.004-.003.002-.006a.019.019 0 0 0 .002-.01c-.001-.003-.003-.007 0-.01 0-.003.004-.003.005-.005.002-.004-.002-.005-.003-.008v-.01c.001-.009.007-.014.011-.022l.011-.023c.005-.009.01-.015.012-.024v-.011c-.002-.006.002-.01.005-.014l.006-.021.002-.011c.001-.004 0-.009.002-.012 0-.005.004-.008.004-.012l.001-.007.006-.004c.004-.002.005-.004.006-.009.002-.005.003-.015.008-.02.001 0 .004 0 .006-.002s.002-.005.003-.007c0-.003 0-.005.002-.007-.003-.004-.008-.006-.01-.012a.033.033 0 0 1 0-.014c0-.002.002-.003.003-.004l.003-.005.006-.012c.002-.004.002-.009.002-.014l.002-.007c0-.002.003-.004.003-.005l.006-.006.003-.008V9.39c0-.003-.002-.003-.002-.005-.002-.003 0-.009.002-.012l.007-.01c0-.003.006-.011 0-.011l.002-.01.003-.005c.001-.004.002-.002.004-.003.004-.002 0-.002-.001-.003a.005.005 0 0 1-.003-.005l.002-.014.006-.015.002-.003V9.29c.001-.001.003-.003.003-.005l.002-.012a.036.036 0 0 1 .005-.012c.002-.004.002-.007.006-.01s.005-.006.005-.01v-.007c.002-.001.004-.002.004-.004l-.002-.006c0-.002.001-.004.003-.005l.004-.004.002-.007c0-.002-.003-.002-.003-.004l.003-.006c.001-.001 0-.003.003-.005.001-.001.003 0 .005-.002v-.006l.001-.005.004-.003.001-.007.001-.013.001-.008c.001-.003.003-.003.004-.005v-.007l.004-.004c.002-.003 0-.006.001-.01l.004-.006.002-.006c.001-.003.002-.008.005-.01.001-.002 0-.004.002-.005l.005-.001.001-.003.002-.002v-.002l.002-.004V9.08l.001-.003v-.001c-.002-.002 0-.005 0-.006h.002l.001-.002c.002 0 .004 0 .004-.003a.011.011 0 0 0 .001-.005v-.016l.004-.003c.002-.003.001-.006.002-.009v-.006l.006-.008.002-.002v-.013a.02.02 0 0 1 .005-.008.007.007 0 0 0 .002-.004l.005-.008v-.005l.004-.011c.002-.003.007-.008.004-.01.003-.01.013-.014.016-.023l.006-.014c.002-.001.004-.004.004-.006 0-.003-.004-.003-.002-.006.003 0 .006-.008.009-.01.003-.006.001-.01.004-.016l.005-.006.003-.003.002-.002.002-.005.003-.002.001-.01.002-.008c-.001-.003-.004-.004-.003-.008l.001-.01c0-.001.005-.004 0-.006 0-.004.005-.01.006-.014l.007-.014.007-.017c0-.003.003-.005.004-.007l.002-.01.009-.015V8.74l.004-.002c.002-.003 0-.007.001-.01.006.001.002-.006.006-.008v-.005l.002-.003a.224.224 0 0 0 .008-.014c0-.002.002-.001.002-.004V8.69c0-.003.002 0 .003-.002v-.004c.001-.004 0-.01.005-.01V8.67c.005 0 .01-.02.011-.023l.02-.044c.004-.009.007-.018.014-.026h-.002c0-.004.002-.006.004-.008.003-.003.002-.004.003-.008.001-.005.004-.01.007-.015 0-.001 0-.002.002-.003 0-.001.002 0 .003-.002 0-.003 0-.006.002-.009.002-.005.003-.01.006-.014.004-.006.005-.012.01-.018l.001-.004.001-.004.005-.008.001-.005c0-.002.002-.002.003-.003a.038.038 0 0 0 .004-.008l.003-.01a.122.122 0 0 1 .008-.011l.002-.007c0-.004.004-.008.007-.012a.04.04 0 0 1 .008-.014l.007-.005c.002-.002.002-.003.006-.004.002-.004-.001-.022.007-.018.001-.003.001-.007.003-.01l.007-.004c-.007-.005.002-.01.006-.013l.005-.004V8.35c.002-.005.006-.007.009-.01.003-.005.003-.01.009-.012.003-.002.002-.002.003-.006a.04.04 0 0 1 .008-.014c.006-.009.013-.016.02-.024 0-.002.001-.004.003-.005h.004l.004-.008c.002-.004.002-.006.005-.008a.086.086 0 0 0 .007-.008l.006-.006.006-.01.006-.006.006-.005c.001-.002 0-.004.003-.004 0-.003-.001-.002.001-.004l.004-.004c0-.002.003-.003.004-.004 0-.002 0-.003.003-.005l.005-.002c0-.002-.001-.003.001-.005l.005-.002c.002-.001.001-.004.003-.005l.004-.002v-.003l.002-.001c.003-.003.007-.007.007-.011h.013c.004 0 0-.006.003-.009l.004-.002.003-.004c.002-.002.002-.003.001-.005 0-.002-.002-.002 0-.004l.004-.002c.002 0 .003.002.004.004 0 .002-.002.003-.003.004 0 .001-.002 0 0 .002l.001.002c0 .003.006-.001.008-.002 0-.002 0-.003.002-.005l.003-.003c.003-.004.002-.005 0-.009-.001-.001-.002-.004 0-.006.001-.002.004 0 .006-.003 0-.002-.002-.004 0-.006.002 0 .003.002.003.003 0 .002-.003.002-.001.004.001.002.004 0 .005 0 .002-.001.002 0 .002-.002v-.006h.002c.002 0 0-.003.001-.004.001-.002.003-.002.005-.002h.003l.002-.002.004.002v.002h.003l.001-.002.002-.002c.003-.001.002-.001.003-.003l.003-.004v-.007l.003-.003c.002 0 .003.003.004-.001 0-.003-.001-.006.002-.005l.001-.004A.023.023 0 0 0 5.7 8.08c0-.004-.003-.007 0-.01 0-.003.003-.007.006-.007h.003l.001-.001c.003-.001.003.001.005.001 0-.003-.004-.005-.003-.008 0-.002.002-.003.003-.004.001-.002.003-.002.005-.003v-.005l.001-.003h.003l.002-.005.003-.003V8.03l.002-.003a.038.038 0 0 0 .003-.004c.002-.003.005-.004.006-.008.002-.003.005-.006.006-.01l.001-.004.005-.006h.002c.002-.002 0-.003.001-.006 0-.003.004-.005.005-.008 0-.003 0-.008.003-.01l.002-.004.002-.004v-.006l.002-.005a.047.047 0 0 0 .002-.01l.002-.012.002-.005V7.92c-.003 0-.004 0-.003-.003l.003-.003V7.88l-.001-.01-.003-.007.001-.005v-.006c-.002-.004-.001-.008-.002-.011 0-.004-.003-.007-.004-.01l-.001-.006c-.002-.002-.003-.003-.003-.005v-.007a.077.077 0 0 1-.003-.008c0-.002-.002-.004-.003-.005l-.001-.006c0-.004-.004-.005-.005-.009l-.001-.005c-.002-.002-.004-.002-.004-.004s0-.004-.002-.005l-.007-.014c-.001-.002-.001-.004-.003-.005L5.73 7.75l-.015-.018-.009-.006-.001-.003-.003-.001-.003-.005-.004-.001-.002-.002-.002-.003-.002-.001c-.001-.002-.004-.001-.005-.004v-.004h-.008l-.004-.004-.007-.005c-.002 0-.003 0-.005-.002l-.003-.003c-.003-.002-.008-.002-.01-.004l-.014-.006-.01-.005c-.004 0-.008 0-.012-.002l-.006-.001h-.002L5.6 7.668c-.004-.003-.005-.005-.01-.006l-.013-.001a.074.074 0 0 0-.014-.003l-.014-.001-.013-.002-.006.001-.006-.002-.007.003-.006-.003c-.004 0-.01.003-.016.003s-.011.002-.017.003c-.006 0-.008.004-.014.006-.005.002-.01.001-.014.004l-.014.005c-.023.01-.04.026-.061.04-.007.005-.01.01-.015.014l-.003.004H5.35c-.003.003-.004.007-.003.01a.016.016 0 0 0-.01.008l-.003.001c-.001.004-.004.003-.006.006-.002.002-.002.006-.005.009l-.013.015c-.004.005-.009.008-.013.014-.006.009-.015.018-.018.028-.003.006-.006.011-.007.018-.01.002-.015.02-.02.027l-.015.03c-.01.018-.016.038-.025.058-.004.01-.007.021-.013.032-.006.011-.012.02-.014.032-.002.014-.008.026-.013.039l-.014.035c-.01.022-.02.042-.028.064a.21.21 0 0 1-.013.035c-.005.012-.008.024-.013.034-.01.022-.015.045-.024.066-.003.008-.008.014-.01.022l-.01.027c-.007.016-.012.034-.02.05a.888.888 0 0 0-.02.057l-.027.072c-.004.01-.01.02-.013.03a.167.167 0 0 1-.012.034l-.015.038-.016.047c-.007.018-.015.034-.021.052a.78.78 0 0 1-.025.067c-.022.052-.04.108-.058.163l-.006.015c-.003.005-.003.008-.005.013l-.01.013-.007.017c-.003.012-.007.023-.008.036-.001.017-.01.03-.015.045-.003.009-.004.017-.008.025-.007.015-.018.03-.021.046-.003.01-.01.02-.013.03l-.008.034c-.003.008-.01.02-.006.027-.007.006-.008.023-.011.03-.004.012-.002.024-.008.035-.005.01-.015.02-.015.033 0 .012-.002.023 0 .035.002.009-.006.01-.01.017a.053.053 0 0 0-.006.022c0 .01 0 .012-.003.02a.177.177 0 0 0-.009.024c-.008.03-.016.059-.026.088l-.011.045c-.005.014-.012.03-.016.044a.958.958 0 0 0-.022.09c-.002.01-.006.021-.007.032v.014c0 .007-.007.011-.009.019-.002.008-.001.015-.004.023-.006.014-.012.028-.015.042-.007.032-.02.06-.026.092-.005.024-.015.047-.02.071-.001.011-.001.022-.004.032-.003.013-.008.025-.012.037a.687.687 0 0 0-.006.025c-.001.004 0 .01-.002.013-.002.004-.005.005-.006.01-.003.007 0 .012-.004.02-.003.007-.003.012-.004.02-.002.014-.007.03-.011.044l-.018.068-.008.036-.012.068c-.002.012-.007.024-.01.035l-.007.035c-.001.009-.01.024-.004.032a.061.061 0 0 0-.008.031c0 .012-.002.02-.005.032-.004.016-.01.033-.012.05a.352.352 0 0 1-.01.041c-.003.01-.003.02-.005.031-.002.017-.006.034-.007.051-.004.035-.013.068-.019.102-.002.015-.006.03-.007.045-.002.023-.01.046-.013.069 0 .008-.004.016-.005.025l-.007.052c-.005.032-.009.067-.018.096-.004.011-.004.024-.005.036-.005.043-.013.086-.02.129a1.56 1.56 0 0 0-.008.062l-.003.033c-.002.007-.001.013-.002.021 0 .002-.004.005-.004.008v.01c-.001.013-.005.026-.006.04l-.005.002a.026.026 0 0 0-.001.012c-.004.002-.003.01-.007.011-.007.004-.006-.006-.005-.01-.007-.006-.005-.007-.015-.003 0-.004-.003-.007-.004-.011-.002-.006-.001-.004 0-.01a.054.054 0 0 0 .001-.027c-.001-.005-.004-.005-.004-.01 0-.004.004-.007.004-.01 0-.015-.01-.012-.02-.015.001-.004.005-.005.005-.008l-.002-.013v-.046c-.002-.007-.006-.012-.007-.02 0-.008-.005-.015-.005-.022 0-.002.004-.006.004-.009.001-.004-.002-.01 0-.013.002-.01.007-.01.004-.02-.006-.021.001-.016 0-.024a.063.063 0 0 0-.006-.02l-.008-.005c-.005-.002-.003-.004-.004-.008 0-.003-.003-.004-.002-.006.002 0 .007 0 .007-.003l-.003-.002c-.004 0-.002.002-.003.003-.005.005-.008-.002-.007-.007.001-.003.004-.004.003-.007 0-.003-.004-.003-.001-.006.002-.003.011-.006.01-.01h-.002l-.004.001c-.002 0-.005.003-.008.003 0 .005-.006.002-.007-.002l.001-.006v-.006l-.001-.011v-.01c.003-.004.006-.005.006-.009 0-.004-.001-.005-.004-.007-.005-.004-.002-.002 0-.005l.003-.009c0-.003.002-.005.003-.007l.001-.01c.001-.001.003 0 .004-.002l.001-.003a.025.025 0 0 0 .004-.008.021.021 0 0 0-.002-.015l-.005-.01c-.002-.005 0-.01-.002-.013l-.006-.006c-.002-.003 0-.007-.001-.01-.001 0-.008-.004-.003-.005 0-.004-.002-.004-.003-.007s0-.006-.003-.009l-.004-.007v-.01l-.005-.018v-.022c0-.006.002-.012 0-.018l-.003-.006c-.002-.003-.001-.005-.002-.008 0-.003-.002-.005-.004-.007l-.004-.01c-.001-.005 0-.013-.005-.017.003-.002.003-.004.002-.007a.029.029 0 0 1-.002-.009c0-.002 0-.006-.002-.008-.001-.003-.005-.004-.001-.006.002-.002.006 0 .009-.002a.011.011 0 0 0 .002-.008c0-.004-.007-.01-.01-.014a.029.029 0 0 1-.008-.016l.002-.013-.002-.013v-.013c0-.004-.003-.006-.004-.01-.002-.003 0-.007-.003-.01-.001-.003-.005-.005-.006-.008a.04.04 0 0 1-.008-.02c0-.003 0-.005.002-.007-.002-.002-.007 0-.007-.004 0-.005.004-.003 0-.006-.003-.002-.004 0-.005-.003v-.006c-.001-.005-.002-.006.001-.01.002-.002.005-.004.003-.009-.002-.004-.005-.005-.009-.005-.006 0-.005 0-.007-.006a.084.084 0 0 1 0-.012v-.011l-.004-.01c-.001-.006.002-.009.003-.014v-.008c-.002-.003-.004-.002-.007-.002-.001-.014-.004-.026-.007-.04-.001-.005.001-.003.003-.006.002-.005-.001-.006-.004-.008-.005-.005-.005-.013-.005-.02l-.002-.013-.003-.013c0-.003 0-.004.002-.005s.006-.003.004-.005c0-.002-.004-.001-.006-.002-.002 0-.003-.002-.003-.005s.001-.003.002-.005c.002-.003 0-.002-.002-.005a.014.014 0 0 1-.001-.011v-.01c-.002 0-.003 0-.004-.002v-.006l-.002-.007v-.003l-.002-.003s.004-.006 0-.004c-.002-.004 0-.003.003-.004 0-.003-.002-.003-.003-.005l-.002-.006c0-.006.001-.007.006-.008.003 0 .005-.001.004-.004 0-.002-.003-.003-.004-.005v-.007l-.002-.007v-.007c-.002-.003-.006-.003-.005-.007 0-.002.004-.001.005-.004s-.003-.002-.003-.004.004-.003.004-.005-.002-.003-.003-.003c-.005-.001-.009 0-.011-.004s-.004-.01 0-.013c.003-.004.004-.004.005-.01 0-.003 0-.002-.003-.003-.003-.002-.003-.003-.004-.006 0-.003-.002-.011 0-.014l.006-.001c0-.004-.003-.004-.005-.003-.003 0-.006.003-.009.001l-.002-.005c0-.003.003-.002.005-.003l.002-.005c-.001-.002-.004-.002-.005-.003-.002-.002-.005-.011-.002-.012.002 0 .003.002.004-.001.002-.003 0-.003-.001-.005l-.004-.005c-.002-.002-.003-.002-.004-.005l-.004-.014c0-.003 0-.004.002-.006s.003-.003.003-.005c0-.004-.005-.009-.007-.012-.003-.004-.004-.007-.003-.013v-.006l-.002-.006v-.007c-.002-.002-.003-.003-.002-.005 0-.003.002-.003 0-.005a.035.035 0 0 1-.003-.02.028.028 0 0 0-.003-.013.086.086 0 0 1-.002-.013c0-.005-.002-.009-.003-.013V10.1l-.002-.008v-.015l-.001-.007-.004-.005v-.014l-.001-.003-.002-.002c-.001-.002.002-.002 0-.005a.058.058 0 0 1-.002-.014c0-.005-.003-.01-.004-.015V10l-.001-.01-.001-.004-.003-.003v-.017l-.004-.013v-.007l-.001-.006c-.002-.004-.001-.01-.002-.015l-.003-.013-.001-.01c0-.002 0-.006-.003-.006-.001-.005 0-.01-.002-.015v-.007l-.002-.007-.006-.03c-.001-.004 0-.008-.002-.013 0-.004-.003-.008-.004-.013a.114.114 0 0 0-.009-.026.022.022 0 0 0-.005-.009L3.9 9.77c0-.002-.002-.003-.003-.004l-.002-.007-.006-.012-.003-.004-.004-.005-.006-.006-.007-.008-.009-.007-.007-.007-.008-.006c-.004-.004-.011-.006-.017-.009l-.006-.002c-.005-.003-.01-.004-.015-.005L3.8 9.685l-.018-.003-.015-.001c-.003 0-.003-.002-.006-.001h-.02l-.014.001-.014.004-.006.002-.004.004-.009.001a.08.08 0 0 0-.013.006l-.01.007c-.007.004-.014.007-.02.014l-.015.015a.072.072 0 0 0-.018.024c-.006.01-.013.02-.017.032-.004.013-.01.025-.013.038a.113.113 0 0 1-.003.01c0 .003-.003.005-.004.009-.003.006-.003.013-.006.02l-.003.005-.002.007a.302.302 0 0 0-.005.012c-.001.002-.003.005-.003.008s.002.002 0 .005l-.002.001v.004a.312.312 0 0 0-.015.043c0 .004-.002.005-.004.008l-.002.01a.213.213 0 0 1-.006.017l-.007.017c-.008.022-.011.044-.02.066a.114.114 0 0 1-.01.019c-.006.008-.006.012-.007.021 0 .01-.004.016-.005.026-.001.009-.004.013-.009.02-.007.01-.007.016-.01.028-.002.007-.008.015-.01.023-.002.007 0 .011 0 .019l-.009.024-.015.045c-.004.012-.01.025-.013.038a.04.04 0 0 1-.01.02l-.007.02c.004.004-.004.013-.006.019-.001.009 0 .015-.003.023-.007.017-.012.028-.015.045-.003.014-.016.023-.021.035a.056.056 0 0 0-.006.024c0 .01.001.015-.003.025-.004.009-.006.023-.013.03-.002.002-.022.011-.008.016-.006.006-.014.008-.006.02-.002-.004-.008.012-.008.013 0 .008 0 .014-.002.022l-.023.053c-.008.022-.02.041-.026.062h.004c0 .007-.004.014-.005.02l-.009.017-.001.013-.006.009c-.003.005-.003.013-.008.018.001.004-.003.011-.005.016l-.004.019c-.003.01-.01.023-.014.034a.341.341 0 0 0-.012.035c-.007.025-.018.05-.014.077a.085.085 0 0 0 .012.037.16.16 0 0 0 .048.049c.009.004.02.01.03.01l.013.006.012-.001h.017l.012-.003.015-.001h.008c.002 0 .004-.003.006-.004h.007c.003-.001.003-.003.005-.004.004-.003.008-.003.012-.005a.097.097 0 0 0 .025-.015l.011-.012.005-.004c.002-.002.001-.006.004-.008.005-.004.012.004.014 0s-.002-.004-.003-.007c-.003-.007 0-.012.003-.018.002-.005.002-.006.008-.009.004-.002.004-.006.003-.01 0-.002-.002-.005 0-.007 0-.003.004-.002.002-.005.003-.003.005 0 .006-.005l.001-.01c.001-.004.004-.004.005-.007.002-.003 0-.008.001-.01.001-.007.005-.01.01-.015.002-.002.005-.005.004-.008-.002-.003-.005-.002-.002-.007.003-.004.01-.006.012-.011.002-.003 0-.006.003-.01.001-.002.005-.002.005-.006.001-.004-.002-.005 0-.01a.014.014 0 0 0 .003-.009c0-.007.004-.01.008-.017.002-.003.004-.007.008-.008.003-.001.01 0 .01-.005 0-.003-.008 0-.01-.002-.003-.002-.001-.008 0-.01l.004-.003.002-.006v-.005c.002-.002.002-.001.005-.002.002 0 0-.002 0-.003v-.003l.003-.001c.001-.002 0-.002-.002-.003v-.005c0-.002.003-.002.004-.004v-.002l.001-.001c.001 0 .004 0 .003-.003-.003-.001.001-.005.002-.007l.007-.006v-.006c-.001 0-.003-.001-.002-.003v-.006l-.001-.003c-.002-.004.003 0 .004-.004l.001-.004.003-.002c.001 0 .003-.002 0-.003l-.003.001h-.004c-.002-.002 0-.006 0-.008.001-.002.002-.004.005-.003l.001.002.003.001s.002.003.004.002c.001-.001.002-.004 0-.005 0 0-.003 0-.003-.003l.004-.002.001-.005v-.01c.001-.002 0-.003.002-.005l.004-.003.002-.004c0-.002-.002-.002-.004-.002-.006 0-.002-.003-.001-.007 0-.002 0-.008.003-.01.002-.001.003.002.005 0l-.002-.003c-.001-.004.003-.007.004-.01 0-.001 0-.003.002-.004.001-.002.004 0 .005-.002.003 0 .004-.004.003-.006l-.004-.002v-.005c0-.004 0-.009.003-.01 0-.002.002 0 .002-.002v-.004c.002-.002.001-.005.002-.007.003 0 .002-.002.003-.003l.002-.001.003-.002.002-.002H3.6v-.004l-.004-.002c-.002 0-.002 0 0-.001a.009.009 0 0 0 0-.005c.001-.002.001-.002.004-.002.001 0 .003 0 .003-.003 0-.001-.003-.002-.002-.004 0-.002.007-.002.01-.003.002-.002.004-.006.003-.009l-.004-.003-.001-.005c0-.005.003 0 .005 0 .005.002 0-.005 0-.006 0-.002.002 0 .003-.002s-.001-.003-.001-.004c-.001-.003.004-.008.002-.01-.002 0 0 .004-.003.003-.002 0 0-.003 0-.004-.001-.002-.003-.003-.003-.005v-.006c.002-.003.005.003.007.003.003 0 .003 0 .003-.002s.001-.002.003-.003h.009c.001.002 0 .003.002.004.002 0 .003 0 .003-.002 0-.004-.006-.001-.005-.005 0-.002.002 0 0-.002a.01.01 0 0 0-.004-.001l-.001.003c-.003-.002 0-.005 0-.007v-.003c0-.002.002-.002.003-.002-.002-.002-.001-.005-.001-.007.004-.001.009.007.013.004v-.003l.004-.002v-.007h.002c.002 0 .002-.002.002-.002.002-.002.002-.004 0-.005.002-.002.003-.005 0-.005 0-.002.001-.002.002-.002l.001-.003c.001-.001.003-.003.004-.002l.003-.004v-.004l.001-.001v-.003l.001-.005c.002-.003.004-.003.004-.007v-.009c.004-.001.005-.004.008-.005.002-.001.008-.002.01 0 .002 0 .002.003.003.003.001.002.003 0 .004 0l.005.002.005.001c.002 0 .002.002.004.003l.001.004c0 .003.002.006.006.007a.01.01 0 0 0 .005.001s.004-.002.003 0c0 .002-.003.002-.003.004v.008l-.001.002c-.002.001-.001.003-.002.004 0 .003-.004.005-.002.009l.003.003.002.004c.004.002.005-.004.006-.006.001-.003.004-.004.008-.004s.007.002.008.005c.002.004 0 .006-.004.007-.002 0-.004 0-.004.002l.002.004v.011c-.001.002-.008.002-.003.005.002.002.008.003.009.006 0 .002-.002.001-.003.003v.002l-.003.002-.004.001c0 .001 0 .005.002.005 0-.003.002.002.002.003a.018.018 0 0 1-.002.005c-.001.003-.003.008-.002.01.002.004.006.004.008.006.003.004.001.005 0 .008-.005.009-.004.014 0 .021.003.004.005.007.009.008l.004.001.001.005c0 .002.002.002.003.004 0 .001-.003.003-.001.005h.004c.003.002.002.002.002.005l.003.018c0 .006-.003.01-.006.015.002.002.005-.005.007-.005a.071.071 0 0 1 .002.02c0 .005.002.005.004.008v.01c.002.007 0 .014.003.02l.004.017v.014c0 .004.002.007.003.01l.004.02c.002.006.001.013.002.02l.001.01c.001.004.003.005.002.008l-.002.002.001.004.002.007.003.016a.08.08 0 0 1 .003.015l.002.014c0 .005.003.009.003.013s.002.006.003.01v.02s.002.002.001.004c0 .002-.001.002-.002.003v.032c0 .002-.002.005.002.005.001.003-.003.003-.002.006.004 0 .002.017.008.013 0 .002 0 .005.002.007l.005.005v.012l.003.024.003.017.002.01c0 .003-.003.006-.002.008.004.001.002.006.002.009l.003.009.003.02c.003.013.006.026.006.04l.001.01c0 .002.003.004.003.008v.01l.003.01.002.018c0 .004 0 .005.002.008.003.006.002.013.002.02l.002.01v.005l.002.003.001.01.002.02c0 .004 0 .006.002.01.003.003.003.004.003.008v.02c0 .002.004.005.003.008 0 .002-.002.003-.001.007l.002.002v.005l.002.008a.141.141 0 0 1 .004.02l.002.02c.002.004 0 .01.002.014s.001.007.001.01a.02.02 0 0 0 .003.011c0 .004 0 .008.002.012v.015l.005.016a.012.012 0 0 1 .002.008l-.002.008c0 .004.005.005.005.01v.008c-.001.004.001.006.002.01a.03.03 0 0 1 .001.005v.004c-.002.004.001.005.001.008.001.003-.001.003-.002.005 0 .002.001.003.003.004.003.003.002.01.002.013v.006c0 .002.002.003.003.004.003.004 0 .01 0 .014l.003.012v.009c0 .001.002 0 .002.002.002.001 0 .002 0 .005l.002.006v.013h.003v.002c-.003 0-.001.002 0 .004v.014a.014.014 0 0 1 .002.007v.01l.003.003v.004l.002.013v.013c.001.003.003.002.004.004s0 .004-.001.006v.007l.002.005v.012l.001.003v.002l.003.003v.007l.002.007v.007c0 .003 0 .004.003.004v.009l.002.008.002.003c0 .002-.001.002-.002.003l.002.008v.011l.002.004c0 .004-.002.016.004.017v.01h.002v.012a.032.032 0 0 1 .004.01v.008c.001.002.003.003.003.005l-.001.004v.006c.004 0 .003.006.003.008 0 .004 0 .007-.004.01-.003.003-.003.003-.002.008 0 .002.002.005 0 .008l-.001.005-.002.007c-.001.004-.003.007 0 .01l.006.002a.01.01 0 0 1 .005.003.026.026 0 0 1 .008.01l.001.005.001.005c0 .003.002.004.002.005 0 .002-.002.003-.003.005-.001.004-.001.006-.005.009a.034.034 0 0 1-.005.003l-.005.003c0 .002.005.001.001.003-.001 0-.004 0-.002.003.001 0 .003-.001.003-.003l.004.001.004-.001.007.001c.001 0 .002 0 .003.002l.002.005.003.01v.013c.001.004.003.007.003.011 0 .004 0 .008.003.012l.001.005.002.006-.001.003v.002l.002.005v.014c-.002.002-.005 0-.005.002s.004.004.004.005l.003.005c0 .003.002.004.003.006v.006c0 .002.002.003.003.005v.005l.002.005v.007l.002.014v.007l-.004.004c-.002.003-.003.009.001.01l.004.004.003.005.004.01v.012l.002.005v.006l.002.004.003.015c0 .005.002.009.003.013l.001.012.001.006v.006l.001.003h.003l-.001.006v.005c0 .003.001.004-.001.005-.002.002-.003 0-.001.004l.003.004.001.006c0 .002.002.003.003.005.002.005.002.011.002.018 0 .006.003.012.004.018l.001.01.001.008c.002.004.002.006.002.01v.005l.002.006v.007l.003.005.002.012c0 .004 0 .009.003.012-.004.003 0 .002.001.005.002.002 0 .006 0 .008 0 .003.002.005.003.008l-.001.005c0 .002.001.002.002.003l-.001.002v.002c.001 0 .002 0 .002.002v.004c0 .002 0 .003-.002.005-.002.004.003.003.004.007l.001.005h.002v.008a.02.02 0 0 0 .003.011l.002.005c0 .002-.003.002-.002.004.003 0 .003.005.003.008s.003.005.003.008v.003l-.002.002c0 .002.003.003.004.005a.022.022 0 0 1 0 .011c0 .002 0 .004.002.005.002.003.003.003.003.005l.001.008.001.007.001.002-.001.002c0 .003.001.003.002.005.002.003.002.008.003.012v.006l.002.005v.007l.005.01v.008c.002.001.002 0 .002.003 0 .005.003.008.004.012l-.001.005c0 .003.002.006.003.008 0 .003 0 .003.003.005.002.001.002.003.003.006.002.003.004.006.004.01l.004.003c.004.003.004.006.006.01l.005.004.001.002.002.002c.002.001.002.003.003.005l.004.003a.025.025 0 0 0 .008.005c.002 0 .005 0 .006.002.001 0 0 .002.002.003 0 .002.003.002.004.005.004 0 .006 0 .01.003a.034.034 0 0 0 .012.005l.007.002c.003.001.006 0 .01.002.003 0 .007.003.011.002l.007-.002h.02l.006-.002h.008c.005 0 .009-.002.013-.004a.1.1 0 0 1 .023-.006c-.002-.001-.003-.003 0-.004h.006l.003-.004.006-.003.006-.002.004-.003.01-.007a.035.035 0 0 0 .007-.007l.004-.005.004-.003c.002-.001.002-.005.003-.007l.003-.002.002-.003.004-.006c0-.002 0-.004.002-.005 0-.002 0-.003.002-.005l.003-.003.002-.008.005-.011c.002-.004.001-.008.003-.013l.003-.004.001-.005c.002-.004 0-.009.002-.013.001-.001.003-.002.003-.004v-.006c.002-.004.004-.007.004-.012l.001-.005v-.006l.005-.02c.001-.003.002-.002.004-.004-.001-.002-.003 0-.004-.003v-.005c.002-.005 0-.01.004-.012a.017.017 0 0 0 .001-.012.02.02 0 0 1 .001-.007v-.006l.004-.003c.002-.001 0-.003 0-.005l.001-.012c0-.004.002-.008.003-.011 0-.005.002-.008.001-.013l.002-.012.001-.009.002-.013v-.012l.002-.006v-.006c0-.004.002-.007.004-.011.001-.004 0-.009.002-.013l.001-.005v-.006l-.001-.005c0-.003.001-.003.003-.005v-.006l.002-.012.002-.005-.001-.006.002-.006v-.006l.001-.004V12.3l.003-.004s-.002 0-.002-.002l.001-.004v-.009l.001-.006.002-.006v-.006c.002-.002.003-.002.003-.004l.001-.014c.002-.004.001-.008.002-.012 0-.005.002-.007 0-.012-.002-.004.001-.007.002-.01l.001-.004.002-.001-.001-.006v-.006l.002-.01.002-.006v-.012c0-.004.003-.008.002-.013 0-.001-.002-.003-.001-.005l.003-.004.001-.005v-.005l.001-.005v-.005c-.004 0 0-.006 0-.007.002-.003 0-.008.001-.012 0-.001.003-.003.002-.005l-.001-.002h.002v-.014l.002-.012v-.006l.002-.005c.002-.003 0-.008.001-.012 0-.004.002-.007.001-.011 0-.004 0-.01.002-.012.002-.003 0-.006 0-.009l.002-.005.001-.014.001-.005c0-.002 0-.004.002-.006l.001-.002v-.009l.001-.013.001-.006c0-.001.003-.003 0-.003a.011.011 0 0 1 .003-.011c.002-.003.001-.008 0-.012 0-.004.002-.008.001-.012l.001-.008v-.003h.003c.001-.003-.002-.002-.002-.005l.003-.004v-.012l.001-.012.001-.011a.033.033 0 0 0 .003-.014v-.006l.001-.006.001-.012.002-.006v-.006c0-.004 0-.008.002-.012s.002-.009.002-.013v-.003l.002-.001c0-.002-.002-.001-.002-.002v-.004c0-.003.004-.006.003-.01v-.011c0-.004.003-.007.002-.011l.001-.005v-.007l.002-.006c0-.002.002-.005.001-.006 0-.001-.002-.005-.001-.006h.003c-.003-.003-.001-.009 0-.01V11.7l.002-.006v-.014c0-.004.004-.006.004-.01 0-.006 0-.01.002-.014v-.012c.001-.001.003-.003.003-.005l.001-.006c.002-.001.004-.001.005-.003v-.003l.001-.003v-.003h.003c.002-.003 0-.004 0-.006l.002-.004.001-.004.003-.004v-.014l-.001-.009c-.002 0-.002 0-.002-.002h.003v-.004l.001-.002c-.002-.001.004-.006.006-.004l-.002.002c.001.002.003 0 .004 0 .003 0 .006 0 .005.001.002.001.005-.001.005-.002l.002-.003v-.003c0-.003.005-.004.005-.007l-.002-.005c0-.003-.001-.002-.003-.004v-.004c-.002-.002-.003 0-.003-.003 0-.002 0-.003-.003-.003l-.006-.002c-.004-.002-.004-.005-.004-.01v-.006l.002-.005v-.004c-.002-.002-.003-.003-.002-.005l.002-.006-.002-.004c0-.003.003-.006.004-.009a.02.02 0 0 0 .002-.012.027.027 0 0 1 0-.012c.002-.004.001-.008.002-.012l.003-.01.001-.011.001-.012c0-.003 0-.002.002-.004v-.005c0-.004-.003-.005-.002-.009v-.007c0-.002.002-.003.003-.004v-.006c.002-.005.008-.002.006-.01 0-.001 0-.003.002-.003.001-.001.002 0 .002-.003 0-.002 0-.006.002-.008h.003v-.002l.003-.002c.003 0 .006 0 .007-.004.002-.003 0-.007.003-.01.001-.003.005-.005.004-.008l-.001-.01v-.008h.003v-.003h.002c.002 0 .003 0 .004-.002.002-.003.001-.008.001-.01v-.01c.002-.003.001-.007.003-.009l.002-.005v-.011l-.005-.003.002-.007v-.005l.001-.001v-.007h-.001v-.003l-.002-.005c-.004-.002-.003.001-.007.003-.003 0-.006-.003-.008-.005-.002-.003-.002-.005-.001-.008v-.005l-.002-.004s-.002-.002 0-.004h.002v-.002c0-.004.003-.007.001-.01v-.016l.001-.005v-.004l.002-.004v-.004l.001-.005a.01.01 0 0 1 .001-.004l.002-.002v-.002l.001-.003.003-.004.001-.005v-.01c0-.002 0-.003.002-.005.002-.003.001-.006 0-.01l.001-.009.004-.001.003-.004v-.01l.001-.012v-.009l.002-.005.001-.005c0-.002.001-.002.003-.003H4.6c.003-.002-.006-.004-.006-.005v-.005l.002-.002v-.002l.002-.004a.01.01 0 0 0-.002-.005l-.004-.003v-.005l.002-.005.001-.002v-.002c0-.004.002-.007.007-.007 0-.002 0-.003.002-.004h.003l.002-.002c.005-.005.004-.014.002-.02v-.011c0-.002-.002-.001-.003-.003l.003-.009v-.004c0-.002 0-.006.002-.008s.005-.004.004-.007l-.004-.007c-.002-.003 0-.006.002-.009.002-.004-.002-.005-.003-.009a.04.04 0 0 1 .007-.018.022.022 0 0 0 .005-.01v-.002l.003-.001v-.005a.011.011 0 0 1 .001-.01l.001-.005c0-.003.001-.004.003-.006l.002-.003.001-.007.002-.004v-.008h-.002l-.002-.002v-.007l-.002-.005.002-.004v-.005c0-.001 0-.003.002-.005l.001-.001.001-.002h.002v-.003c-.001-.002.002 0 .003 0l.002-.002V10.8c0-.002.001-.001.003-.003l.001-.003Z" />
    <path fill="#fff"
      d="M5.43 9.836v-.009c-.004.001-.005-.006-.005-.01 0-.006 0-.009-.007-.011 0-.003 0-.004-.002-.007a.038.038 0 0 1-.002-.007l-.002-.003v-.005c0-.002-.003-.003-.004-.005l-.001-.006-.004-.007c-.002-.005-.002-.01-.008-.007v-.002c-.004 0-.006-.001-.01-.003 0 0 0-.002-.002-.002L5.38 9.75c-.002 0-.005-.003-.008-.002-.001 0 0 .002-.002.002s-.001-.002-.002-.002c-.007-.003-.012 0-.017 0h-.01l-.009.003h-.006l-.001.004h-.01c-.006 0-.012.004-.017.006l-.01.005-.009.003a.139.139 0 0 1-.015.009l-.01.005-.01.007a.372.372 0 0 0-.026.022l-.014.011c-.004.004-.01.003-.013.01-.003.005-.006.006-.01.01l-.013.009c-.007.006-.01.014-.015.022l-.006.006-.007.006c-.002.002 0 .007 0 .01l-.003.009-.005.008c-.002.002-.004.003-.005.006v.005c-.002 0-.003.001-.004.003-.002.003 0 .006-.001.01l-.005.01-.002.006c0 .002-.002.002-.003.004a.02.02 0 0 0-.001.013l-.002.012c-.003 0-.002.003-.001.005l.002.003-.002.003c0 .002.003.004.002.007s-.004.003-.002.005c0 .002.003.003.003.005v.009l.005.013v.005s.003.002.003 0l.001-.002c.003.002.002.005.004.007l.007.003c.001.006-.001.008.003.013l.008.006c.002.002 0 .002.004.003h.006c.003 0 .008 0 .01.003l-.003.003c.001 0 .003.002.003.004.004-.001.006-.004.01-.003l.001.001.007.001h.006c.003 0 .003-.002.006-.001v.002c.004 0 .006.003.01.004.003 0 .004-.003.009-.003.002 0 .004.002.006 0 .001-.001 0-.003.002-.005a.022.022 0 0 1 .01-.004l-.002.002c.003.001.005.002.007 0-.001-.003.004-.002.005-.005l.01-.004c-.004-.007.011-.002.012-.008.003 0 .003-.003.005-.005s.004-.002.007-.003l.003-.002.003-.001.006-.005.007-.005.003-.002s0-.002.002-.003c.002-.002.005 0 .008-.002.003 0 .004-.003.006-.004l.002-.002c.002 0 .005 0 .007-.002s0-.005.004-.006c0-.002.013-.008.013-.009-.002-.003.007-.004.01-.006-.003-.002 0-.004.003-.003 0-.003.002-.006.004-.008.003-.003.003-.003.008-.003a.022.022 0 0 0 .013-.01c0-.001 0-.003.002-.004l.003-.002c.001-.003-.003-.005-.002-.008.001-.004.004-.004.007-.005.006-.001.006-.001.008-.006.002-.002.005-.007.007-.007l.004-.01c.001-.001.002 0 .003-.003v-.006c.001-.003 0 0 .003-.001.003-.002.002-.002.003-.004.002-.005.006-.007.01-.01.002-.004.002-.008.002-.012 0-.005 0-.004.003-.007l.001-.004h.004c0-.003-.004-.002-.005-.006 0-.002.002-.005.004-.006l-.003-.003v-.007c0-.002.003-.003.004-.005.004-.007 0-.015-.001-.022Zm.332.352c.002-.004-.002-.003-.005-.002l-.025.006-.023.01c-.003 0-.005.002-.008.004a.022.022 0 0 1-.008.003c-.004 0-.006.002-.009.003l-.01.004-.006.006a.054.054 0 0 1-.007.005c-.002 0-.004 0-.005.002-.002 0-.003.002-.004.003a.26.26 0 0 0-.027.022l-.013.013-.01.013s0 .002-.002.003l-.003.002-.005.007-.007.015-.007.019c-.003.006-.006.011-.007.018-.001.003-.002.006 0 .01-.006.004-.006.011-.007.018a.46.46 0 0 1-.006.023.2.2 0 0 0-.006.04l-.002.036v.018l-.001.009c-.001.003-.003.005-.003.008.005 0 .003.008.002.01v.013c.002.011-.001.022-.001.033 0 .013-.004.025-.003.038 0 .003.002.007.001.01l-.001.01-.003.019v.043l-.001.02c0 .008-.002.013-.003.02-.001.007-.003.014-.003.022v.011c0 .003-.004.006 0 .008-.004.002-.004.011-.004.015v.012l.002.005-.001.004-.001.005c-.001.004-.004.006-.005.009-.002.006-.003.014-.006.02-.008 0-.007.017-.001.018 0 .002.002.006 0 .008.002.003-.005.01 0 .01 0 .003-.007.028 0 .026l-.001.01c-.002.003-.005.004-.007.008-.001.004.003.007.004.01.003.006-.004.012.002.018.003.002.002.002.002.007v.005l-.002.004c0 .003 0 .006-.002.009 0 .003-.003.005-.003.008v.01l-.002.01v.012c0 .003-.003.005-.003.008-.001.005.001.005.003.008l.003.008a.035.035 0 0 1 .001.02v.003c.002.006.003.011-.002.017-.003.004-.002.003 0 .007a.054.054 0 0 1 .002.012l-.002.02-.001.02c-.001.007-.007.01-.007.017v.01c-.002.003-.003.004-.002.008.002.005.005.006.005.011l-.002.01v.02c.001.008.002.014.001.021a.175.175 0 0 0-.001.021v.022c.002.006 0 .014.003.02 0 .003.002.005.003.008l.001.008c0 .003.002.005.003.008 0 .002 0 .004.002.005 0 .002.003.002.004.003l.001.007.003.006c.002.004.004.004.008.008l.004.005a.016.016 0 0 1 .003.004l.001.003.002.001c.002.002.003.003.005.003h.004v.005c.003 0 .006.004.01.005l.01.004c.002-.005.011.001.015.002l.02-.001.004-.001.003-.003h.01c.005 0 .01-.004.016-.005.003-.001.01 0 .012-.005l.008-.001c0-.005.014-.004.018-.006a.077.077 0 0 1 .015-.01c.003 0 .005-.003.007-.004.002 0 .003 0 .004-.002l.004-.002c.001-.001.003 0 .004-.002l.003-.003.007-.003.008-.004c.003-.001.004-.002.006-.005.001-.003.003-.003.005-.005l.007-.005c.003 0 .007.002.009 0 .003 0 .001-.004.002-.007a.02.02 0 0 1 .004-.006c.006-.005.013-.01.019-.017l.004-.006.006-.006a.062.062 0 0 0 .01-.016l.008-.015.007-.016c.001-.003.004-.014.008-.015v-.005l.002-.006.003-.012a.169.169 0 0 0 .003-.024l.002-.021c0-.007.002-.013 0-.02v-.01l.002-.006c0-.007-.001-.013.001-.02.004 0 .006-.007.006-.01a.029.029 0 0 0-.001-.014c0-.003-.004-.01-.003-.013 0-.003.003-.002.004-.004.002-.003 0-.004-.003-.003-.002-.005 0-.013 0-.018v-.02l.001-.024v-.012c.001-.003.004-.006.003-.01 0-.001-.006-.005 0-.006v-.04l.002-.021v-.021c0-.006 0-.007.003-.01-.003-.002-.002-.007-.002-.01.007 0 .002-.011.002-.015v-.02c.001-.005.006-.01.007-.015 0-.003-.002-.004-.004-.007v-.028c0-.005.003-.011.003-.017-.001 0-.003 0-.003-.002a.01.01 0 0 0 .002-.004c-.003 0-.004-.002-.002-.004l.002.002c.002-.002 0-.008 0-.01.001-.004.004-.007.003-.011-.004-.002-.003-.006-.002-.01l.002-.005c.001-.002.003-.002.003-.004.006-.003.001-.01-.003-.01 0-.004.004-.003.006-.005.004-.003.001-.004.006-.004.002 0 .002.002.004 0a.005.005 0 0 0 .003-.004c0-.003-.003-.005-.004-.008l-.001-.01-.002-.009.004-.008c.002-.003 0-.007.001-.01.001-.005.007-.006.01-.01.003-.003.001-.004 0-.008l-.001-.01.001-.01c.002-.005.006 0 .008-.004-.002-.002-.006-.002-.007-.004 0-.002.001-.007.003-.009.003-.005.01-.004.012-.01-.003-.004-.004-.005-.004-.01 0-.006 0-.008.003-.013l.006-.01c.002-.003.003-.01.007-.01.002-.002.002-.005.003-.008l.006-.008.012-.016.011-.013.011-.014.011-.016c.003-.003.008-.004.007-.009.002 0 .002-.002.003-.003l.007-.002-.001-.001.007-.005a.263.263 0 0 0 .009-.01c.001-.001.001-.003.004-.004h.005l.003-.004c.002.001.002-.002.004-.004.001-.001.004-.001.005-.003l.01-.008c.002-.002.008-.005.009-.008.003 0 .01-.004.012-.007l.013-.011.007-.006.002-.003.004-.001.007-.007.007-.004.015-.009.01-.01c.002-.001.003 0 .004-.002l.003-.003.006-.003c.008-.005.012-.02.021-.02l.006-.015a.026.026 0 0 1 .005-.007l.006-.005c.002-.001.002-.005.003-.007l.004-.007a.034.034 0 0 0 .004-.017c-.007.002-.001-.016-.001-.02 0-.005 0-.007.002-.01l.002-.012c-.002-.001-.003-.006-.004-.008 0-.003.003-.004.003-.007h-.002l-.004-.008-.003-.003v-.002h-.002v-.005c0-.002-.001-.001-.002-.003a.038.038 0 0 1-.005-.007v-.004l-.002-.004c0-.004.001-.005-.001-.008l-.006-.006c-.003-.002-.003-.004-.005-.007l-.002-.003c0-.002 0-.003-.002-.005-.001-.003-.004-.004-.006-.007a.027.027 0 0 0-.012-.01l-.008-.005c-.003-.002-.007-.002-.01-.003-.006-.002-.014-.005-.021-.005l-.003.001h-.016a.04.04 0 0 0-.01.002.037.037 0 0 1-.01.002.02.02 0 0 0-.007.002l-.005.002h-.001c-.002.001 0 .003-.002.003a.017.017 0 0 1-.01.003c-.001 0-.004-.004-.007-.002v.008c-.001 0-.004.003-.005.002-.002 0-.002-.005-.003-.006l-.002.003c-.002 0-.003.003-.007.003 0 .002.003.002.005.003a.021.021 0 0 1-.01.005s0-.003-.002-.002h-.003l-.005.002c-.003 0-.005.002-.008.003-.002 0-.005 0-.006.004-.008-.001-.005.005-.009.008-.004.003-.01 0-.014 0 0 .002-.003.002-.004.002v.002c-.007 0-.013-.002-.012.006.002 0 .005-.003.007-.002.002 0 .002.002.002.003a.061.061 0 0 1-.016.002c-.008 0-.013.004-.015.004-.005 0-.005.005-.01.008a.059.059 0 0 1-.02.005c-.006.002-.012.007-.02.008-.003 0-.004 0-.007.002l-.01.002c-.004 0-.011 0-.013.004-.01 0-.022 0-.033.002l-.015.003-.015.003c0 .002 0 .003-.003.003ZM7.623 9a.061.061 0 0 1 .004.012l.001.007.003.005c.004.008.011.012.018.018.003.003.007.006.01.006a.02.02 0 0 1 .014.005c.007.005.017.004.025.006.007.002.014.001.02.003.007.001.009 0 .014-.003h.007c.003 0 .002 0 .004.002.004.002.01.001.013 0l.004-.004c.006-.003.016-.005.02-.01a.034.034 0 0 1 .01-.007c.003-.002.009-.001.012-.004.003-.001.002-.003.004-.005l.005-.004.014-.008A.133.133 0 0 0 7.847 9c.004-.003.006-.007.009-.011.002-.004.004-.008.007-.01l.007-.012.014-.013c.004-.004.007-.01.01-.015.003-.004.008-.004.011-.007.003-.002.002-.004.002-.006s.002-.004.003-.005l.004-.005.004-.006.004-.005.001-.006c0-.002.002-.003.003-.004V8.89l.002-.01a.047.047 0 0 1 .005-.012l.007-.009.001-.003-.001-.003-.001-.005a.016.016 0 0 0-.003-.006l-.001-.004c0-.001.002-.001.001-.003-.004-.002-.003-.01-.003-.013v-.009c0-.004-.002-.003-.005-.005l-.004-.005-.003-.006-.004-.004a.025.025 0 0 1-.004-.007L7.91 8.78l-.004-.004h-.005c-.003.003-.009.003-.013.003l-.007-.003c-.002-.002-.003-.001-.006-.002-.002 0-.003-.002-.005-.003l-.007-.001h-.01c-.004-.002-.007 0-.01 0l-.008-.001H7.82l-.003.001h-.003l-.006.001c-.004.003-.008.003-.013.004-.005 0-.007.003-.012.004h-.006c-.002.001-.003.003-.005.003l-.012.004-.005.003a.1.1 0 0 1-.01.005c-.002 0-.004 0-.006.002-.001.002-.001.003-.004.004-.002 0-.003 0-.005.002 0 .001 0 .002-.002.003h-.003l-.005.004-.005.003-.001.002H7.71l-.002.004c-.003.002-.004 0-.007.002-.002.001-.002.003-.003.005l-.01.007-.004.005c-.001.002-.004.001-.005.002l-.004.005c0 .003 0 .003-.003.004-.001 0-.005.001-.006.003v.003l-.002.002-.007.009-.003.005-.006.004-.002.006-.003.004c-.004.004-.006.01-.008.014a.01.01 0 0 0-.003.007c0 .001-.002.016-.006.013v.007c0 .001 0 .003-.002.004l-.002.001-.001.008-.002.01-.003.007-.001.007-.002.013c0 .005.004.006.006.01.002.005 0 .01.003.015Zm-.183 1.443c.003.005.004.008.008.012.004.005.01.009.015.012.003.002.009.004.01.008l.018.004c.007.002.018.002.022.002.007 0 .017.002.023-.001l.032-.01c.006-.004.03-.015.033-.018l.02-.01h.005c0-.002 0-.004.002-.005.003-.002.007 0 .01-.003l.014-.011c.004-.002.007 0 .01-.003l.003-.004.006-.002c.005-.004.008-.01.011-.014.005-.006.011-.01.017-.015.004-.004.016-.014.019-.021a.072.072 0 0 1 .008-.015c.003-.004.003-.008.004-.012 0-.005.004-.003.008-.005.006-.002.006-.008.005-.013 0-.006.003-.011.003-.016-.004.003-.005-.003-.002-.004h.003c0-.003.001-.007-.001-.008-.003 0-.001-.005-.001-.007s.003-.005.006-.007c0 0 .002-.001.002-.003-.001-.002-.004-.001-.004-.002v-.008c.003-.003.004-.005 0-.01l-.005-.005a.01.01 0 0 1-.002-.01c0-.007 0-.015.002-.022v-.031l.003-.002-.001-.003c-.002 0-.002-.003-.001-.003 0-.002.002-.003.002-.003 0-.003-.006-.003 0-.006-.004-.004 0-.014 0-.02 0-.002.002-.007.001-.01-.002-.013.001-.031.001-.035l.001-.023.002-.005c0-.002-.003-.002-.003-.004l.002-.003v-.004l.003-.01-.001-.004v-.004h.002c0 .002.002.001.002.001.002 0 .012.006.013.008 0 .001.003.003.004.001v-.01c0-.001 0-.005-.002-.004l-.004.003a.02.02 0 0 1-.007-.003v-.004c.002-.002.002-.005.001-.006 0 0-.002 0 0-.001v-.002c.002-.002 0-.002-.002-.002h-.005c-.002 0 0-.003 0-.004v-.006c0-.002.002-.003.003-.003.002 0 .003.003.003.004.002.002 0 .002-.001.003-.001.003.002 0 .003 0 0 0 0 .002.003.002.002 0 .005 0 .004.002v.002l.001.002h.003v-.002c0-.002 0-.005.002-.006l.003-.004c0-.003-.002-.003-.003-.004l-.003-.005-.003-.003-.01-.004a.012.012 0 0 1-.003-.005v-.009a.006.006 0 0 0 0-.006.02.02 0 0 1-.002-.01l.003-.004c0-.002.003-.001.004-.002.002-.002 0-.003-.002-.004a.025.025 0 0 1-.003-.014c0-.003.004-.004.007-.004l.005.002v-.008l-.001-.004c-.001-.003.004-.005.007-.004h.004v-.004c-.001-.003-.004-.003-.005-.006s-.001-.007.002-.01c.001-.002.003-.003.003-.005V9.9c-.004 0-.003-.001-.004-.004l-.002-.006c0-.002 0-.004.003-.004.002 0 .006 0 .005-.002-.001-.004-.006-.004-.007-.007v-.004c0-.001-.002 0-.003-.002a.055.055 0 0 1 0-.014l.002-.003s-.002-.002-.001-.003l.001-.003c.002-.002.006-.002.006-.005l-.001-.004s-.003 0-.004.003c0 0-.002.004-.004.002l.002-.004c.001-.002-.001-.002-.001-.004V9.83l.004-.005.004-.003c0-.001 0-.002-.002-.002h-.002l-.001-.002c-.001-.002-.002 0-.003-.002V9.8c0-.002.002 0 .002-.002l.001-.005.001-.002c0-.003-.002-.003-.005-.003 0 0-.001-.006.003-.007a.01.01 0 0 0 .005-.003c.001-.002-.001-.001-.001-.002l.001-.003h-.003v-.001l-.005-.004a.008.008 0 0 1-.001-.005l.001-.01c0-.003.003-.005.004-.008l.002-.01h.002v-.003l-.002-.003-.003-.004.001-.001v-.005s.002 0 .001-.002h-.002l-.002-.002-.001.002v-.002s.003 0 .002-.001h-.003l.002-.002.003-.004.002-.002c.001 0 0-.003-.002-.001v.001H7.77v-.034l-.001-.005-.001-.002v-.002l.002-.001v-.01l.001-.01v-.001h.002l.002.001h.002l.001-.003s.002 0 .001-.002h-.001c-.002-.001 0-.001 0-.002l-.004-.004-.003-.004s0-.003.002-.003h.002c.002 0 0 0 .001.002l.003-.003v-.01c0-.003-.003 0-.003-.001l-.002-.005s-.002 0 0-.001h.008v.001h.002c.001 0 0 0 0 0l-.002-.003c0-.001.002 0 .002-.002v-.004c.001-.002.005-.001.005-.004l-.003.001h-.004c-.002 0-.01 0-.009-.002h.001v-.006h.003l.001-.002.003-.004.003-.002.001-.002c.001 0 .004-.002.003-.003h-.003v-.006l-.002-.002.001-.002.002-.001h.002c.002 0 .003-.004.001-.004h-.004v-.003l-.001-.001c-.001-.002 0-.002.001-.003V9.55c0-.001.003 0 .005-.002 0 0 .003 0 .004-.003 0-.002-.002-.001-.003-.003v-.006h.002V9.53l-.002-.001v-.001l-.001-.001-.002-.001.003-.007h.002c.001 0 .002 0 .002-.002h-.006c-.003 0-.002 0-.001-.002l-.001-.002-.001-.003-.002-.001c0-.002.003-.003.004-.004l.007-.006v-.004l-.002-.003-.002-.001v-.003l.001-.003h.002l.003-.001v-.002c.002 0 .002-.002 0-.002s-.004-.002-.004-.004.002-.001.004-.002L7.8 9.47v-.005c0-.002.002-.002.003-.003l.001-.003v-.004l-.002-.001-.001-.007v-.004l.002-.005V9.43L7.8 9.429l-.002-.002v-.006l-.002-.001-.002.003h-.001V9.42c.001-.002-.002-.004-.002-.003v-.01s.002 0 .001-.001h-.001l.002-.003-.002-.001s.002-.001.001-.002H7.79c0-.001-.003-.002-.004-.001l-.001.001-.002.002V9.4l-.002-.003s.002 0 0-.001H7.78v-.004l.002-.001V9.39l.001-.002v-.003l-.001-.001H7.78c0-.002 0-.002.002-.002v-.008l-.001-.004c0 .001 0 .002-.001.001-.002-.002 0-.004 0-.006l-.002-.004v-.003h-.002v-.003h-.002l-.003-.003-.003-.003-.004-.003c0-.002-.002-.001-.004-.002l-.006-.001-.003-.003-.007-.002h-.011l-.003-.002-.002.002c-.002.002-.004 0-.006 0l-.006.001-.015.001c0 .001-.001.005-.003.003-.001-.001 0-.003-.003-.004H7.69l-.004.003a.01.01 0 0 1-.004.002h-.007l-.006.001-.005.002-.005.002c-.002 0-.005 0-.006.003l-.001.002H7.65c-.001-.001-.003.002-.003.003l-.005.002-.01.004a.06.06 0 0 0-.01.009l-.004.003a.9.9 0 0 0-.013.012L7.6 9.39c-.001.002 0 .004-.002.005a.052.052 0 0 0-.006.003l-.001.003-.004.002-.01.012c-.002 0-.006.007-.01.01l-.004.008-.002.001s-.005.006-.004.008h-.002c-.002.004 0 .006-.002.007l-.01.013.002.004-.005.01h.002l-.003.003-.002.001.001.002v.003c-.001.002-.003-.001-.004.001.001 0 .002 0 .001.002l-.001.002-.001.007-.002.003a.013.013 0 0 0-.004.006v.005l-.002.001-.003.009a.319.319 0 0 0-.004.017h.001c.002.002-.002.004-.002.006v.012l-.002.002.001.001c.001 0 .002.004 0 .005l-.001.001c-.002.001.002.001.002.003h-.002v.007l-.002.012c0 .001-.004.007-.004.01l.003.004v.008l-.002.002-.001.008a.044.044 0 0 0-.002.01v.01c-.002 0-.002-.002-.003-.001v.001c.001 0 .003.001.002.002h-.001c-.002 0-.001.005 0 .006 0 0-.002.003 0 .004h.001v.003h-.002l-.001.008-.002.005v.006l.002.002s-.001.003-.003.003h-.001v.007l-.002.017a.105.105 0 0 1 0 .01c-.001 0-.003.005-.002.006l.001.003a.02.02 0 0 1 0 .005h-.002v.009l-.001.012-.002.01v.012c0 .001-.003.003-.002.004h.002l-.001.002h-.002v.005l.002.001c.001 0 .002.001 0 .002l-.002-.001h-.002l.001.002s.002.001.002.003v.004a.007.007 0 0 0-.002.004c0 .002.003.003.002.005h-.004c-.001 0-.002.001-.001.002.003 0 .001.002.001.005l.002.003v.012l-.004.008v.029c-.002.002-.002.007-.003.008l-.002.001.004.005v.003h-.003a.008.008 0 0 0 0 .005l-.001.01-.002.009v.013c0 .001.002.003.001.005 0 .002-.003 0-.004.002 0 0 .003.001.002.003l-.002.002v.003l.002.001s.003.003.002.004c0 .003-.003.001-.004.002v.002l-.001.018a.09.09 0 0 1-.002.01.006.006 0 0 0-.002.005l.002.004c0 .002-.002.003-.002.003v.003l.002.001v.003l-.002.001v.011c0 .002 0 .017-.002.019l-.002.004.002.005v.006c-.002.003-.002.014-.003.015 0 .002 0 .018-.002.022v.01c.001.003-.002.01-.002.012l-.002.02c0 .003-.002.005-.003.007l.001.004.001.005a.583.583 0 0 1-.002.021v.007l-.003.004.001.002a.02.02 0 0 1-.001.007c0 .002-.005.005-.002.006.001 0 .002.003.001.004h-.001l.001.002c.002 0-.001.006-.001.007v.011a.37.37 0 0 1-.004.034c-.002.007-.004.013-.004.02l-.001.024a.16.16 0 0 0-.002.02v.023c-.002.004-.004.007-.004.01v.01l-.002.034a.1.1 0 0 0 0 .024l-.001.01c0 .007.001.013.004.02.002.002.006.015.007.018" />
    <path fill="#fff"
      d="M9.716 9.8c-.003 0-.006.004-.01 0-.003-.003.007-.004.008-.008.002-.002 0-.001 0-.003 0-.005 0-.005.005-.007.002 0-.002 0 0-.003l.002-.004c0-.004-.001-.001-.003-.003-.002 0-.007-.003-.007-.005s.005-.003.004-.007-.005-.002-.006-.005V9.75c0-.002-.002-.001-.002-.003a.019.019 0 0 1-.002-.009c-.005 0-.003-.005-.004-.007-.002-.003-.005-.003-.007-.005-.002-.004-.005-.004-.004-.007 0-.005-.002-.005-.004-.008s-.004-.004-.004-.007c-.001-.005-.003-.005-.006-.007l-.004-.004-.004-.002c-.004 0 .002-.003-.002-.004-.003 0-.002-.005-.006-.006-.002-.001-.005-.004-.008-.004 0 .003.003.003.003.005-.004 0-.01-.001-.012-.004-.001-.003 0-.008-.005-.009-.002.005-.004 0-.008 0 0 .004.003.004.005.006-.005.002-.008 0-.013 0-.004-.002-.008 0-.013-.001l-.012-.003c-.004 0-.008-.003-.013-.002-.005 0-.007-.003-.012-.003l-.013-.002-.031.002h-.015l-.004-.002-.004.002-.01.003-.02.003-.018.006c-.002 0-.005 0-.005.003a.508.508 0 0 0-.035.013c-.006.003-.012.006-.016.01l-.006.004-.003.003-.004-.002c-.004 0-.008.005-.011.007l-.002-.001c-.002.004-.01.006-.015.008l-.014.008a.194.194 0 0 0-.015.008l-.02.011c-.003.001-.004 0-.007.002-.003 0-.002.002-.004.004s-.005.002-.007.002c-.001.004-.01.004-.008.007h-.004c-.004.004-.008.003-.013.006l-.005.005c-.002 0-.004 0-.007.002s-.01.003-.012.006c0 0 .002.002 0 .002-.002.001-.002-.001-.003-.001a.013.013 0 0 0-.007.003c0 .002-.004.004-.006.004h-.005v.003h-.004c-.003.003-.006.003-.01.005l-.008.004-.016.007-.016.008-.008.002c0 .005-.013.006-.016.007l-.018.006a.112.112 0 0 1-.038.01h-.013c-.004 0-.008-.004-.011-.003v-.003a.025.025 0 0 1-.013-.007c-.006-.005-.002-.011-.006-.014-.003-.001-.01-.004-.013-.002-.003.002-.005 0-.005-.003l.002-.003v-.005c0-.005-.003-.001-.006-.002-.003 0-.003-.006-.002-.01h.002v-.01c-.005 0-.002-.007-.007-.005-.001.003-.004.004-.008.003-.004-.002-.001-.003-.004-.006l.004-.001c0-.002-.002-.002-.003-.002-.001-.003-.004-.005 0-.006.007 0 .011-.005.013-.01.001-.004.001-.007-.001-.01h-.004c-.002 0-.001-.002-.003-.003-.002 0-.006.002-.008 0-.002-.003 0-.008 0-.01-.009 0 .005-.012.004-.014a.028.028 0 0 0-.01-.002c-.003 0-.007.002-.007-.002l.003-.003c0-.003 0-.003-.002-.005-.001-.004-.002-.002 0-.006a.013.013 0 0 0 .004-.008c0-.006-.003-.004-.004-.009-.001-.002 0-.006.002-.007.004-.003.004.003.008.002.002-.001.003-.007.003-.009-.002-.004-.004-.002-.008-.002-.006-.001-.01-.01-.007-.015.003-.002.007 0 .01-.002.004-.004-.005-.002-.006-.003-.004-.001-.003-.004.001-.006.003 0 .007.002.01 0v-.005l-.001-.003c0-.004.001-.007-.004-.006-.006.001-.001.004-.004.007-.002.003-.007.003-.007 0l.002-.004-.001-.004v-.01c0-.002-.003-.006.003-.004.003.001.004.007.006.003.003-.004.001-.013.001-.017v-.007c0-.003-.002-.004-.003-.006-.002-.004 0-.004.001-.006A.028.028 0 0 0 9 9.573c0-.001 0-.007.005-.004v.008l.003-.005v-.004c-.002-.002-.003-.001-.003-.004l-.003-.006L9 9.554l-.002-.007c0-.008.006-.002.007-.007 0-.004.005-.005-.002-.008l-.012-.004c-.002-.002-.001-.003-.001-.006l-.001-.006c0-.002.003-.004.003-.005 0-.003-.003-.002-.002-.006.002-.002.007 0 .009-.003.002-.004-.003-.004-.005-.005-.004-.002-.004-.005-.004-.008v-.005l.002-.004c0-.003 0 0-.002-.002 0-.002-.003-.003 0-.004.001-.002.007.001.01 0 .004-.003.002-.004 0-.008 0-.004.001-.006-.003-.007-.005-.002-.006 0-.007-.006-.002-.004 0-.008 0-.013l-.002-.023c0-.008.002-.015.001-.023v-.049c.001-.003.004-.007.004-.01l-.003-.003c0-.002 0-.014.002-.016s.007 0 .01 0c.003.002.01.003.005-.002-.002-.002-.007-.002-.008-.005l-.001-.004c-.001 0-.004.003-.005 0v-.01c0-.006 0-.005.006-.006.003 0 .007-.001.009-.005.002-.005-.001-.004-.006-.005a.01.01 0 0 1-.009-.007c-.002-.005 0-.016.001-.022.003 0 .005.002.008.001.004 0 .003-.002.006-.001.003 0 .003.004.006 0v-.003l.003-.002c-.007-.002-.006-.002-.007-.01a.024.024 0 0 0-.003-.01c-.003-.003-.005-.004-.003-.008 0-.003.002-.001.002-.004a.022.022 0 0 0-.001-.007c0-.001.006 0 .004-.004-.002-.001-.007 0-.008-.002 0-.004.005-.002.007-.004.001-.002 0-.006-.001-.008-.002-.002-.005-.001-.004-.006 0-.002.002-.005.006-.005.002 0 .004.004.007.003.003 0 .003-.003.003-.006-.007.005-.003-.004-.009-.004a.028.028 0 0 1 0-.02c.003-.004.001-.005.002-.009l.001-.003c0-.001.002-.002.001-.004-.003-.004-.01.007-.012.009 0 0-.004.005-.007.003-.002-.001-.001-.007 0-.01l.003-.003v-.008c-.004-.002-.004-.003-.004-.008v-.011c0-.008 0-.014.003-.02 0-.003.002-.007.005-.008l.004.001h.004l.003-.002h.006c.002-.002.003-.003.002-.005-.002-.002-.003 0-.004 0-.004-.002-.002 0-.004-.004l-.003-.006c0-.006-.002-.01 0-.013.002-.002.006-.002.005-.007 0-.003.006-.002.003-.005-.003-.002-.008.001-.01 0-.005-.001-.004-.007-.007-.011-.002-.003-.005-.004-.006-.008a.043.043 0 0 1 0-.022c.004 0 .012.003.014 0-.004-.005-.004-.012-.009-.014-.002-.001-.008-.001-.01-.003s0-.007 0-.01c-.002-.006-.006-.01-.004-.017 0-.002.003-.007.002-.008-.002-.004-.003.005-.007.003 0-.006-.002-.01-.003-.016 0-.004 0-.004-.003-.007a.04.04 0 0 1-.006-.007c-.003-.003-.004-.003-.003-.007l.002-.007c0-.01-.007 0-.008.004-.006 0-.01-.01-.012-.013-.002-.004-.005-.005-.008-.008-.003-.001-.008-.005-.008-.007a.27.27 0 0 0-.04-.014.095.095 0 0 0-.02-.004l-.024-.002h-.022c-.008 0-.015.003-.023.005-.003 0-.005.002-.008.003h-.004l-.007.001c-.004.001-.007 0-.012.002l-.01.004c-.006.002-.013.002-.019.006l-.008.006-.013.005-.019.01-.035.02-.018.01c-.004.002-.012.006-.015.01-.002.002-.001.005-.004.008a.037.037 0 0 1-.01.008.057.057 0 0 0-.014.015l-.011.012-.007.007-.01.005c-.008.009-.02.015-.024.027v.002c-.003 0-.002.003-.004.005-.003.002-.005 0-.007.003-.004.004-.004.01-.007.013l-.014.01a.135.135 0 0 1-.007.005c-.004.001-.004.003-.006.006a.039.039 0 0 1-.016.01l-.017.009-.01.002-.008.006a.056.056 0 0 1-.01.003h-.011c-.007.002-.01.005-.018.002l-.01-.002a.014.014 0 0 0-.009-.003c-.005 0-.01.002-.015.001-.004 0-.004-.003-.006-.006-.001-.004-.002-.006-.007-.005-.004 0-.004.002-.008 0a.036.036 0 0 0-.021.001l-.009.005-.006.006c-.006.004-.017.001-.022 0-.007-.003-.015-.002-.023-.002a.234.234 0 0 0-.046.005l-.02.007-.01.003a.062.062 0 0 0-.006.002c-.007.002-.012.008-.019.01a.091.091 0 0 0-.019.01c-.003.002-.008.005-.01.008l-.002.003h-.005l-.003.004-.005.002c-.004.002-.004.007-.01.009-.008.002-.011.012-.016.017a.16.16 0 0 0-.012.015l-.01.015-.009.015-.009.018a.209.209 0 0 1-.007.018c-.005.013-.01.025-.013.038l-.003.024v.022a.495.495 0 0 0-.005.044c0 .013.001.024-.002.037-.002.008-.001.019-.002.028l-.001.027-.001.026-.002.006.002.005-.001.006v.007l-.001.027-.001.028-.002.029v.005c.001.002.002 0 0 .002.002.006-.002.007-.003.013l.001.014v.015c0 .004-.002.012 0 .015-.003.003 0 .006.002.009-.005.004-.004.012-.004.017v.008c-.002.004-.005.007-.004.011l.004.004c0 .003-.002.003-.003.005v.031c-.001.01 0 .019-.002.029 0 .01.002.02 0 .029v.008c-.002.003-.001.003-.001.007l-.001.02-.001.018v.01c-.001.003-.003.007-.002.01l.001.002-.001.001c.003.004 0 .012 0 .017 0 .005.001.013-.004.015l.003.001v.016c0 .002-.003.006-.002.009.007 0 .002.007 0 .01v.012l-.002.03c0 .005-.002.009-.001.014 0 .005-.003.008-.003.012l.002.005.001.007-.001.014-.002.016v.01l.001.009-.001.005a.063.063 0 0 0-.001.015l.001.01v.013c0 .007.002.018.005.026l.002.001v.004l.004.006.004.012c.004.01.01.012.018.018.008.005.014.01.024.012l.013.002.007.002.006-.002c.009 0 .017.004.026.001.009-.002.019 0 .029-.004.01-.004.017-.008.027-.01a.023.023 0 0 0 .01-.007.013.013 0 0 1 .01-.004c.005 0 .006-.005.01-.007l.006-.001.005-.004.018-.007.007-.005c.002-.003.006-.004.009-.006l.004-.004.006-.001.002-.005.005-.003a.028.028 0 0 0 .007-.01v-.001c.003.004.014.002.01-.002h-.002c-.006-.006.01-.005.014-.01v-.013l-.001-.005V10.1H8.3c0-.002 0-.003.002-.005s.003 0 .006-.001c.007-.002-.002-.002-.002-.007l.002-.005v-.006l.004-.003v-.006c.013.001.004-.004.006-.008l.007-.007.005-.003c.003-.005-.002-.003-.001-.006.001-.005.004-.003.009-.003 0-.006.002-.01 0-.015 0-.004-.004-.005-.007-.01-.003-.003-.002-.008-.002-.012 0-.006-.005-.01-.004-.015.005-.003.004.012.01.013.006.001.003-.004 0-.006-.002-.003-.002-.005-.002-.01l-.001-.004c0-.002-.003 0-.003-.003s.005-.005.006-.009l.003-.009-.002-.003v-.004c.003-.004.01-.007.01-.013a.021.021 0 0 0-.004-.01c-.001 0-.007.003-.004-.003-.003-.001-.016.002-.013-.005.002-.005.011-.001.014-.003v-.005c-.002-.003-.002-.001-.004-.002-.005-.002-.004-.005-.006-.009-.001-.003-.004-.005 0-.008.001-.002.004 0 .004-.004.001-.003-.003-.004-.004-.007-.001-.004.006-.004.01-.006s.006-.009.005-.014h-.006c-.004-.002-.004.004-.007.005-.003.002-.006 0-.005-.003 0-.002.005-.005.006-.007 0-.003-.006-.001-.007-.005l.003-.01v-.066l.002-.005v-.007c0-.004 0-.004.004-.004h.008c0-.004-.005-.004-.003-.008-.003-.001-.003-.003-.005-.004-.002-.002-.003 0-.004-.003-.002-.006.004-.007.003-.011-.008-.002.005-.01.006-.01.003-.004-.002-.003-.002-.005v-.006c0-.002-.004-.013.002-.007.004.002.002.01.002.014.004.001.007 0 .01-.002a.029.029 0 0 1 .008-.004c.006-.002.004-.004 0-.006-.002 0-.006-.001-.006-.003-.002-.002.002-.005.002-.007v-.008c-.002-.003-.005-.004-.004-.007 0-.003.004-.002.005-.004a.011.011 0 0 1-.003-.008l.002-.003-.004-.002c-.006-.003-.01-.006-.012-.012-.003-.002-.005 0-.004-.005 0-.002.002-.005.001-.007 0-.004-.002-.007 0-.01.002 0 .005.003.008.003.004 0 .007-.002.003-.003 0-.006-.004-.006-.007-.01.003-.004.02 0 .013-.009-.002.002-.005 0-.003-.002h.008c.01.001.005-.008.009-.011.004-.004 0-.008-.002-.013l-.003-.006-.007-.007a.01.01 0 0 0 .003-.007c0-.005-.004-.004-.004-.007v-.01l-.003-.007c0-.005.006-.01.01-.01s.013.003.016-.003l-.006-.006c-.004-.001-.008 0-.011-.002.004-.002.012 0 .013-.006.001-.005-.004-.003-.004-.006s.004-.003.004-.007c.001-.001.006-.002.006-.005s-.005-.002-.007-.002c-.007 0-.014-.002-.01-.009.001-.002 0-.002.002-.003.001 0 .004 0 .004-.002.002-.003-.003-.004-.002-.007 0-.004.015-.001.007.006.001.002.004.001.006 0 .004 0 .002 0 .004-.003.002-.002.008-.005.005-.01-.002-.003-.008 0-.01-.003s.003-.008.005-.01a.013.013 0 0 0 .006-.007c0-.004-.004-.006-.003-.009l.003-.003V9.42c0-.003.002-.008 0-.01 0-.004-.003-.003-.001-.008l.002-.004c.002-.001.005.002.007.001v-.007l.002-.001c.003-.003.002-.006.002-.01l.004-.008c.001-.007.004-.013.002-.02-.002-.004-.003-.005.002-.008l.008-.004a.076.076 0 0 0 .016-.01c.004-.004.005-.012.004-.018-.001-.003-.007-.007-.007-.008h.005c.002 0 0 .002.002.003.003.004.004.002.006-.001a.087.087 0 0 1 .01-.01.084.084 0 0 1 .016-.014.177.177 0 0 0 .008-.006l.007-.005c.005-.004.005-.013.006-.02a.043.043 0 0 0 .014-.007c.003-.003 0-.002 0-.006.001-.004.002-.004.004-.007.001-.003.003-.004.005-.006l.007-.006c.004-.003.004-.002.01-.003.008 0 .008-.01.014-.014l.006-.005c.004 0 .008 0 .011-.003l.008-.007c.004-.002.007 0 .01-.003a.027.027 0 0 1 .017-.009c.006 0 .012 0 .017-.002.004-.001.005-.003.01-.003a.01.01 0 0 1 .006.001c.001.001 0 .003.003.003l.004-.002.003.003c.007.003.015 0 .021 0 .014 0 .027.011.033.021l.006.01c0 .002 0 .005.003.007.001.001.004.001.005.003l-.001.003v.01c.002.015.002.03.002.044 0 .016-.002.033 0 .05v.02c0 .004 0 .008-.002.01 0 .001-.002 0-.003.002 0 .003.002.002.003.003l.001.001c.002.005 0 .015 0 .02-.002.007 0 .014 0 .021l-.004.046v.025c-.001.003 0 .008-.002.01l-.004.001-.001.005c0 .003-.002.007 0 .01h.003c0 .004.002.007.001.01 0 .004-.003.004-.006.007-.002.002-.004.008-.003.01 0 .002.003.002.003.003l.001.006c0 .004-.001.009.002.013 0 0 .002 0 .003.002v.005c0 .008-.003.012-.005.019-.001.003-.004.006-.004.009l.001.01c0 .01-.001.017-.004.026-.003.007.002.01.004.016.001.007.004.014.004.02a.047.047 0 0 1-.005.024c-.002.005 0 .015 0 .021v.039c-.001.002-.003.002-.003.004-.004.005-.002.009-.002.013-.001.005-.006.01-.004.015.002.003.004.004.004.009v.01a.026.026 0 0 0-.002.01c0 .004.003.007.003.01 0 .008 0 .014-.002.021a.229.229 0 0 0 0 .043l.002.022c0 .007.001.012.003.019l.001.01c0 .004.002.006.004.009l.005.005c.003.003.003.006.004.01l.004.009.007.009.012.013.009.006.007.006a.057.057 0 0 0 .018.01c.005.001.007 0 .008.009a.009.009 0 0 1-.005.009.092.092 0 0 0-.008.005l-.012.007c-.003.002-.005.002-.007.002l-.022.014c-.006.002-.008.006-.014.009l-.014.008a.02.02 0 0 1-.01.005c-.003.001-.004.004-.007.006l-.008.004-.008.005-.023.013-.035.016c-.026.014-.05.031-.077.044-.006.003-.013.005-.019.009-.003.002-.006.005-.01.006l-.008.005c-.012.008-.024.013-.037.019-.005.002-.012.005-.015.009l.002.001c-.002.002-.007.002-.01.003-.003 0-.005.002-.008.004l-.024.014c-.002 0-.004 0-.006.002l-.011.006c-.003.003-.006.006-.01.007-.003.002-.01.001-.01.005-.014.005-.023.014-.036.02-.011.006-.025.01-.035.02-.002 0-.004.005-.007.005l-.004-.001-.003.003-.01.004-.007.004a1.784 1.784 0 0 0-.037.02c-.012.007-.026.012-.038.02l-.018.012c-.005.003-.01.008-.017.01-.011.003-.021.01-.032.016l-.018.007c-.007.002-.008.008-.014.011l-.008.005c-.003.001-.005-.001-.008.001-.006.004-.01.009-.017.012-.013.006-.025.015-.037.022l-.013.009-.012.004-.007.005-.009.005c-.004.001-.005.002-.008.005s-.004.003-.008.004c-.002.002-.005.005-.008.005-.004.001-.005 0-.009.003-.001.002-.002.006-.005.007l-.004-.001-.004.003-.003.003H7.91l-.002.004c-.002.002-.003 0-.005.001a.028.028 0 0 0-.014.01c-.003.004-.004.003-.008.004l-.009.005c-.001 0-.006.004-.008.003-.003 0-.004-.004-.008-.004-.003 0-.01.003-.011.006v.004l-.005.003c-.004.003-.008.01-.014.01-.004.001-.004-.002-.008.002l-.005.006a.041.041 0 0 1-.015.009l-.02.008-.017.007a.103.103 0 0 0-.019.01c-.005.004-.011.004-.015.008l-.01.008-.004.004-.015.009c-.006.004-.01.008-.017.01a.134.134 0 0 1-.014.006c-.005.002-.01.003-.014.008l-.016.012a.054.054 0 0 1-.017.008c-.007.002-.01.007-.017.01l-.01.007c-.004.001-.007 0-.01.003l-.01.008c-.002.001-.012.005-.012.008l.002.002c-.016.005-.03.018-.046.025-.016.008-.03.02-.045.028-.028.018-.056.033-.084.05-.018.011-.036.02-.052.033l-.009.007c-.003.002-.006.002-.01.002-.004.001-.004.003-.007.007-.003.003-.007.004-.01.005a.115.115 0 0 0-.018.01c-.006.003-.012.005-.018.01l-.008.005a.02.02 0 0 0-.007.005l-.017.01c-.003.001-.005.003-.008.003-.005.002-.002.002-.005.005l-.008.004a.048.048 0 0 0-.007.005l-.004.004-.005.002-.005.006c-.001 0-.003 0-.004.002l-.003.003a.018.018 0 0 1-.007.005c-.003.002-.016.007-.018.006.001-.005-.002-.011-.003-.015.003-.003.004-.004.002-.008s-.002-.004 0-.008c0-.003.003-.006.002-.009-.001-.004-.003-.002-.002-.007.002-.006.004-.014.002-.019-.003-.007-.004-.01-.001-.017.002-.007-.001-.012-.002-.018a.046.046 0 0 1 .002-.02c.002-.006 0-.012.003-.019a.016.016 0 0 0 .002-.008v-.005c0-.001-.002-.001-.002-.003 0-.004.002-.003.005-.005v-.007c.001-.003.002-.004.001-.007l-.002-.002v-.004c0-.006-.007-.006-.004-.012s.005-.008.004-.015c-.008.002 0-.006 0-.009-.006 0-.003-.014-.002-.018h.006c0-.003-.005-.004-.006-.006-.002-.004 0-.005.002-.008a.025.025 0 0 0 .007-.015c0-.004-.002-.005-.004-.008-.002-.004 0-.004.002-.007l.001-.005-.001-.003c-.002-.003 0-.004 0-.008 0-.003-.006-.003-.007-.01v-.033c.001-.002.004-.003.004-.005 0-.003-.003 0-.004-.003l.001-.007.003-.012a.125.125 0 0 0 .002-.027v-.01c0-.003.003-.005.003-.008.003 0 .006-.002.006-.005-.004-.001-.006.002-.008-.001v-.01c.002-.007 0-.014.001-.02s0-.014.002-.02.007-.01.005-.017c-.007 0-.002-.005 0-.008v-.014l.002-.03.002-.028.002-.014v-.006l.003-.005c-.006-.002 0-.01 0-.014a.12.12 0 0 0 .002-.02v-.02c.001-.003-.003-.016.003-.016 0-.02.005-.041.006-.062l.002-.056c0-.006.002-.01.003-.016v-.015l.001-.03c0-.003 0-.008.002-.013 0-.002.002-.003.001-.005 0-.002-.003-.002-.004-.005 0-.004.005-.005.005-.009.002-.005-.002-.006-.002-.01 0-.005.003-.008.003-.013l.001-.014V10c.004-.001.02-.006.01-.01 0 .004-.003.007-.007.002-.003-.004 0-.007 0-.01 0-.004-.002-.011.002-.013a.01.01 0 0 0 .004.002c.004-.005-.003-.008-.004-.012 0-.002 0-.005.003-.006.004-.002.002.003.005.003a.011.011 0 0 0 0-.01c-.001-.002-.004-.002 0-.006 0 0 .003 0 .003-.002v-.004c0-.004.003-.005.002-.01l-.003-.009v-.009a.01.01 0 0 0-.002-.008c-.002-.003-.005-.004-.002-.008.003-.005.012-.007.008-.015-.002-.003-.005-.005-.006-.008 0-.004.003-.005.004-.007.002-.003-.002-.005-.003-.008v-.01c0-.007-.002-.017.004-.02.004 0 .008-.002.005-.009l-.002-.009c.001-.003.003-.008-.003-.008 0-.003-.002-.008 0-.01.002-.001.005 0 .007-.002.003-.003.005-.004.003-.007-.001-.003-.005-.003-.007-.005-.003-.004-.002-.011-.002-.015v-.009c0-.002.003-.002.004-.004-.005 0-.003-.005-.003-.008l-.002-.008.002-.01v-.02c.002-.003.006-.004.004-.008-.001-.002-.007-.002-.006-.007s.006-.001.01-.003l.002-.002c-.003-.003-.007 0-.01-.002-.005-.002-.003-.003-.002-.006.003-.007 0-.012-.006-.015-.004-.002-.004-.003-.006-.007l-.005-.007c-.004-.005-.01-.008-.012-.013-.009-.013-.023-.015-.037-.02a.07.07 0 0 0-.024-.006h-.027a.104.104 0 0 0-.046.004l-.016.007-.009.004-.01.001c-.002.001-.002.004-.002.005-.003 0-.01.006-.01.002-.002 0-.004 0-.004.002-.005 0-.008.006-.013.008l-.012.01a.085.085 0 0 0-.011.01c-.003.003-.01.009-.011.013h-.003v.004a.024.024 0 0 0-.006.007v.005c0 .002-.002.001-.003.003a.073.073 0 0 0-.01.019c0 .003 0 .006-.002.01l-.003.01-.001.02c-.001.006-.004.013-.004.02v.014l-.002.01-.003.022-.002.025v.028a.05.05 0 0 1-.003.02l-.002.004.002.004c.001.004 0 .004-.001.008-.002.007 0 .015 0 .022a.16.16 0 0 1-.001.01c0 .003-.004.007-.003.01l.002.003-.002.005v.01c-.001.008-.002.016-.001.024l-.001.021-.003.02v.011l-.001.01c0 .008-.003.016-.002.024a.02.02 0 0 1-.001.01c-.002.004 0 .007-.001.01l-.002.012v.01l-.002.02v.018c0 .006-.004.01-.004.016 0 .003.002.012 0 .015-.002.004-.007-.004-.01.004 0 .002-.002.007-.001.009 0 .003.003 0 .006.002.002.006 0 .014 0 .02v.005c0 .001-.003.001-.003.003-.002.002 0 .006 0 .009a.056.056 0 0 1 0 .024c-.002.008 0 .015-.002.023l-.002.024v.012l-.002.003v.005l-.002.021c0 .007-.003.013-.004.02l-.002.017c0 .005.002.012 0 .019h-.003v.017l-.003.018c-.001.011-.004.02-.003.032v.01l-.004.008c-.003.007-.002.015-.003.023l-.004.021a.204.204 0 0 1-.006.042l-.001.01c0 .004-.002.005-.003.009l-.004.02a.168.168 0 0 1-.031.07l-.01.012-.02.022-.01.009c-.001 0-.002 0-.003-.002l-.006.007s0 .002-.002.003c-.001.002-.003.002-.005.003l-.008.005-.007.005c-.002.002-.005.002-.008.003a.048.048 0 0 1-.01.005l-.01.004-.01.005c-.01.004-.024.005-.035.007-.007.002-.015 0-.021.001h-.01c-.004 0-.007-.002-.01-.003l-.012-.004-.01-.006a.06.06 0 0 1-.015-.015c-.004-.006-.01-.012-.01-.018a.023.023 0 0 0-.003-.012c-.002-.002-.004-.003-.005-.006a.148.148 0 0 1-.01-.041c-.001-.014-.003-.026 0-.04l.003-.007c0-.003-.006-.003-.006-.006l.004-.008c.001-.008-.001-.01-.004-.017-.002-.002-.002-.007-.002-.01v-.01c0-.003.004-.005.005-.008a.043.043 0 0 0 .005-.017l-.002-.021c.001-.014 0-.03.005-.042a.051.051 0 0 0 .003-.02l-.001-.012.002-.01c0-.005-.002-.01 0-.015l.004-.006.001-.007c.005-.002.008-.014.008-.018 0-.007-.003-.015-.005-.022-.007 0-.004-.005-.005-.008 0-.001-.003-.002-.003-.004v-.015c-.001-.007-.002-.01.001-.012.008 0 .001-.027.001-.03 0-.004.002-.007.004-.01.002-.006.007-.01.008-.016l.001-.01c0-.004.002-.006.003-.009 0-.004 0-.007.002-.01l.004-.01a.076.076 0 0 0 .006-.02c0-.01.003-.017.006-.025l.008-.019c.003-.006.015-.01.015-.018 0-.009.005-.015.005-.024 0-.007.001-.02.01-.023 0-.003.002-.01.006-.01v-.008c.009 0 .006-.008.006-.013.001-.004.006-.011.009-.004.003-.002.005-.007.007-.01h.001a.018.018 0 0 1 .003-.013c-.007-.003.001-.007.003-.01.004-.002.004-.007.008-.009v.001c.007-.005.012-.004.013-.013h.004c0-.008.002-.014.007-.02.002-.004.012-.018.014-.015l.001-.003h.002v-.003c.002-.003.006-.001.009-.003.003-.002.003-.007.007-.007.002-.004.007-.002.008-.006.003 0 .007-.009.008-.012l.003-.006c0-.002.003-.005.003-.008.003 0 .007.002.008-.002-.003-.002-.001-.005 0-.007.003-.002 0-.004.001-.006l.005-.005c.003-.002.009-.006.009-.009-.002 0 0-.012.001-.015.002-.002.004-.003.005-.006v-.008c0-.003.006-.012.008-.02 0-.004-.001-.007-.005-.008 0-.002.003-.002.003-.003 0-.004 0-.014.004-.015a.029.029 0 0 0 .002-.018l-.002-.008-.002-.01-.002.001c-.002-.001.001-.005 0-.008 0-.003-.001-.005-.004-.007a.114.114 0 0 1-.005-.006l-.005-.006c-.003-.003-.006-.003-.01-.003l-.008-.002a.217.217 0 0 1-.009-.004h-.008l-.009-.003-.01-.001-.01.002-.01.001a.05.05 0 0 0-.01.002c-.004.002-.002.003-.007.004-.007 0-.012.003-.02.004a.044.044 0 0 0-.016.005.042.042 0 0 1-.009.002l-.007.004c-.003.002-.007.001-.01.002l-.009.004-.015.006c0 .002-.003.004-.006.005 0 .003-.005.004-.008.006l-.007.006-.004.003-.004.003c-.002 0-.004.01-.006.002-.004-.001-.002.002-.003.003-.002.002-.004.001-.006.002-.003 0-.01.005-.01.008-.012.005-.021.014-.03.021-.009.007-.02.014-.027.022l-.012.011a.073.073 0 0 0-.006.007l-.003.008-.004.001-.003.004-.005.007-.01.011-.004.006-.004.003-.005.01c-.004.006-.01.012-.013.019a.04.04 0 0 0-.01.012l-.005.008c-.003 0-.001.002-.002.004l-.004.003-.006.01c-.003.004-.007.006-.009.01a.049.049 0 0 0-.004.012h-.002c-.002 0-.001.005-.003.007-.001.003-.004.005-.006.007l-.005.008v.005l-.003.002v.004c-.002 0-.003.002-.004.003l-.004.007a.05.05 0 0 0-.004.007l-.004.008c0 .003 0 .005-.003.008l-.004.007-.007.018-.002.009-.004.007c-.002.003 0 .007-.002.01 0 .002-.004.004-.005.007 0 .002 0 .006-.002.006a.056.056 0 0 1-.004.011l-.004.014c0 .005-.003.01-.004.016a.082.082 0 0 1-.006.017c-.003.006-.003.012-.005.018l-.004.019c-.003.011-.004.022-.006.034 0 .005-.002.01-.004.016l-.002.007c0 .003.005.005.002.006 0 .006-.003.013-.005.018a.694.694 0 0 0-.002.01c0 .006.002.01.001.015 0 .005-.004.009-.006.013-.002.003 0 .007 0 .01v.005c-.001.001-.004.001-.002.004.002 0 .001.006 0 .008 0 .001-.002.001-.002.003v.024c-.002.014-.001.028-.003.041-.002.014-.002.028-.002.042v.014c0 .005-.003.006-.004.01l-.004.013a.034.034 0 0 0-.004.011v.026c.005.003-.003.02-.001.025 0 .004.004.006.006.01s.001.008.001.012v.097l-.002.012c0 .009.002.018 0 .027-.002.016.002.032 0 .05 0 .007 0 .013.002.019h-.003c.004.004.002.01.002.015 0 .006.003.01.003.016 0 .007-.002.01 0 .016.004.011.005.022.007.033v.01l.005.007.004.017c.002.003.01.012.006.015.003.004.003.007.004.011.002.005.004.005.007.009.002.003 0 .008.003.011l.008.008c.005.008.012.014.018.02.005.005.013.008.017.014a.016.016 0 0 1 .002.005l.002-.002c.008.007.02.013.028.017.007.004.013.005.02.008a.011.011 0 0 1 .005.005c.002.002.002.006.007.006l-.001-.004c.006 0 .007 0 .01.002a.024.024 0 0 0 .01.003c.005 0 .01 0 .014.002.004 0 .006.003.01.004l.012.001h.011l.01.001h.01v.001h.005v-.002c.005-.004.015.002.021-.001v-.002h.014c.005 0 .008 0 .012-.002.009-.003.018 0 .027-.003l.025-.006c.001-.002.005 0 .009-.002l.003-.001.001-.004c.004-.002.004 0 .007.001l.002.003h.005l.008.003.008-.002c.003 0 .013.006.014 0-.003-.002-.012.002-.01-.005 0-.005.008-.003.012-.004s.009-.005.013-.005c.003 0 .009.005.01-.001l-.002-.005c.002-.001.006 0 .008-.002.002-.001.001-.004.004-.005h.019c.005 0 .01-.003.015-.004.005-.002.013 0 .013-.008l.006-.001.003-.005c.004-.003.007 0 .011-.002.003-.002.002-.003.003-.005l.005-.002c.003-.003.004-.007.007-.008.004-.002.01 0 .014-.003.003-.002 0-.006.004-.01l.012-.005.009-.006c.004-.002.008-.002.011-.005 0-.003.005-.007.007-.008a.011.011 0 0 1 .01-.003h.004c.01.002.007.016.007.022 0 .009.001.016.003.024l-.001.006-.001.004a.013.013 0 0 0-.001.012c0 .002.002.001.003.004l-.002.006v.013l.005.007c.001.004-.002.003-.005.005v.009c.002.003 0 .003.003.004v.013c-.001.004.003 0 0 .005-.002.002-.001.002-.003.002v.005l-.002.01c.002.003 0 .005 0 .008s.004.004 0 .006v.007c-.005.003-.01.003-.013.007a.04.04 0 0 1-.01.005l-.01.006-.01.006c-.005.003-.01.01-.016.014l-.019.012a.102.102 0 0 0-.014.011c-.004.004-.014.006-.015.011-.003 0-.002.001-.004.002l.001.001c-.017.005-.032.02-.047.03-.006.004-.012.01-.018.013l-.009.007c-.003.002-.007.003-.01.006l-.003.004-.006.003-.01.008-.035.025c-.013.01-.024.023-.039.03-.016.01-.03.026-.046.033 0 .004-.003.004-.007.007l-.007.006a.068.068 0 0 1-.018.01c-.003.001-.006.002-.008.005-.003.003-.002.006-.006.008s-.007.002-.01.005l-.008.007-.007.005c-.003.003-.005.002-.009.003.002.006-.006.006-.01.008-.004.004-.006.007-.011.01l-.014.007c-.005.003-.005.007-.01.007 0 .004-.006.005-.01.007l-.007.008c-.003.003-.007.003-.01.005l-.008.006c-.003.003-.004.005-.009.006a.027.027 0 0 0-.011.006l-.017.013a.145.145 0 0 1-.025.018c-.007.005-.015.012-.024.016v.002c-.002.002-.004.001-.007.003-.001.001-.002.004-.005.006a.057.057 0 0 0-.006.003l-.005.006-.014.007-.014.01c0 .004-.005.003-.007.005s-.002.005-.005.007c-.003.001-.007.001-.01.003l-.002.004h-.005l-.013.01-.007.006c-.003.002-.006.003-.006.007-.005 0-.013.006-.017.01l-.006.004c-.002.002-.007.003-.008.005-.002.002-.003.005-.006.006v-.004c-.004 0-.004.005-.006.008-.002.002-.006.002-.009.004l-.015.011-.015.01c-.003.003-.008.003-.01.005l-.009.006v.003c-.007.003-.012.009-.018.012a.083.083 0 0 0-.01.007c-.004.003-.004.005-.007.009l-.009.008-.008.007c-.003.003-.008.003-.011.006-.004.002-.005.005-.009.008-.006.004-.013.007-.018.012l-.014.013c-.005.005-.012.008-.018.012a.352.352 0 0 0-.017.013c-.005.004-.008.01-.014.014-.008.003-.01.009-.018.013-.014.008-.025.02-.038.029-.013.009-.025.02-.037.03l-.02.015c-.004.003-.004.006-.009.008l-.01.006c-.01.01-.02.017-.03.026-.009.008-.02.014-.028.023-.007.006-.014.013-.023.014.004.01-.019.01-.017.019-.004 0-.003-.005-.006-.003 0 .01-.018.018-.024.022-.005.004-.009.006-.012.011-.004.008-.01.006-.018.008.001.002-.004.007-.006.009a.061.061 0 0 0-.007.008.063.063 0 0 1-.017.016c-.014.009-.026.021-.039.031-.004.004-.008.005-.011.007-.004.003-.005.01-.008.013-.005-.004-.006.002-.009.004-.003.003-.006.003-.01.006l-.017.014c-.012.01-.023.02-.036.029-.016.01-.026.027-.042.036l-.01.005c-.004.003-.004.007-.008.01l-.01.006-.008.007-.02.015c-.001.002-.004.003-.004.006-.007.003-.014.01-.02.015-.003.003-.016.011-.016.014-.007.002-.015.01-.021.016l-.011.007-.007.008-.02.015-.018.016a.49.49 0 0 0-.036.03l-.016.013c-.004.004-.01.007-.013.011l-.013.01-.001.006c-.002.002-.004.001-.006.002a.08.08 0 0 0-.018.015c-.003.004-.003.005-.008.008a.193.193 0 0 0-.009.007l-.01.01c-.002.003-.006.004-.009.006-.002.003-.003.006-.006.008l-.004.003-.005.004-.016.014a.355.355 0 0 0-.034.033l-.017.015-.018.017c-.012.01-.024.018-.034.029-.01.012-.024.02-.036.031l-.008.009-.007.01-.017.013c-.006.004-.01.01-.014.014l-.017.014-.031.027c-.011.01-.02.022-.031.031-.014.011-.025.025-.038.037l-.018.018c-.005.005-.011.01-.015.017a.156.156 0 0 1-.032.036l-.023.03-.014.019-.012.018a.045.045 0 0 0-.01.02c.004.002 0 .006-.002.009.003.003-.004.018-.005.023-.001.011.006.015.006.026v.012c0 .005.001.008.003.012l.005.017.004.01.008.019c.002.002.005.004.006.008.003.004.004.009.006.013.003.004.008.005.012.008.006.004.007.011.014.014.012.004.022.013.034.018.003 0 .007 0 .01.002l.008.004c.003.001.007 0 .01.002l.01.004.021.003h.005l.005.001c.004 0 .006-.003.01-.001l.011.002c.003-.001.006-.004.01-.003.003 0 .006.003.01.003.003 0 .007-.003.01-.004.007 0 .015.002.022 0 .004 0 .004-.002.006-.005l.004-.002c.001-.002 0-.003.003-.004l.009-.001c.004 0 .003 0 .006-.004.002-.004.005-.003.008-.005.002-.001.002-.004.005-.006-.001-.006.005-.005.01-.007l.007-.008c.003-.002.007-.002.01-.005l.005-.007.011-.013.005-.007c.003-.003.004-.002.008-.004l.005-.006.006-.005.015-.013.024-.02.003-.003.003-.003a.078.078 0 0 1 .01-.014c.005-.004.006-.008.011-.01.005-.003.008-.01.013-.012.01-.003.01-.008.016-.013l.006-.004a.076.076 0 0 1 .005-.009l.005-.007a.041.041 0 0 1 .005-.006.012.012 0 0 0 .007-.005c.001-.002.002-.005.005-.007.002-.002.005-.001.008-.003l.006-.007c.002-.003.007-.004.009-.007l.001-.008.007-.005a1.6 1.6 0 0 0 .008-.007.067.067 0 0 0 .012-.016l.008-.01c.003-.004.002-.01.006-.012a.05.05 0 0 0 .007-.005l.003-.002h.002l.001-.003s0-.002.002-.003l.006-.001.004-.008.007-.004c.003-.003.003-.005.007-.007a.084.084 0 0 0 .013-.012c.003-.004.01-.006.012-.01-.002-.002.01-.01.012-.012l.006-.006c.001-.002.002-.005.005-.007.003-.004.009-.006.013-.01.004-.003.008-.009.011-.013l.01-.01c.002 0 .003-.003.005-.005l.006-.004c.004-.003.005-.01.009-.013l.003.001c.002-.002.002-.004.005-.006l.007-.005a.09.09 0 0 1 .012-.013c.006-.004.005-.01.011-.013.003-.002.005-.002.006-.005.002-.002.002-.005.005-.007.003-.005.006-.01.01-.013l.017-.01c.012-.008.015-.02.022-.03.005-.01.014-.021.025-.024.004-.001.004-.002.007-.005l.011-.012c.003-.004.004-.007.008-.01.003-.002.007-.003.01-.006.004-.004.003-.009.008-.013.002-.002.009-.004.01-.007l.001-.004.003-.003.007-.005a.031.031 0 0 0 .007-.008l.006-.008.01-.008c.006-.004.01-.01.015-.016.007-.007.015-.008.023-.019.003-.004.008-.006.013-.008a.181.181 0 0 1 .013-.008c.004-.003.007-.008.012-.01 0-.003.003-.004.006-.005s.004-.002.006-.006a.036.036 0 0 1 .01-.012l.008-.004.005-.006.013-.011c.002-.002.007-.005.008-.008.002-.003 0-.004.003-.007l.01-.013c.005-.004.01-.006.013-.011.002-.005.001-.005.006-.006a.018.018 0 0 0 .008-.005l.012-.013.007-.007.004-.007c.003-.005.01-.008.014-.01.002-.003.004-.006.007-.007l.01-.004.003-.007.007-.005.009-.005.005-.007c.004-.005.01-.005.014-.01l.006-.006a.069.069 0 0 1 .007-.005l.01-.007.008-.008v.001l.012-.008c.007-.008.018-.012.025-.02a.073.073 0 0 1 .013-.012c.006-.003.011-.008.016-.012l.006-.006.008-.005a.257.257 0 0 1 .016-.013.168.168 0 0 0 .015-.013.244.244 0 0 1 .03-.024c.004-.002.004-.006.008-.008a.133.133 0 0 0 .02-.012c.006-.005.011-.012.018-.017.01-.008.019-.016.029-.022.005-.003.01-.01.015-.013l.005-.001.002-.004.01-.005.015-.013a.161.161 0 0 0 .015-.01.095.095 0 0 0 .016-.014c.003-.004.008-.005.012-.008a.064.064 0 0 0 .01-.01l.009-.006s0-.002.002-.003l.004-.002.006-.006c.006-.005.01-.01.017-.014l.007-.006.003-.003h.005l.006-.007a.068.068 0 0 1 .01-.008.184.184 0 0 0 .015-.012c.005-.004.01-.01.015-.011l.006-.006c.002-.003.004-.003.007-.005.003-.001.004-.004.006-.006l.007-.006.004-.003c.001 0 .005 0 .006-.002.003-.002 0-.005.003-.008l.005-.001.003-.003a.04.04 0 0 1 .007-.006l.016-.013a.429.429 0 0 0 .038-.03c.003 0 .004-.003.006-.005l.014-.01.013-.011c.005-.004.01-.005.015-.01a.054.054 0 0 1 .007-.006l.008-.003c0-.002 0-.003.003-.003s.005-.005.007-.007l.017-.013.003-.004h.005c.004-.002.003-.003.006-.006.002-.003.004-.003.007-.005a.041.041 0 0 0 .014-.01l.013-.01.006-.008h.005l.003-.004c.003-.002.005-.002.007-.005.001-.001 0-.002.002-.003h.005c0-.003.005-.004.007-.006l.007-.005c.003-.002.002-.003.005-.006.001-.002.005-.003.007-.005l.008-.004.005-.007c.002-.001.006-.002.009-.005a.093.093 0 0 1 .009-.005l.009-.008.012-.01.011-.007c.002-.002.003-.012.006-.007.004 0 .01-.007.014-.009a.066.066 0 0 0 .015-.012c.005-.005.012-.007.018-.012l.006-.008.009-.003c.003-.001.005-.004.006-.007.002-.004.003-.004.007-.006a.033.033 0 0 0 .013-.01l.014-.01a.065.065 0 0 1 .015-.01l.009-.008.012-.008c.006-.004.011-.005.017-.01.004-.004.01-.007.015-.01l.007-.005.009-.004.013-.008c.003-.003.008-.005.012-.007l.008-.004h.003l.002-.004c.004-.003.01-.003.014-.006l.001.001a.016.016 0 0 0 0 .01c0 .004.002.004 0 .008l-.001.01-.002.006v.009c.001.007.003.011.002.018 0 .004-.003.007-.003.01l.002.007c0 .014-.002.028-.001.041v.021c0 .006.002.015 0 .02l-.001.001c-.002.005.001.011.001.017v.008c0 .006.002.012 0 .018 0 .004-.002.005 0 .009 0 .006-.002.013 0 .02v.031l-.002.005.002.004v.082c0 .003-.002.006-.001.01l.001.01v.042c.001.007.004.014.002.02h-.001a.092.092 0 0 0-.001.033v.01c-.001.004-.003.005-.003.01 0 .004.002.005.003.008v.02l-.002.003.001.004v.021l.001.009v.02l-.002.01c0 .003.001.005.003.008.002.005 0 .005-.001.01-.002.003 0 .01-.001.014v.037c0 .006-.003.01-.001.016l-.001.017h.001v.001l-.002.004c.004.002.002.008.003.01v.007l-.002.005.004.003-.002.006c0 .006.001.016-.001.022-.004 0-.006-.002-.008.001-.002.002-.001.008 0 .01 0 .003.003.005.004.008a.05.05 0 0 1 .002.01v.01l-.002.008c0 .006.003.013.002.019l-.002.014v.016c0 .007-.004.011-.004.019v.02l-.002.01.003.01a.28.28 0 0 1 .003.031v.017c0 .005-.002.008-.003.013v.03c.001.008.002.014.001.021l.002.02v.012c0 .003-.002.005-.003.008-.002.004.001.005.002.008v.01c0 .008-.002.013-.003.02a.04.04 0 0 0-.002.013l.002.01c-.001.007-.003.013-.003.02v.042a.175.175 0 0 0-.002.02v.009l.002.007c.002.005-.001.011-.002.016v.01c0 .005-.001.005-.002.008v.022l-.001.02v.02l-.001.016a.425.425 0 0 0-.001.03l-.002.007c.004.003.001.016.001.02v.031l-.002.009.002.01s-.002.002-.001.004v.004l-.002.027c-.001.007.001.014.001.02l-.001.01c0 .003.002.006.001.01l-.003.01c0 .009 0 .02-.002.029.004 0 .005.007.004.01-.001.002-.003.002-.003.004l.002.008v.027c-.002.001.001.016.001.02v.01l.002.004.001.002v.002c0 .001-.002.003-.001.004l.002.004v.011l.002.01.001.01c0 .001.003 0 .004.002v.005c0 .003.002.005.003.008 0 .005.003.012.002.018h.003l.001.01c0 .003.002.006.003.008l.007.019c.002.003.002.007.003.01l.002.005.002.003c.003.007.004.012.008.017l.008.011.01.007.006.008c.005.005.01.01.017.013.005.002.01.006.015.01a.272.272 0 0 0 .058.02l.022.003h.035a.093.093 0 0 0 .037-.002l.01-.005h.01c.003-.002.004-.005.007-.006l.01-.004a.465.465 0 0 0 .045-.031l.007-.006.007-.007.012-.015c.001-.003.003-.004.003-.007l.003-.008a.108.108 0 0 0 .006-.013l.003-.007.002-.002.001-.004h.009v-.003h.005l.004-.005c.003-.002.007 0 .007-.003-.005-.003-.011-.004-.016-.006l-.003-.002h-.005a.012.012 0 0 1-.001-.01c0-.003.002-.005.003-.007 0-.002 0-.006.002-.007.002-.002.016.002.012-.005-.004 0-.002-.002-.004-.004-.002-.001-.005 0-.005-.003h.006c.001-.001.002-.005.001-.007-.001-.004-.006-.005.003-.01.002 0 .006-.006.011-.007.003-.003.004-.008.001-.01 0 .002-.001.005-.003.006-.005 0 0-.004-.002-.006s-.006 0-.008 0c-.003-.001-.003-.004-.006-.004l-.001.003c-.003 0-.006 0-.005-.003 0-.002.003-.002.003-.005 0 0-.006-.002-.004-.006.001-.003.006-.006.002-.01 0 .003-.003.007-.005.005 0-.002.003-.002.003-.005h-.002c-.004.004-.003-.003-.004-.004-.002-.002-.007.001-.009-.002.002 0 .002-.001.002-.003-.004 0-.003-.003-.003-.005-.001-.004-.003-.004 0-.006h.004c.001-.002 0-.003.003-.004.002 0 .007.002.006-.002-.006 0 0-.005-.002-.008a.007.007 0 0 0-.004-.003c-.003-.001-.002 0-.003.001-.003.002-.008.004-.01 0 0-.003.002-.004.001-.005l-.003-.003.002-.002s-.002-.002-.001-.004c.004 0 .002.003.003.005 0 .002.002.003.005.004.002.001.008.003.01.001v-.008c.002 0 .01.001.008-.004 0-.002-.008-.003-.004-.007-.002 0-.004 0-.005-.002.003-.002.005.001.007 0 .003 0 .003-.002.004-.003-.008-.001-.002-.006.004-.006.007.001 0 .006 0 .01.004-.002.009-.008.006-.012-.001-.002-.004-.002-.007-.002-.003-.001-.005 0-.006-.004-.005 0-.006-.006-.008-.008-.006-.008-.009.005-.013-.001.003-.002.007-.01.013-.007 0 0 0 .006.004.006.002 0 .006-.004.006-.006-.003 0-.002-.004-.004-.005-.003-.002-.007 0-.005-.004-.003 0-.003-.003-.006-.005-.004-.002-.002.003-.003.006a.02.02 0 0 1-.001-.014c0-.002.003 0 0-.004a.007.007 0 0 0-.004-.004c-.003.005.006.013-.005.015-.004.002-.015-.003-.016-.007a.053.053 0 0 1-.003-.01c0-.003.005-.001.002-.006l-.004-.004v-.005l-.002-.005c.001-.003.003-.001.004-.002.002-.001.005-.003.002-.005-.002-.002-.005.002-.004-.002l.003-.001c0-.003-.002-.001-.002-.002-.002-.002-.004-.002-.002-.005.003-.003.01.001.014 0 .003 0 .007-.004.009-.007v-.001l-.003.001a.038.038 0 0 0-.01-.006c-.006-.002-.004.005-.006.007-.002 0-.004-.001-.004-.003-.01-.001 0-.007.002-.008a.044.044 0 0 1 .013 0c.005 0 .007 0 .01-.003-.002-.002-.007-.003-.005-.008 0-.002.005-.005.007-.006 0-.002.003-.002.004-.004 0-.002-.002-.003-.001-.004.001-.003.005-.005.007-.007-.001-.002-.006-.002-.006-.005 0-.002.008-.002.004-.005-.001 0-.003.003-.005.003-.004 0 0-.003.001-.004-.002-.003-.004.001-.007 0v-.006l-.004.001c-.001-.003.002-.003.004-.006.002-.004-.003-.001-.003-.005v-.002l-.003-.001c-.002-.002-.002-.005-.002-.007v-.008l-.003-.007H7.18v-.002l-.002-.003s0-.002.002-.002c.001 0 0 .003.002.003l.001-.002-.002-.002c-.002-.001-.001-.004 0-.006l.002-.002v-.004c0-.001.002-.002.001-.003l-.003-.002c0-.001 0-.003-.002-.003h-.004v-.004a.005.005 0 0 0 .003-.002c0-.002.001-.006-.002-.006l-.004.002-.004.003c0 .002.003.005 0 .006-.001.001-.004.002-.005 0l-.002-.003-.005-.005-.004-.001.001-.003v-.003l-.001-.001v-.003c-.002-.001-.005 0-.007-.003-.001-.002.001-.002.003-.003v-.003l.003-.003v-.006c0-.002.004-.003.005-.005.002-.004.002-.008-.001-.01-.004-.003-.008-.003-.007-.009.002-.009.016-.01.015 0-.007.002-.001.01.001.003v-.004l.002-.002c0-.004 0-.003-.002-.006v-.012c.001-.002.005-.003.004-.006h-.01c-.002-.008.013-.006.007-.012-.003-.004-.017-.003-.009-.01l.007-.006v-.005c-.002-.003-.003 0-.004 0a.018.018 0 0 1-.008-.003c-.003-.002-.001-.005-.002-.008v-.007l.004-.003.003-.001h.002c.008-.003-.003-.007-.012-.005-.003 0-.005.004-.008 0-.003-.003.001-.006.004-.007.01-.004-.002-.014.003-.017l.004-.002v-.002h.002l.004-.004.002-.004c0-.007-.01-.003-.014 0l-.002-.001c.002-.004.004-.005 0-.009-.003.003-.005.002-.008 0l.002-.008c-.004-.002-.012-.005-.012-.01 0-.002.006-.005.008-.008s.005-.013.002-.016c-.002-.003-.004-.002-.005-.006v-.005s-.003-.002-.003-.004c-.005-.008.008-.005.013-.006a.02.02 0 0 0 .007-.006c-.001-.003-.004-.002-.007-.003l-.004-.001c-.002-.002 0-.002 0-.004l-.001-.008v-.005l.003-.003c0-.002-.003-.005-.006-.003-.004.002.001.003.001.006 0 .002-.004.005-.005.005-.003.001-.005-.002-.008 0-.003-.002 0-.004-.001-.005-.001-.002-.004-.003-.004-.005 0-.005.007-.003.006-.007 0-.004-.004-.006-.006-.01s.004-.005.003-.009c0-.007.018 0 .02-.003.003-.002 0-.006-.002-.007-.003-.002-.008 0-.007-.006 0-.002.002-.007 0-.009-.002-.002-.007.001-.009-.003-.001-.002.002-.005.002-.008l-.002-.005-.004-.001c-.006-.001 0-.004.002-.006.001 0 0-.003.002-.004l.003-.003c.002-.002.002-.007.004-.01.003-.002.007 0 .01 0s.003-.003.004-.004c-.002.002-.005.002-.006-.001 0-.005.003-.004.005-.008.002-.002 0-.006.002-.009 0 0 .002 0 .002-.002-.003-.002-.003.002-.004.004 0 .002-.004.005-.006.003s.001-.005 0-.007c0-.002-.003-.002-.005-.004 0-.003.005 0 .007-.004.001-.002-.002-.006-.002-.01l.003-.003c0-.002-.002-.003-.002-.001-.001.002 0 .003-.002.004l-.004.002h-.004v-.005c-.001-.002-.002-.002-.001-.004l.002-.003c0-.003-.003-.003-.005-.004l-.001-.005-.004-.004c-.004-.003-.002-.005.002-.007l.004-.005.003-.003a.014.014 0 0 0 .005-.008c.001-.002.001-.008-.002-.008-.002 0-.003 0-.003-.002s.001-.003.003-.003h.005c.002-.002.001-.004 0-.004-.003-.002-.009-.001-.011 0-.003 0-.008.001-.008-.003.001-.002.007 0 .01.001h.005c.003 0 .001 0 .004-.002.002 0 .005-.002.007-.005v-.004c-.001-.002-.004-.001-.005-.003 0-.003.005-.005.003-.008l-.001-.002v-.002c-.002-.002-.004-.002-.005-.002-.003-.002-.007-.004-.006-.008.002-.002.007 0 .01-.001.004 0 .005-.003.002-.006s-.005-.003-.008-.004a.017.017 0 0 1-.004-.003l-.001-.004-.006-.005c-.002-.004.002-.004.004-.005.002 0 .002-.002.004-.003l.009.003.003.002.001-.004.002-.004-.002-.004-.001-.006-.004-.004c-.003-.002-.007.007-.011.005 0-.003.006-.002.005-.006 0-.002-.006-.003-.007-.001-.001 0 0 .003-.002.004-.002 0 0-.003-.001-.004-.001-.002-.003-.001-.003-.003s.002-.002.003-.004c-.003-.003.004-.003.006-.004 0-.001.002-.003 0-.005h-.005c-.004 0 .001-.006-.001-.009-.002-.001-.003 0-.003-.002s0-.003.002-.003c.001-.001.003-.002.003-.004v-.002l.001-.003v-.005l.004-.004a.016.016 0 0 1 .008-.003c.003 0 .008 0 .01-.002v-.004c-.002-.002-.003 0-.005 0-.003 0-.003-.001-.003-.003l-.002-.004c-.002-.005.002-.004.005-.006s0-.002-.002-.002-.002-.001-.004-.003l-.003-.001c0-.002.002-.002.003-.003a.007.007 0 0 0 .004-.006c-.002 0-.002.002-.003.003s-.004 0-.004-.001c0-.002.002-.002.003-.004v-.005l.005-.007c0-.001.003-.004 0-.004l-.003.003c-.001.002-.002.008-.006.005-.002-.001 0-.006.002-.009l.005-.009c.002-.002.005-.005 0-.007l-.003-.001c-.002-.002.001-.002.002-.003l-.001-.003-.003.001c-.002 0-.002 0-.002-.002s.001-.003.003-.005c.002 0 .002-.003.002-.005v-.004l.002-.002.001-.004v-.003l.001-.003.001-.003v-.007l-.002-.002-.003-.002c-.002-.002-.004-.002-.005-.006v-.006c.001-.002.003-.001.004-.002.001 0 .002 0 .002-.002s0-.005-.002-.006l-.003-.002-.002.002c-.001.001-.002.002-.003 0v-.002c.002-.002.005 0 .005-.003v-.007h.003c.003-.002.003-.008.003-.01v-.01c0-.003.001-.006-.001-.008l-.005-.001.001-.003h.004l.002-.004v-.011a.007.007 0 0 1-.002-.004v-.011l.002-.003v-.003c-.002-.001-.002-.003-.002-.004v-.01l.003-.002v-.003l-.001-.002c0-.003-.001-.005-.004-.004-.001 0-.004.001-.002-.001l.002-.001.003-.002.001-.003c.001-.001.002-.001 0-.002v-.002l-.002-.003v-.008l.001-.009.002-.002.001-.003v-.002l-.002-.003v-.006c0-.001 0-.002.002-.003l.005-.001c.001-.003-.002-.001-.003-.001l-.001-.002c-.001-.001-.003 0-.003-.002l.002-.002v-.003l.002-.005-.002-.003v-.007h-.002a.01.01 0 0 1 0-.007c.002-.002.004-.005 0-.005h-.003c-.002 0-.002.001-.003.002l-.003.001c-.001 0-.003-.002-.002-.003l.003-.001v-.004l.001-.003.004-.002v-.003c0-.002 0-.002-.002-.003 0-.002.004-.003.006-.003l.007-.001.002-.003c0-.002-.001-.002-.003-.002H7.14v-.01l.003-.001.001-.003v-.002c-.001-.002-.001 0-.002 0l-.003-.005c-.001 0 0-.002-.002-.002l-.001.002c-.002.002-.008 0-.005-.003l.003-.001v-.005c0-.002.002-.003.003-.005a.01.01 0 0 0 .002-.006v-.004h-.003c-.002-.001-.003-.003-.003-.006v-.003l.002-.003v-.024c-.003-.003-.002-.006 0-.009a.013.013 0 0 0 0-.007c0-.002-.002-.003 0-.006v-.004s.002 0 .002-.002l.002-.004s-.002 0-.003-.002a.004.004 0 0 1 0-.002l-.002-.005c0-.004.003-.002.005-.005 0-.001 0-.005-.002-.005 0-.001-.002 0-.003-.002v-.007l.003-.002c.002-.002.002-.004.002-.006s.002-.003.003-.005c0 0 .002-.004.001-.005-.002-.001-.003-.001-.003-.004a.02.02 0 0 1 0-.006c.001-.001.003-.002.003-.004 0-.004-.006-.003-.008-.005s0-.008 0-.011l.001-.005c.002 0 .003 0 .003-.003l.002-.005v-.003l.001-.002c.001-.002.003-.006.002-.008l-.004-.004-.003-.004c-.002-.002-.003-.005-.003-.009v-.004l-.004-.004c-.001-.003 0-.008.003-.009h.005l.001.006c.003.002.007 0 .007-.004 0-.002-.004-.002-.002-.005 0-.002.003-.002.003-.005v-.003h-.003c-.002-.002-.006-.002-.008-.003 0-.003.004-.006.002-.009l-.003-.004v-.005c.002 0 .004 0 .005-.002v-.006c.001-.002.003-.002.002-.004 0-.002-.002-.002-.003-.004 0-.002.003-.002.003-.004l.002-.006c0-.003 0-.003.002-.005s.003-.003.003-.006v-.02c-.001-.002-.003 0-.004-.001-.002-.001 0-.003-.001-.005 0-.002-.001-.002-.003-.001l-.004-.001c-.002-.001-.003-.001-.003-.003 0-.003.002-.002.003-.003.003-.002.003-.006.003-.01 0-.002.002-.001.003-.003l.001-.005.001-.01c.001-.003.004-.005.004-.008 0-.002 0-.004-.002-.004s0 .002-.003.003l-.008-.004.001-.002.001-.002v-.005a.01.01 0 0 1 .003-.004l.003-.003.004-.004.002-.005.004-.003.001-.005c0-.002 0-.004-.002-.004l-.004.002c-.005.002-.003-.004-.004-.006a.01.01 0 0 1 0-.005l.003-.003v-.007a.008.008 0 0 0 .001-.005c0-.002-.002-.003-.003-.005v-.006c0-.003.002-.005.003-.008l-.001-.008-.004-.001.001-.004h.004l.004-.001v-.005c.001-.001.002-.003 0-.004-.003-.002-.009.002-.008-.005 0-.003.004-.004.005-.007v-.006c0-.003.002-.004.003-.006.001-.001.002-.004.001-.005-.001-.002-.003 0-.003-.003v-.004c-.002-.001-.003-.002-.002-.004.001-.005.004-.004.007-.006s.007-.006.008-.01h-.001c0-.002.002-.004.004-.006.002.001.002.003.005.002l.004-.005c.003 0 .007 0 .008-.002.002-.001 0-.004.003-.006.003-.003.009 0 .012-.002.002 0 .003-.002.004-.003l.003-.003c.003-.002.003-.005.005-.007s.005-.004.003-.007l-.001-.002h.001l.004-.003a.015.015 0 0 0 .004-.004l.004-.002c.002-.001.002-.003.004-.003h.005c-.004-.002.001-.005.004-.005h.004c.001-.002 0-.004.002-.005l.002-.001v-.002c.001-.002.002-.001.004-.002l.001-.001h.003l.001-.002.002-.002c.002 0 .004-.004.006-.004v.002c.002 0 .004-.003.005-.004l.005-.004c.002-.002.006-.006.01-.006 0 .002.003 0 .003 0v-.004a.018.018 0 0 1 .009-.006h.002c.002 0 .002-.001.003-.002a.018.018 0 0 1 .003-.003l.004-.003.005-.003.004-.003.005-.001c.003-.001.013-.015.016-.011.004-.005.01-.007.014-.01-.001-.003.004-.002.006-.004.003 0 .006-.003.008-.005.005-.003.009-.006.015-.008.004-.001.004-.002.006-.005s.004-.003.008-.005a.076.076 0 0 0 .014-.01.052.052 0 0 1 .018-.01.018.018 0 0 1 .008-.003c.003 0 .009 0 .01-.004l-.001-.004.003-.003.008-.004c.004-.002.005-.001.009-.001.003 0 .009 0 .009-.003 0-.002-.002-.003-.004-.003 0-.004.004-.005.006-.005.004-.001.004-.003.007-.005l.007-.005.004-.001.003-.005c.003 0 .007 0 .01-.002s.002-.005.005-.006c.005-.004.014-.004.018-.008l.001-.002.018-.01.005-.003c.001-.001.001-.003.004-.005s.008 0 .008-.006c.004-.001.012-.01.014-.007.005-.006.008-.007.015-.01l.015-.009.007-.005c.003 0 .004-.003.007-.004a.065.065 0 0 1 .015-.01l.018-.01.015-.007c.003-.001.004-.004.006-.005a.03.03 0 0 1 .008-.005c.002 0 .002 0 .003-.002l.004-.004h.006l.004-.003.007-.006.018-.01.035-.02c.005-.002.008-.007.013-.008.006-.003.012-.008.018-.01.012-.006.023-.015.035-.021l.02-.011c.005-.004.011-.005.017-.008.006-.004.012-.009.018-.011.007-.003.012-.005.017-.01a.067.067 0 0 1 .014-.009c.006-.003.012-.004.017-.008.001-.002.003-.005.006-.006l.008-.003c.003-.002.005-.005.008-.006l.01-.004.006-.004.009-.004.016-.01.008-.007.01-.004c.003-.002.005-.004.008-.004l.005-.001s0-.003.002-.004l.01-.002a.037.037 0 0 0 .007-.005c.005-.005.006-.007.013-.009a.06.06 0 0 0 .018-.009l.007-.005.01-.004.017-.01c.011-.006.023-.013.034-.017l.007-.005a.124.124 0 0 1 .016-.008l.006-.005.017-.009a.087.087 0 0 1 .017-.01c.003 0 .004 0 .007-.002l.007-.005c.003 0 .014-.003.013-.008.002 0 .005 0 .007-.002.002 0 .002-.002.004-.003a.134.134 0 0 1 .011-.006l.008-.001a.015.015 0 0 1 .007-.005l.004-.004c.003-.002.004-.004.007-.003l.007-.005c.002-.002.006-.003.009-.004l.016-.01.008-.006c.002-.002.015-.005.017-.008l.007-.005a.137.137 0 0 0 .021-.009c.003-.001.006-.004.01-.004 0-.005.001-.005.006-.007l.015-.003c.002-.004.01-.007.015-.01.002 0 .003-.003.006-.004l.007-.004.016-.007.008-.004c.002-.002.002-.005.005-.007h.01c.003-.001.002-.003.004-.004l.005-.001c.006-.004.01-.008.018-.01.006-.001.01-.006.016-.008.004-.001.004-.002.007-.005l.005-.001.004-.004c.006-.004.015-.006.022-.01l.018-.01.017-.008c.006-.003.012-.004.017-.008a.06.06 0 0 1 .023-.01c.002-.005.009-.008.013-.009.003 0 .005 0 .007-.002l.002-.003a.02.02 0 0 1 .01-.004c0-.002.003-.002.005-.003l.021-.009.006-.004c.004-.002.004 0 .006-.005l.008-.001s0-.002.002-.003h.003l.015-.01h.007l.007-.006.015-.008v.002c.002 0 .004-.003.006-.005.004-.003.006-.002.01-.003a.211.211 0 0 0 .015-.01l.008-.004.015-.007.01-.007.008-.003a.12.12 0 0 0 .017-.008c.008-.004.015-.009.024-.011l.018-.009.01-.005.005-.002h.003l.001-.002.017-.007.007-.005c.004-.001.004-.003.007-.005.006-.003.014-.004.02-.006l.018-.008.017-.008c.005-.002.011-.003.016-.006l.017-.007c.002-.002.004-.005.007-.005s.007.002.009 0c-.003-.004.004-.005.006-.006.004 0 .005-.002.008-.004l.017-.007.018-.007.01-.005c.003-.002.006-.002.01-.003.004-.002.007-.005.012-.006l.014-.004a.13.13 0 0 1 .013-.006c.004-.002.01-.001.014-.003l.015-.008.014-.004a.43.43 0 0 0 .043-.016l.02-.007c.006-.003.038-.011.046-.014a.293.293 0 0 1 .043-.013l.022-.008.023-.005.043-.013.021-.006.03-.012c.011-.005.023-.008.035-.012a.525.525 0 0 1 .047-.025.059.059 0 0 0 .017-.01c.01-.006.02-.018.032-.022l.006-.003c0-.003.005-.008.007-.01.004-.001.01-.002.008-.008.005-.001.005-.001.008-.005.003-.003.007-.003.01-.006l.012-.018c.003-.006.007-.007.01-.012l.005-.01.002-.007c0-.001 0-.003.002-.004h.004c0 .001.003.008.006.004.002-.003-.004-.007-.003-.01 0-.002.003-.003.003-.005v-.006a.006.006 0 0 0 .006-.005H9.69c-.003-.004.004-.015.008-.01l.001.003c.003 0 .003-.002.003-.004v-.008c0-.003.003-.004.005-.007s0-.006 0-.01c0-.002.01-.003.01-.002.002 0 .006-.004.007-.006-.001-.001-.006-.002-.007-.004-.002-.002 0-.006 0-.01" />
    <path fill="#fff"
      d="m7.14 12.386-.001.003c0-.001 0 0 0 0l.001-.003Zm0 .001c.001-.003.004-.004.004-.006-.003-.002-.004.003-.004.006ZM5.303 10.56c-.012 0-.011-.011-.019-.017-.004-.003-.005-.02.004-.02l-.001-.001-.004-.008-.005-.015c-.003-.009-.004-.018-.009-.026-.004-.005-.006-.009-.012-.013-.01-.008-.011-.013-.013-.013-.006 0-.011-.003-.016-.003-.008 0-.015-.002-.022-.003a.247.247 0 0 0-.103.036l-.02.014c-.006.003-.013.005-.017.011l.002.003c-.003.001-.007 0-.01.003l-.008.007c-.004.004-.012.01-.013.016-.009.003-.016.015-.022.022a.174.174 0 0 0-.02.03c-.01.02-.018.042-.027.064l-.01.024c-.002.006-.001.026-.008.027v.002c.006.013-.001.023-.004.036a.195.195 0 0 0-.003.042c0 .016-.004.03-.003.044 0 .014-.004.026-.005.039 0 .008-.007.042 0 .046.002.007-.003.007-.005.012l.003.017-.003.033c0 .005 0 .01-.002.015v.012c0 .022.002.051-.007.072.003.002 0 .018 0 .024 0 .01-.002.017.002.025-.004.009 0 .02-.004.029-.015-.012-.003.021-.003.025.001.007-.003.012-.003.018 0 .006.003.012.002.019a.229.229 0 0 1-.007.036c-.003.013-.003.025-.005.038 0 .002-.002.005-.001.008l.003.002c.002.01 0 .02 0 .03 0 .024-.005.045-.004.069 0 .007-.002.012-.003.018l.001.02v.017c-.002.005-.002.01-.002.017 0 .012-.003.025-.003.038v.083c0 .006.004.02 0 .024.005.005 0 .011.002.018 0 .004.004.011.006.016l.005.016c.001.005.008.01.007.013.005.002.003.005.006.007.003.003.003.002.008.004l.016.006c.011.006.025.006.037.007l.01.001c.004 0 .005-.002.009-.003.006-.002.014 0 .02-.002.002-.001.002-.005.005-.007l.008-.003a.576.576 0 0 0 .042-.023l.016-.01c.005-.006.006-.008.013-.012l.015-.009a.121.121 0 0 0 .023-.021c.005-.006.003-.013.012-.009.004.002.012.003.016-.002.003-.004 0-.015.006-.02.001.006.005.009.01.01.002-.003.006-.001.007-.002.002 0 .003-.003.003-.005 0-.008.005-.012.005-.014 0-.015-.01-.006-.018-.006-.006 0-.004.002-.004-.005v-.014c.002-.007.008-.012.011-.019.003-.007-.002-.014.001-.02.002-.004.004-.005.004-.01l.001-.01c0-.008 0-.015.003-.021.001-.003.003-.006.002-.01 0-.003-.004-.003-.002-.007v-.002c.002 0 .003-.007.004-.01a.03.03 0 0 0 .004-.013l.001-.013c.001-.002.006-.011 0-.01-.002-.009.003-.022-.005-.03.003-.007.006-.012.004-.02l-.002-.012c-.001-.002-.002 0-.002-.003l.005-.012.002-.005V11.3l-.002-.001c0-.007-.002-.014-.001-.021 0-.004.001-.005.003-.008l.002-.01a.084.084 0 0 0 0-.02c0-.004.002-.006.003-.01v-.01l.003-.021c0-.006.004-.012.005-.018 0-.007-.002-.013 0-.02 0-.006.006-.01.005-.017 0-.005-.003-.015 0-.02h.002c.002-.003 0-.007 0-.011l.004-.008c.003-.006.003-.011.005-.018a.048.048 0 0 0 0-.02v-.02c0-.006-.002-.014.001-.02l.004-.004c.005-.008.003-.017.004-.026v-.01c.002-.001.006-.003.007-.005.003-.004 0-.01 0-.017v-.038a.11.11 0 0 0 .005-.017c.001-.013-.003-.026-.003-.038v-.019c.002-.005.007-.008.009-.013l.004-.018.005-.018c0-.008-.005-.012-.002-.019.001-.003.005-.002.005-.007.001-.004-.001-.006-.002-.01 0-.007.002-.008.004-.015.002-.006.002-.014.002-.02v-.008c0-.002-.003-.003-.003-.005a.03.03 0 0 1 .003-.013l.01-.022a.035.035 0 0 0 .005-.013c0-.005-.006-.008-.006-.014a.08.08 0 0 1 .003-.015c.002-.004.006-.006.006-.009 0-.003-.003-.002-.004-.003-.004-.004-.005-.01-.008-.015a.058.058 0 0 1-.009-.023c0-.006 0-.021.003-.025.005-.006.022 0 .021-.009Z" />
    <path fill="#fff"
      d="M16.76 12.749a1.63 1.63 0 0 1-1.051.36c-.63 0-1.26-.294-1.676-.54-.712-.44-1.34-1.05-2.103-2.07.763-1.018 1.391-1.627 2.103-2.069.417-.245 1.046-.539 1.676-.539.4 0 .754.121 1.05.36.663.534.899 1.466.899 2.249 0 .783-.236 1.715-.899 2.249Zm-8.61 1.066c-.66.389-1.66.854-2.667.854a2.64 2.64 0 0 1-1.702-.584c-1.058-.85-1.439-2.35-1.439-3.585 0-1.236.381-2.736 1.439-3.586a2.647 2.647 0 0 1 1.702-.583c1.006 0 2.007.465 2.666.853 1.128.7 2.168 1.707 3.358 3.316-1.19 1.608-2.23 2.616-3.358 3.315m8.83-5.818c-.356-.295-.787-.437-1.27-.437-.71 0-1.4.32-1.858.59-.745.462-1.404 1.101-2.133 2.07 0 0-1.502-2.176-3.388-3.316C7.636 6.484 6.57 6 5.483 6a2.99 2.99 0 0 0-1.922.66C2.944 7.156 2 8.33 2 10.5s.944 3.344 1.561 3.84a2.99 2.99 0 0 0 1.922.66c1.086 0 2.153-.483 2.847-.904 1.886-1.14 3.388-3.315 3.388-3.315.729.968 1.388 1.607 2.133 2.07.458.27 1.148.588 1.858.588.483 0 .914-.141 1.27-.436.678-.564 1.02-1.434 1.02-2.503 0-1.07-.341-1.94-1.02-2.503Z" />
  </g>
  <defs>
    <clipPath id="a">
      <rect width="20" height="20" fill="#fff" rx="4" />
    </clipPath>
  </defs>
</svg>