<svg width="20" height="20" viewBox="0 0 20 20" fill="none" xmlns="http://www.w3.org/2000/svg">
  <rect width="20" height="20" rx="4" fill="#0071CE" />
  <path
    d="M10.0538 7.563C10.3697 7.563 10.6357 7.39811 10.6704 7.1861L10.9835 3.63879C10.9835 3.28753 10.5699 3 10.0538 3C9.53483 3 9.12396 3.28753 9.12396 3.63879L9.43989 7.1861C9.47317 7.39811 9.73781 7.563 10.0538 7.563Z"
    fill="#FFC220" />
  <path
    d="M8.13231 8.67303C8.28886 8.3959 8.27986 8.08828 8.11083 7.9511L5.18705 5.90655C4.88292 5.72918 4.4277 5.9405 4.16721 6.38807C3.9074 6.83495 3.96005 7.33656 4.25796 7.51046L7.49488 9.01114C7.70204 9.08873 7.97293 8.94462 8.13231 8.67026"
    fill="#FFC220" />
  <path
    d="M11.9748 8.67007C12.1404 8.94444 12.4113 9.08855 12.6129 9.01511L15.8498 7.51027C16.1505 7.33291 16.1955 6.83614 15.9413 6.38927C15.6815 5.9417 15.2235 5.73177 14.92 5.90567L11.9956 7.94814C11.8335 8.0874 11.8217 8.39641 11.9782 8.67285"
    fill="#FFC220" />
  <path
    d="M10.0538 11.994C10.3697 11.994 10.6357 12.1589 10.6704 12.3709L10.9835 15.9182C10.9835 16.2695 10.5699 16.5543 10.0538 16.5543C9.53483 16.5543 9.12396 16.2695 9.12396 15.9182L9.43989 12.3709C9.47317 12.1589 9.73781 11.994 10.0538 11.994Z"
    fill="#FFC220" />
  <path
    d="M11.9748 10.8872C12.1404 10.6121 12.4113 10.4652 12.6129 10.5449L15.8498 12.047C16.1505 12.2209 16.1955 12.7218 15.9413 13.1694C15.6815 13.6135 15.2235 13.8248 14.92 13.6509L11.9956 11.6056C11.8335 11.4678 11.8217 11.1601 11.9782 10.8872"
    fill="#FFC220" />
  <path
    d="M8.13231 10.8841C8.28886 11.1606 8.27986 11.4675 8.11083 11.6061L5.18705 13.6479C4.88292 13.8252 4.4277 13.6132 4.16721 13.1691C3.9074 12.7222 3.96005 12.2206 4.25796 12.0467L7.49488 10.5447C7.70204 10.4657 7.97293 10.6112 8.13231 10.8841Z"
    fill="#FFC220" />
</svg>
  