<svg xmlns="http://www.w3.org/2000/svg" fill="none" viewBox="0 0 20 20">
  <rect width="20" height="20" fill="#0071CE" rx="4" />
  <path fill="#FFC220"
    d="M10.054 7.563c.316 0 .582-.165.616-.377l.313-3.547c0-.351-.413-.639-.93-.639-.518 0-.929.288-.929.639l.316 3.547c.033.212.298.377.614.377ZM8.132 8.673c.157-.277.148-.585-.021-.722L5.187 5.907c-.304-.178-.76.034-1.02.481-.26.447-.207.949.091 1.122l3.237 1.501c.207.078.478-.066.637-.34M11.975 8.67c.165.274.436.419.638.345L15.85 7.51c.3-.177.345-.674.091-1.12-.26-.448-.718-.658-1.021-.484l-2.924 2.042c-.162.14-.174.448-.018.725M10.054 11.994c.316 0 .582.165.616.377l.313 3.547c0 .352-.413.636-.93.636-.518 0-.929-.284-.929-.636l.316-3.547c.033-.212.298-.377.614-.377ZM11.975 10.887c.165-.275.436-.422.638-.342l3.237 1.502c.3.174.345.675.091 1.122-.26.444-.718.656-1.021.482l-2.924-2.045c-.162-.138-.174-.446-.018-.719M8.132 10.884c.157.277.148.583-.021.722l-2.924 2.042c-.304.177-.76-.035-1.02-.479-.26-.447-.207-.948.091-1.122l3.237-1.502c.207-.08.478.066.637.34Z" />
</svg>