<svg xmlns="http://www.w3.org/2000/svg" fill="none" viewBox="0 0 20 20">
  <rect width="20" height="20" fill="#fff" rx="4" />
  <g clip-path="url(#a)">
    <path fill="url(#b)" fill-rule="evenodd"
      d="M10 3.546h.007c.745.028 1.103.196 2.412.832 1.31.636 2.55.636 2.696.864.147.228-.044 1.487-.165 2.983-.162 1.995-.054 4.536-.463 5.06-1.475 1.884-4.359 3.253-4.487 3.253-.128 0-3.012-1.37-4.487-3.254-.41-.523-.301-3.064-.462-5.06-.122-1.496-.313-2.755-.166-2.982.147-.228 1.386-.228 2.696-.864 1.31-.637 1.667-.804 2.412-.832H10Z"
      clip-rule="evenodd" />
    <path fill="url(#c)" fill-rule="evenodd"
      d="M14.88 9.398H9.974V3.546h.007c.749.028 1.108.195 2.424.832 1.316.636 2.562.636 2.71.864.147.228-.045 1.487-.167 2.983-.03.377-.051.774-.068 1.173Zm-4.906 7.14c-.129 0-3.027-1.37-4.51-3.254-.333-.424-.325-2.175-.396-3.886h4.906v7.14Z"
      clip-rule="evenodd" />
    <path fill="#fff"
      d="M12.36 12.668c-.717 0-1.298-.557-1.298-1.244 0-.687.581-1.244 1.298-1.244.717 0 1.298.557 1.298 1.244 0 .687-.581 1.244-1.298 1.244Zm0-.163c.622 0 1.127-.484 1.127-1.08 0-.597-.505-1.08-1.127-1.08-.623 0-1.127.483-1.127 1.08 0 .596.504 1.08 1.127 1.08Z" />
    <path fill="#fff"
      d="m12.177 11.693.626-.613a.088.088 0 0 1 .122 0 .083.083 0 0 1 0 .119l-.748.732-.335-.328a.083.083 0 0 1 0-.119.087.087 0 0 1 .122 0l.213.21ZM6.273 6.38v1.622c0 .018.015.033.033.033h2.432a.033.033 0 0 0 .033-.033V6.38H6.273Zm.033-.484h2.432c.11 0 .2.088.2.197v1.909c0 .109-.09.197-.2.197H6.306c-.11 0-.2-.088-.2-.197V6.093c0-.109.09-.197.2-.197Zm.067.362a.116.116 0 0 0 .116-.115.116.116 0 0 0-.116-.116.116.116 0 0 0-.117.116c0 .063.052.115.117.115Zm.366 0a.116.116 0 0 0 .117-.115.116.116 0 0 0-.117-.116.116.116 0 0 0-.116.116c0 .063.052.115.116.115Zm5.001-.476a.083.083 0 0 0-.084.08v2.094c0 .045.038.081.085.081h1.238a.083.083 0 0 0 .085-.081V5.863a.083.083 0 0 0-.085-.081h-1.238Zm0-.163h1.239c.14 0 .254.11.254.244v2.093a.249.249 0 0 1-.254.243h-1.238a.249.249 0 0 1-.254-.243V5.863c0-.135.113-.244.254-.244Zm.458.373a.075.075 0 0 1-.076-.073c0-.04.034-.073.076-.073h.321c.042 0 .076.033.076.073 0 .04-.034.074-.076.074h-.321Zm.17 1.98a.166.166 0 0 1-.17-.162c0-.09.076-.162.17-.162.093 0 .169.072.169.162 0 .09-.076.162-.17.162ZM8.387 11.57a.066.066 0 1 1-.095-.091.228.228 0 0 0 .045-.068c.09-.207.041-.495-.133-.63a1.053 1.053 0 0 0-.724-.196.066.066 0 0 1-.013-.13c.305-.03.614.062.818.221.225.175.286.53.172.788a.361.361 0 0 1-.07.106Zm-.929.558a.066.066 0 1 1-.123.047c-.116-.307-.031-.588.158-.743a.52.52 0 0 1 .26-.1l.073-.01c.18-.026.22-.05.22-.145 0-.231-.24-.35-.592-.277a.77.77 0 0 0-.579.598c-.041.192-.036.408.017.647a.066.066 0 1 1-.129.029 1.646 1.646 0 0 1-.017-.704.9.9 0 0 1 .68-.699c.424-.089.752.074.752.406 0 .101-.04.174-.116.217a.563.563 0 0 1-.217.057 3.127 3.127 0 0 0-.07.011.405.405 0 0 0-.199.073c-.146.12-.213.341-.118.593Zm.255.383a.066.066 0 0 1-.096.09 1.57 1.57 0 0 1-.186-.237.066.066 0 1 1 .111-.07c.045.07.102.143.171.217Zm.54-.663a.066.066 0 0 1-.018.13c-.145-.02-.194 0-.194.04 0 .06.042.09.158.095a.066.066 0 0 1-.006.132c-.178-.007-.283-.084-.283-.227 0-.074.039-.13.109-.158a.481.481 0 0 1 .234-.012Zm-.955.578a.066.066 0 0 1-.108.075 1.233 1.233 0 0 1-.167-.353 1.054 1.054 0 0 1 .043-.695.066.066 0 1 1 .12.053.923.923 0 0 0-.037.604 1.1 1.1 0 0 0 .149.316Zm-.019-1.074a.066.066 0 0 1-.1-.085c.087-.104.264-.176.531-.223a.066.066 0 1 1 .023.13c-.24.042-.391.104-.454.178Zm1.004-1.001a.066.066 0 0 1-.07.111 1.17 1.17 0 0 0-.266-.132 1.335 1.335 0 0 0-.436-.064c-.277 0-.538.12-.735.303a.066.066 0 1 1-.09-.096 1.22 1.22 0 0 1 .825-.339c.187 0 .342.025.478.071a1.3 1.3 0 0 1 .294.146Zm-.298 2.03a.066.066 0 0 1-.075.107c-.293-.204-.405-.421-.312-.643a.352.352 0 0 1 .183-.19.9.9 0 0 1 .23-.065l.006-.001a2.55 2.55 0 0 0 .076-.016.066.066 0 1 1 .03.128l-.08.017h-.005c-.206.042-.277.076-.319.177-.063.153.018.312.266.485Zm-.739-1.883a.066.066 0 0 1 .038.126 1.053 1.053 0 0 0-.07.023.944.944 0 0 0-.309.217.884.884 0 0 0-.244.446.066.066 0 1 1-.129-.025c.038-.194.137-.368.28-.513.112-.116.247-.207.356-.248a1.19 1.19 0 0 1 .078-.026Z" />
    <path fill="#6165A0" fill-rule="evenodd"
      d="M2.048 11.47c.747.138 1.288.206 1.623.206h1.02v1.868H3.67a6.738 6.738 0 0 1-1.624-.204l.5-.876-.5-.994Z"
      clip-rule="evenodd" />
    <path fill="#292C55" fill-rule="evenodd" d="M4.685 11.7h.005v1.844h-.073l-.765-.922.833-.921Z"
      clip-rule="evenodd" />
    <path fill="#6165A0" fill-rule="evenodd"
      d="m17.905 11.47-.5.994.5.876a6.737 6.737 0 0 1-1.623.204h-1.02v-1.868h1.02c.335 0 .876-.068 1.623-.206Z"
      clip-rule="evenodd" />
    <path fill="#292C55" fill-rule="evenodd" d="m15.262 11.682.896.94-.822.922h-.074v-1.862Z"
      clip-rule="evenodd" />
    <path fill="#444884" fill-rule="evenodd"
      d="M3.84 12.622c2.054.493 4.107.74 6.16.74s4.106-.247 6.16-.74v2.071c-2.054.493-4.107.74-6.16.74s-4.106-.247-6.16-.74v-2.07Z"
      clip-rule="evenodd" />
    <path fill="#fff" fill-rule="evenodd"
      d="M6.86 14.044c.01.011.015.025.014.041a.073.073 0 0 1-.006.022l-.212.487a.052.052 0 0 1-.026.026.057.057 0 0 1-.036.005.057.057 0 0 1-.046-.038 71.01 71.01 0 0 1-.101-.322l-.136.305a.056.056 0 0 1-.05.032.054.054 0 0 1-.035-.01.048.048 0 0 1-.021-.03c-.049-.17-.097-.34-.144-.512a.068.068 0 0 1-.002-.022.055.055 0 0 1 .019-.038.052.052 0 0 1 .04-.013c.027.002.043.015.05.039.036.133.072.266.11.399l.132-.28a.051.051 0 0 1 .054-.03c.024.001.039.014.046.037l.095.291.162-.376c.01-.022.029-.033.056-.03.015 0 .027.006.037.017Zm.57.146a.18.18 0 0 0-.07.11l.347.016v-.009a.141.141 0 0 0-.05-.103.179.179 0 0 0-.112-.045.184.184 0 0 0-.116.031Zm.375.209a.057.057 0 0 1-.04.012 47.855 47.855 0 0 1-.414-.019.199.199 0 0 0 .196.196.223.223 0 0 0 .093-.012.23.23 0 0 0 .065-.039.068.068 0 0 1 .034-.009.044.044 0 0 1 .033.016c.01.01.013.02.013.033-.001.016-.01.03-.026.043a.306.306 0 0 1-.21.07.349.349 0 0 1-.168-.047.275.275 0 0 1-.106-.116.32.32 0 0 1-.031-.161.348.348 0 0 1 .05-.169.293.293 0 0 1 .112-.107.275.275 0 0 1 .282.012.294.294 0 0 1 .136.262.05.05 0 0 1-.019.035Zm.84.2a.19.19 0 0 0 .07-.077.244.244 0 0 0 .027-.108.242.242 0 0 0-.022-.11.188.188 0 0 0-.065-.078.177.177 0 0 0-.097-.03.18.18 0 0 0-.169.1.24.24 0 0 0-.027.108.243.243 0 0 0 .02.11.19.19 0 0 0 .066.08c.029.019.062.03.099.03a.17.17 0 0 0 .099-.026Zm.072-.46a.284.284 0 0 1 .099.114.349.349 0 0 1 .033.163.353.353 0 0 1-.04.162.28.28 0 0 1-.105.111.265.265 0 0 1-.259.008.265.265 0 0 1-.084-.069l-.001.034a.055.055 0 0 1-.059.054.055.055 0 0 1-.039-.017.053.053 0 0 1-.015-.04l.025-.753c0-.017.006-.03.016-.04a.053.053 0 0 1 .04-.014.053.053 0 0 1 .054.057l-.008.282a.235.235 0 0 1 .084-.07.232.232 0 0 1 .116-.026c.053.001.1.016.143.044Zm.923.473a.188.188 0 0 0 .068-.076.243.243 0 0 0 .024-.11.242.242 0 0 0-.024-.109.194.194 0 0 0-.067-.077.174.174 0 0 0-.098-.028.177.177 0 0 0-.098.027.189.189 0 0 0-.067.076.244.244 0 0 0-.026.11c0 .04.008.077.024.11a.178.178 0 0 0 .165.105c.037 0 .07-.01.099-.028Zm.183-.48c.01.01.016.024.016.04v.503a.055.055 0 0 1-.057.056.054.054 0 0 1-.04-.016.054.054 0 0 1-.015-.04v-.03a.25.25 0 0 1-.2.097.273.273 0 0 1-.248-.156.349.349 0 0 1-.035-.163c0-.06.014-.114.039-.162a.282.282 0 0 1 .102-.112.262.262 0 0 1 .142-.04.265.265 0 0 1 .2.092v-.028c0-.016.006-.03.016-.04a.052.052 0 0 1 .04-.017c.016 0 .03.005.04.016Zm.968-.002c.01.01.016.024.016.039l.007.308a.249.249 0 0 1-.064.188.263.263 0 0 1-.192.07c-.082.001-.146-.02-.191-.064a.25.25 0 0 1-.07-.186l-.003-.308a.06.06 0 0 1 .015-.04.053.053 0 0 1 .04-.016.054.054 0 0 1 .056.055l.004.308c.001.1.05.15.148.15a.161.161 0 0 0 .11-.04c.024-.027.036-.065.035-.115a309.83 309.83 0 0 0-.006-.308.055.055 0 0 1 .054-.056c.016 0 .03.005.04.015Zm.652.073.012.345c.001.039.02.057.055.056a.085.085 0 0 0 .023-.005.089.089 0 0 1 .022-.005c.01 0 .019.004.027.012a.049.049 0 0 1 .011.032c0 .016-.008.03-.027.043a.12.12 0 0 1-.063.02.403.403 0 0 1-.072-.006.106.106 0 0 1-.06-.04c-.017-.02-.027-.054-.028-.099a407.34 407.34 0 0 0-.011-.349l-.069.002a.05.05 0 0 1-.037-.013.049.049 0 0 1-.016-.036c0-.015.004-.027.014-.036a.051.051 0 0 1 .036-.015l.068-.002-.003-.098a.055.055 0 0 1 .054-.057.055.055 0 0 1 .057.054l.004.097.097-.004a.05.05 0 0 1 .053.049.047.047 0 0 1-.013.037.051.051 0 0 1-.037.015l-.097.003Zm1.1.084.019.309a.055.055 0 0 1-.054.059.054.054 0 0 1-.04-.015.054.054 0 0 1-.019-.038l-.017-.309c-.006-.1-.051-.147-.137-.143a.16.16 0 0 0-.113.05.142.142 0 0 0-.04.109l.015.308a.055.055 0 0 1-.054.058.054.054 0 0 1-.041-.013.054.054 0 0 1-.018-.04l-.035-.744a.055.055 0 0 1 .052-.058c.017 0 .03.004.041.014.011.01.017.024.018.039l.014.292a.251.251 0 0 1 .079-.08.217.217 0 0 1 .11-.038c.137-.008.21.072.22.24Zm.995-.073.025.314a.055.055 0 0 1-.052.06.054.054 0 0 1-.041-.014.054.054 0 0 1-.019-.038l-.024-.312a.172.172 0 0 0-.04-.106c-.023-.026-.059-.037-.106-.033a.18.18 0 0 0-.084.026.156.156 0 0 0-.055.059.136.136 0 0 0-.017.076l.022.313a.055.055 0 0 1-.053.06.054.054 0 0 1-.041-.014.054.054 0 0 1-.018-.039L13 14.072a.054.054 0 0 1 .013-.04.053.053 0 0 1 .038-.02.054.054 0 0 1 .042.014c.011.01.017.023.018.038l.003.04a.251.251 0 0 1 .193-.123c.14-.01.217.067.23.233Z"
      clip-rule="evenodd" />
  </g>
  <defs>
    <linearGradient id="b" x1="189.735" x2="976.892" y1="101.581" y2="915.775"
      gradientUnits="userSpaceOnUse">
      <stop stop-color="#69C294" />
      <stop offset="1" stop-color="#69B3BD" />
    </linearGradient>
    <linearGradient id="c" x1="1040.14" x2="-158.652" y1="165.587" y2="852.477"
      gradientUnits="userSpaceOnUse">
      <stop stop-color="#6091CF" />
      <stop offset="1" stop-color="#6A6BB0" />
    </linearGradient>
    <clipPath id="a">
      <path fill="#fff" d="M2 3.5h16v13.177H2z" />
    </clipPath>
  </defs>
</svg>