<svg xmlns="http://www.w3.org/2000/svg" fill="none" viewBox="0 0 20 20">
  <rect width="20" height="20" fill="#27D045" rx="4" />
  <path fill="#fff" fill-rule="evenodd"
    d="M3.989 13.452 3 17.062l3.695-.968a6.966 6.966 0 0 0 3.331.848h.003c3.842 0 6.97-3.126 6.971-6.968a6.926 6.926 0 0 0-2.04-4.93A6.928 6.928 0 0 0 10.03 3a6.98 6.98 0 0 0-6.972 6.968c0 1.228.321 2.427.931 3.484Zm.246-3.483a5.801 5.801 0 0 1 5.796-5.792c1.548 0 3.003.604 4.097 1.699a5.756 5.756 0 0 1 1.695 4.097 5.801 5.801 0 0 1-5.794 5.792h-.002c-1.04 0-2.06-.28-2.949-.807l-.212-.126-2.192.575.585-2.137-.138-.219a5.778 5.778 0 0 1-.886-3.082Z"
    clip-rule="evenodd" />
  <path fill="#fff" fill-rule="evenodd"
    d="M8.287 7.055c-.13-.29-.268-.296-.392-.301-.102-.004-.218-.004-.334-.004a.64.64 0 0 0-.464.218c-.16.174-.61.595-.61 1.452s.624 1.685.711 1.802c.087.116 1.205 1.93 2.976 2.629 1.47.58 1.77.464 2.09.435.319-.028 1.03-.42 1.175-.827.145-.407.145-.756.102-.829-.044-.072-.16-.116-.334-.203-.174-.087-1.03-.508-1.19-.566-.16-.059-.276-.088-.392.087-.116.174-.45.566-.552.682-.101.117-.203.131-.377.044-.174-.087-.735-.27-1.4-.864a5.25 5.25 0 0 1-.97-1.206c-.101-.175-.01-.269.077-.356.078-.078.174-.203.261-.305.087-.101.116-.174.174-.29.058-.116.03-.218-.014-.305s-.382-.949-.537-1.293"
    clip-rule="evenodd" />
</svg>