<svg xmlns="http://www.w3.org/2000/svg" xmlns:xlink="http://www.w3.org/1999/xlink" viewBox="0 0 20 20" version="1.1">
<rect width="20" height="20" fill="#9EE76F" rx="4" />
<path style=" stroke:none;fill-rule:nonzero;fill:rgb(9.019608%,20.784314%,0.784314%);fill-opacity:1;" d="M 5.421875 4.890625 C 8.5625 4.890625 11.699219 4.890625 14.933594 4.890625 C 14.632812 5.789062 14.632812 5.789062 14.488281 6.1875 C 14.457031 6.277344 14.421875 6.363281 14.390625 6.457031 C 14.339844 6.597656 14.339844 6.597656 14.285156 6.742188 C 14.25 6.84375 14.214844 6.941406 14.175781 7.046875 C 14.058594 7.371094 13.941406 7.691406 13.820312 8.015625 C 13.761719 8.183594 13.699219 8.351562 13.640625 8.515625 C 13.167969 9.816406 12.691406 11.117188 12.214844 12.414062 C 11.957031 13.113281 11.707031 13.8125 11.46875 14.519531 C 11.296875 15.011719 11.296875 15.011719 11.199219 15.109375 C 11.046875 15.117188 10.894531 15.121094 10.742188 15.121094 C 10.605469 15.121094 10.605469 15.121094 10.464844 15.117188 C 10.367188 15.117188 10.273438 15.117188 10.171875 15.117188 C 10.027344 15.117188 10.027344 15.117188 9.878906 15.117188 C 9.636719 15.113281 9.394531 15.113281 9.15625 15.109375 C 9.179688 15.035156 9.179688 15.035156 9.207031 14.957031 C 9.375 14.453125 9.53125 13.949219 9.683594 13.441406 C 9.765625 13.1875 9.867188 12.949219 9.972656 12.707031 C 10.117188 12.359375 10.234375 11.996094 10.355469 11.640625 C 10.648438 10.789062 10.953125 9.945312 11.261719 9.101562 C 11.300781 8.992188 11.339844 8.882812 11.382812 8.769531 C 11.640625 8.066406 11.910156 7.367188 12.179688 6.667969 C 10.917969 6.695312 9.65625 6.726562 8.355469 6.753906 C 8.75 7.414062 8.75 7.414062 9.15625 8.089844 C 9.019531 8.359375 8.90625 8.574219 8.710938 8.800781 C 8.652344 8.800781 8.59375 8.800781 8.535156 8.800781 C 8.511719 8.847656 8.492188 8.894531 8.472656 8.945312 C 8.355469 9.15625 8.355469 9.15625 7.910156 9.6875 C 8.585938 9.71875 9.261719 9.746094 9.957031 9.777344 C 9.792969 10.316406 9.621094 10.851562 9.421875 11.378906 C 7.75 11.378906 6.078125 11.378906 4.355469 11.378906 C 4.488281 11.109375 4.578125 10.953125 4.765625 10.738281 C 4.8125 10.6875 4.859375 10.632812 4.90625 10.578125 C 4.957031 10.523438 5.003906 10.46875 5.054688 10.410156 C 5.160156 10.292969 5.265625 10.171875 5.367188 10.054688 C 5.421875 9.992188 5.472656 9.933594 5.527344 9.871094 C 5.78125 9.585938 6.03125 9.296875 6.277344 9.003906 C 6.320312 8.953125 6.367188 8.902344 6.410156 8.851562 C 6.527344 8.714844 6.640625 8.582031 6.753906 8.445312 C 6.8125 8.382812 6.867188 8.324219 6.925781 8.257812 C 7.042969 8.09375 7.042969 8.09375 7 7.886719 C 6.925781 7.617188 6.820312 7.414062 6.683594 7.171875 C 6.632812 7.085938 6.582031 6.996094 6.53125 6.90625 C 6.480469 6.8125 6.425781 6.722656 6.371094 6.628906 C 6.320312 6.535156 6.269531 6.445312 6.214844 6.351562 C 5.902344 5.808594 5.902344 5.808594 5.5625 5.28125 C 5.421875 5.066406 5.421875 5.066406 5.421875 4.890625 Z M 5.421875 4.890625 "/>
</svg>

