<svg version="1.1" xmlns="http://www.w3.org/2000/svg" width="20" height="20">
<path d="M0 0 C74.25 0 148.5 0 225 0 C225 74.25 225 148.5 225 225 C150.75 225 76.5 225 0 225 C0 150.75 0 76.5 0 0 Z " fill="#9EE76F" transform="translate(0,0)"/>
<path d="M0 0 C35.31 0 70.62 0 107 0 C103.62475541 10.12573376 103.62475541 10.12573376 101.99804688 14.59448242 C101.63298538 15.59914551 101.26792389 16.60380859 100.89179993 17.63891602 C100.31114021 19.23110962 100.31114021 19.23110962 99.71875 20.85546875 C99.30856125 21.98307617 98.8983725 23.11068359 98.47575378 24.27246094 C97.15168552 27.91123916 95.82585979 31.54937422 94.5 35.1875 C93.81644822 37.0654152 93.13289673 38.9433305 92.4494772 40.82129383 C87.12874865 55.44156945 81.78848985 70.05444955 76.41064453 84.65380859 C73.52174958 92.51652512 70.71946695 100.40677289 68.0144043 108.3347168 C66.10316133 113.89683867 66.10316133 113.89683867 65 115 C63.29227642 115.08713831 61.58101351 115.10700007 59.87109375 115.09765625 C58.31938477 115.09282227 58.31938477 115.09282227 56.73632812 115.08789062 C55.64771484 115.07951172 54.55910156 115.07113281 53.4375 115.0625 C51.7987793 115.05573242 51.7987793 115.05573242 50.12695312 115.04882812 C47.41791505 115.03699826 44.70898401 115.02051543 42 115 C42.29003906 114.14075928 42.29003906 114.14075928 42.5859375 113.26416016 C44.48406153 107.61089842 46.24331958 101.92879643 47.9375 96.2109375 C48.87657536 93.37299654 49.98630342 90.68637214 51.1875 87.95214844 C52.82358438 84.02121973 54.1286812 79.96656355 55.5 75.9375 C58.78981144 66.37670638 62.20353273 56.86628403 65.6875 47.375 C66.13867188 46.14386475 66.58984375 44.91272949 67.0546875 43.64428711 C69.96531698 35.7323469 72.97270884 27.870957 76 20 C61.81 20.33 47.62 20.66 33 21 C37.455 28.425 37.455 28.425 42 36 C40.47246003 39.05507993 39.19136095 41.44341223 37 44 C36.34 44 35.68 44 35 44 C34.773125 44.53625 34.54625 45.0725 34.3125 45.625 C33 48 33 48 28 54 C35.59 54.33 43.18 54.66 51 55 C49.1826524 61.05782533 47.22069963 67.07813432 45 73 C26.19 73 7.38 73 -12 73 C-10.49214039 69.98428077 -9.50872293 68.22758243 -7.3828125 65.8203125 C-6.86380371 65.22774658 -6.34479492 64.63518066 -5.81005859 64.0246582 C-5.25398926 63.397771 -4.69791992 62.77088379 -4.125 62.125 C-2.95277364 60.78806841 -1.78090744 59.45082096 -0.609375 58.11328125 C-0.01189453 57.43346191 0.58558594 56.75364258 1.20117188 56.05322266 C4.03006285 52.82426322 6.82960695 49.57045887 9.625 46.3125 C10.12112793 45.73709473 10.61725586 45.16168945 11.12841797 44.56884766 C12.42875387 43.05426465 13.71505241 41.52765992 15 40 C15.62648438 39.31292969 16.25296875 38.62585938 16.8984375 37.91796875 C18.23211698 36.03359286 18.23211698 36.03359286 17.74389648 33.71191406 C16.92161723 30.71425147 15.74106521 28.38909371 14.19921875 25.69140625 C13.63396484 24.69689453 13.06871094 23.70238281 12.48632812 22.67773438 C11.89271484 21.64970703 11.29910156 20.62167969 10.6875 19.5625 C10.10548828 18.53833984 9.52347656 17.51417969 8.92382812 16.45898438 C5.42089994 10.32630844 5.42089994 10.32630844 1.58203125 4.40234375 C0 2 0 2 0 0 Z " fill="#173502" transform="translate(61,55)"/>
</svg>
