<svg viewBox="0 0 32 32" fill="none" xmlns="http://www.w3.org/2000/svg">
  <rect width="32" height="32" rx="4" fill="white" />
  <path
    d="M14.6907 3.42478C15.0261 3.38184 15.3644 3.36659 15.7022 3.37918C16.0983 3.40911 16.4972 3.33643 16.8933 3.39058C19.9968 3.61179 22.9098 4.96958 25.0751 7.20421C27.2405 9.43885 28.5062 12.3935 28.6301 15.5029C28.6035 15.8486 28.6011 16.1957 28.623 16.5418C28.5191 18.9773 27.7129 21.3307 26.3015 23.3181C24.8901 25.3056 22.9338 26.842 20.6688 27.7421C19.5387 28.1945 18.3482 28.4782 17.1355 28.5843C16.8876 28.5914 16.6426 28.6541 16.3947 28.6199C16.0984 28.6035 15.8015 28.6064 15.5056 28.6285C12.862 28.5242 10.3177 27.5932 8.23087 25.9666C6.14404 24.34 4.61984 22.0998 3.87284 19.5613C3.58261 18.5635 3.41375 17.5344 3.36992 16.4962C3.42976 16.0387 3.33715 15.577 3.39699 15.121C3.48639 13.7667 3.7973 12.4361 4.31735 11.1824C5.18631 9.0739 6.60921 7.2397 8.43535 5.87403C10.2615 4.50837 12.4229 3.66207 14.6907 3.42478ZM15.168 5.61925C12.6444 5.82527 10.283 6.94632 8.52791 8.77158C6.77279 10.5969 5.74485 13.0006 5.63739 15.5307C5.52994 18.0609 6.35038 20.5431 7.94442 22.5107C9.53846 24.4783 11.7963 25.7955 14.2933 26.2149C16.7903 26.6342 19.3544 26.1266 21.5035 24.7876C23.6526 23.4487 25.2386 21.3705 25.9632 18.944C26.6878 16.5175 26.5011 13.9098 25.4382 11.6113C24.3753 9.31279 22.5094 7.48188 20.1915 6.46285C18.6131 5.76853 16.8866 5.4786 15.168 5.61925ZM10.1587 9.67191C11.2985 9.65338 12.4382 9.66336 13.578 9.67191C14.3787 11.8246 15.1779 13.9782 15.9758 16.1328H16.0214C16.7727 13.9763 17.5235 11.8213 18.2739 9.66763C19.3951 9.65908 20.5164 9.65623 21.6362 9.66763C19.7527 14.2684 17.874 18.8668 16 23.4629C14.8303 23.4629 13.6592 23.4757 12.4895 23.4629C12.9901 22.3001 13.4897 21.1364 13.9883 19.9717C14.037 19.873 14.0775 19.7706 14.1094 19.6653C14.0809 19.5515 14.0413 19.4408 13.9912 19.3347C12.7146 16.1133 11.4371 12.8924 10.1587 9.67191Z"
    fill="#98C93C" />
</svg>