<svg xmlns="http://www.w3.org/2000/svg" fill="none" viewBox="0 0 20 20">
  <rect width="20" height="20" fill="#fff" rx="4" />
  <path fill="#089949"
    d="M8.91039 12.2746c-.14364 0-.28915-.0291-.42906-.0891L5.4965 10.8883c-.53353-.2311-.77418-.8442-.53726-1.36449L6.28935 6.6129c.23692-.52033.8656-.75502 1.39913-.52396l2.98482 1.29717c.5335.23106.7742.84417.5373 1.36449l-1.33014 2.9109c-.17722.3857-.56525.6131-.97007.6131Zm-.18095-.6349c.22573.0982.49063-.0018.59137-.2202l1.33009-2.91087c.1008-.22014-.0018-.47848-.2257-.57672L7.4385 6.63473c-.22572-.09824-.49063.00182-.59136.22014L5.51703 9.76578c-.10074.22014.00186.47852.22572.57672l2.98669 1.2972Z" />
  <path fill="#F9B21D"
    d="M18.2734 12.2764H15.005c-.5839 0-1.0596-.4639-1.0596-1.0333V8.05562c0-.56945.4757-1.03337 1.0596-1.03337h3.2684c.5839 0 1.0596.46392 1.0596 1.03337v3.18748c0 .5694-.4757 1.0333-1.0596 1.0333ZM15.005 7.61898c-.2462 0-.4477.19649-.4477.43664v3.18748c0 .2401.2015.4366.4477.4366h3.2684c.2463 0 .4477-.1965.4477-.4366V8.05562c0-.24015-.2014-.43664-.4477-.43664H15.005Z" />
  <path fill="#E42527"
    d="m6.03379 8.63962-.44026.9606c-.00559.01092-.01119.02002-.01679.02911l.17163 1.03337c.03918.2383-.12685.4621-.36937.5003l-3.22734.5094c-.11753.0182-.23692-.0091-.33393-.0764-.097-.0673-.16043-.1692-.17909-.2838L1.1163 8.16478c-.01866-.11462.00933-.23105.07835-.32566.06903-.0946.17349-.15646.29102-.17465l3.22734-.50941c.02425-.00364.0485-.00546.07089-.00546.21453 0 .40668.15282.44213.3675l.17349 1.04065.45518-.99517-.02425-.14008c-.09327-.56217-.638-.94605-1.21445-.85508l-3.22734.50941c-.27796.04184-.524205.18921-.68837.41298-.16603.22378-.231323.49668-.186551.76957l.522341 3.14742c.04478.2729.19588.5112.42534.6732.18095.1291.39549.1946.61748.1946.05597 0 .1138-.0036.17163-.0127l3.22734-.5094c.57645-.091.97007-.6222.87679-1.1844l-.32087-1.92848Z" />
  <path fill="#226DB4"
    d="m9.90473 10.1424.47387-1.03521-.1343-.96242c-.0168-.11462.0149-.22924.0876-.32202.0728-.09279.1773-.15283.2967-.16738l3.2385-.42936c.0205-.00182.041-.00364.0615-.00364.0971 0 .1903.03093.2705.08915.015.01091.028.02365.0411.03457.1436-.14737.332-.25289.5428-.29837-.0596-.08005-.1305-.15101-.2145-.21286-.2257-.16738-.5037-.23833-.7835-.20195l-3.2423.42936c-.2798.03639-.5298.1783-.69953.39843-.17163.22014-.24438.49122-.20707.76412l.26863 1.91758Zm5.51077.533-.4254-3.05642c-.2388.00728-.4309.20013-.4309.43482v.89693l.2518 1.80477c.0168.1146-.0149.2292-.0877.322-.0727.0928-.1772.1528-.2966.1674l-3.2385.4293c-.1175.0164-.2351-.0145-.3302-.0855-.0951-.0709-.1567-.1728-.1716-.2892l-.1493-1.0716-.4738 1.0352.0168.1164c.0373.2729.1828.5167.4085.6823.1866.1382.4086.211.6399.211.0485 0 .097-.0036.1455-.0091l3.2348-.4257c.2798-.0364.5298-.1783.6996-.3984.1716-.2202.2444-.4913.2071-.7642Z" />
  <path fill="#000"
    d="m6.27819 13.7883.46264-.6659h-.38056c-.02052 0-.03731-.0163-.03731-.0364v-.0891c0-.02.01679-.0364.03731-.0364h.62495c.02052 0 .03731.0164.03731.0364v.0346c0 .0072-.00187.0145-.0056.02l-.45332.6658h.40668c.02052 0 .03731.0164.03731.0364v.0892c0 .02-.01679.0364-.03731.0364H6.3099c-.02052 0-.03731-.0164-.03731-.0364v-.0328c-.00186-.0091.00187-.0163.0056-.0218Zm1.94761-.3748c0-.2729.20521-.4694.48503-.4694.28916 0 .48504.1929.48504.4712 0 .282-.19961.4767-.48877.4767-.29102 0-.4813-.1947-.4813-.4785Zm.74807.0037c0-.1656-.08208-.3075-.26677-.3075-.18655 0-.25744.1474-.25744.3147 0 .1583.08768.3039.26677.3039.18469-.0019.25744-.1565.25744-.3111Zm1.54843-.4585h.138c.0205 0 .0373.0164.0373.0364v.3384h.3918v-.3384c0-.02.0168-.0364.0373-.0364h.138c.0205 0 .0373.0164.0373.0364v.846c0 .02-.0168.0363-.0373.0363h-.1362c-.0205 0-.0373-.0163-.0373-.0363v-.3421h-.3917v.3421c0 .02-.0168.0363-.0373.0363h-.1381c-.0205 0-.0373-.0163-.0373-.0363v-.846c-.0019-.02.0149-.0364.0355-.0364Zm2.0688.4548c0-.2729.2052-.4694.4851-.4694.2891 0 .485.1929.485.4712 0 .282-.1996.4767-.4888.4767-.291 0-.4813-.1947-.4813-.4785Zm.7462.0037c0-.1656-.0821-.3075-.2667-.3075-.1866 0-.2575.1474-.2575.3147 0 .1583.0877.3039.2668.3039.1847-.0019.2574-.1565.2574-.3111Z" />
</svg>