<svg xmlns="http://www.w3.org/2000/svg" fill="none" viewBox="0 0 80 28">
  <rect width="56" height="28" x="12" fill="#FFEDEF" rx="5" />
  <path fill="#020F66"
    d="M21.2 19V7.8h1.344v10.128h5.216V19H21.2Zm11.6138.192c-.7467 0-1.4187-.1707-2.016-.512-.5974-.352-1.0667-.8427-1.408-1.472-.3414-.64-.512-1.3813-.512-2.224 0-.864.1706-1.6107.512-2.24.352-.64.8266-1.1307 1.424-1.472.608-.352 1.2853-.528 2.032-.528.768 0 1.4453.176 2.032.528.5973.3413 1.0666.832 1.408 1.472.352.6293.528 1.3707.528 2.224 0 .8533-.176 1.6-.528 2.24-.352.6293-.8267 1.12-1.424 1.472-.5974.3413-1.28.512-2.048.512Zm.016-1.152c.4586 0 .8853-.112 1.28-.336.3946-.2347.7146-.5813.96-1.04.2453-.4587.368-1.024.368-1.696 0-.6827-.1227-1.248-.368-1.696-.2347-.4587-.5494-.8-.944-1.024-.384-.2347-.8107-.352-1.28-.352-.448 0-.8747.1173-1.28.352-.3947.224-.7147.5653-.96 1.024-.2347.448-.352 1.0133-.352 1.696 0 .672.1173 1.2373.352 1.696.2453.4587.56.8053.944 1.04.3946.224.8213.336 1.28.336Zm8.7086 4.672c-.7254 0-1.3707-.096-1.936-.288-.5547-.1813-.9867-.464-1.296-.848-.3094-.384-.464-.8587-.464-1.424 0-.2453.048-.5067.144-.784.1066-.2773.2826-.5493.528-.816.256-.2667.6133-.5067 1.072-.72l.928.544c-.5654.2347-.9334.5013-1.104.8-.1707.3093-.256.592-.256.848 0 .352.1013.6453.304.88.2026.2347.4853.4107.848.528.3626.1173.7733.176 1.232.176.4586 0 .8533-.0693 1.184-.208.3306-.128.5866-.3093.768-.544.1813-.224.272-.496.272-.816 0-.3733-.1387-.688-.416-.944-.2774-.2453-.8054-.3893-1.584-.432-.6294-.0427-1.1574-.1013-1.584-.176-.4267-.0747-.7787-.16-1.056-.256-.2774-.1067-.512-.224-.704-.352-.1814-.128-.3467-.2613-.496-.4v-.368l1.552-1.536 1.168.416-1.6 1.44.208-.56c.1173.0853.2293.1653.336.24.1066.0747.2506.1387.432.192.1813.0533.432.1013.752.144.3306.0427.7626.0853 1.296.128.736.0533 1.3226.1813 1.76.384.448.2027.768.4747.96.816.2026.3413.304.7467.304 1.216 0 .4587-.128.8907-.384 1.296-.2454.416-.6294.7573-1.152 1.024-.5227.2667-1.1947.4-2.016.4Zm-.016-6.24c-.672 0-1.248-.128-1.728-.384-.4694-.256-.8267-.5973-1.072-1.024-.2454-.4373-.368-.9227-.368-1.456s.1226-1.0133.368-1.44c.256-.4267.6186-.768 1.088-1.024.4693-.2667 1.04-.4 1.712-.4.672 0 1.2426.1333 1.712.4.4693.256.8266.5973 1.072 1.024.2453.4267.368.9067.368 1.44s-.1227 1.0187-.368 1.456c-.2454.4267-.6027.768-1.072 1.024-.4694.256-1.04.384-1.712.384Zm0-1.104c.576 0 1.0293-.1493 1.36-.448.3306-.2987.496-.736.496-1.312 0-.5653-.1654-.9973-.496-1.296-.3307-.2987-.784-.448-1.36-.448-.5654 0-1.024.1493-1.376.448-.3414.2987-.512.7307-.512 1.296 0 .576.1706 1.0133.512 1.312.3413.2987.8.448 1.376.448Zm1.312-3.296-.4-1.136h3.296v1.008l-2.896.128ZM47.4043 19v-8.064h1.344V19h-1.344Zm.672-9.776c-.2667 0-.4907-.08533-.672-.256-.1707-.18133-.256-.40533-.256-.672s.0853-.48.256-.64c.1813-.17067.4053-.256.672-.256.256 0 .4746.08533.656.256.1813.16.272.37333.272.64s-.0907.49067-.272.672c-.1814.17067-.4.256-.656.256ZM51.12 19v-8.064h1.216l.064 1.408c.256-.5013.6187-.8907 1.088-1.168.48-.288 1.024-.432 1.632-.432.6293 0 1.1733.128 1.632.384.4587.2453.816.624 1.072 1.136.256.5013.384 1.1413.384 1.92V19h-1.344v-4.672c0-.8107-.1813-1.4187-.544-1.824-.352-.4053-.8533-.608-1.504-.608-.448 0-.848.112-1.2.336-.352.2133-.6347.528-.848.944-.2027.4053-.304.912-.304 1.52V19H51.12Z" />
</svg>